<svg width="40" height="40" viewBox="0 0 40 40" fill="none" xmlns="http://www.w3.org/2000/svg">
<path id="ring" d="M20 40C8.97666 40 -1.14632e-09 31.0425 -7.38546e-10 20C-3.30778e-10 8.95753 8.97666 3.31484e-10 20 7.38546e-10C31.0233 1.14561e-09 40 8.95753 40 20C40 31.0425 31.0233 40 20 40ZM20 2.08494C10.0898 2.08494 2.04668 10.1158 2.04668 20C2.04668 29.8842 10.0898 37.9151 20 37.9151C29.9102 37.9151 37.9533 29.8842 37.9533 20C37.9533 10.1158 29.8743 2.08494 20 2.08494Z" fill="#F04E50"/>
</svg>
