<?xml version="1.0" encoding="utf-8"?>
<!-- Generator: Adobe Illustrator 19.0.0, SVG Export Plug-In . SVG Version: 6.00 Build 0)  -->
<svg version="1.1" id="illustration" xmlns="http://www.w3.org/2000/svg" xmlns:xlink="http://www.w3.org/1999/xlink" x="0px"
	 y="0px" viewBox="0 0 800 400" style="enable-background:new 0 0 800 400;" xml:space="preserve">
<style type="text/css">
	.st0{fill:#FFFFFF;}
	.st1{clip-path:url(#SVGID_2_);}
	.st2{fill:#F8F0FB;}
	.st3{fill:#D4CDFA;}
	.st4{fill:#F5E8F9;}
	.st5{fill:#FF4A9A;}
	.st6{fill:#FF1D9C;}
	.st7{fill:#A74AFF;}
	.st8{fill:#839FFF;}
	.st9{fill:url(#SVGID_3_);}
	.st10{fill:url(#SVGID_4_);}
	.st11{fill:url(#SVGID_5_);}
	.st12{fill:url(#SVGID_6_);}
	.st13{fill:#C69CE5;}
	.st14{fill:#DCB0EA;}
	.st15{fill:#6877FF;}
	.st16{fill:url(#SVGID_7_);}
	.st17{fill:url(#SVGID_8_);}
	.st18{fill:url(#SVGID_9_);}
	.st19{fill:url(#SVGID_10_);}
	.st20{opacity:0.62;fill:url(#SVGID_11_);}
	.st21{fill:url(#SVGID_12_);}
	.st22{fill:#ED39AC;}
	.st23{fill:url(#SVGID_13_);}
	.st24{opacity:0.83;fill:url(#SVGID_14_);}
	.st25{fill:url(#SVGID_15_);}
	.st26{opacity:0.62;fill:url(#SVGID_16_);}
	.st27{fill:url(#SVGID_17_);}
	.st28{fill:url(#SVGID_18_);}
	.st29{opacity:0.62;fill:url(#SVGID_19_);}
	.st30{fill:url(#SVGID_20_);}
	.st31{fill:url(#SVGID_21_);}
	.st32{fill:url(#SVGID_22_);}
	.st33{fill:url(#SVGID_23_);}
	.st34{opacity:0.83;fill:url(#SVGID_24_);}
	.st35{fill:url(#SVGID_25_);}
	.st36{fill:url(#SVGID_26_);}
	.st37{fill:url(#SVGID_27_);}
	.st38{fill:url(#SVGID_28_);}
	.st39{fill:url(#SVGID_29_);}
	.st40{fill:#E87A8D;}
	.st41{fill:url(#SVGID_30_);}
	.st42{opacity:0.62;fill:url(#SVGID_31_);}
	.st43{fill:url(#SVGID_32_);}
	.st44{fill:url(#SVGID_33_);}
	.st45{fill:url(#SVGID_34_);}
	.st46{fill:url(#SVGID_35_);}
	.st47{fill:#77485E;}
	.st48{fill:url(#SVGID_36_);}
	.st49{fill:url(#SVGID_37_);}
	.st50{fill:url(#SVGID_38_);}
	.st51{fill:url(#SVGID_39_);}
	.st52{fill:url(#SVGID_40_);}
	.st53{fill:url(#SVGID_41_);}
	.st54{fill:url(#SVGID_42_);}
	.st55{fill:url(#SVGID_43_);}
	.st56{fill:url(#SVGID_44_);}
	.st57{fill:#E37E7F;}
	.st58{fill:url(#SVGID_45_);}
	.st59{fill:url(#SVGID_46_);}
	.st60{fill:#9F4A8B;}
	.st61{fill:url(#SVGID_47_);}
	.st62{fill:url(#SVGID_48_);}
	.st63{fill:url(#SVGID_49_);}
	.st64{fill:url(#SVGID_50_);}
	.st65{fill:url(#SVGID_51_);}
	.st66{fill:url(#SVGID_52_);}
	.st67{fill:url(#SVGID_53_);}
	.st68{fill:url(#SVGID_54_);}
	.st69{fill:url(#SVGID_55_);}
	.st70{fill:url(#SVGID_56_);}
	.st71{fill:url(#SVGID_57_);}
	.st72{fill:url(#SVGID_58_);}
	.st73{fill:url(#SVGID_59_);}
	.st74{opacity:0.62;fill:url(#SVGID_60_);}
	.st75{opacity:0.62;fill:url(#SVGID_61_);}
	.st76{opacity:0.62;fill:url(#SVGID_62_);}
	.st77{opacity:0.62;fill:url(#SVGID_63_);}
	.st78{opacity:0.62;fill:url(#SVGID_64_);}
	.st79{opacity:0.5;fill:url(#SVGID_65_);}
	.st80{opacity:0.62;fill:url(#SVGID_66_);}
	.st81{opacity:0.62;fill:url(#SVGID_67_);}
	.st82{opacity:0.62;fill:url(#SVGID_68_);}
	.st83{opacity:0.62;fill:url(#SVGID_69_);}
	.st84{opacity:0.62;fill:url(#SVGID_70_);}
	.st85{fill:url(#SVGID_71_);}
	.st86{fill:url(#SVGID_72_);}
	.st87{opacity:0.83;fill:url(#SVGID_73_);}
	.st88{fill:url(#SVGID_74_);}
	.st89{fill:url(#SVGID_75_);}
	.st90{opacity:0.5;fill:url(#SVGID_76_);}
	.st91{opacity:0.62;fill:url(#SVGID_77_);}
	.st92{opacity:0.62;fill:url(#SVGID_78_);}
	.st93{fill:url(#SVGID_79_);}
	.st94{fill:url(#SVGID_80_);}
	.st95{opacity:0.84;fill:url(#SVGID_81_);}
	.st96{opacity:0.84;fill:url(#SVGID_82_);}
	.st97{opacity:0.84;fill:url(#SVGID_83_);}
	.st98{opacity:0.62;fill:url(#SVGID_84_);}
	.st99{fill:url(#SVGID_85_);}
	.st100{fill:url(#SVGID_86_);}
	.st101{fill:url(#SVGID_87_);}
	.st102{fill:url(#SVGID_88_);}
	.st103{fill:url(#SVGID_89_);}
	.st104{fill:url(#SVGID_90_);}
	.st105{fill:url(#SVGID_91_);}
	.st106{fill:#D7E2FF;}
	.st107{fill:#D7D9FF;}
	.st108{fill:url(#SVGID_92_);}
	.st109{fill:url(#SVGID_93_);}
	.st110{fill:url(#SVGID_94_);}
	.st111{opacity:0.86;fill:url(#SVGID_95_);}
	.st112{fill:url(#SVGID_96_);}
	.st113{fill:url(#SVGID_97_);}
	.st114{fill:url(#SVGID_98_);}
	.st115{fill:url(#SVGID_99_);}
	.st116{fill:#FF97ED;}
	.st117{fill:url(#SVGID_100_);}
	.st118{fill:url(#SVGID_101_);}
	.st119{opacity:0.62;fill:url(#SVGID_102_);}
	.st120{opacity:0.62;fill:url(#SVGID_103_);}
	.st121{fill:url(#SVGID_104_);}
	.st122{opacity:0.62;fill:url(#SVGID_105_);}
	.st123{fill:url(#SVGID_106_);}
	.st124{fill:url(#SVGID_107_);}
	.st125{fill:url(#SVGID_108_);}
	.st126{fill:url(#SVGID_109_);}
	.st127{fill:url(#SVGID_110_);}
	.st128{fill:url(#SVGID_111_);}
	.st129{fill:url(#SVGID_112_);}
	.st130{fill:url(#SVGID_113_);}
	.st131{fill:#FFACFF;}
	.st132{opacity:0.62;fill:url(#SVGID_114_);}
	.st133{fill:url(#SVGID_115_);}
	.st134{fill:url(#SVGID_116_);}
	.st135{fill:url(#SVGID_117_);}
	.st136{fill:url(#SVGID_118_);}
	.st137{fill:url(#SVGID_119_);}
	.st138{opacity:0.62;fill:url(#SVGID_120_);}
	.st139{fill:url(#SVGID_121_);}
	.st140{fill:url(#SVGID_122_);}
	.st141{fill:url(#SVGID_123_);}
	.st142{fill:url(#SVGID_124_);}
	.st143{fill:url(#SVGID_125_);}
	.st144{fill:url(#SVGID_126_);}
	.st145{fill:url(#SVGID_127_);}
	.st146{fill:url(#SVGID_128_);}
	.st147{fill:url(#SVGID_129_);}
	.st148{fill:url(#SVGID_130_);}
	.st149{fill:url(#SVGID_131_);}
	.st150{fill:url(#SVGID_132_);}
	.st151{fill:#9F3E8B;}
	.st152{fill:url(#SVGID_133_);}
	.st153{fill:#FFEBED;}
	.st154{fill:#FF9AAB;}
	.st155{opacity:0.62;fill:url(#SVGID_134_);}
	.st156{fill:url(#SVGID_135_);}
	.st157{fill:url(#SVGID_136_);}
	.st158{fill:url(#SVGID_137_);}
	.st159{fill:url(#SVGID_138_);}
	.st160{opacity:0.62;fill:url(#SVGID_139_);}
	.st161{opacity:0.62;fill:url(#SVGID_140_);}
	.st162{opacity:0.62;fill:url(#SVGID_141_);}
	.st163{opacity:0.5;fill:url(#SVGID_142_);}
	.st164{fill:url(#SVGID_143_);}
	.st165{fill:url(#SVGID_144_);}
	.st166{opacity:0.3;fill:url(#SVGID_145_);}
</style>
<rect class="st0" width="800" height="400"/>
<g>
	<g>
		<defs>
			<rect id="SVGID_1_" width="800" height="400"/>
		</defs>
		<clipPath id="SVGID_2_">
			<use xlink:href="#SVGID_1_"  style="overflow:visible;"/>
		</clipPath>
		<g class="st1">
			<circle class="st2" cx="558.9" cy="269.2" r="109.4"/>
			<circle class="st2" cx="175.9" cy="29.2" r="117.9"/>
			<g>
				<path class="st3" d="M418.2,201.3c-18.9,0-34.4-15.4-34.4-34.4s15.4-34.4,34.4-34.4c18.9,0,34.4,15.4,34.4,34.4
					S437.2,201.3,418.2,201.3z M418.2,133c-18.7,0-33.9,15.2-33.9,33.9s15.2,33.9,33.9,33.9c18.7,0,33.9-15.2,33.9-33.9
					S436.9,133,418.2,133z"/>
			</g>
			<circle class="st2" cx="265.1" cy="278.7" r="64"/>
			<circle class="st4" cx="502.3" cy="162" r="5.6"/>
			<circle class="st5" cx="704.5" cy="314.8" r="3.5"/>
			<circle class="st6" cx="539.9" cy="291.8" r="2.6"/>
			<circle class="st7" cx="599.4" cy="134.3" r="2.5"/>
			<circle class="st8" cx="196.7" cy="248" r="1.8"/>
			<circle class="st8" cx="678.4" cy="229.4" r="1.8"/>
			<circle class="st7" cx="457.8" cy="360" r="1.8"/>
			<g>
				<path class="st3" d="M171.1,334c-4.4,0-7.9-3.5-7.9-7.9s3.5-7.9,7.9-7.9s7.9,3.5,7.9,7.9S175.5,334,171.1,334z M171.1,318.7
					c-4.1,0-7.4,3.3-7.4,7.4s3.3,7.4,7.4,7.4c4.1,0,7.4-3.3,7.4-7.4S175.2,318.7,171.1,318.7z"/>
			</g>
			<g>
				<path class="st3" d="M614.6,132c-3.8,0-6.9-3.1-6.9-6.9c0-3.8,3.1-6.9,6.9-6.9c3.8,0,6.9,3.1,6.9,6.9
					C621.5,129,618.4,132,614.6,132z M614.6,118.8c-3.5,0-6.4,2.9-6.4,6.4c0,3.5,2.9,6.4,6.4,6.4c3.5,0,6.4-2.9,6.4-6.4
					C621,121.7,618.1,118.8,614.6,118.8z"/>
			</g>
			<g>
				<linearGradient id="SVGID_3_" gradientUnits="userSpaceOnUse" x1="387.7081" y1="76.4601" x2="387.7081" y2="65.1865">
					<stop  offset="0" style="stop-color:#D470FF"/>
					<stop  offset="1" style="stop-color:#CF95FF"/>
				</linearGradient>
				<circle class="st9" cx="387.7" cy="70.8" r="5.6"/>
				<linearGradient id="SVGID_4_" gradientUnits="userSpaceOnUse" x1="348.866" y1="124.9119" x2="348.866" y2="118.3417">
					<stop  offset="0" style="stop-color:#7C45B2"/>
					<stop  offset="1" style="stop-color:#9677CC"/>
				</linearGradient>
				<circle class="st10" cx="348.9" cy="121.6" r="3.3"/>
				<g>
					<linearGradient id="SVGID_5_" gradientUnits="userSpaceOnUse" x1="374.438" y1="136.6246" x2="374.438" y2="81.3238">
						<stop  offset="0" style="stop-color:#7C45B2"/>
						<stop  offset="1" style="stop-color:#9677CC"/>
					</linearGradient>
					<path class="st11" d="M361.6,81.3c0,0-4.4,2.2-7.1,7.7c-1.9,3.8-1.8,10.1-1.8,10.1s0,21.4,11.4,37.4l0,0l2.5-4.1l26.5-1l3-3.8
						L361.6,81.3z"/>
					<linearGradient id="SVGID_6_" gradientUnits="userSpaceOnUse" x1="377.0823" y1="136.6246" x2="377.0823" y2="76.5511">
						<stop  offset="0" style="stop-color:#9570FF"/>
						<stop  offset="1" style="stop-color:#CF95FF"/>
					</linearGradient>
					<path class="st12" d="M364.1,136.6c0,0-8.2-24.8-7.6-49.5c0,0,4.8-8.7,14.9-10.2c9.2-1.4,18.6,2,22.6,9.2c0,0,3.1,4.6,3.6,18.1
						c0.6,15.4-1.4,23.6-1.4,23.6s-15.5,6.5-27.1,0.8L364.1,136.6z"/>
					<g>
						<path class="st0" d="M366.3,100.9c0,1,0,2.1,0,3.1c0,1,0.1,2,0.1,3.1c0.1,0,0.3,0,0.4,0c0.1,0,0.3,0,0.4,0c0.2,0,0.3,0,0.5,0
							c0.2,0,0.4,0,0.5-0.1c0-0.2,0-0.5,0-0.7c0-0.2,0-0.5,0-0.7c0-0.8-0.1-1.6-0.2-2.4c-0.1-0.8-0.1-1.6-0.2-2.4l1.9-0.1
							c0,1.3,0,2.5,0,3.8c0,1.2,0.1,2.5,0.1,3.8c0,0.6,0.1,1.2,0.1,1.8c0.1,0.6,0.1,1.2,0.2,1.8l-1.8,0.1c0-0.6,0-1.2,0-1.9
							c0-0.6,0-1.2,0-1.9c-0.3,0-0.6,0-0.9,0c-0.3,0-0.6,0-0.9,0l-0.1,0l0.1,1.6c0,0.4,0,0.7,0.1,1.1c0,0.4,0,0.7,0.1,1.1l-1.8,0.1
							c0-0.8,0-1.5-0.1-2.2c0-0.7-0.1-1.5-0.1-2.2c-0.1-2.3-0.3-4.5-0.5-6.8L366.3,100.9z"/>
						<path class="st0" d="M374.3,107.6c-0.2,0-0.3,0-0.5,0c-0.2,0-0.3,0-0.5,0c-0.1,0-0.2,0-0.3,0c-0.1,0-0.2,0-0.3,0l0.1,2.8
							c0.4,0,0.8-0.1,1.2-0.1c0.4-0.1,0.8-0.1,1.3-0.2l0.1,1.6c-0.3,0-0.6,0-0.9,0c-0.3,0-0.5,0-0.8,0c-0.4,0-0.8,0.1-1.2,0.1
							c-0.4,0-0.8,0.1-1.2,0.1c0-1,0-1.9-0.1-2.9c0-1-0.1-1.9-0.1-2.9c-0.1-0.9-0.1-1.9-0.2-2.8c-0.1-0.9-0.2-1.8-0.3-2.8
							c0.6,0,1.2,0,1.8,0c0.4,0,0.7-0.1,1.1-0.1c0.4,0,0.7-0.1,1.1-0.1l0.1,1.8c-0.3,0-0.7-0.1-1-0.1c-0.3,0-0.6,0-0.9,0l-0.3,0
							c0,0.7,0,1.3,0,2c0,0.6,0,1.3,0.1,2c0.1,0,0.3,0,0.4,0c0.1,0,0.3,0,0.4,0c0.1,0,0.2,0,0.4,0c0.1,0,0.3,0,0.4,0L374.3,107.6z"
							/>
						<path class="st0" d="M380.3,111.4c-0.3,0-0.6,0-0.9,0c-0.3,0-0.5,0-0.8,0c-0.4,0-0.8,0.1-1.2,0.1c-0.4,0-0.8,0.1-1.2,0.1
							c0-1,0-1.9-0.1-2.9c0-1-0.1-1.9-0.1-2.9c-0.1-0.9-0.1-1.9-0.2-2.8c-0.1-0.9-0.2-1.8-0.3-2.8c0.1,0,0.1,0,0.2,0
							c0.1,0,0.1,0,0.2,0c0.1,0,0.2,0,0.3,0c0.2,0,0.3,0,0.5,0c0.2,0,0.4,0,0.6-0.1c0,0.8,0,1.6,0,2.4c0,0.8,0.1,1.7,0.1,2.5
							c0,0.9,0.1,1.7,0.1,2.5c0,0.8,0.1,1.7,0.1,2.4c0.4,0,0.8-0.1,1.2-0.1c0.4-0.1,0.8-0.1,1.3-0.2L380.3,111.4z"/>
						<path class="st0" d="M385.1,111.1c-0.3,0-0.6,0-0.9,0c-0.3,0-0.5,0-0.8,0c-0.4,0-0.8,0.1-1.2,0.1c-0.4,0-0.8,0.1-1.2,0.1
							c0-1,0-1.9-0.1-2.9c0-1-0.1-1.9-0.1-2.9c-0.1-0.9-0.1-1.9-0.2-2.8c-0.1-0.9-0.2-1.8-0.3-2.8c0.1,0,0.1,0,0.2,0
							c0.1,0,0.1,0,0.2,0c0.1,0,0.2,0,0.3,0c0.2,0,0.3,0,0.5,0c0.2,0,0.4,0,0.6-0.1c0,0.8,0,1.6,0,2.4c0,0.8,0.1,1.7,0.1,2.5
							c0,0.9,0.1,1.7,0.1,2.5c0,0.8,0.1,1.7,0.1,2.4c0.4,0,0.8-0.1,1.2-0.1c0.4-0.1,0.8-0.1,1.3-0.2L385.1,111.1z"/>
						<path class="st0" d="M390.7,105.3c0.1,1.1,0,1.9-0.1,2.7c-0.1,0.7-0.3,1.3-0.5,1.8c-0.2,0.5-0.5,0.8-0.8,1
							c-0.3,0.2-0.7,0.4-1.1,0.4c-0.4,0-0.7-0.1-1.1-0.2c-0.3-0.2-0.7-0.5-0.9-0.9c-0.3-0.4-0.5-1-0.7-1.7c-0.2-0.7-0.3-1.6-0.4-2.7
							c-0.1-1.1,0-2,0.1-2.8c0.1-0.8,0.3-1.4,0.5-1.9c0.2-0.5,0.5-0.8,0.8-1.1c0.3-0.2,0.7-0.4,1.1-0.4c0.4,0,0.7,0.1,1.1,0.2
							c0.3,0.2,0.7,0.5,0.9,1c0.3,0.5,0.5,1.1,0.7,1.8C390.5,103.3,390.6,104.2,390.7,105.3z M388.9,105.4c0-0.8-0.1-1.5-0.2-2.1
							c-0.1-0.6-0.2-1-0.3-1.4c-0.1-0.3-0.2-0.6-0.4-0.7c-0.1-0.1-0.3-0.2-0.4-0.2c-0.1,0-0.3,0.1-0.4,0.3c-0.1,0.2-0.2,0.4-0.3,0.8
							c-0.1,0.4-0.1,0.8-0.1,1.4c0,0.6,0,1.3,0,2.1c0,0.8,0.1,1.5,0.2,2c0.1,0.5,0.2,1,0.3,1.3c0.1,0.3,0.2,0.6,0.4,0.7
							c0.1,0.1,0.3,0.2,0.4,0.2c0.1,0,0.3-0.1,0.4-0.2c0.1-0.2,0.2-0.4,0.3-0.7c0.1-0.3,0.1-0.8,0.1-1.3
							C389,106.8,389,106.2,388.9,105.4z"/>
					</g>
					<path class="st13" d="M356.5,87.1c0,0,0,24.8,7.6,49.5C364.1,136.6,353.3,110,356.5,87.1z"/>
					<path class="st14" d="M356.5,86.6c0,0,17.6-19,35.8,0.5c7.5,8,3.8,40.7,3.8,40.7s4.8-26.5-2.2-41.7c0,0-3-6.2-10.9-8.4
						C373.8,75.1,364.4,76.4,356.5,86.6z"/>
				</g>
			</g>
			<polygon class="st15" points="321.8,64 327.8,70.7 330.2,67.9 324.5,61.6 			"/>
			<polygon class="st15" points="675.6,251.2 689.3,242.2 691.1,248.2 680.1,255.4 			"/>
			<polygon class="st6" points="384.4,247.6 396.2,254.4 393.7,258.5 382.6,251.1 			"/>
			<polygon class="st6" points="179.6,58.3 191.1,51.2 193.6,55.3 181.9,61.6 			"/>
			<polygon class="st7" points="172.4,353.8 184,344.7 186.8,348.6 176.2,357.1 			"/>
			<g>
				<g>
					<path class="st3" d="M439,74.1l-0.2,0l-30.6-5.3l0-0.2c2.4-17.2,10.8-29.4,10.9-29.5l0.1-0.1l0.1,0c20.7-1.3,32.7,6,32.8,6.1
						l0.1,0.1l0,0.2c-2.1,11-13.1,28.5-13.2,28.7L439,74.1z M408.8,68.3l30,5.2c1-1.7,11-17.8,13-28.2c-1.4-0.8-13-7.1-32.3-6
						C418.7,40.6,411.1,52.2,408.8,68.3z"/>
				</g>
				<g>
					<path class="st3" d="M420.9,52.7c-0.4,0-0.8-0.1-1.2-0.2c-0.9-0.4-1.7-1.1-2-2.2c-0.4-1-0.3-2.2,0.1-3.3c0.4-1.1,1.2-2,2.1-2.5
						c1-0.5,2-0.6,3-0.3c0.9,0.4,1.7,1.1,2,2.2c0.4,1,0.3,2.2-0.1,3.3C424.1,51.6,422.5,52.7,420.9,52.7z M421.7,44.6
						c-0.5,0-1,0.1-1.5,0.4c-0.8,0.5-1.5,1.3-1.9,2.2c-0.4,1-0.4,2-0.1,2.9c0.3,0.9,0.9,1.6,1.7,1.9c1.7,0.6,3.7-0.5,4.4-2.5
						c0.4-1,0.4-2,0.1-2.9c-0.3-0.9-0.9-1.6-1.7-1.9C422.3,44.7,422,44.6,421.7,44.6z"/>
				</g>
				<g>
					<path class="st3" d="M440.8,64.4c-0.3,0-0.5,0-0.7-0.1c-0.5-0.2-0.5-1.1-0.5-2.9c0-3.3-0.1-8.9-4.6-9.7
						c-4.1-0.7-10.5,4.1-15.3,7.6c-3.4,2.5-5.4,3.9-6.3,3.8c-2.6-0.4-3.3-3.6-3.3-3.7l0.5-0.1c0,0,0.6,3,2.9,3.3
						c0.8,0.1,3.3-1.7,5.9-3.7c4.8-3.6,11.4-8.4,15.6-7.7c4.9,0.8,5,6.7,5,10.2c0,1,0,2.2,0.2,2.4c0.9,0.3,3.6-0.6,4.5-0.9l0.2,0.5
						C444.7,63.5,442.3,64.4,440.8,64.4z"/>
				</g>
			</g>
			<g>
				<g>
					<path class="st3" d="M601.9,100.6l-0.1-0.1l-19-25l0-0.1c0.9-3.7,4.5-8.2,4.7-8.3l0-0.1l0.1,0c0.1,0,13.5-4.6,26.8-5.7l0.1,0
						l0.1,0.1c0.1,0.1,13.1,14.8,19.9,26.4l0.2,0.3l-24.7,4.6c-0.4,0.2-4.2,2.5-7.5,7.4l25.8-5.7l0.1,0.5L601.9,100.6z M583.4,75.3
						L602,99.9c3.6-5.4,7.8-7.8,7.9-7.8l0.1,0l24-4.5c-6.6-11-18.5-24.6-19.6-25.9c-12.7,1.1-25.4,5.3-26.5,5.6
						C587.4,67.8,584.2,71.9,583.4,75.3z"/>
				</g>
				<g>
					<path class="st3" d="M609.1,92.9c-6-6.7-21.4-25.4-21.6-25.6l0.4-0.3c0.2,0.2,15.6,18.9,21.6,25.6L609.1,92.9z"/>
				</g>
				<g>
					<path class="st3" d="M625.5,95.3l-0.5-0.2c1.4-4.3,6.7-7,7-7.2l0.2,0.4C632.1,88.4,626.8,91.2,625.5,95.3z"/>
				</g>
			</g>
			<g>
				<g>
					<path class="st3" d="M143.9,311.2l-0.2,0l-33.7-7.4l0.1-0.5l33.1,7.3c-4.3-6.4-9.3-9.3-9.7-9.6l-31.4-5.9l0.2-0.3
						c8.7-14.7,25.3-33.5,25.4-33.7l0.1-0.1l0.1,0c16.9,1.4,34,7.2,34.2,7.3l0.1,0l0,0.1c0.2,0.2,4.9,5.9,6,10.6l0,0.1l-0.1,0.1
						L143.9,311.2z M103,294.8l30.8,5.8c0.1,0,5.5,3,10.1,10l23.9-31.5c-1.1-4.3-5.3-9.7-5.8-10.3c-1.2-0.4-17.6-5.8-33.9-7.2
						C126.8,263,111.4,280.7,103,294.8z"/>
				</g>
				<g>
					<path class="st3" d="M134.7,301.5l-0.4-0.3c7.7-8.6,27.4-32.5,27.6-32.7l0.4,0.3C162.1,269,142.4,292.9,134.7,301.5z"/>
				</g>
				<g>
					<path class="st3" d="M113.9,304.5c-1.7-5.2-8.5-8.8-8.6-8.8l0.2-0.4c0.3,0.1,7.1,3.7,8.9,9.1L113.9,304.5z"/>
				</g>
				<g>
					<path class="st3" d="M159,290.7c-2.7-7.2-7.8-8.9-7.8-8.9l0.1-0.5c0.2,0.1,5.4,1.7,8.1,9.2L159,290.7z"/>
				</g>
				<g>
					<path class="st3" d="M164.7,283.3c-1.5-6.5-6.7-9.6-6.7-9.6l0.3-0.4c0.1,0,5.4,3.2,7,9.9L164.7,283.3z"/>
				</g>
			</g>
			<g>
				<g>
					<path class="st3" d="M408.4,345.7l-0.1-0.2c-0.1-0.2-9.4-21.6-10.8-44.6l0-0.2l0.2,0c0.3-0.1,27.7-6.3,48.4-9.1l0.2,0l0,0.2
						c0.1,0.3,7.8,30.4,7.8,45.1v0.2l-0.2,0L408.4,345.7z M398,301.1c1.4,21.8,9.8,42.1,10.6,44.1l45-8.6c-0.1-14.1-7-42-7.7-44.6
						C426.2,294.7,400.4,300.5,398,301.1z"/>
				</g>
				<g>
					<g>
						<path class="st3" d="M416.1,328.5l-0.6-3.1l0.2,0c0.2,0,0.4,0,0.5-0.1c0.1,0,0.2,0,0.3,0c-0.2-1.2-0.4-2.3-0.6-3.5
							c-0.2-1.2-0.4-2.5-0.7-3.7c-0.2-0.8-0.3-1.6-0.5-2.4l-0.5-2.2c-0.1,0-0.3,0.1-0.4,0.1c-0.2,0.1-0.4,0.1-0.6,0.2l-0.2,0.1
							l-0.6-3l0.2,0c0.6-0.1,1.2-0.2,1.9-0.3c0.6-0.1,1.2-0.2,1.9-0.3l0.7-0.1c0.2,0,0.4-0.1,0.7-0.2l0.2-0.1l0.5,2.9l-0.2,0
							c-0.2,0-0.4,0.1-0.6,0.1c-0.1,0-0.2,0-0.3,0.1c0.2,1.4,0.4,2.8,0.6,4.1c0.2,1.4,0.5,2.9,0.8,4.3c0.2,1.2,0.5,2.4,0.8,3.5
							c0.2,0,0.4-0.1,0.6-0.1c0.3-0.1,0.5-0.1,0.8-0.2l0.2-0.1l0.4,2.9l-0.2,0c-0.3,0-0.6,0.1-1,0.2c-0.3,0.1-0.6,0.1-1,0.2
							c-0.5,0.1-1,0.2-1.6,0.3c-0.5,0.1-1,0.3-1.6,0.4L416.1,328.5z M416.1,325.9l0.4,2.1c0.4-0.1,0.9-0.2,1.3-0.3
							c0.5-0.1,1.1-0.2,1.6-0.3c0.3-0.1,0.6-0.1,1-0.2c0.3,0,0.5-0.1,0.8-0.1l-0.3-1.9c-0.2,0-0.4,0.1-0.6,0.1
							c-0.3,0.1-0.5,0.1-0.8,0.2l-0.2,0l0-0.2c-0.3-1.3-0.6-2.5-0.8-3.8c-0.3-1.4-0.5-2.9-0.8-4.3c-0.2-1.4-0.4-2.9-0.6-4.3l0-0.2
							l0.2,0c0.2,0,0.4-0.1,0.6-0.1c0.1,0,0.2,0,0.3-0.1l-0.3-1.9c-0.2,0-0.3,0.1-0.5,0.1l-0.7,0.1c-0.6,0.1-1.3,0.2-1.9,0.3
							c-0.5,0.1-1.1,0.2-1.6,0.2l0.4,2c0.1,0,0.3-0.1,0.4-0.1c0.2-0.1,0.4-0.1,0.6-0.1l0.2,0l0.6,2.6c0.2,0.8,0.4,1.6,0.5,2.4
							c0.2,1.2,0.5,2.5,0.7,3.7c0.2,1.2,0.4,2.5,0.6,3.7l0,0.2l-0.2,0c-0.2,0-0.4,0-0.6,0.1C416.3,325.8,416.2,325.8,416.1,325.9z"
							/>
					</g>
					<g>
						<path class="st3" d="M422.1,327.6l0-0.3c0-0.7-0.1-1.5-0.2-2.3c-0.1-0.9-0.2-1.8-0.3-2.7c-0.1-0.9-0.3-1.9-0.5-2.8
							c-0.2-1-0.4-1.9-0.5-2.8c-0.2-0.9-0.4-1.8-0.5-2.6c-0.2-0.8-0.3-1.5-0.5-2.1c-0.2-0.7-0.3-1.4-0.4-1.9l-0.1-0.3l0.3,0
							c0.3,0,0.5,0,0.8-0.1c0.3,0,0.6-0.1,0.8-0.1c0.3,0,0.5-0.1,0.8-0.1c0.3,0,0.5-0.1,0.7-0.1l0.4-0.1c0.1,0,0.2,0,0.3-0.1
							c0.1,0,0.2,0,0.2-0.1l0.2-0.1l2.4,6.7c0.4,1,0.7,1.9,0.9,2.6c0-0.1,0-0.3,0-0.4c0-0.7-0.1-1.3-0.1-2c-0.1-0.6-0.1-1.3-0.2-1.9
							c-0.1-0.6-0.1-1.2-0.2-1.7c-0.1-1.3-0.3-2.5-0.4-3.7l0-0.2l0.2,0c0.2,0,0.4,0,0.6-0.1c0.2,0,0.4-0.1,0.7-0.1
							c0.3,0,0.5-0.1,0.8-0.2c0.3-0.1,0.6-0.1,1-0.2c0.3-0.1,0.7-0.2,1.1-0.3l0.2-0.1l0,0.3c0.5,3,1,5.6,1.4,7.8
							c0.3,1.6,0.6,3,0.9,4.1c0.3,1.2,0.5,2.1,0.7,2.9c0.2,0.9,0.4,1.6,0.6,2.2l0.1,0.2l-3.3,0.7l0-0.2c-0.2-1.2-0.4-2.5-0.7-3.8
							c-0.1-0.5-0.2-1.1-0.3-1.7c-0.1-0.6-0.2-1.2-0.3-1.8c-0.1-0.6-0.2-1.2-0.3-1.9c-0.1-0.4-0.2-0.8-0.2-1.2
							c0,0.9,0.1,1.8,0.1,2.9c0.1,1.2,0.1,2.4,0.2,3.7c0.1,1.3,0.2,2.6,0.3,3.8l0,0.2l-2.7,0.5L427,326c-0.4-1.2-0.9-2.4-1.3-3.6
							c-0.4-1.2-0.8-2.3-1.2-3.3c-0.3-0.8-0.6-1.6-0.8-2.4l0.2,1.1c0.2,0.9,0.3,1.7,0.5,2.6c0.2,0.9,0.4,1.7,0.5,2.5
							c0.2,0.8,0.3,1.5,0.5,2.1c0.1,0.6,0.3,1.1,0.4,1.4l0.1,0.2L422.1,327.6z M419.7,310.1c0.1,0.5,0.2,1.1,0.4,1.7
							c0.1,0.6,0.3,1.3,0.5,2.1c0.2,0.8,0.4,1.7,0.5,2.6c0.2,0.9,0.4,1.8,0.5,2.8c0.2,0.9,0.3,1.9,0.5,2.9c0.1,0.9,0.3,1.8,0.3,2.7
							c0.1,0.8,0.1,1.5,0.2,2.1l2.7-0.7c-0.1-0.3-0.2-0.7-0.3-1.2c-0.1-0.6-0.3-1.3-0.5-2.1c-0.2-0.8-0.3-1.6-0.5-2.5
							c-0.2-0.9-0.4-1.7-0.5-2.6l-0.8-4.2l0.4-0.1c0.2,0.7,0.5,1.5,0.8,2.4c0.3,0.9,0.7,1.9,1.1,2.9c0.4,1.1,0.8,2.2,1.2,3.3
							c0.4,1.1,0.8,2.2,1.2,3.4l1.9-0.3c-0.1-1.2-0.2-2.4-0.3-3.6c-0.1-1.3-0.2-2.5-0.2-3.7c-0.1-1.2-0.1-2.2-0.2-3.2
							c0-1-0.1-1.7-0.1-2.4l-0.1-2.1l0.5,2c0.1,0.3,0.2,0.6,0.2,1l0.2,1.1c0.1,0.6,0.2,1.2,0.3,1.8c0.1,0.6,0.2,1.2,0.3,1.9
							c0.1,0.6,0.2,1.2,0.3,1.8c0.1,0.6,0.2,1.2,0.3,1.7c0.2,1.2,0.4,2.4,0.6,3.5l2.4-0.5c-0.2-0.5-0.4-1.2-0.6-2
							c-0.2-0.8-0.4-1.7-0.7-2.9c-0.3-1.2-0.6-2.6-0.9-4.1c-0.4-2.1-0.9-4.7-1.4-7.6c-0.3,0.1-0.6,0.2-0.9,0.2
							c-0.4,0.1-0.7,0.2-1,0.2c-0.3,0.1-0.6,0.1-0.8,0.2c-0.3,0-0.5,0.1-0.7,0.1c-0.1,0-0.2,0-0.4,0c0.1,1.1,0.3,2.3,0.4,3.5
							c0.1,0.5,0.1,1.1,0.2,1.7c0.1,0.6,0.1,1.2,0.2,1.9c0.1,0.6,0.1,1.3,0.1,2c0,0.7,0.1,1.3,0.1,1.9l0.1,1.5L427,320
							c-0.3-0.9-0.8-2.3-1.5-4l-2.2-6.3c0,0,0,0-0.1,0c-0.1,0-0.2,0-0.3,0.1l-0.4,0.1c-0.2,0-0.4,0.1-0.7,0.1
							c-0.3,0-0.5,0.1-0.8,0.1c-0.3,0-0.6,0.1-0.9,0.1C420,310.1,419.8,310.1,419.7,310.1z"/>
					</g>
					<g>
						<path class="st3" d="M439.1,324.3c-0.1,0-0.3,0-0.4,0c-0.4,0-0.8-0.2-1.2-0.4c-0.4-0.2-0.8-0.5-1.2-0.9
							c-0.4-0.4-0.8-0.9-1.2-1.5c-0.4-0.6-0.7-1.4-1.1-2.3c-0.3-0.9-0.6-2-0.9-3.2c-0.2-1.2-0.4-2.3-0.4-3.3c0-1,0.1-1.8,0.2-2.5
							c0.2-0.7,0.4-1.3,0.6-1.9c0.3-0.5,0.6-0.9,0.9-1.3c0.3-0.3,0.7-0.6,1-0.8c0.3-0.2,0.6-0.3,0.9-0.3c0.2,0,0.5-0.1,0.7-0.1
							c0.2,0,0.4,0,0.7,0.1c0.3,0,0.5,0.1,0.7,0.3l0.1,0.1l0.3,2.9l-0.3-0.1c-0.2-0.1-0.4-0.1-0.6-0.1c-0.2,0-0.4,0-0.5,0
							c-0.3,0.1-0.5,0.2-0.7,0.4c-0.2,0.2-0.4,0.5-0.5,0.8c-0.1,0.3-0.2,0.7-0.3,1.1c-0.1,0.4-0.1,0.8-0.1,1.2c0,0.9,0.1,2,0.3,3.2
							c0.2,1,0.5,1.9,0.8,2.7c0.1,0.3,0.3,0.7,0.5,1c0.2,0.3,0.4,0.6,0.6,0.9c0.2,0.3,0.4,0.5,0.7,0.6c0.1,0.1,0.3,0.2,0.4,0.2
							c-0.2-0.9-0.4-1.8-0.7-2.7c-0.3-1-0.6-2-1-3l-0.1-0.2l3.4-0.7l0,0.3c0,0.3,0,0.6,0.1,1c0,0.4,0.1,0.8,0.1,1.2
							c0.1,0.4,0.1,0.9,0.2,1.3c0.1,0.5,0.2,0.9,0.2,1.4c0,0.1,0.1,0.2,0.1,0.4c0.1,0.2,0.1,0.4,0.2,0.6c0.1,0.2,0.1,0.5,0.2,0.7
							c0.1,0.2,0.1,0.5,0.2,0.7c0.1,0.2,0.1,0.4,0.2,0.6c0,0.1,0.1,0.2,0.1,0.3l0.1,0.2l-0.2,0.1c-0.3,0.2-0.6,0.4-0.9,0.5
							c-0.3,0.1-0.6,0.3-0.8,0.3c-0.3,0.1-0.6,0.2-0.8,0.2C439.5,324.2,439.3,324.3,439.1,324.3z M437.2,306.3c-0.2,0-0.4,0-0.7,0.1
							c-0.2,0-0.5,0.1-0.8,0.3c-0.3,0.1-0.6,0.4-0.9,0.7c-0.3,0.3-0.6,0.7-0.8,1.2c-0.3,0.5-0.5,1.1-0.6,1.7
							c-0.1,0.7-0.2,1.5-0.2,2.4c0,0.9,0.1,2,0.4,3.2c0.2,1.2,0.5,2.3,0.8,3.1c0.3,0.9,0.7,1.6,1,2.2c0.4,0.6,0.7,1.1,1.1,1.4
							c0.4,0.4,0.8,0.6,1.1,0.8c0.4,0.2,0.7,0.3,1,0.3c0.3,0,0.6,0,0.9,0c0.2-0.1,0.5-0.1,0.8-0.2c0.2-0.1,0.5-0.2,0.8-0.3
							c0.2-0.1,0.5-0.2,0.7-0.4c0,0,0-0.1-0.1-0.2c0-0.2-0.1-0.3-0.2-0.6c-0.1-0.2-0.1-0.5-0.2-0.7c-0.1-0.2-0.1-0.5-0.2-0.7
							c-0.1-0.2-0.1-0.4-0.2-0.6c-0.1-0.2-0.1-0.4-0.1-0.5c-0.1-0.5-0.2-0.9-0.2-1.4c-0.1-0.5-0.1-0.9-0.2-1.3
							c-0.1-0.4-0.1-0.8-0.1-1.2c0-0.3,0-0.5-0.1-0.8l-2.3,0.5c0.3,0.9,0.6,1.9,0.9,2.8c0.3,1,0.5,2,0.8,3.1l0.1,0.3l-0.3,0
							c-0.3,0-0.7-0.2-0.9-0.4c-0.3-0.2-0.5-0.4-0.8-0.7c-0.2-0.3-0.4-0.6-0.6-1c-0.2-0.4-0.4-0.7-0.5-1c-0.3-0.8-0.6-1.8-0.8-2.8
							c-0.2-1.2-0.3-2.3-0.3-3.3c0-0.4,0-0.8,0.1-1.2c0.1-0.4,0.2-0.8,0.3-1.2c0.1-0.4,0.3-0.7,0.6-0.9c0.3-0.3,0.6-0.4,1-0.5
							c0.2,0,0.4-0.1,0.6,0c0.1,0,0.3,0,0.4,0.1l-0.2-2c-0.1-0.1-0.3-0.1-0.5-0.1C437.6,306.3,437.4,306.3,437.2,306.3z"/>
					</g>
				</g>
				<g>
					
						<rect x="446.2" y="318.9" transform="matrix(0.8504 0.5261 -0.5261 0.8504 240.3444 -185.5033)" class="st3" width="0.4" height="22.1"/>
				</g>
			</g>
			<g>
				<linearGradient id="SVGID_7_" gradientUnits="userSpaceOnUse" x1="557.6066" y1="41.1589" x2="557.6066" y2="33.0937">
					<stop  offset="0" style="stop-color:#C21A8F"/>
					<stop  offset="1" style="stop-color:#FE117E"/>
				</linearGradient>
				<circle class="st16" cx="557.6" cy="37.1" r="4"/>
				<linearGradient id="SVGID_8_" gradientUnits="userSpaceOnUse" x1="532.1583" y1="50.6302" x2="532.1583" y2="28.8526">
					<stop  offset="0" style="stop-color:#DE1A8F"/>
					<stop  offset="1" style="stop-color:#FE117E"/>
				</linearGradient>
				<circle class="st17" cx="532.2" cy="39.7" r="10.9"/>
				<linearGradient id="SVGID_9_" gradientUnits="userSpaceOnUse" x1="487.8165" y1="63.3387" x2="502.5112" y2="63.3387">
					<stop  offset="0" style="stop-color:#B31A8F"/>
					<stop  offset="1" style="stop-color:#92117E"/>
				</linearGradient>
				<circle class="st18" cx="495.2" cy="63.3" r="7.3"/>
				<linearGradient id="SVGID_10_" gradientUnits="userSpaceOnUse" x1="526.5214" y1="126.2686" x2="526.5214" y2="41.1954">
					<stop  offset="0" style="stop-color:#B31A8F"/>
					<stop  offset="1" style="stop-color:#92117E"/>
				</linearGradient>
				<path class="st19" d="M520.6,41.2c0,0-22.4,4.1-23.9,29.5c0,0,1.9,29.6,12.6,51.5l39.1-1.3l8.1,5.4l0,0l-6.5-39.7L520.6,41.2z"
					/>
				<linearGradient id="SVGID_11_" gradientUnits="userSpaceOnUse" x1="509.2412" y1="119.6755" x2="550.8911" y2="119.6755">
					<stop  offset="0" style="stop-color:#8B8BE0"/>
					<stop  offset="1" style="stop-color:#A177B7"/>
				</linearGradient>
				<polygon class="st20" points="509.2,122.2 515,117.1 550.9,117.1 548.3,120.9 				"/>
				<linearGradient id="SVGID_12_" gradientUnits="userSpaceOnUse" x1="531.4797" y1="126.2686" x2="531.4797" y2="39.6789">
					<stop  offset="0" style="stop-color:#C21A8F"/>
					<stop  offset="1" style="stop-color:#FE117E"/>
				</linearGradient>
				<path class="st21" d="M503.6,67.9c0,0,1.2,27.2,11.4,49.2c0,0,7.9,2.5,18.8,2.5c11.7,0,17.1-2.5,17.1-2.5l5.5,9.1
					c0,0,6.2-34,1-63.3c0,0-3.3-14.5-12.8-19.9C531.5,35.6,502.3,39,503.6,67.9z"/>
				<g>
					<path class="st0" d="M519.6,67.7c0,2.5,0.1,5,0.1,7.4c0.1,2.5,0.1,4.9,0.2,7.4c0.3,0,0.6,0,1,0c0.3,0,0.6,0,1-0.1
						c0.4,0,0.8-0.1,1.2-0.1c0.4,0,0.8-0.1,1.3-0.1c0-0.6,0-1.1-0.1-1.6c0-0.5-0.1-1.1-0.1-1.7c-0.1-1.9-0.2-3.8-0.4-5.7
						c-0.2-1.9-0.3-3.8-0.5-5.7l4.6-0.3c0,3,0,6.1,0,9.1c0.1,3,0.2,6,0.4,9c0.1,1.5,0.2,3,0.3,4.4c0.1,1.5,0.3,2.9,0.4,4.4l-4.3,0.3
						c0-1.5-0.1-3-0.1-4.5c0-1.5-0.1-3-0.1-4.5c-0.7,0-1.4,0-2.1,0c-0.7,0-1.4,0-2.1,0.1l-0.2,0l0.2,3.9c0.1,0.9,0.1,1.7,0.2,2.6
						c0.1,0.9,0.1,1.7,0.2,2.6l-4.3,0.3c0-1.8-0.1-3.6-0.2-5.4c-0.1-1.8-0.2-3.5-0.3-5.3c-0.3-5.4-0.8-10.8-1.3-16.2L519.6,67.7z"/>
					<path class="st0" d="M539.2,93.4c-0.5,0-1,0-1.5,0s-1,0-1.5,0.1c-0.8,0-1.7,0.1-2.5,0.2c-0.8,0.1-1.7,0.2-2.5,0.3L531,90
						c0.3,0,0.6,0,0.9,0c0.3,0,0.6,0,0.9,0c0-2-0.1-3.9-0.1-5.8c0-1.9-0.1-3.9-0.2-5.8c-0.1-1.3-0.2-2.6-0.3-3.8
						c-0.1-1.3-0.2-2.5-0.3-3.8c-0.3,0-0.7,0-1,0.1c-0.3,0-0.7,0.1-1,0.1l-0.2-3.9c1,0,1.9,0,2.9,0c1,0,1.9-0.1,2.9-0.1
						c0.4,0,0.7,0,1.1-0.1c0.4,0,0.7-0.1,1.1-0.1l0.1,3.8c-0.3,0-0.6,0-0.9,0c-0.3,0-0.6,0-0.9,0c0,2.3,0,4.5,0,6.8
						c0.1,2.2,0.2,4.5,0.3,6.7c0.1,2,0.3,3.9,0.5,5.9c0.4,0,0.8-0.1,1.2-0.1c0.4,0,0.8-0.1,1.3-0.1L539.2,93.4z"/>
					<path class="st0" d="M550.4,65.6c-0.1,3.5-0.2,7-0.2,10.6c0,3.6,0.1,7.1,0.3,10.5l-2.5,0.2c-0.3-3.5-0.6-7-1-10.5
						c-0.4-3.5-0.7-7-1.1-10.5L550.4,65.6z M551.6,91.4c0,0.3,0,0.6-0.1,0.9c-0.1,0.3-0.2,0.5-0.4,0.7c-0.2,0.2-0.4,0.4-0.7,0.5
						c-0.3,0.1-0.5,0.2-0.8,0.2c-0.3,0-0.6,0-0.8-0.1c-0.3-0.1-0.5-0.2-0.7-0.4c-0.2-0.2-0.4-0.4-0.5-0.7c-0.1-0.3-0.2-0.5-0.2-0.8
						c0-0.3,0-0.6,0.1-0.9c0.1-0.3,0.2-0.5,0.4-0.7c0.2-0.2,0.4-0.4,0.7-0.5c0.3-0.1,0.5-0.2,0.8-0.2c0.3,0,0.6,0,0.9,0.1
						c0.3,0.1,0.5,0.2,0.7,0.4c0.2,0.2,0.4,0.4,0.5,0.7C551.5,90.8,551.6,91.1,551.6,91.4z"/>
				</g>
				<path class="st22" d="M515,117.1c0,0-16-34.3-10.1-60.7C505,56.4,505.7,95.9,515,117.1z"/>
				<path class="st22" d="M518.2,42.1c0,0,14.2-4.9,26.4,3.8s14,26.3,14,26.3s-1.3-22.6-14.1-29.2C531.5,36.2,518.2,42.1,518.2,42.1
					z"/>
			</g>
		</g>
	</g>
	<g>
		<linearGradient id="SVGID_13_" gradientUnits="userSpaceOnUse" x1="308.5199" y1="247.95" x2="308.5199" y2="138.43">
			<stop  offset="0" style="stop-color:#744FD8"/>
			<stop  offset="1" style="stop-color:#3996F7"/>
		</linearGradient>
		<path class="st23" d="M327.3,204.1c0,0-2.5-0.8-3.5,1.3c-1,2-4.2,26.3-3.3,33.1c0.9,6.8,3.4,4.3,3.4,4.3s-0.3,4-1.9,5.2l0,0
			c0,0-0.1,0-0.1-0.1c0,0-0.1-0.1-0.2-0.1h0c-1-0.6-4.3-2.9-7.4-5c-3.7-2.5-5.8-4.7-5.8-4.7s0.5-4,0.5-5.2c0-1.1-8.1-28.1-16-36.4
			c-7.4-7.8-0.1-51.5,0.9-57.4l0.1-0.7c0,0,6.4,1.9,9.2,3.9c2.8,2,12.8,26.6,13.3,39.3c0.5,12.6,5,19.8,5,19.8s1.5-0.9,4.1,0
			L327.3,204.1z"/>
		<linearGradient id="SVGID_14_" gradientUnits="userSpaceOnUse" x1="305.7299" y1="247.76" x2="305.7299" y2="138.43">
			<stop  offset="0" style="stop-color:#9D68C2"/>
			<stop  offset="1" style="stop-color:#CCEDFF"/>
		</linearGradient>
		<path class="st24" d="M321.8,247.8c-1-0.6-4.3-2.9-7.4-5c-3.7-2.5-5.8-4.7-5.8-4.7s0.5-4,0.5-5.2c0-1.1-8.1-28.1-16-36.4
			c-7.4-7.8-0.1-51.5,0.9-57.4l0.1-0.7c0,0,5.2,6.6,7.5,19.6c2.3,13.1-0.9,38.8-0.9,38.8s4.5,20.8,15.7,21.2c0,0-9.4,13.7-5.7,20.6
			C311.3,240.1,320.1,246.6,321.8,247.8z"/>
		<linearGradient id="SVGID_15_" gradientUnits="userSpaceOnUse" x1="250.6113" y1="400" x2="250.6113" y2="264.49">
			<stop  offset="0" style="stop-color:#1C257B"/>
			<stop  offset="1" style="stop-color:#482C83"/>
		</linearGradient>
		<path class="st25" d="M300.4,368.4c-0.2,2.3-0.6,4.2-1.1,5.8v0c-0.8,2.8-1.8,4.9-2.4,7.3C296,385.3,295,400,295,400h-26.5
			c1-5.5,2.3-9.7,3.8-23.3c1.5-13.1-6.3-58-7-61.9c0-0.2,0-0.3,0-0.3c-6.8,28.5-23.6,61.6-25.3,63.5c-1.7,1.9-5.1,3.6-5.1,3.6
			c-1.9,3.6-5.9,18.4-5.9,18.4h-30.5c1.7-7.8,9.5-19.5,11.9-23.8c2.5-4.4,11.7-34.1,14.2-53.8c1-8.2,1.8-16.9,2.4-24.2v0
			c0.8-10.2,1.2-17.8,1.2-17.8c7.8-8,68.5-15.8,68.5-15.8l1.9,6.2c0,0,2.2,0.5,2.5,2c0.3,1.5-1.8,2.9-1.8,2.9
			C306.1,314.3,300.9,362.1,300.4,368.4z"/>
		<linearGradient id="SVGID_16_" gradientUnits="userSpaceOnUse" x1="263.6566" y1="314.5158" x2="263.6566" y2="264.4863">
			<stop  offset="0" style="stop-color:#8B8BE0"/>
			<stop  offset="1" style="stop-color:#A177B7"/>
		</linearGradient>
		<path class="st26" d="M228,283.3c0,0,18.4-2.3,29.9,3.2c11.6,5.5,10.5,15,10.5,15l-3.3,13l11.2-11.7l22.9-27.2
			c0,0-4.3,2.6-9.8,3.7c0,0,7.8-4.8,9.1-8.6l-1.9-6.2L228,279.1V283.3z"/>
		<linearGradient id="SVGID_17_" gradientUnits="userSpaceOnUse" x1="329.0187" y1="244.0947" x2="329.0187" y2="226.0968">
			<stop  offset="1.598750e-002" style="stop-color:#FFC2A9"/>
			<stop  offset="1" style="stop-color:#FF9595"/>
		</linearGradient>
		<path class="st27" d="M318.7,231.6c0,0-0.8,8.5,4.4,12.5c0,0,10.5-5.5,15.7-14.5C343.9,220.7,318.7,231.6,318.7,231.6z"/>
		<linearGradient id="SVGID_18_" gradientUnits="userSpaceOnUse" x1="262.7719" y1="281.5987" x2="262.7719" y2="264.49">
			<stop  offset="0" style="stop-color:#D1C8F8"/>
			<stop  offset="1" style="stop-color:#EEE5F9"/>
		</linearGradient>
		<path class="st28" d="M228.2,280.3l-0.2,1.3c0,0,14.2-3.6,21-3.8s14.1,5.2,28.6,2.5c14.5-2.7,19.9-13.1,19.9-13.1l-0.9-2.7
			L228.2,280.3z"/>
		<linearGradient id="SVGID_19_" gradientUnits="userSpaceOnUse" x1="262.5179" y1="281.5987" x2="262.5179" y2="264.49">
			<stop  offset="0" style="stop-color:#8B8BE0"/>
			<stop  offset="1" style="stop-color:#A177B7"/>
		</linearGradient>
		<path class="st29" d="M233,280.4c0,0,13.8-3.5,32.9-5.6c19.1-2.2,26.4-2.8,28.1-4.3c1.8-1.4,3-4.9,3-4.9l-0.4-1.1l-68.5,15.8
			l-0.2,1.3L233,280.4z"/>
		<linearGradient id="SVGID_20_" gradientUnits="userSpaceOnUse" x1="359.7054" y1="210.4617" x2="359.7054" y2="204.7316">
			<stop  offset="1.598750e-002" style="stop-color:#FFA58B"/>
			<stop  offset="1" style="stop-color:#FF898E"/>
		</linearGradient>
		<path class="st30" d="M359.2,204.7c0,0,2.9,2.4,2.9,4.4c0,2-4.8,1.1-4.8,1.1L359.2,204.7z"/>
		<linearGradient id="SVGID_21_" gradientUnits="userSpaceOnUse" x1="199.5135" y1="215.3374" x2="199.5135" y2="134.9057">
			<stop  offset="0" style="stop-color:#744FD8"/>
			<stop  offset="1" style="stop-color:#3996F7"/>
		</linearGradient>
		<path class="st31" d="M214.9,195.4l-2.1-11.4c0,0-5.3,0-13.1,7.2c0,0-0.2,3.9-2.8,8.8c0,0-8.9,4.3-13.1,10.2
			c-4.1,5.9-5.7,6.5-10,3.1c-1.2-0.9-1.9-3.9-2.3-7.9c-0.6-6.1-0.4-14.8,0.7-22.4c0.9-6.3,2.3-11.8,4.3-14.7c0,0-0.2-3.9,1.7-6.9
			c0.1,0.1,0.2,0.1,0.3,0.2c0.6,0.4,2.2,1.3,3.9,0.9c2.2-0.4,4-3.7,4-3.7s1.2,0.1,1.9,1c0,0,8.6-5.2,14-14c5.4-8.8,6.3-9.8,6.3-9.8
			s1.4-0.6,3.3-0.9c1.5-0.3,3.3-0.4,4.9,0C216.7,135.1,243.1,175.9,214.9,195.4z"/>
		<linearGradient id="SVGID_22_" gradientUnits="userSpaceOnUse" x1="254.5946" y1="157.5585" x2="254.5946" y2="109.5778">
			<stop  offset="1.598750e-002" style="stop-color:#FFA58B"/>
			<stop  offset="1" style="stop-color:#FF898E"/>
		</linearGradient>
		<path class="st32" d="M271.1,138.4c0,0-3.3-4.9-3.3-16.4l-25.6-12.5c0,0,1.3,8.8-3.1,16.5c-1.1,2-6.5,5.2-6.5,5.2
			s23.4,28.9,34.7,26.1c11.2-2.8,9-15,9-15S274.4,143.1,271.1,138.4z"/>
		<linearGradient id="SVGID_23_" gradientUnits="userSpaceOnUse" x1="253.422" y1="151.6618" x2="253.422" y2="129.18">
			<stop  offset="0" style="stop-color:#D1C8F8"/>
			<stop  offset="1" style="stop-color:#EEE5F9"/>
		</linearGradient>
		<path class="st33" d="M235.8,129.2c0,0,12.7,12.6,23.6,13.4c11.7,0.8,9.8-9,9.8-9s5.3,7.4,3.8,13.3c-1.5,5.8-13.1,6.1-22,2.2
			c-8.9-3.9-17.4-19-17.4-19L235.8,129.2z"/>
		<linearGradient id="SVGID_24_" gradientUnits="userSpaceOnUse" x1="199.6799" y1="215.3374" x2="199.6799" y2="134.9057">
			<stop  offset="0" style="stop-color:#9D68C2"/>
			<stop  offset="1" style="stop-color:#CCEDFF"/>
		</linearGradient>
		<path class="st34" d="M214.9,195.4l-2.1-11.4c0,0-5.3,0-13.1,7.2c0,0-0.2,3.9-2.8,8.8c0,0-8.9,4.3-13.1,10.2
			c-4.1,5.9-5.7,6.5-10,3.1c-1.2-0.9-1.9-3.9-2.3-7.9l0.7-1.6V183c0.9-6.3,2.3-11.8,4.3-14.7c0,0-0.2-3.9,1.7-6.9
			c0.1,0.1,0.2,0.1,0.3,0.2c7.3,4.8,9.9,18.9,10.5,29.4c0.1-2.7,1.8-13,3-12.8c1.6,0.3,4.4,19.2,4.4,19.2
			c3.3-16.3-7.3-35.8-8.2-37.4c9.7,13.4,11.3,28.7,11.3,28.7l15-11c0,0,9-9.1,5.9-24.8s-8.7-17.8-8.7-17.8c1.5-0.3,3.3-0.4,4.9,0
			C216.7,135.1,243.1,175.9,214.9,195.4z"/>
		<linearGradient id="SVGID_25_" gradientUnits="userSpaceOnUse" x1="256.0567" y1="122.078" x2="256.0567" y2="45.8984">
			<stop  offset="1.598750e-002" style="stop-color:#FFC2A9"/>
			<stop  offset="1" style="stop-color:#FF9595"/>
		</linearGradient>
		<path class="st35" d="M277.7,119.4c0,0-0.1,0.1-0.1,0.1c-0.4,0.4-0.7,0.8-1.1,1c-5.7,2.9-20.8,2.2-29.1-5c-3.1-2.7-5.5-6-7.3-9.4
			c0,0,0,0,0,0c-3-5.4-4.7-11.1-6.3-15c-2.6-6.3-4.8-16.9-4.3-23c0.5-5.7,1.6-10.5,9.3-17c7.7-6.6,26.6-7,31.5-0.4
			c4.8,6.6,4.7,21.3,5.8,24.6c1.1,3.3,5.2,7.2,6.3,11.6C283.4,91,282.3,113.6,277.7,119.4z"/>
		<linearGradient id="SVGID_26_" gradientUnits="userSpaceOnUse" x1="254.4033" y1="105.7789" x2="254.4033" y2="45.5876">
			<stop  offset="1.598750e-002" style="stop-color:#FFA58B"/>
			<stop  offset="1" style="stop-color:#FF898E"/>
		</linearGradient>
		<path class="st36" d="M277.7,78.4c0,0-0.2,3.9-3.3,4.2c-2.4,0.2-3.9-3.3-3.9-3.3s-0.4-9.6,0.8-14.4l1.1-3.8c0,0-3.3-3.5-8.2-3
			c-4.9,0.4-6.7,5.7-6.7,5.7s4.4,12.5,3.7,18.6c0,0-3.3,3.2-8.9,2.8c-6.4-0.4-9.7-4.3-9.7-4.3s-3.5,4.1-4.2,7.6
			c-0.8,4.2,0.6,17.3,0.6,17.3s-4.4-14.3-5.6-18.4c-1.2-4.2-3.4-22.7-2.1-25.8c1.3-3.2,5.2-13.4,21.6-15.5s19.4,3.5,19.4,3.5
			l1.7,8.1l0,4.2c0,0,1.1,10.8,1.6,12.6C276.1,76.3,277.7,78.4,277.7,78.4z"/>
		<linearGradient id="SVGID_27_" gradientUnits="userSpaceOnUse" x1="253.7854" y1="91.7489" x2="244.7932" y2="34.9745">
			<stop  offset="0" style="stop-color:#D49092"/>
			<stop  offset="0.1274" style="stop-color:#D18E92"/>
			<stop  offset="0.2036" style="stop-color:#C98991"/>
			<stop  offset="0.2664" style="stop-color:#BB7F90"/>
			<stop  offset="0.3218" style="stop-color:#A7718F"/>
			<stop  offset="0.3725" style="stop-color:#8C5F8D"/>
			<stop  offset="0.4196" style="stop-color:#6C498A"/>
			<stop  offset="0.4631" style="stop-color:#472F88"/>
			<stop  offset="0.4721" style="stop-color:#3E2987"/>
			<stop  offset="0.6068" style="stop-color:#352278"/>
			<stop  offset="0.8455" style="stop-color:#291762"/>
			<stop  offset="1" style="stop-color:#24135A"/>
		</linearGradient>
		<path class="st37" d="M274.2,62.3c0,0-0.4-5.6-3.6-11.1c0,0-3.5,3.7-9.2,5.7c0,0,2.6-2.5,3.9-4.3c-0.2,0.2-3.8,2.9-8.7,5
			c0,0,1.4-2.2,1.4-3.1s-3.6-5.1-7.8-5c-4.2,0.1-12.1,2.8-16.1,10.4c-4,7.6,0,8.3,2.2,10.3c0,0-1.1,9.4-0.8,17.3
			c0.1,2.3,0.3,4.6,0.7,6.3c0.1,0.3,0.1,0.6,0.2,0.8l-5.7-5.2c0,0,0-3.5-2.2-8.4c-0.2-0.6-0.5-1.2-0.8-1.8l0,0
			c-0.1-0.2-0.3-0.5-0.4-0.7c-1.4-2.5-5.5-7.3-4.9-12.1c0.6-4.6,8.9-8.5,10.9-11.5c0,0-6.4,2-9.4,5.1c0,0,0.5-2.9,2.8-4.5
			c2.3-1.6,4.3-0.6,7.8-2c3.4-1.4,8.1-12.9,13.6-17.2c5.5-4.4,18.1-3.5,22.2,0c1,0.9,1.8,2,2.4,3.1h0c0,0,0,0,0,0v0c0,0,0,0,0,0
			c1.7,3.2,1.7,6.7,1.7,6.7S276.6,55.6,274.2,62.3z"/>
		<linearGradient id="SVGID_28_" gradientUnits="userSpaceOnUse" x1="143.5338" y1="213.8421" x2="143.5338" y2="79.8177">
			<stop  offset="1.598750e-002" style="stop-color:#FFC2A9"/>
			<stop  offset="1" style="stop-color:#FF9595"/>
		</linearGradient>
		<path class="st38" d="M180.4,167l-4,1.3c0,0-18.2-10.8-24.1-37c0,0,4.5-7.9,4.7-10.7s-2.7-8.8-3.6-16.2s0.9-13.1,0.8-14
			s-4.7-1-5.9,2.7c-1.3,3.7,0.6,10.2,0,11.5c-0.6,1.3-2.1,3.4-2.1,3.4s-6.7-10.1-8.5-11.1c-1.8-1-4.5,3.9-5.8,4.2
			c-1.3,0.2-5.9-6.1-10.3-9.8c-4.5-3.7-12.8-11.5-13.6-11.3c-0.9,0.2-2,1.7-1.8,3.2s3.8,8.1,9.3,10.8c0,0,6.6,4.5,10.1,10.7
			c0,0-1.5,2.6-2.6,2.7c-1,0.1-7-3.9-11.7-5.8c-4.7-1.9-9.1-3.1-9.9-2.8c-0.8,0.3-0.5,2,0,3.1c0.5,1.1,4.7,4.5,9.4,5.6
			c0,0,6.9,2.7,9.2,5.6c0,0-0.3,2.8-1,3.3c-0.8,0.5-6.4-0.4-9.9-0.9c-3.5-0.5-7.6,0.1-8,0.6s-0.1,2.1,2.7,3.1s6.3,0.4,6.8,0.5
			c0.6,0.1,10.9,3.3,12.1,4.1c1.2,0.8,6.6,8.8,10.5,11.3c3.9,2.5,9.5,1.2,9.5,1.2s6.2,34.9,9.3,48.8s14.7,28.3,24.8,28.9
			c0,0,9.1-3.5,9.6-22.2C186.8,172.9,180.4,167,180.4,167z"/>
		<linearGradient id="SVGID_29_" gradientUnits="userSpaceOnUse" x1="255.5231" y1="280.28" x2="255.5231" y2="129.18">
			<stop  offset="0" style="stop-color:#744FD8"/>
			<stop  offset="1" style="stop-color:#3996F7"/>
		</linearGradient>
		<path class="st39" d="M290,205.8c0,0-3.8,19.8,1.1,41.2c0,0,3,2.1,3.4,4.7c0,0,0,0,0,0.1c0.4,2.6-0.2,5.1-0.2,5.1s1.3,1.3,2.5,3.2
			c0.2,0.4,0.3,0.8,0.4,1.2c0.2,2-0.9,4.4-0.9,4.4s-2.3,5.9-26,8c-23.7,2.1-42.1,6.6-42.1,6.6s-1.4-4.7,1.2-8.3c0,0-4-3.6-3.8-4.9
			c0.2-1.3,8.9-16.5,6.6-27.1c-2.3-10.6-10.8-19.2-15.5-39.9c0,0-3.2-1.1-3.4-2.6c-0.2-1.5,1.4-4,1.4-4l0.6,1.1
			c0,0,10.8-6.2,7.9-32.3c-2.9-26.1-6-27.7-11.4-27c0,0,4.3-4,5.3-3.9c1,0.1,1.4,1.9,1.4,1.9s3.4,1.4,7.4,0s6.6-4,6.6-4
			s24,20.3,34.5,19.1c12-1.4,3.5-14.6,3.5-14.6s7.5,1.5,11.6,2.4c4.1,0.9,5.6,0,5.6,0s2.4-3.6,5.6-1.2c3.2,2.4,7.1,15.5,5.8,36.7
			C297.8,192.9,290,205.8,290,205.8z"/>
		<path class="st40" d="M249,78c0,0-0.6,1.9-0.3,3.7c0.3,1.8,6.6,3.5,9.6,0.8C261.3,79.9,249,78,249,78z"/>
		<linearGradient id="SVGID_30_" gradientUnits="userSpaceOnUse" x1="332.7769" y1="235.2047" x2="332.7769" y2="162.0258">
			<stop  offset="0" style="stop-color:#1C257B"/>
			<stop  offset="1" style="stop-color:#482C83"/>
		</linearGradient>
		<path class="st41" d="M375.6,167c-7.8,21-29.3,65.6-29.3,65.6c-28.3,5.4-54.8,0.9-54.8,0.9L290,231c9.8-29.8,31.1-68.7,31.1-68.7
			c26-1.4,53.6,2.8,53.6,2.8L375.6,167z"/>
		<linearGradient id="SVGID_31_" gradientUnits="userSpaceOnUse" x1="357.9196" y1="219.2275" x2="357.9196" y2="191.0421">
			<stop  offset="0" style="stop-color:#8B8BE0"/>
			<stop  offset="1" style="stop-color:#A177B7"/>
		</linearGradient>
		<path class="st42" d="M350.5,198.5c0,0-1.2,14.1,2.1,20.7l12.9-28.2l-6.1,1.4l0.8,2.8C360.2,195.3,355.1,195.1,350.5,198.5z"/>
		<linearGradient id="SVGID_32_" gradientUnits="userSpaceOnUse" x1="358.9477" y1="206.0178" x2="358.9477" y2="191.0421">
			<stop  offset="1.598750e-002" style="stop-color:#FFC2A9"/>
			<stop  offset="1" style="stop-color:#FF9595"/>
		</linearGradient>
		<path class="st43" d="M364.6,191c0,0,2.1,1.6,2.5,3c0.4,1.5,1,5.1-3.2,6.3l-1.9,0.5c0,0,1.4,0.6,1.6,1.6c0.3,0.9-1.3,3-3.9,3.5
			c-2.5,0.5-6.8-0.5-8-1.6c-1.3-1.1-0.4-2.7,1.5-3.2c0,0-2.8-0.6-2.7-2.6c0.1-1.9,6.5-4,13.3-3.4L364.6,191z"/>
		<path class="st40" d="M271.1,79.9c0,0,1,1.6,3.3,1.2c2.3-0.5,2.1-4.4,1.6-5.8C275.7,73.9,271.2,78.6,271.1,79.9z"/>
		<linearGradient id="SVGID_33_" gradientUnits="userSpaceOnUse" x1="366.1356" y1="192.7789" x2="366.1356" y2="181.4351">
			<stop  offset="1.598750e-002" style="stop-color:#FFC2A9"/>
			<stop  offset="1" style="stop-color:#FF9595"/>
		</linearGradient>
		<path class="st44" d="M369.7,181.4c0,0,3.4,3.2,3.4,5.3c0,2.2-5,4.9-13.6,6c0,0-0.8-1.7,0-3.5s5.1-4.3,8.7-4.9L369.7,181.4z"/>
		<linearGradient id="SVGID_34_" gradientUnits="userSpaceOnUse" x1="358.2751" y1="212.0785" x2="358.2751" y2="207.1299">
			<stop  offset="1.598750e-002" style="stop-color:#FFC2A9"/>
			<stop  offset="1" style="stop-color:#FF9595"/>
		</linearGradient>
		<path class="st45" d="M359.8,207.1c0,0-5.9-0.6-5.4,4.8c0,0,3.3,0.5,5.7-0.2c2.4-0.7,2.1-2.5,1.9-3.2
			C361.8,207.9,361.6,207.4,359.8,207.1z"/>
		<linearGradient id="SVGID_35_" gradientUnits="userSpaceOnUse" x1="249.7346" y1="74.1368" x2="249.7346" y2="61.8526">
			<stop  offset="0" style="stop-color:#1C257B"/>
			<stop  offset="1" style="stop-color:#482C83"/>
		</linearGradient>
		<path class="st46" d="M242.5,74.1c0,0,0.5-3.1,3.5-6.1c2.1-2.2,6.3-4.5,9.2-5.6c0,0,0.4,0.9,0.4,2.7c0,0,0.5-1.7,0.9-3.3
			c0,0,0.6,1.6,0.5,4.7c0,0-2.5,0.9-6.7,2C245,70,242.5,74.1,242.5,74.1z"/>
		<path class="st47" d="M270.5,78c0,0,0-8,2.3-8.4c1.9-0.4,2.9,4.1,2.9,4.1L270.5,78z"/>
		<path class="st47" d="M248.7,80.3c0,0-0.1-5.6,4.5-7.6c4.6-2,6.2,4.5,6.2,4.5L248.7,80.3z"/>
		<linearGradient id="SVGID_36_" gradientUnits="userSpaceOnUse" x1="254.2491" y1="83.55" x2="254.2491" y2="73.735">
			<stop  offset="0" style="stop-color:#D0C7F8"/>
			<stop  offset="1" style="stop-color:#FFFFFF"/>
		</linearGradient>
		<path class="st48" d="M259.8,80.3c-0.1,1.2-1.7,3.3-5.1,3.3c-3,0-6.1-1.5-6.1-3.3c0-0.6,0.2-1.3,0.4-1.9c0.6-1.5,1.8-2.9,3.3-3.8
			c1-0.6,2.1-0.9,3.3-0.8C259.4,74.1,260,79.1,259.8,80.3z"/>
		<linearGradient id="SVGID_37_" gradientUnits="userSpaceOnUse" x1="273.3277" y1="80.8606" x2="273.3277" y2="71.0448">
			<stop  offset="0" style="stop-color:#D0C7F8"/>
			<stop  offset="1" style="stop-color:#FFFFFF"/>
		</linearGradient>
		<path class="st49" d="M276.1,76.3c0.1,2.6-1.1,4.6-3.1,4.5c-0.8,0-1.3-0.3-1.7-0.7c-0.3-0.3-0.5-0.8-0.6-1.4
			c-0.1-0.3-0.1-0.5-0.2-0.8c0,0,0.2-2.4,0.9-4.4c0.2-0.4,0.3-0.8,0.5-1.2c0.3-0.6,0.7-1.1,1.2-1.3
			C274.6,70.6,276.1,73.7,276.1,76.3z"/>
		<linearGradient id="SVGID_38_" gradientUnits="userSpaceOnUse" x1="116.096" y1="111.7507" x2="131.9356" y2="111.7507">
			<stop  offset="0" style="stop-color:#CF6074"/>
			<stop  offset="1" style="stop-color:#FF817F"/>
		</linearGradient>
		<path class="st50" d="M131.9,100.9c0,0-2.8,3.8-6.3,10c-2.8,5-3,12.6-3,12.6s-4-1.8-6.2-2.3c-2.2-0.5,5.3-12,5.3-12l8.5-9.4
			L131.9,100.9z"/>
		<radialGradient id="SVGID_39_" cx="253.1498" cy="80.043" r="3.862" gradientUnits="userSpaceOnUse">
			<stop  offset="0" style="stop-color:#CF95FF"/>
			<stop  offset="1" style="stop-color:#8161FF"/>
		</radialGradient>
		<path class="st51" d="M257,78.4c0,2.2-1.8,3.9-3.9,3.9c-2.2,0-3.9-1.8-3.9-3.9c0,0,0-0.1,0-0.1c0.6-1.5,1.8-2.9,3.3-3.8
			c0.2,0,0.4-0.1,0.6-0.1C255.2,74.5,257,76.3,257,78.4z"/>
		<linearGradient id="SVGID_40_" gradientUnits="userSpaceOnUse" x1="253.0282" y1="81.1802" x2="253.0282" y2="75.7145">
			<stop  offset="0" style="stop-color:#8642A0"/>
			<stop  offset="1" style="stop-color:#4E37B7"/>
		</linearGradient>
		<circle class="st52" cx="253" cy="78.4" r="2.7"/>
		<radialGradient id="SVGID_41_" cx="272.5375" cy="77.906" r="2.5897" gradientUnits="userSpaceOnUse">
			<stop  offset="0" style="stop-color:#CF95FF"/>
			<stop  offset="1" style="stop-color:#8161FF"/>
		</radialGradient>
		<path class="st53" d="M274.4,76.3c0,2.2-1.2,3.9-2.7,3.9c-0.1,0-0.3,0-0.4,0c-0.3-0.3-0.5-0.8-0.6-1.4c-0.1-0.3-0.1-0.5-0.2-0.8
			c0,0,0.2-2.4,0.9-4.4c0.2-0.4,0.3-0.8,0.5-1.2C273.3,72.5,274.4,74.2,274.4,76.3z"/>
		<linearGradient id="SVGID_42_" gradientUnits="userSpaceOnUse" x1="110.8093" y1="98.9754" x2="124.0599" y2="98.9754">
			<stop  offset="0" style="stop-color:#CF6074"/>
			<stop  offset="1" style="stop-color:#FF817F"/>
		</linearGradient>
		<path class="st54" d="M110.8,107.3c0,0,2.7,0.9,3.8,0.7c1.2-0.3,1.8-2.9,1.8-3.2s-3.4-2.6-3.4-2.6l4.3,2.2l4.2-5
			c0,0-2.4-3.1-5.7-5.3c0,0,3.4,2.1,4.5,1.3c1-0.8,1.5-2.2,1.5-2.9c0-0.7-3.5-4.3-3.5-4.3s5.3,4.3,5.7,5.1
			c0.4,0.7-2.5,11.2-2.5,11.2l-5.7,5.2C115.8,109.7,112.4,108.1,110.8,107.3z"/>
		<linearGradient id="SVGID_43_" gradientUnits="userSpaceOnUse" x1="271.9219" y1="79.04" x2="271.9219" y2="73.57">
			<stop  offset="0" style="stop-color:#8642A0"/>
			<stop  offset="1" style="stop-color:#4E37B7"/>
		</linearGradient>
		<path class="st55" d="M273.3,76.3c0,1.5-0.8,2.7-1.9,2.7c-0.3,0-0.5-0.1-0.7-0.2c-0.1-0.3-0.1-0.5-0.2-0.8c0,0,0.2-2.4,0.9-4.4
			h0.1C272.5,73.6,273.3,74.8,273.3,76.3z"/>
		<path class="st40" d="M271.5,62.3c0,0-2.1,11.2-0.9,17c0,0-0.7-8.6,1.9-14.8L271.5,62.3z"/>
		<linearGradient id="SVGID_44_" gradientUnits="userSpaceOnUse" x1="273.0575" y1="66.5579" x2="273.0575" y2="58.1036">
			<stop  offset="0" style="stop-color:#1C257B"/>
			<stop  offset="1" style="stop-color:#482C83"/>
		</linearGradient>
		<path class="st56" d="M271.1,66.6c0,0,0.3-3.8,0.8-7l0.4,1.3l1.1-2.8c0,0,2.8,1.7,1.1,5.4C274.5,63.5,272.7,63.3,271.1,66.6z"/>
		<path class="st40" d="M260.1,94.1c0,0,0.2,2.6,5,4c4.7,1.5,8.8,0.6,10.3-1.1c0,0-1.5,1.8-4.3,2.3c-2.8,0.5-7-0.2-9-1.7
			c-2.2-1.7-2.6-3.2-2.6-3.2L260.1,94.1z"/>
		<path class="st57" d="M258,95.2c0,0,2.3-1.2,4.4-1.5c0,0-2.2-0.4-3.2-0.2C258.2,93.7,258,95.2,258,95.2z"/>
		<g>
			<linearGradient id="SVGID_45_" gradientUnits="userSpaceOnUse" x1="268.0613" y1="92.5753" x2="270.3876" y2="85.4604">
				<stop  offset="0" style="stop-color:#FF8883"/>
				<stop  offset="1" style="stop-color:#E8868D"/>
			</linearGradient>
			<path class="st58" d="M262.9,88.2c0,0,3.3,0,6.3,0.2c3,0.2,5.8-0.2,6.9-1c0,0,0.2,3.5-3.6,5.7c0,0-1.5,0.6-3.1,0
				c0,0-1.5-1.6-4.2-2.1C265.3,90.9,262.7,90.2,262.9,88.2z"/>
			<linearGradient id="SVGID_46_" gradientUnits="userSpaceOnUse" x1="269.4942" y1="89.421" x2="269.4942" y2="82.3516">
				<stop  offset="0" style="stop-color:#FF8883"/>
				<stop  offset="1" style="stop-color:#FFB1A4"/>
			</linearGradient>
			<path class="st59" d="M268.9,82.4c-3.9,0.5-6,5.8-6,5.8l7.4,1.3c3.3-0.2,5.9-2.1,5.9-2.1S272.8,81.8,268.9,82.4z"/>
			<path class="st60" d="M265,90.8c0,0,0.4-0.3,1.6-0.3c1.2,0.1,2.4,2,2.4,2S267.7,91.4,265,90.8z"/>
		</g>
		<g>
			
				<linearGradient id="SVGID_47_" gradientUnits="userSpaceOnUse" x1="130.606" y1="155.0992" x2="130.606" y2="100.4865" gradientTransform="matrix(0.8807 0.4736 -0.4736 0.8807 65.8193 -70.736)">
				<stop  offset="0" style="stop-color:#1C257B"/>
				<stop  offset="1" style="stop-color:#482C83"/>
			</linearGradient>
			<path class="st61" d="M129.8,81.2L117.5,104c0,0-3.2,13.2-9,18.4c0,0-0.7,2.5,1,6.4l25.9-48.1C135.3,80.7,132.2,79.4,129.8,81.2z
				"/>
			
				<linearGradient id="SVGID_48_" gradientUnits="userSpaceOnUse" x1="305.793" y1="155.2774" x2="305.793" y2="100.6647" gradientTransform="matrix(-0.8807 -0.4736 -0.4736 0.8807 454.3614 138.0018)">
				<stop  offset="0" style="stop-color:#1C257B"/>
				<stop  offset="1" style="stop-color:#482C83"/>
			</linearGradient>
			<path class="st62" d="M138,85.6l-12.3,22.9c0,0-9.3,9.9-10.4,17.7c0,0-1.7,2-5.9,2.7l25.9-48.1C135.3,80.7,138.1,82.6,138,85.6z"
				/>
			
				<linearGradient id="SVGID_49_" gradientUnits="userSpaceOnUse" x1="132.9458" y1="156.6413" x2="132.9458" y2="154.2447" gradientTransform="matrix(0.8807 0.4736 -0.4736 0.8807 65.8193 -70.736)">
				<stop  offset="0" style="stop-color:#1C257B"/>
				<stop  offset="1" style="stop-color:#482C83"/>
			</linearGradient>
			<path class="st63" d="M109,127.6l1.8,1c0,0-1.5,1.9-2,1.6C108.2,129.9,109,127.6,109,127.6z"/>
			
				<linearGradient id="SVGID_50_" gradientUnits="userSpaceOnUse" x1="132.9457" y1="149.9839" x2="132.9457" y2="129.4477" gradientTransform="matrix(0.8807 0.4736 -0.4736 0.8807 65.8193 -70.736)">
				<stop  offset="0" style="stop-color:#6A4FAC"/>
				<stop  offset="1" style="stop-color:#513689"/>
			</linearGradient>
			<path class="st64" d="M108.4,122.5l6.9,3.7c0,0,0.8-6.7,10.4-17.7l-8.2-4.4C117.5,104,115.6,114.3,108.4,122.5z"/>
		</g>
		<linearGradient id="SVGID_51_" gradientUnits="userSpaceOnUse" x1="129.4438" y1="101.1499" x2="129.4438" y2="74.6359">
			<stop  offset="1.598750e-002" style="stop-color:#FFA58B"/>
			<stop  offset="1" style="stop-color:#FF898E"/>
		</linearGradient>
		<path class="st65" d="M139.8,98.8c0,0-4-5-7.6-10.6c-3.5-5.6-9.9-14.5-12.1-13.6c-2.2,0.9-0.3,6.6,1.7,10.2c2,3.6,4.5,4.9,5.7,6.8
			c1.1,1.9,4.5,9.2,4.5,9.2S137.1,102.2,139.8,98.8z"/>
		<linearGradient id="SVGID_52_" gradientUnits="userSpaceOnUse" x1="329.4547" y1="242.9762" x2="329.4547" y2="234.5487">
			<stop  offset="0" style="stop-color:#1C257B"/>
			<stop  offset="1" style="stop-color:#482C83"/>
		</linearGradient>
		<path class="st66" d="M328.3,234.8c0,0-1.6,7.7-0.9,8.1c0.7,0.5,4.4-8.4,4.4-8.4L328.3,234.8z"/>
		<g>
			<linearGradient id="SVGID_53_" gradientUnits="userSpaceOnUse" x1="338.3582" y1="400.0254" x2="338.3582" y2="242.9443">
				<stop  offset="0" style="stop-color:#1C257B"/>
				<stop  offset="1" style="stop-color:#482C83"/>
			</linearGradient>
			<path class="st67" d="M305,400l-0.5-0.1c0-0.3,3-26.4,34.9-35.9c17.4-5.2,29-17.3,31.8-33.1c2.7-15.7-3.9-32-16.9-41.6
				c-25.4-18.7-27.2-46.1-27.2-46.4l0.5,0c0,0.3,1.8,27.4,27,46c13.1,9.7,19.8,26.2,17,42.1c-2.8,16-14.5,28.3-32.1,33.5
				C308,373.9,305,399.8,305,400z"/>
		</g>
		
			<linearGradient id="SVGID_54_" gradientUnits="userSpaceOnUse" x1="453.0668" y1="102.6825" x2="453.0668" y2="81.1405" gradientTransform="matrix(-0.983 0.1833 0.1833 0.983 660.0969 -74.2058)">
			<stop  offset="1.598750e-002" style="stop-color:#FFAC8B"/>
			<stop  offset="1" style="stop-color:#FF9595"/>
		</linearGradient>
		<path class="st68" d="M235.8,92.7c0,0-6.3-6.2-10-2.7c-4.4,4.2-1.3,13.4,3.6,17.4c4.3,3.5,8.9,2.5,9.8-1.6
			C239.2,105.8,240.5,96.5,235.8,92.7z"/>
		<path class="st40" d="M235.6,98.5c0,0-3.7-4.3-6.7-3.2c-3,1.1-2.2,6-2.2,6s0-3.5,2-4.1c2-0.5,3.2,2,3.2,2s-1.1,0.1-1,3.1
			c0,3,3.5,5.8,4.9,3.7C237.2,103.9,235.6,98.5,235.6,98.5z"/>
		<circle class="st0" cx="256.9" cy="78.7" r="0.7"/>
		<circle class="st0" cx="274.6" cy="76.4" r="0.7"/>
		<linearGradient id="SVGID_55_" gradientUnits="userSpaceOnUse" x1="242.2248" y1="121.6268" x2="269.2123" y2="121.6268">
			<stop  offset="0" style="stop-color:#CF6074"/>
			<stop  offset="1" style="stop-color:#FF817F"/>
		</linearGradient>
		<path class="st69" d="M242.2,116.2c0,0,9.8,19.1,27,17.4c0,0-1.5-6.7-1.4-11.5c0,0-8-0.2-13.9-2.7c-6.7-2.8-11.7-9.8-11.7-9.8
			L242.2,116.2z"/>
		<linearGradient id="SVGID_56_" gradientUnits="userSpaceOnUse" x1="134.2711" y1="126.9399" x2="134.2711" y2="106.0336">
			<stop  offset="1.598750e-002" style="stop-color:#FF997C"/>
			<stop  offset="1" style="stop-color:#FF898E"/>
		</linearGradient>
		<path class="st70" d="M139.8,126.7c-4.6,1.3-13.3-2.8-14-6.7c-0.8-3.9,5.1-14.6,10.3-13.9c5.2,0.7,7.7,4.5,6.6,8
			C141.4,118,142.4,125.9,139.8,126.7z"/>
		<linearGradient id="SVGID_57_" gradientUnits="userSpaceOnUse" x1="141.3275" y1="114.8115" x2="146.2093" y2="114.8115">
			<stop  offset="0" style="stop-color:#CF6074"/>
			<stop  offset="1" style="stop-color:#FF817F"/>
		</linearGradient>
		<path class="st71" d="M146.2,107.9c0,0-5.2,8.6-4.7,15.7c0,0-1.4-10.3,3.5-17.6L146.2,107.9z"/>
		<linearGradient id="SVGID_58_" gradientUnits="userSpaceOnUse" x1="146.0514" y1="142.3586" x2="146.0514" y2="133.7263">
			<stop  offset="0" style="stop-color:#CF6074"/>
			<stop  offset="1" style="stop-color:#FF817F"/>
		</linearGradient>
		<path class="st72" d="M142.6,136.1c0,0,4.8-0.9,6.8-2.4l-5.7,8.6C143.8,142.4,143,138.9,142.6,136.1z"/>
		<linearGradient id="SVGID_59_" gradientUnits="userSpaceOnUse" x1="181.5168" y1="212.9413" x2="181.5168" y2="166.9789">
			<stop  offset="0" style="stop-color:#CF6074"/>
			<stop  offset="1" style="stop-color:#FF817F"/>
		</linearGradient>
		<path class="st73" d="M176.5,168.3c0,0,3.4,4,5.6,19.6c2.2,15.7-3.9,25-3.9,25s6.3-1.2,8.1-19.5c1.9-18.3-5.8-26.5-5.8-26.5
			L176.5,168.3z"/>
		<linearGradient id="SVGID_60_" gradientUnits="userSpaceOnUse" x1="254.4617" y1="280.28" x2="254.4617" y2="131.2685">
			<stop  offset="0" style="stop-color:#8B8BE0"/>
			<stop  offset="1" style="stop-color:#A177B7"/>
		</linearGradient>
		<path class="st74" d="M296.2,265.7c0,0-2.3,5.9-26,8c-23.7,2.1-42.1,6.6-42.1,6.6s-1.4-4.7,1.2-8.3c0,0-4-3.6-3.8-4.9
			c0.2-1.3,8.9-16.5,6.6-27.1c-2.3-10.6-10.8-19.2-15.5-39.9c0,0-3.2-1.1-3.4-2.6c-0.2-1.5,1.4-4,1.4-4l0.6,1.1
			c0,0,10.8-6.2,7.9-32.3c-2.9-26.1-6-27.7-11.4-27c0,0,4.3-4,5.3-3.9c0,0,6.4,4.8,10.8,30.8c3.7,21.7,9.9,35.3,9.9,35.3
			s12.1,4.5,26.4,4.1c14.2-0.5,12.8-2.3,25.3-1.4c0,0-27,2.9-37.2,4.7c-10.2,1.9-19.6,5.7-19.6,5.7s8.7,20.2,7.3,33.6
			c-1,9.6-4.5,17.7-4.5,17.7s1.8,0.7,19.2,0c17.4-0.8,39.9-10.1,39.9-10.1s0,0,0,0.1c0.1,0.4,0.5,3.1-0.2,5.1c0,0-17.4,3.8-33.4,6.8
			c-16,3-25.5,8-25.5,8s3.3,1.8,28.3-0.9c25-2.7,32.2-4.4,33.5-9.5l0,0C297.3,263.2,296.2,265.7,296.2,265.7z"/>
		<linearGradient id="SVGID_61_" gradientUnits="userSpaceOnUse" x1="246.4624" y1="207.053" x2="246.4624" y2="200.4307">
			<stop  offset="0" style="stop-color:#8B8BE0"/>
			<stop  offset="1" style="stop-color:#A177B7"/>
		</linearGradient>
		<path class="st75" d="M229.4,205.8c0,0,3-4,9.8-5.1c6.8-1.1,17.7,1.5,24.4,1.5c0,0-18.7,3.5-25.8,4.5
			C230.7,207.8,229.4,205.8,229.4,205.8z"/>
		<linearGradient id="SVGID_62_" gradientUnits="userSpaceOnUse" x1="291.7588" y1="173.5474" x2="291.7588" y2="134.2819">
			<stop  offset="0" style="stop-color:#8B8BE0"/>
			<stop  offset="1" style="stop-color:#A177B7"/>
		</linearGradient>
		<path class="st76" d="M287.7,136.1c0,0,6.8,11.9,8.1,37.5c0,0,1.1-20.2-5.8-39.3C290,134.3,288.9,134.6,287.7,136.1z"/>
		<linearGradient id="SVGID_63_" gradientUnits="userSpaceOnUse" x1="277.5963" y1="183.2737" x2="277.5963" y2="146.8299">
			<stop  offset="0" style="stop-color:#8B8BE0"/>
			<stop  offset="1" style="stop-color:#A177B7"/>
		</linearGradient>
		<path class="st77" d="M286.7,146.8c0,0-2.1,15-18.3,36.4c0,0,10.6-8.6,14.3-16.9C286.7,157.5,286.7,146.8,286.7,146.8z"/>
		<linearGradient id="SVGID_64_" gradientUnits="userSpaceOnUse" x1="265.8727" y1="253.0529" x2="265.8727" y2="242.9762">
			<stop  offset="0" style="stop-color:#8B8BE0"/>
			<stop  offset="1" style="stop-color:#A177B7"/>
		</linearGradient>
		<path class="st78" d="M246.5,243c0,0,4.7,7.6,14.9,9.5c10.2,1.9,23.9-1.6,23.9-1.6s-13.1,2.3-23-1
			C252.4,246.6,246.5,243,246.5,243z"/>
		<linearGradient id="SVGID_65_" gradientUnits="userSpaceOnUse" x1="218.1535" y1="194.52" x2="218.1535" y2="175.1216">
			<stop  offset="0" style="stop-color:#9D68C2"/>
			<stop  offset="1" style="stop-color:#90AEFF"/>
		</linearGradient>
		<path class="st79" d="M212.8,184c0,0,7.7-3.2,10.6-8.9c0,0-0.5,14.2-8.2,19.4C215.2,194.5,213.3,188.8,212.8,184z"/>
		<linearGradient id="SVGID_66_" gradientUnits="userSpaceOnUse" x1="276.428" y1="314.5158" x2="276.428" y2="284.9257">
			<stop  offset="0" style="stop-color:#8B8BE0"/>
			<stop  offset="1" style="stop-color:#A177B7"/>
		</linearGradient>
		<path class="st80" d="M265.2,314.5l4-14.8c0,0,7-10.2,18.4-14.8l-11.2,17.2L265.2,314.5z"/>
		<linearGradient id="SVGID_67_" gradientUnits="userSpaceOnUse" x1="219.1869" y1="400" x2="219.1869" y2="298.14">
			<stop  offset="0" style="stop-color:#8B8BE0"/>
			<stop  offset="1" style="stop-color:#A177B7"/>
		</linearGradient>
		<path class="st81" d="M239.9,378c-1.7,1.9-5.1,3.6-5.1,3.6c-1.9,3.6-5.9,18.4-5.9,18.4h-30.5c1.7-7.8,9.5-19.5,11.9-23.8
			c2.5-4.4,11.7-34.1,14.2-53.8c1-8.2,1.8-16.9,2.4-24.2c0,0.6,1,6.3-1.9,34.1c-3,28.6-5.1,40.9-4.9,43.4
			C220.5,378.2,232.9,384.2,239.9,378z"/>
		<linearGradient id="SVGID_68_" gradientUnits="userSpaceOnUse" x1="282.2719" y1="400" x2="282.2719" y2="314.78">
			<stop  offset="0" style="stop-color:#8B8BE0"/>
			<stop  offset="1" style="stop-color:#A177B7"/>
		</linearGradient>
		<path class="st82" d="M299.3,374.2c-0.8,2.8-1.8,4.9-2.4,7.3C296,385.3,295,400,295,400h-26.5c1-5.5,2.3-9.7,3.8-23.3
			c1.5-13.1-6.3-58-7-61.9c0.9,4.1,10.7,50.8,12.9,54.7C282.9,378.1,296,381,299.3,374.2z"/>
		<linearGradient id="SVGID_69_" gradientUnits="userSpaceOnUse" x1="229.9266" y1="386.9186" x2="229.9266" y2="376.3623">
			<stop  offset="0" style="stop-color:#8B8BE0"/>
			<stop  offset="1" style="stop-color:#A177B7"/>
		</linearGradient>
		<path class="st83" d="M220.6,376.4c0,0,2.1,9.2,12.3,10.6l2-5.3c0,0,3.8-2.3,4.5-3c0,0-2.8,2.2-9.4,1.1
			C223.4,378.8,220.6,376.4,220.6,376.4z"/>
		<linearGradient id="SVGID_70_" gradientUnits="userSpaceOnUse" x1="291.2181" y1="381.46" x2="291.2181" y2="374.18">
			<stop  offset="0" style="stop-color:#8B8BE0"/>
			<stop  offset="1" style="stop-color:#A177B7"/>
		</linearGradient>
		<path class="st84" d="M283.1,375.5c0,0,4.6,5.2,13.8,5.9c0,0,1.7-4.5,2.4-7.3c0,0-3.8,3.6-8.1,3.6
			C286.7,377.8,283.1,375.5,283.1,375.5z"/>
		<linearGradient id="SVGID_71_" gradientUnits="userSpaceOnUse" x1="332.7769" y1="233.42" x2="332.7769" y2="162.0258">
			<stop  offset="0" style="stop-color:#8642A0"/>
			<stop  offset="1" style="stop-color:#6456C0"/>
		</linearGradient>
		<path class="st85" d="M375.6,167c-38.3-4.9-53.8-2.6-53.8-2.6c-13.7,23.4-30.3,69.1-30.3,69.1L290,231
			c9.8-29.8,31.1-68.7,31.1-68.7c26-1.4,53.6,2.8,53.6,2.8L375.6,167z"/>
		<linearGradient id="SVGID_72_" gradientUnits="userSpaceOnUse" x1="353.1777" y1="201.1474" x2="362.6052" y2="201.1474">
			<stop  offset="0" style="stop-color:#CF6074"/>
			<stop  offset="1" style="stop-color:#FF817F"/>
		</linearGradient>
		<path class="st86" d="M362,200.8c0,0-5,0.6-8.8,0.3c0,0,5.2,1,9.4,0.1L362,200.8z"/>
		<linearGradient id="SVGID_73_" gradientUnits="userSpaceOnUse" x1="232.642" y1="138.32" x2="232.642" y2="138.09">
			<stop  offset="0" style="stop-color:#9D68C2"/>
			<stop  offset="1" style="stop-color:#CCEDFF"/>
		</linearGradient>
		<path class="st87" d="M232.6,138.1c0,0.1,0,0.2,0.1,0.2C232.6,138.2,232.6,138.1,232.6,138.1z"/>
		<linearGradient id="SVGID_74_" gradientUnits="userSpaceOnUse" x1="264.945" y1="262.2635" x2="264.945" y2="246.94">
			<stop  offset="0" style="stop-color:#B9ACF4"/>
			<stop  offset="1" style="stop-color:#E1D1F5"/>
		</linearGradient>
		<path class="st88" d="M235.4,261.8c0,0,9.2,0.3,28.3-3.1c20.2-3.6,27.4-11.7,27.4-11.7s2.9,1.9,3.4,4.7c0,0-17.2,7.2-30.8,9
			C250,262.5,238.2,262.6,235.4,261.8z"/>
		<linearGradient id="SVGID_75_" gradientUnits="userSpaceOnUse" x1="276.0572" y1="271.5173" x2="276.0572" y2="260.01">
			<stop  offset="0" style="stop-color:#B9ACF4"/>
			<stop  offset="1" style="stop-color:#E1D1F5"/>
		</linearGradient>
		<path class="st89" d="M255.1,271.5c0,0,11.5-1.8,24.2-5c12.8-3.1,17.4-6.5,17.4-6.5s2.1,4.1-6.3,6.5
			C282.1,268.9,255.1,271.5,255.1,271.5z"/>
		<linearGradient id="SVGID_76_" gradientUnits="userSpaceOnUse" x1="319.0869" y1="235.2074" x2="319.0869" y2="193.19">
			<stop  offset="0" style="stop-color:#B9ACF4"/>
			<stop  offset="1" style="stop-color:#E1D1F5"/>
		</linearGradient>
		<path class="st90" d="M307,194.6l41.2,33.9l-1.9,4c0,0-26,5.4-54.8,0.9L290,231c0,0,9.3-24.9,15.5-37.8L307,194.6z"/>
		<linearGradient id="SVGID_77_" gradientUnits="userSpaceOnUse" x1="228.6024" y1="350.8947" x2="228.6024" y2="308.4526">
			<stop  offset="0" style="stop-color:#8B8BE0"/>
			<stop  offset="1" style="stop-color:#A177B7"/>
		</linearGradient>
		<path class="st91" d="M228,308.5c0,0-2.6,20.4,1.9,42.4L228,308.5z"/>
		<linearGradient id="SVGID_78_" gradientUnits="userSpaceOnUse" x1="274.1981" y1="352.8526" x2="274.1981" y2="301.5053">
			<stop  offset="0" style="stop-color:#8B8BE0"/>
			<stop  offset="1" style="stop-color:#A177B7"/>
		</linearGradient>
		<path class="st92" d="M270.4,313.3c0,0,7,27.8,12.7,39.6c0,0-11.2-15.3-15.3-25.7l-2.6-12.4l3.2-13.3L270.4,313.3z"/>
		<linearGradient id="SVGID_79_" gradientUnits="userSpaceOnUse" x1="270.4032" y1="148.2505" x2="270.4032" y2="133.5682">
			<stop  offset="0" style="stop-color:#3D2CB0"/>
			<stop  offset="1" style="stop-color:#0355C7"/>
		</linearGradient>
		<path class="st93" d="M270.5,133.7l-1.3-0.1c0,0,2.7,4.4,3.3,8c0.6,3.6-1.8,5.9-5.5,6.7c0,0,6-0.3,6.7-4.5
			S270.5,133.7,270.5,133.7z"/>
		<linearGradient id="SVGID_80_" gradientUnits="userSpaceOnUse" x1="232.3062" y1="74.458" x2="229.2701" y2="55.2886">
			<stop  offset="0" style="stop-color:#5E3187"/>
			<stop  offset="0.3777" style="stop-color:#422271"/>
			<stop  offset="0.7555" style="stop-color:#2C1760"/>
			<stop  offset="1" style="stop-color:#24135A"/>
		</linearGradient>
		<path class="st94" d="M228.1,59.1c0,0-6.4,3.7-6.5,8.5c-0.2,4.8,3.9,7.9,3.9,7.9l0.6-2.6c0,0,3.1,0.5,6.1-0.6
			c2.9-1.1,4.3-2.3,4.3-2.3s-3.7-2.2-3.8-5.8c-0.1-3.7,6.4-10.2,6.4-10.2l-5.8,0.7C233.1,54.7,229.4,57.6,228.1,59.1z"/>
		<linearGradient id="SVGID_81_" gradientUnits="userSpaceOnUse" x1="261.6234" y1="54.43" x2="261.6234" y2="37.1263">
			<stop  offset="0" style="stop-color:#8B8BE0"/>
			<stop  offset="1" style="stop-color:#A177B7"/>
		</linearGradient>
		<path class="st95" d="M258,54.4c0,0,5.8-6.3,7-10.7c1.2-4.4-3.5-6.6-3.5-6.6s1.7,1.8,1.3,6.1C262.5,47.4,258,54.4,258,54.4z"/>
		<linearGradient id="SVGID_82_" gradientUnits="userSpaceOnUse" x1="249.0413" y1="54.43" x2="249.0413" y2="42.683">
			<stop  offset="0" style="stop-color:#8B8BE0"/>
			<stop  offset="1" style="stop-color:#A177B7"/>
		</linearGradient>
		<path class="st96" d="M239.9,53.2c0,0,5.9-10.4,11.5-10.5s7.2,10.1,6.6,11.7c0,0-0.2-4.1-7.1-4.3C244.1,50,239.9,53.2,239.9,53.2z
			"/>
		<linearGradient id="SVGID_83_" gradientUnits="userSpaceOnUse" x1="272.8931" y1="53.4879" x2="272.8931" y2="45.9">
			<stop  offset="0" style="stop-color:#8B8BE0"/>
			<stop  offset="1" style="stop-color:#A177B7"/>
		</linearGradient>
		<path class="st97" d="M270.6,51.2c0,0,3-3.9,3.6-5.3c0,0,0.8,3.4,0.9,5.9c0,0,0.4,1.1-3.3,1.7L270.6,51.2z"/>
		<linearGradient id="SVGID_84_" gradientUnits="userSpaceOnUse" x1="250.3763" y1="90.7249" x2="250.3763" y2="70.6647">
			<stop  offset="0" style="stop-color:#F2C7CC"/>
			<stop  offset="1" style="stop-color:#A177B7"/>
		</linearGradient>
		<path class="st98" d="M230.7,89.3l10.1-8.4c0,0,0.4,8,7.4,9.4c7,1.4,12.2-0.9,14.2-5.3c1.9-4.4,2.3-10.6,2.3-10.6s0.5-0.7,2.7-0.7
			c2.2,0,3.2,0.9,3.2,0.9v-3.8c0,0-4.6-0.7-6.7,0.9c0,0,0.7,12.3-3.7,15.3c-4.4,3-8.1,3.4-12.8,1.1c-3.6-1.8-5.1-7.7-4-11.1
			l-3.4,0.7l-9.7,11.4L230.7,89.3z"/>
		<g>
			<linearGradient id="SVGID_85_" gradientUnits="userSpaceOnUse" x1="252.453" y1="88.6678" x2="254.7879" y2="69.2452">
				<stop  offset="0" style="stop-color:#1C257B"/>
				<stop  offset="1" style="stop-color:#482C83"/>
			</linearGradient>
			<path class="st99" d="M263.1,70.9c-1.9-2.6-15.3-0.1-19,4c-3.7,4.1,1.1,12.3,7,13.5c6.9,1.4,10.2-0.9,12.1-3.8
				C265.2,81.5,264.8,73.2,263.1,70.9z M263,83.2c-1.6,4.3-7.3,5.8-12.1,4.5c-3-0.8-8.1-5.4-6.9-10.6c1.1-5.2,16.6-7.5,18.4-5.5
				C263.9,73.2,264.5,78.9,263,83.2z"/>
			<linearGradient id="SVGID_86_" gradientUnits="userSpaceOnUse" x1="252.8127" y1="88.6266" x2="255.1476" y2="69.204">
				<stop  offset="0" style="stop-color:#1C257B"/>
				<stop  offset="1" style="stop-color:#65459C"/>
			</linearGradient>
			<path class="st100" d="M263.4,70.9c-1.9-2.6-15.3-0.1-19,4c-3.7,4.1,1.1,12.3,7,13.5c6.9,1.4,10.2-0.9,12.1-3.8
				C265.6,81.5,265.2,73.2,263.4,70.9z M263.3,83.2c-1.6,4.3-7.3,5.8-12.1,4.5c-3-0.8-8.1-5.4-6.9-10.6c1.1-5.2,16.6-7.5,18.4-5.5
				C264.2,73.1,264.9,78.8,263.3,83.2z"/>
			<linearGradient id="SVGID_87_" gradientUnits="userSpaceOnUse" x1="273.9873" y1="84.7443" x2="275.9631" y2="68.3092">
				<stop  offset="0" style="stop-color:#1C257B"/>
				<stop  offset="1" style="stop-color:#482C83"/>
			</linearGradient>
			<path class="st101" d="M279.9,69.6c-1.1-1.9-7.6-1.2-9.2,0c-1,0.8-0.5,9.8,2.4,13.7c1.8,2.4,4.4,1.8,5.2,1.3
				C280.4,83,281,71.4,279.9,69.6z M279,82c-0.9,2.5-3.1,3-5.3,1c-1.9-1.8-3.7-10.6-2.4-12.5c1.1-1.6,6.4-2.1,7.9-0.4
				C280.7,71.7,280,79.1,279,82z"/>
			<linearGradient id="SVGID_88_" gradientUnits="userSpaceOnUse" x1="274.3897" y1="84.7443" x2="276.3655" y2="68.3092">
				<stop  offset="0" style="stop-color:#1C257B"/>
				<stop  offset="1" style="stop-color:#65459C"/>
			</linearGradient>
			<path class="st102" d="M280.3,69.6c-1.1-1.9-7.6-1.2-9.2,0c-1,0.8-0.5,9.8,2.4,13.7c1.8,2.4,4.4,1.8,5.2,1.3
				C280.8,83,281.4,71.4,280.3,69.6z M279.4,82c-0.9,2.5-3.1,3-5.3,1c-1.9-1.8-3.7-10.6-2.4-12.5c1.1-1.6,6.4-2.1,7.9-0.4
				C281.1,71.7,280.4,79.1,279.4,82z"/>
			<linearGradient id="SVGID_89_" gradientUnits="userSpaceOnUse" x1="266.7413" y1="72.4861" x2="267.0719" y2="69.7355">
				<stop  offset="0" style="stop-color:#1C257B"/>
				<stop  offset="1" style="stop-color:#65459C"/>
			</linearGradient>
			<path class="st103" d="M264.1,72.2c0,0,2.9-2.2,6.5-0.6c0,0-0.1-0.8,0.2-1.3c0,0-2.6-0.8-7.5,0.4
				C263.2,70.7,263.9,71.7,264.1,72.2z"/>
			<linearGradient id="SVGID_90_" gradientUnits="userSpaceOnUse" x1="235.2177" y1="89.7604" x2="236.9698" y2="75.1857">
				<stop  offset="0" style="stop-color:#1C257B"/>
				<stop  offset="1" style="stop-color:#65459C"/>
			</linearGradient>
			<path class="st104" d="M243.4,76l-3.4,1.1l-11.1,11.8c0,0,0.4-0.1,1.4,0.3l9.9-10.5c0,0,1.6-0.9,2.8-0.6
				C243,78,242.9,76.7,243.4,76z"/>
			<linearGradient id="SVGID_91_" gradientUnits="userSpaceOnUse" x1="237.5464" y1="82.5562" x2="237.5464" y2="78.4474">
				<stop  offset="0" style="stop-color:#8642A0"/>
				<stop  offset="1" style="stop-color:#6456C0"/>
			</linearGradient>
			<polygon class="st105" points="238.6,78.4 238.7,80.1 236.5,82.6 236.4,80.9 			"/>
			<path class="st106" d="M264.1,70.5l0.6,0.6c0,0,1.7-0.4,3.4-0.4c1.6,0,2.1,0.2,2.1,0.2l0.4-0.7C270.5,70.2,267.6,69.5,264.1,70.5
				z"/>
			<path class="st106" d="M272,69.1l0.4,0.5c0,0,2.3-1.4,6.1-0.5l-0.1-0.5C278.4,68.6,275.2,68,272,69.1z"/>
			<path class="st106" d="M257.6,70.5l0.2-0.5c0,0,4.3-0.4,5.4,0.7c1.2,1.2,1.5,3.7,1.5,3.7l-0.5,0.1c0,0-0.4-2.7-1.7-3.5
				C261.1,70.2,257.6,70.5,257.6,70.5z"/>
			<path class="st107" d="M248.2,86c0,0,2.2,2.8,7.4,2.4c5.1-0.4,7.3-4.2,7.3-4.2s-2.4,3.8-7.4,3.9C250.4,88.3,248.2,86,248.2,86z"
				/>
			<path class="st107" d="M274.1,83c0,0,1.4,1.6,3,1.3c1.6-0.2,2.1-2,2.1-2s-0.9,1.8-2.6,1.7C275,84,274.1,83,274.1,83z"/>
			<path class="st107" d="M253.6,88.1c0,0,0.4,0.3,1.5,0.3c1.1,0,2.3-0.6,2.3-0.6S255.2,88.2,253.6,88.1z"/>
			<path class="st107" d="M275.3,83.9c0,0,1.2,0.4,2.2,0c1-0.4,1.2-0.8,1.2-0.8s0,1.1-1.2,1.3C276.3,84.5,275.3,83.9,275.3,83.9z"/>
			<path class="st107" d="M249.7,87.3c0,0-0.2-4.1,4.7-7c4.9-2.9,9.3-0.4,9.3-0.4s0.2,3.6-2.5,6C258.7,88.3,253,88.5,249.7,87.3z"/>
			<path class="st107" d="M273.1,81.4c0,0,3.3-4.2,7-5.5c0,0-0.1,5.6-1.4,7.1S275,85.1,273.1,81.4z"/>
			<linearGradient id="SVGID_92_" gradientUnits="userSpaceOnUse" x1="246.5712" y1="83.426" x2="246.5712" y2="74.376">
				<stop  offset="0" style="stop-color:#000000"/>
				<stop  offset="1" style="stop-color:#E1D1F5"/>
			</linearGradient>
			<path class="st108" d="M244.4,78.3c0,0,0.5,3.3,2.4,5.1l1.9-0.5c0,0-1.5-5.7-1.5-8.6C247.2,74.4,244.8,75.8,244.4,78.3z"/>
		</g>
		<linearGradient id="SVGID_93_" gradientUnits="userSpaceOnUse" x1="258.8325" y1="122.078" x2="258.8325" y2="106.07">
			<stop  offset="1.598750e-002" style="stop-color:#FFA58B"/>
			<stop  offset="1" style="stop-color:#FF898E"/>
		</linearGradient>
		<path class="st109" d="M277.6,119.5c-0.4,0.4-0.7,0.8-1.1,1c-5.7,2.9-20.8,2.2-29.1-5c-3.1-2.7-5.5-6-7.3-9.4
			c0.4,0.5,4.6,7.7,14.5,11.6C265,121.8,276.9,120.6,277.6,119.5z"/>
	</g>
	<g>
		<linearGradient id="SVGID_94_" gradientUnits="userSpaceOnUse" x1="612.1466" y1="400" x2="612.1466" y2="348.8442">
			<stop  offset="0" style="stop-color:#1C257B"/>
			<stop  offset="1" style="stop-color:#482C83"/>
		</linearGradient>
		<path class="st110" d="M646.7,400h-23.6c-0.4-0.9-0.8-1.7-1.1-2.6c0,0,0,0,0,0c-4.8-11.4-8.7-24.1-8.7-24.1c-2.3-1.7-6.4,0-6.4,0
			c-0.6,1.1-1.1,2.4-1.6,3.9c-2.1,6-3.5,14.4-4.2,19.5c0,0,0,0.1,0,0.1c-0.4,2.7-0.4,3.2-0.4,3.2h-22.3c-0.7-7.5-0.6-14-0.4-19.3
			l0-0.1c0.1-2.2,0.2-3.9,0.3-5.2l0-0.3c0.1-1.1,0.1-1.7,0.1-1.7c1.3-8.7,45.7-24.5,45.7-24.5s13.8-1.1,17.2,11.6
			c0.8,3.2,1.6,7.2,2.3,11.5c0,0.1,0,0.2,0,0.3c0,0.3,0.1,0.6,0.1,0.9c0,0.2,0.1,0.4,0.1,0.6c0,0.2,0.1,0.5,0.1,0.7
			c0,0.2,0,0.3,0.1,0.5c0,0.2,0,0.4,0.1,0.6c0,0.2,0.1,0.3,0.1,0.5c0,0.1,0,0.2,0,0.3c0,0.2,0,0.3,0.1,0.5c0,0.1,0,0.3,0.1,0.4
			C645.8,388.6,646.7,400,646.7,400z"/>
		<linearGradient id="SVGID_95_" gradientUnits="userSpaceOnUse" x1="610.966" y1="397.39" x2="610.966" y2="363.21">
			<stop  offset="0" style="stop-color:#8B8BE0"/>
			<stop  offset="1" style="stop-color:#A177B7"/>
		</linearGradient>
		<path class="st111" d="M644.2,377.1C644.2,377.1,644.2,377.1,644.2,377.1c-0.3-0.1-4.5-1-12.8,4.2c-8.4,5.3-9.4,15.6-9.4,16.1
			c-4.8-11.4-8.7-24.1-8.7-24.1c-2.3-1.7-6.4,0-6.4,0c-0.6,1.1-1.1,2.4-1.6,3.9h0c-2.4,6.5-4,18.3-4.2,19.5c0,0,0,0.1,0,0.1
			c0,0,0,0,0,0s-1.7-5.5-8.9-10.2c-7.2-4.7-14.3-5.9-14.3-5.9l0-0.1l0.3-5.2l0-0.3l50.3-11.8c0,0,13.3,1.1,13.9,2.8
			c0.3,0.9,0.8,3.5,1.2,5.9c0,0.1,0,0.2,0,0.3c0,0.3,0.1,0.6,0.1,0.9c0,0.2,0.1,0.4,0.1,0.6c0,0.2,0.1,0.5,0.1,0.7
			c0,0.2,0,0.3,0.1,0.5c0,0.2,0,0.4,0.1,0.6c0,0.2,0.1,0.3,0.1,0.5c0,0.1,0,0.2,0,0.3c0,0.2,0,0.3,0.1,0.5
			C644.2,377,644.2,377.1,644.2,377.1z"/>
		<linearGradient id="SVGID_96_" gradientUnits="userSpaceOnUse" x1="528.7036" y1="240.7789" x2="528.7036" y2="180.0148">
			<stop  offset="1.598750e-002" style="stop-color:#FFC2A9"/>
			<stop  offset="1" style="stop-color:#FF9595"/>
		</linearGradient>
		<path class="st112" d="M535.3,240.8c0,0-3.7-10.1-5.1-18.9c0,0-6.3-3.9-11.1-12.3c0,0-1.9-4.1-4.1-7.5c-2.2-3.4-3.8-8.7-3-10.4
			c0.8-1.7,3.1,1.5,4.3,3.8c1.1,2.3,3.8,5.9,3.8,5.9l0.8-0.9c0,0-1.9-6.5-2.4-9.4s-0.2-7.2,0.4-8.4c0.6-1.2,2.3-0.4,2.8,0.7
			c0,0-0.6-1.9,0.2-2.6c0.8-0.7,3.8,1.1,4.8,4.5c1,3.3,0.9,4.8,1.4,6.2c0.5,1.3,1.2,2.8,1.2,2.8s-1.1-5.4-1.3-8.6
			c-0.2-3.2,0.3-5.3,1.3-5.5s2.8,2.9,2.8,6.7c0,2.8,1,4.9,2,7.4c0.9,2.5,3.9,5.9,3.9,5.9s1.4-0.6,1.3-2c-0.1-1.4-1.1-4.3-0.4-6.4
			c0.9-2.9,3.8-4.2,4.7-3.8c0.9,0.5-1,6.1,0,8.9c0.9,2.8,1.7,5.7,2,7.6c0.3,1.9-5,10-5.2,11.5c-0.2,1.4,3.4,9.3,3.4,9.3
			S539.2,238.5,535.3,240.8z"/>
		<linearGradient id="SVGID_97_" gradientUnits="userSpaceOnUse" x1="561.4046" y1="282.3053" x2="561.4046" y2="217.8746">
			<stop  offset="0" style="stop-color:#D191FF"/>
			<stop  offset="1" style="stop-color:#CF95FF"/>
		</linearGradient>
		<path class="st113" d="M540.9,217.9c0,0,0.9-0.3,2.5,0.9c1.5,1.1,1,4.7,1,4.7s4.4,8.1,14.4,17.3c10,9.2,25.6,13.7,29.4,14.9
			c3.8,1.1,5.9,2.9,5.9,2.9l-13.3,23.7c0,0-8.6-8.3-19.5-15.5c-10.9-7.2-15.3-8.3-19.8-13.1c-4.5-4.8-8.2-14.4-9.1-15.4
			c-0.9-1-3.5-1.8-3.8-3.7c-0.3-1.9,3-5.6,3-5.6l1.3,3.6c0,0,8.7-4,8.9-12.1L540.9,217.9z"/>
		<linearGradient id="SVGID_98_" gradientUnits="userSpaceOnUse" x1="561.478" y1="282.31" x2="561.478" y2="217.8721">
			<stop  offset="0" style="stop-color:#9570FF"/>
			<stop  offset="1" style="stop-color:#CF95FF"/>
		</linearGradient>
		<path class="st114" d="M594.3,258.8l-13.4,23.6c0,0-0.5-0.5-1.4-1.3l0,0c-2.8-2.6-9.8-8.8-18.1-14.2c-3.5-2.3-6.4-4.1-8.8-5.4
			c-5-2.9-8-4.5-11-7.7c-4.5-4.8-8.2-14.4-9.1-15.4c-0.8-0.9-2.9-1.6-3.6-3c0,0,0,0,0,0c-0.1-0.2-0.2-0.4-0.2-0.7
			c-0.3-1.9,3-5.6,3-5.6l1.3,3.6c0,0,8.7-4,8.9-12.1l-1.2-2.6c0,0,1.2-0.3,2.7,0.9c0.7,0.5,0.9,1.4,1,2.3c0.1,1.2,0,2.4,0,2.4
			s2.7,5,8.8,11.7c0,0,0,0,0.1,0.1c1.6,1.8,3.5,3.7,5.6,5.6c10,9.2,25.6,13.7,29.4,14.9c1.5,0.5,2.8,1.1,3.8,1.6
			C593.5,258.1,594.3,258.8,594.3,258.8z"/>
		<linearGradient id="SVGID_99_" gradientUnits="userSpaceOnUse" x1="536.5847" y1="232.5368" x2="536.5847" y2="219.0484">
			<stop  offset="0" style="stop-color:#FF817F"/>
			<stop  offset="1" style="stop-color:#CF6074"/>
		</linearGradient>
		<path class="st115" d="M541.2,219c0,0-0.6,8.4-9.9,8.5c0,0,0.8,3.3,1.7,5c0,0,8.4-3.4,8.9-12.1L541.2,219z"/>
		<polygon class="st116" points="570.8,271.5 577.1,270.7 577.1,273.3 572.3,273.8 		"/>
		<linearGradient id="SVGID_100_" gradientUnits="userSpaceOnUse" x1="533.7576" y1="209.6295" x2="538.8486" y2="194.059">
			<stop  offset="0" style="stop-color:#FF8883"/>
			<stop  offset="1" style="stop-color:#E8868D"/>
		</linearGradient>
		<path class="st117" d="M537.5,199.4c0,0-3.9,1.5-6.2,9.4c0,0,4.3-6.7,7.4-8c2.5-1.1,0.4-6.4,0.1-6.8
			C540.2,199.3,537.5,199.4,537.5,199.4z"/>
		<linearGradient id="SVGID_101_" gradientUnits="userSpaceOnUse" x1="524.0937" y1="204.4717" x2="527.8399" y2="193.0141">
			<stop  offset="0" style="stop-color:#FF8883"/>
			<stop  offset="1" style="stop-color:#E8868D"/>
		</linearGradient>
		<path class="st118" d="M519.3,202.9c0,0,5.2-6.1,13.3-8.3C532.6,194.6,524,194.2,519.3,202.9z"/>
		<linearGradient id="SVGID_102_" gradientUnits="userSpaceOnUse" x1="536.523" y1="235.8282" x2="536.523" y2="217.8721">
			<stop  offset="0" style="stop-color:#8B8BE0"/>
			<stop  offset="1" style="stop-color:#A177B7"/>
		</linearGradient>
		<path class="st119" d="M544.4,221.1c-0.8,2.4-2.2,7.4-5.3,10.8c-5.5,6-9.9,3.4-10.2,3.4c0,0,0,0,0,0c-0.1-0.2-0.2-0.4-0.2-0.7
			c-0.3-1.9,3-5.6,3-5.6l1.3,3.6c0,0,8.7-4,8.9-12.1l-1.2-2.6c0,0,1.2-0.3,2.7,0.9C544,219.3,544.3,220.2,544.4,221.1z"/>
		<linearGradient id="SVGID_103_" gradientUnits="userSpaceOnUse" x1="572.311" y1="281.02" x2="572.311" y2="235.17">
			<stop  offset="0" style="stop-color:#8B8BE0"/>
			<stop  offset="1" style="stop-color:#A177B7"/>
		</linearGradient>
		<path class="st120" d="M592,257.3L579.5,281l0,0c-2.8-2.6-9.8-8.8-18.1-14.2c-3.5-2.3-6.4-4.1-8.8-5.4c11.3,4.8,21,11.5,21,11.5
			l1.9-18.1c0,0-1.9-0.3-9.7-6.8c-7.3-6-12.1-12.1-12.7-12.8c1.6,1.8,3.5,3.7,5.6,5.6c10,9.2,25.6,13.7,29.4,14.9
			C589.7,256.1,591,256.7,592,257.3z"/>
		
			<linearGradient id="SVGID_104_" gradientUnits="userSpaceOnUse" x1="662.0389" y1="165.2642" x2="662.0389" y2="128.3976" gradientTransform="matrix(0.9393 0.3432 -0.3432 0.9393 92.9581 -200.2312)">
			<stop  offset="0" style="stop-color:#B31A8F"/>
			<stop  offset="1" style="stop-color:#FE117E"/>
		</linearGradient>
		<path class="st121" d="M645.4,166.4c0,0,3.4-16.4,17.2-21.6c0,0,9,1.6,12.4,11.8l-7,5.7l7.5-3.5c0,0,2.9,3.5,1.6,9.1
			c0,0-9.3,5.2-17.4,7.5c0,0,9.5,0,17.5,4.6c0,0,0.3,1.9-1.5,4.1c0,0-7.5-4.8-16.1-5.9l-4.6,2.8L645.4,166.4z"/>
		<linearGradient id="SVGID_105_" gradientUnits="userSpaceOnUse" x1="662.3606" y1="184.1322" x2="662.3606" y2="144.7412">
			<stop  offset="0" style="stop-color:#8B8BE0"/>
			<stop  offset="1" style="stop-color:#A177B7"/>
		</linearGradient>
		<path class="st122" d="M662.6,144.7c0,0-6,1.2-12.6,14.1c0,0,2,2.5,9.5,1.4c7.5-1,15.5-3.7,15.5-3.7l-7,5.7l-7.9,4.8
			c0,0,4.8-1.2,9.7-3.3c4.8-2.1,5.8-5.1,5.8-5.1s3.2,3.8,1.6,9.1c0,0-9.4,5.5-17.4,7.5c0,0,4.3,2.3,9.6,4.7c5.4,2.3,6.3,4.1,6.3,4.1
			s-8.9-5.3-16.1-5.9l-12.4-17.3C647.2,160.9,651.4,149.1,662.6,144.7z"/>
		<path class="st7" d="M643.6,164.4c0,0,0.8-3.1,3.5-3.5c2.8-0.4,12.4,6.1,12.4,17.3c0,0,0.1,2.1-3.2,1.8
			C653.1,179.7,643.6,164.4,643.6,164.4z"/>
		<linearGradient id="SVGID_106_" gradientUnits="userSpaceOnUse" x1="600.0774" y1="269.1053" x2="600.0774" y2="251.9579">
			<stop  offset="0" style="stop-color:#FF817F"/>
			<stop  offset="1" style="stop-color:#CF6074"/>
		</linearGradient>
		<path class="st123" d="M607.3,252c0,0-0.4,3.8,0,6.4l1.9,1.3c0,0-8.7,9.4-14.9,9.4c-6.3,0-1.9-8.3-1.9-8.3s1.5-0.9,1.9-2.5
			c0.4-1.5-0.9-5.9-0.9-5.9L607.3,252z"/>
		<linearGradient id="SVGID_107_" gradientUnits="userSpaceOnUse" x1="604.0783" y1="253.0473" x2="604.0783" y2="163.247">
			<stop  offset="1.598750e-002" style="stop-color:#FFC2A9"/>
			<stop  offset="1" style="stop-color:#FF9595"/>
		</linearGradient>
		<path class="st124" d="M637.7,238.2c-10.3,10.3-28.6,15.9-45.8,14.7l-3-0.3l0,0h0c-0.8-0.1-1.6-0.2-2.4-0.3
			c-18.7-3-29-20.6-28.7-29.5c0.3-8.8,4-12.8,6.6-17.4c2.5-4.6,3.6-22.1,12-32.2c6.6-8,25.7-10.6,39.4-9.8
			c14.3,0.8,27.9,10.1,33,25.8C653.5,204.8,649.1,226.9,637.7,238.2z"/>
		<linearGradient id="SVGID_108_" gradientUnits="userSpaceOnUse" x1="607.3655" y1="253.0473" x2="607.3655" y2="163.247">
			<stop  offset="1.598750e-002" style="stop-color:#FFA58B"/>
			<stop  offset="1" style="stop-color:#FF898E"/>
		</linearGradient>
		<path class="st125" d="M637.7,238.2c-10.3,10.3-28.6,15.9-45.8,14.7l-3-0.3l0,0c11.7-0.7,31.6-2.5,38.2-15.4
			c7-13.7,3.1-23.4,3.1-23.4c-12.9,10-31.8,0.9-31.8,0.9c-2-21,8.2-42.1,8.2-42.1c-14-4.6-21.7,4.7-21.7,4.7
			c0.7,18.2-8.5,30.8-8.5,30.8c-9.1,4.3-12.2-2.8-12.2-2.8c2.5-4.6,3.6-22.1,12-32.2c6.6-8,25.7-10.6,39.4-9.8
			c14.3,0.8,27.9,10.1,33,25.8C653.5,204.8,649.1,226.9,637.7,238.2z"/>
		<linearGradient id="SVGID_109_" gradientUnits="userSpaceOnUse" x1="617.905" y1="238.2211" x2="617.905" y2="155.1269">
			<stop  offset="0" style="stop-color:#B31A8F"/>
			<stop  offset="1" style="stop-color:#FE117E"/>
		</linearGradient>
		<path class="st126" d="M604.1,163.6c0,0-5.3-3.8-11.9-3c-6.6,0.8-12.2,3.9-15.5,12.1l-2.5,3.3c0,0,2.9-13.1,10.1-18.6
			c7.2-5.5,24.1,1.1,24.1,1.1s5.1-1.3,13.3-1c12.5,0.4,23.1,4.2,33.8,17.8c10.6,13.4,5.5,44.3-0.9,52.5
			c-6.4,8.1-16.9,10.6-16.9,10.6l-0.1-11.5c0,0,8.5-18,5.3-34.8c-3.5-17.8-14.2-24.3-23-26.4C609.2,163.1,604.1,163.6,604.1,163.6z"
			/>
		<linearGradient id="SVGID_110_" gradientUnits="userSpaceOnUse" x1="645.9879" y1="247.2025" x2="645.9879" y2="220.1675">
			<stop  offset="1.598750e-002" style="stop-color:#FFAC8B"/>
			<stop  offset="1" style="stop-color:#FF9595"/>
		</linearGradient>
		<path class="st127" d="M638.2,226.2c0,0,8.3-8.6,15.5-5.3c8.5,3.9,6.1,17.8-0.8,23.5c-5.9,4.9-16.8,3-20.1-3.4
			C632.9,241,631.6,231.7,638.2,226.2z"/>
		<path class="st40" d="M636.9,232.9c0,0,5.9-5.8,12.6-5.2c6.7,0.6,6.8,6.4,6.8,6.4s-1.4-4.1-5.7-4.3c-4.3-0.2-5.8,3-5.8,3
			s2.2-0.1,3.3,3.3c1.1,3.5-5.1,7.5-8.7,5.3C635.7,239.4,636.9,232.9,636.9,232.9z"/>
		<linearGradient id="SVGID_111_" gradientUnits="userSpaceOnUse" x1="590.2618" y1="172.6069" x2="590.2618" y2="158.8419">
			<stop  offset="0" style="stop-color:#B31A8F"/>
			<stop  offset="1" style="stop-color:#92117E"/>
		</linearGradient>
		<path class="st128" d="M576.4,172.6c0,0,9.6-8.2,27.8-9c0,0-9.3-6.5-15.8-4.3C582.4,161.4,576.9,170.1,576.4,172.6z"/>
		<linearGradient id="SVGID_112_" gradientUnits="userSpaceOnUse" x1="586.5788" y1="195.3642" x2="586.5788" y2="159.138">
			<stop  offset="0" style="stop-color:#D61A8F"/>
			<stop  offset="1" style="stop-color:#FE3CA6"/>
		</linearGradient>
		<path class="st129" d="M606.2,163.5c0,0-11.7-7.9-25.4-2.5c-13.4,5.3-15.1,23.9-13.5,34.3l2.7-7.9c0,0-0.9-20.4,10.8-25.3
			c11.7-4.9,20.3,1.7,20.3,1.7L606.2,163.5z"/>
		<linearGradient id="SVGID_113_" gradientUnits="userSpaceOnUse" x1="614.6992" y1="377.6886" x2="614.6992" y2="254.7">
			<stop  offset="0" style="stop-color:#D191FF"/>
			<stop  offset="1" style="stop-color:#CF95FF"/>
		</linearGradient>
		<path class="st130" d="M622.9,296.2c1.6,13.4,7.6,31,11.6,40.1c0.2,0.4,0.3,0.8,0.5,1.2c4,8.7,6.4,7.6,7.4,10c0.9,2.5-0.8,8-0.8,8
			c2.8,4.5,1.7,9.8,1.7,9.8l0,0c-0.5,0.5-8.4,8.6-33,11.4c-8.8,1-15.6,1.1-20.9,0.8c-0.1,0-0.2,0-0.3,0c-0.2,0-0.4,0-0.5,0h0
			c-0.7,0-1.3-0.1-1.9-0.1c-0.1,0-0.2,0-0.3,0c-0.3,0-0.6-0.1-0.9-0.1c-0.9-0.1-1.5-0.2-1.5-0.2c-0.5-0.1-1-0.1-1.4-0.2
			c-5-0.7-7.1-1.7-7.1-1.7c-1.2-4,0-7.2,0-7.2c-0.1-0.1-0.1-0.1-0.2-0.2c-0.8-0.7-4.2-3.5-4.5-6.8c0,0,0-0.1,0-0.1
			c-0.2-3.8,1.9-6.3,3.2-10.6c1.3-4.4,1.7-50.8,4-63.5c2.3-12.7,11.6-27.5,11.6-27.5s-1.4-3.8,1.4-3.6s3.4,1.1,3.4,1.1
			s0.3,0.9-0.1,1.8c-1.6,2.9-4.8,8,0.5,8.1c7.6,0.2,12.4-12.1,12.4-12.1c2.6,0.2,2.1,3.2,2.1,3.2s3.8,1.1,5.8,2.6s8.5,7.6,14.7,16
			c6.3,8.3,18.4,12.1,24.3,19c5.9,6.8,4.5,16.9,4.5,16.9c-3,2.6-14.8,3.3-14.8,3.3s-3.1-7-7.6-11.9
			C631.5,298.9,622.9,296.2,622.9,296.2z"/>
		<path class="st131" d="M626.6,349.7c0,0,4.6,1.2,5.2,2.5c0.6,1.2,0.7,3.2,0.7,3.2l1.5-1.1c0,0,0.5-2.4-0.1-3.1
			c-0.6-0.8-3.6-1.5-3.6-1.5L626.6,349.7z"/>
		<path class="st131" d="M610.4,346.3c0,0-3.2,3.1-6.3,4.9l3.5,1.3c0,0,4.9-4.3,6-6.2H610.4z"/>
		<linearGradient id="SVGID_114_" gradientUnits="userSpaceOnUse" x1="607.207" y1="377.6909" x2="607.207" y2="336.35">
			<stop  offset="0" style="stop-color:#8B8BE0"/>
			<stop  offset="1" style="stop-color:#A177B7"/>
		</linearGradient>
		<path class="st132" d="M643.4,365.4c0,0-7.6,8.5-33,11.4c-25.4,2.8-34.9-1.5-34.9-1.5c36.7,8.1,64.5-8.7,64.5-8.7
			c1.7-4-3.1-10.1-3.1-10.1c-27.9,11.2-61.4,11.6-61.4,11.6c-0.1-0.1-0.1-0.1-0.2-0.2c-0.1-0.1-0.2-0.2-0.3-0.3
			c-4-3.2-4.1-6.1-4.1-6.5c0,0,0-0.1,0-0.1s13.8,4.4,34,0.4c20.2-4,35.7-13.8,35.7-13.8s-33.1,2-36.9,0c-3.8-2-9.4-7.3-9.4-7.3
			l40.4-3.9c0.2,0.4,0.3,0.8,0.5,1.2c4,8.7,6.4,7.6,7.4,10c0.9,2.5-0.8,8-0.8,8C644.5,360,643.4,365.4,643.4,365.4z"/>
		<g>
			<linearGradient id="SVGID_115_" gradientUnits="userSpaceOnUse" x1="609.2235" y1="307.059" x2="649.3142" y2="307.059">
				<stop  offset="0" style="stop-color:#5142D8"/>
				<stop  offset="1" style="stop-color:#3989E8"/>
			</linearGradient>
			<polygon class="st133" points="609.2,270.3 646.7,270.3 649.3,272.1 640.4,343.5 638.3,343.8 609.2,340.3 			"/>
			<linearGradient id="SVGID_116_" gradientUnits="userSpaceOnUse" x1="636.7379" y1="343.8126" x2="636.7379" y2="270.3053">
				<stop  offset="0" style="stop-color:#3D2CB0"/>
				<stop  offset="1" style="stop-color:#0355C7"/>
			</linearGradient>
			<polygon class="st134" points="646.7,270.3 638.3,343.8 626.8,342.6 635.7,270.3 			"/>
			<linearGradient id="SVGID_117_" gradientUnits="userSpaceOnUse" x1="610.5174" y1="346.3474" x2="610.5174" y2="265.205">
				<stop  offset="0" style="stop-color:#744FD8"/>
				<stop  offset="1" style="stop-color:#3996F7"/>
			</linearGradient>
			<path class="st135" d="M585.1,340c0,0-0.9-48.8,2.2-74c0,0,26.8-1.5,46.5-0.4l2.2,1.2l-6.2,78.6l-3.1,1L585.1,340z"/>
			<linearGradient id="SVGID_118_" gradientUnits="userSpaceOnUse" x1="636.8627" y1="343.9641" x2="636.8627" y2="269.1053">
				<stop  offset="0" style="stop-color:#D0C7F8"/>
				<stop  offset="1" style="stop-color:#FFFFFF"/>
			</linearGradient>
			<path class="st136" d="M635.8,269.1c0,0,3.9,3.2,7.9,3.5l-7,69.7c0,0-4.1-0.6-6.8,1.7L635.8,269.1z"/>
			<linearGradient id="SVGID_119_" gradientUnits="userSpaceOnUse" x1="631.3982" y1="346.3474" x2="631.3982" y2="265.5614">
				<stop  offset="0" style="stop-color:#5142D8"/>
				<stop  offset="1" style="stop-color:#3989E8"/>
			</linearGradient>
			<polygon class="st137" points="636,266.8 633.8,265.6 626.8,346.3 629.9,345.3 			"/>
		</g>
		<linearGradient id="SVGID_120_" gradientUnits="userSpaceOnUse" x1="612.8414" y1="327.4423" x2="620.7988" y2="303.1048">
			<stop  offset="0" style="stop-color:#8B8BE0"/>
			<stop  offset="1" style="stop-color:#A177B7"/>
		</linearGradient>
		<path class="st138" d="M589.9,310.1c0,0,4.7,5.9,7.1,8.4l2,2.1l-5.7,0.2c0,0,5.1,2.3,9.3,3.2c4.2,0.9,26,1.3,26,1.3h2.8l0.3-3.3
			l7-0.8l2,1.3l2.3-0.1l0.7-5.8l-3.2-7.1l-23,1.3L589.9,310.1z"/>
		<linearGradient id="SVGID_121_" gradientUnits="userSpaceOnUse" x1="587.343" y1="305.5853" x2="633.4615" y2="305.5853">
			<stop  offset="1.598750e-002" style="stop-color:#FFC2A9"/>
			<stop  offset="1" style="stop-color:#FF9595"/>
		</linearGradient>
		<path class="st139" d="M627.8,304.5l-2-0.1c0,0-1.5-6.6-2.9-8.3c-1.4-1.6-6.4-2.7-9.7-4.7c-3.3-2-4.4-3-5.2-1.9
			c-0.8,1.1,0.1,5.4,2.4,6.4c2.2,1.1,4.6,1.5,5.1,2.1c0.5,0.6,0.6,2,0.6,2s-6.6,1-10-0.5c-3.4-1.5-6.5-2.4-9.3-2.3
			c-2.8,0.1-3.7,1.2-3.7,1.8c0.1,0.6,5.4,3,7.7,4c2.3,1,4,2,4,2s-3.3,0.8-5.9,0.6c-2.6-0.3-4.8-1.3-7.6-1c-2.8,0.3-3.7,1.5-3.9,2.1
			c-0.2,0.6,1.7,1.3,1.7,1.3s-0.5,0.1-0.6,0.8c-0.1,0.7,4.1,3.9,7,5.6c2.9,1.6,7.2,2,7.2,2s-0.1,0.9-0.9,1.5s-3.1,0.6-4.7,0.6
			c-1.6-0.1-4.9-0.1-5.6,0.9s4.7,2.1,7.3,2.5c2.6,0.4,11.2-0.3,16.7-1.6c5.4-1.3,9.7-4.7,9.7-4.7l8.4,0.2
			C633.5,315.8,633.5,307.1,627.8,304.5z"/>
		<path class="st47" d="M601.1,196.7c0,0,1.5-9.4,8.4-11.1c7.3-1.8,16.8,5.1,17.3,15.7L601.1,196.7z"/>
		<path class="st47" d="M579.2,194.6c0,0,1.1-9.6-2.8-15c-3.9-5.4-7.1,8.7-7.1,8.7L579.2,194.6z"/>
		<linearGradient id="SVGID_122_" gradientUnits="userSpaceOnUse" x1="642.6166" y1="318.6127" x2="642.6166" y2="293.8">
			<stop  offset="0" style="stop-color:#D191FF"/>
			<stop  offset="1" style="stop-color:#CF95FF"/>
		</linearGradient>
		<path class="st140" d="M658.2,312.9c-1,0.9-5.6,3.3-19,4.3c0,0-3,1.8-5.7,1.4s-3.5-2.9-3.5-2.9l3.5,0.1c0,0-1.2-9-6.7-11.3
			c0,0-0.6-2.8,0.8-3.4c1.1-0.4,3.7,0.9,3.7,0.9s3.1-0.3,8-2.3c4.8-2,5.4-6,8.1-6c2.6,0,7.5,1.9,9.3,8.1c0.3,1,0.6,1.9,0.8,2.8
			C658.6,309.3,659,312.1,658.2,312.9z"/>
		<linearGradient id="SVGID_123_" gradientUnits="userSpaceOnUse" x1="613.4079" y1="216.6139" x2="613.4079" y2="187.5182">
			<stop  offset="0" style="stop-color:#D0C7F8"/>
			<stop  offset="1" style="stop-color:#FFFFFF"/>
		</linearGradient>
		<path class="st141" d="M611.3,187.5c-5.6,0.2-10.3,6.1-11.2,13.5c-0.8,6.9,0,10.6,3,13.1c3,2.5,16.3,4.3,21.2-0.8
			C629.7,207.6,627.9,186.8,611.3,187.5z"/>
		<linearGradient id="SVGID_124_" gradientUnits="userSpaceOnUse" x1="609.4421" y1="181.4351" x2="631.3887" y2="181.4351">
			<stop  offset="0" style="stop-color:#BD33A0"/>
			<stop  offset="1" style="stop-color:#0665A5"/>
		</linearGradient>
		<path class="st142" d="M609.4,172.2c0,0,0,3.7,1.2,6c0,0,10,1.8,14,4.9c4.2,3.2,6.8,7.6,6.8,7.6s-1.3-5.3-5.8-10.1
			C621.3,175.9,611.8,175,609.4,172.2z"/>
		<linearGradient id="SVGID_125_" gradientUnits="userSpaceOnUse" x1="578.6666" y1="170.2325" x2="581.4954" y2="179.4851">
			<stop  offset="0" style="stop-color:#0665A5"/>
			<stop  offset="1" style="stop-color:#BD33A0"/>
		</linearGradient>
		<path class="st143" d="M576.1,173.4c0,0,5.8-1,7.9,5.3c0,0-0.5-7.7-2.8-9.3C581.2,169.5,577.6,170.3,576.1,173.4z"/>
		<linearGradient id="SVGID_126_" gradientUnits="userSpaceOnUse" x1="572.2554" y1="207.6327" x2="572.2554" y2="181.4351">
			<stop  offset="0" style="stop-color:#D0C7F8"/>
			<stop  offset="1" style="stop-color:#FFFFFF"/>
		</linearGradient>
		<path class="st144" d="M579.2,194.6c-0.3,5.3-2,10.7-4.4,12.4c0,0-0.1,0.1-0.2,0.1c0,0-0.1,0.1-0.1,0.1c-2.8,1.6-9.6-1.1-9.2-4.6
			c0.5-5,4.2-16.6,6.7-19.5c1.8-2.2,4.2-3,6.4,3.4C579.1,188.7,579.3,191.6,579.2,194.6z"/>
		<radialGradient id="SVGID_127_" cx="614.245" cy="210.4076" r="9.1362" gradientUnits="userSpaceOnUse">
			<stop  offset="0" style="stop-color:#CF95FF"/>
			<stop  offset="1" style="stop-color:#8161FF"/>
		</radialGradient>
		<circle class="st145" cx="614" cy="206.6" r="9.3"/>
		<linearGradient id="SVGID_128_" gradientUnits="userSpaceOnUse" x1="613.9542" y1="213.0885" x2="613.9542" y2="200.1662">
			<stop  offset="0" style="stop-color:#8642A0"/>
			<stop  offset="1" style="stop-color:#4E37B7"/>
		</linearGradient>
		<circle class="st146" cx="614" cy="206.6" r="6.5"/>
		<radialGradient id="SVGID_129_" cx="573.8137" cy="202.0544" r="6.6134" gradientUnits="userSpaceOnUse">
			<stop  offset="0" style="stop-color:#CF95FF"/>
			<stop  offset="1" style="stop-color:#8161FF"/>
		</radialGradient>
		<path class="st147" d="M579.2,194.6c-0.3,5.3-2,10.7-4.4,12.4c0,0-0.1,0.1-0.2,0.1c-0.8,0.4-1.5,0.6-2.3,0.5c-3-0.5-4.8-5-4-10.1
			c0.8-5.1,3.8-8.9,6.8-8.4C577.2,189.4,578.7,191.6,579.2,194.6z"/>
		
			<linearGradient id="SVGID_130_" gradientUnits="userSpaceOnUse" x1="574.0602" y1="198.1173" x2="574.0602" y2="185.1943" gradientTransform="matrix(0.9885 0.1509 -0.1509 0.9885 35.9612 -77.6595)">
			<stop  offset="0" style="stop-color:#8642A0"/>
			<stop  offset="1" style="stop-color:#4E37B7"/>
		</linearGradient>
		<path class="st148" d="M578.3,199c-0.5,3.5-2.7,6.1-4.7,5.8c-2.1-0.3-3.3-3.4-2.8-7c0.5-3.5,2.7-6.1,4.7-5.8
			C577.5,192.3,578.8,195.5,578.3,199z"/>
		<circle class="st0" cx="605.4" cy="203.1" r="1.8"/>
		
			<ellipse transform="matrix(0.9959 9.098531e-002 -9.098531e-002 0.9959 20.1425 -50.9166)" class="st0" cx="568.5" cy="195.5" rx="1.1" ry="1.8"/>
		<g>
			
				<linearGradient id="SVGID_131_" gradientUnits="userSpaceOnUse" x1="579.0164" y1="204.0123" x2="579.0164" y2="192.6788" gradientTransform="matrix(0.9505 0.3108 -0.3108 0.9505 92.9307 -155.6596)">
				<stop  offset="0" style="stop-color:#FF8883"/>
				<stop  offset="1" style="stop-color:#FFB1A4"/>
			</linearGradient>
			<path class="st149" d="M588.8,215.4c0,0-3.2,0.8-5.4,1.9c-2.2,1.1-4.1,0.8-4.1,0.8c-3.8-2-5.6-4.6-5.3-6.2c0.1-0.4,0.3-0.8,0.6-1
				c1.7-1.4,4.3-2.3,4.3-2.3c3.9-2,9.8,0.4,10.2,2.3c0.3,1.2,0,2.8-0.2,3.8C588.9,215,588.8,215.4,588.8,215.4z"/>
			
				<linearGradient id="SVGID_132_" gradientUnits="userSpaceOnUse" x1="579.0252" y1="204.0123" x2="579.0252" y2="197.6237" gradientTransform="matrix(0.9505 0.3108 -0.3108 0.9505 92.9307 -155.6596)">
				<stop  offset="0" style="stop-color:#FF8883"/>
				<stop  offset="1" style="stop-color:#E8868D"/>
			</linearGradient>
			<path class="st150" d="M588.8,215.4c0,0-3.2,0.8-5.4,1.9c-2.2,1.1-4.1,0.8-4.1,0.8c-3.8-2-5.6-4.6-5.3-6.2c0,0,1.5,1.4,5.9,1.9
				c3.9,0.5,7.3,0.2,9.1,0.8C588.9,215,588.8,215.4,588.8,215.4z"/>
			<path class="st60" d="M584,216.9c0,0,2-2.5,4.8-1.6C588.8,215.4,586.2,216,584,216.9z"/>
		</g>
		<path class="st40" d="M572.3,224.3c0,0-0.3,11.4,3.9,17c4.2,5.6,11.9,4,16.5-1.1c4.5-5,5.6-12,5.6-12L572.3,224.3z"/>
		<path class="st151" d="M598.8,224.7c-0.2,3.1-1,5.9-2.2,8.3v0c-3.8,7.9-11.6,12-17.3,9.2c-2.4-1.2-4-3.6-5-6.4
			c-1.9-5.2-2-11.6-2.1-13.6c-0.1-2.7-1.1-3.4-1.4-3.5l3.1,1.4c6.7,0.1,12.3,2.7,15.4,3.2c3.5,0.6,6.6-0.2,8.2,0
			C599,223.7,598.8,224.7,598.8,224.7z"/>
		<linearGradient id="SVGID_133_" gradientUnits="userSpaceOnUse" x1="585.471" y1="243.1342" x2="585.471" y2="231.2513">
			<stop  offset="0" style="stop-color:#CF6074"/>
			<stop  offset="1" style="stop-color:#E04A7F"/>
		</linearGradient>
		<path class="st152" d="M596.6,233L596.6,233c-3.8,7.9-11.6,12-17.3,9.2c-2.4-1.2-4-3.6-5-6.4c0,0,4.1-3.7,12.1-4.5
			C594.4,230.6,596.6,233,596.6,233z"/>
		<path class="st153" d="M574,220.2c0,0,0.4,3.3,5.3,4.8c5,1.5,12.4-1.3,12.4-1.3s-2.1,0-5.3-1C583.1,221.7,577.9,219.9,574,220.2z"
			/>
		<path class="st40" d="M595.6,221.9c0,0,3.6,1.9,4.9,5.3c0,0-0.2-3.4-1.2-5C598.4,220.6,595.6,221.9,595.6,221.9z"/>
		<path class="st40" d="M571.4,219c0,0,1.4,0.6,2.6,0.5c1.2-0.1,4.5-0.5,9.2,1.2c4.7,1.8,7.7,2.3,9.6,2.5c1.9,0.2,3.8,0.1,3.8,0.1
			s-3,0.4-5.1,0.3s-7.2-2.2-11.5-2.9c-4.3-0.7-5.9-0.4-5.9-0.4S572.3,219.9,571.4,219z"/>
		<path class="st40" d="M603.1,214.2c0,0,11.9,3.7,23.7-2.4c0,0-1.9,3.1-6.4,4.8C615.9,218.3,607.5,218.1,603.1,214.2z"/>
		<path class="st40" d="M565.5,201.3c0,0,2.3,6.4,10.1,5c0,0-3.9,3.8-7,2.1C564,206,565.5,201.3,565.5,201.3z"/>
		<path class="st154" d="M575.3,238.2c0,0,2.4-4.7,6.8-6.1c0,0-5.7,1.2-7.8,3.7L575.3,238.2z"/>
		<path class="st153" d="M575.1,237.8c0,0,1.4,0.4,4.6,1.5c3.5,1.2,7.3,3.1,7.3,3.1S578.7,245.8,575.1,237.8z"/>
		<linearGradient id="SVGID_134_" gradientUnits="userSpaceOnUse" x1="649.5742" y1="226.7519" x2="649.5742" y2="171.17">
			<stop  offset="0" style="stop-color:#8B8BE0"/>
			<stop  offset="1" style="stop-color:#A177B7"/>
		</linearGradient>
		<path class="st155" d="M642.3,171.2c0,0,3.5,14.4,8.3,17.9c4.8,3.5,8.9-1.6,8.6-7c0,0,6.7,17.2-2.4,41.7c0,0-1.9-4.9-9.9-2.9
			c-5.7,1.5-9.3,5.9-9.3,5.9s3.3-8.1,4.5-15.8c1.3-7.7,0.1-21.9,0.1-21.9L642.3,171.2z"/>
		<linearGradient id="SVGID_135_" gradientUnits="userSpaceOnUse" x1="638.7068" y1="273.8421" x2="638.7068" y2="167.1142">
			<stop  offset="0" style="stop-color:#B31A8F"/>
			<stop  offset="1" style="stop-color:#FE117E"/>
		</linearGradient>
		<path class="st156" d="M626.8,168.1c0,0,9.5,8.1,13.1,24c3.6,15.9-0.3,41.9,0.5,53.4c0.8,11.6,6.6,11.5,5.6,28.2
			c0,0,3.8-14.2-1.7-25.4c-5.5-11.2,0.2-22.7,5.1-39.6c4.9-16.9-7-38.5-10.8-40.8C634.9,165.8,626.8,168.1,626.8,168.1z"/>
		<linearGradient id="SVGID_136_" gradientUnits="userSpaceOnUse" x1="522.0422" y1="195.6457" x2="525.6578" y2="184.5872">
			<stop  offset="0" style="stop-color:#FF8883"/>
			<stop  offset="1" style="stop-color:#E8868D"/>
		</linearGradient>
		<path class="st157" d="M521.6,183.3c0,0,0.9,2.3,1.2,5.1c0.3,2.8,0.3,2.8,0.3,2.8l2.1,5.5l1.2-0.6c0,0-2.6-3.6-3.1-5
			s0.3-2.6-0.3-4.9C522.3,183.9,521.6,183.3,521.6,183.3z"/>
		<linearGradient id="SVGID_137_" gradientUnits="userSpaceOnUse" x1="628.2852" y1="315.7597" x2="631.4649" y2="306.0347">
			<stop  offset="0" style="stop-color:#FF817F"/>
			<stop  offset="1" style="stop-color:#CF6074"/>
		</linearGradient>
		<path class="st158" d="M626.8,304.5c0,0,3,6.6,1.2,11.2l5.4,0.1C633.5,315.8,633.2,307.9,626.8,304.5z"/>
		<linearGradient id="SVGID_138_" gradientUnits="userSpaceOnUse" x1="596.424" y1="311.39" x2="597.1884" y2="309.0523">
			<stop  offset="0" style="stop-color:#FF817F"/>
			<stop  offset="1" style="stop-color:#CF6074"/>
		</linearGradient>
		<path class="st159" d="M589.1,308.1c0,0,5.5,2.2,8.2,2.7c2.9,0.6,7.5,0.7,7.5,0.7s-3.7,0.9-7.6,0
			C593.3,310.7,589.1,308.1,589.1,308.1z"/>
		<linearGradient id="SVGID_139_" gradientUnits="userSpaceOnUse" x1="642.6372" y1="318.6127" x2="642.6372" y2="301.15">
			<stop  offset="0" style="stop-color:#8B8BE0"/>
			<stop  offset="1" style="stop-color:#A177B7"/>
		</linearGradient>
		<path class="st160" d="M658.2,312.9c-0.9,0.9-5.6,3.3-19,4.3c0,0-3,1.8-5.7,1.4s-3.5-2.9-3.5-2.9l3.5,0.1c0,0-1.2-9-6.7-11.3
			c0,0-0.6-2.8,0.8-3.4c0,0,7.5,8,8.4,15.1c0,0,4.7-0.4,7.8-5.1l-0.8,2.9c0,0,12.2-4.7,13.9-7.4c0.3-0.5,1.2-1.1,1.2-1.8
			C658.8,308.3,658.7,312.3,658.2,312.9z"/>
		<linearGradient id="SVGID_140_" gradientUnits="userSpaceOnUse" x1="648.6475" y1="296.1031" x2="648.6475" y2="289.7634">
			<stop  offset="0" style="stop-color:#8B8BE0"/>
			<stop  offset="1" style="stop-color:#A177B7"/>
		</linearGradient>
		<path class="st161" d="M644.3,295.8c0,0,4.4-2,8.7,0.3c0,0-2.4-4-5.9-6.3l-0.5,4.1C646.6,293.9,645.4,294.2,644.3,295.8z"/>
		<linearGradient id="SVGID_141_" gradientUnits="userSpaceOnUse" x1="604.6519" y1="365.182" x2="604.6519" y2="354.8627">
			<stop  offset="0" style="stop-color:#8B8BE0"/>
			<stop  offset="1" style="stop-color:#A177B7"/>
		</linearGradient>
		<path class="st162" d="M583.4,363c0,0,6,3.5,19.3,1.7c13.3-1.8,23.2-9.8,23.2-9.8s-11.5,5.5-23.7,7
			C589.9,363.4,583.4,363,583.4,363z"/>
		<linearGradient id="SVGID_142_" gradientUnits="userSpaceOnUse" x1="582.126" y1="377.11" x2="582.126" y2="367.9">
			<stop  offset="0" style="stop-color:#8B8BE0"/>
			<stop  offset="1" style="stop-color:#A177B7"/>
		</linearGradient>
		<path class="st163" d="M580.2,367.9c0.1,0.7,1,6.4,3.8,9.2c-0.5-0.1-1-0.1-1.4-0.2l0,0C582.6,376.9,580.8,375.4,580.2,367.9z"/>
		<linearGradient id="SVGID_143_" gradientUnits="userSpaceOnUse" x1="624.2285" y1="186.8105" x2="624.2285" y2="158.4033">
			<stop  offset="0" style="stop-color:#B31A8F"/>
			<stop  offset="1" style="stop-color:#92117E"/>
		</linearGradient>
		<path class="st164" d="M610.4,163.9c0,0,10.9,1.2,16.4,4.9c5.5,3.7,11.3,18.1,11.3,18.1s-2.3-22.5-8.1-26.3
			C624.2,156.7,615.4,158.1,610.4,163.9z"/>
		<linearGradient id="SVGID_144_" gradientUnits="userSpaceOnUse" x1="636.0134" y1="268.1579" x2="636.0134" y2="157.3157">
			<stop  offset="0" style="stop-color:#D61A8F"/>
			<stop  offset="1" style="stop-color:#FE3CA6"/>
		</linearGradient>
		<path class="st165" d="M610.4,163.9c0,0,5.2-6.3,12.1-6.5c0,0,11.7-0.1,16.9,7.2c5.1,7.3,6.5,27.8,10.2,37.2
			c3.7,9.5,10.9,18.1,12,33.8c1.1,15.7-11,32.6-11,32.6s6.9-23.2,6.1-38.3c-0.8-15.1-10.1-23.9-16.8-37.7
			c-6.6-13.8-6-29.6-15.7-32.2C616.1,157.8,610.4,163.9,610.4,163.9z"/>
		<path class="st116" d="M537.8,248.5l3.1-1.3l0.9,1.8l-2.6,1.8C539.3,250.7,538.3,249.3,537.8,248.5z"/>
		<polygon class="st116" points="558.9,244.8 558.9,253.8 561.5,253.8 561.4,246.3 		"/>
		<polygon class="st116" points="545.6,232.5 550.5,232.2 552.6,234.5 546.6,234.5 		"/>
		<polygon class="st131" points="580.2,350.4 584.8,357 588.4,355.4 582.1,349.7 		"/>
		<polygon class="st131" points="575.7,322 579.2,324.1 579.2,327.1 575.7,325.3 		"/>
		<polygon class="st131" points="621.4,367.9 616.4,375.9 621.1,375 624.4,368.6 		"/>
		<path class="st131" d="M656.7,299.8c0,0-1.2,2.6-3.2,4l1.6,2.8c0,0,2.6-1.9,2.9-2.8C658,303.7,657.2,300.9,656.7,299.8z"/>
		<path class="st131" d="M639.6,300.7c0,0,4.7,0.2,7.1-0.5l1.8,2c0,0-5.2,1.1-9.4,0.3L639.6,300.7z"/>
		<path class="st131" d="M647.2,316.2c0,0,1.6-1,2.1-4l3-0.9c0,0-0.1,2-1.7,4.3C650.6,315.7,648,316.1,647.2,316.2z"/>
		<path class="st131" d="M612,258.9l-2.8,3.5l4.2,0.9l2.3-2.2C615.7,261.1,613.6,259.5,612,258.9z"/>
		<linearGradient id="SVGID_145_" gradientUnits="userSpaceOnUse" x1="616.446" y1="377.6886" x2="616.446" y2="355.38">
			<stop  offset="0" style="stop-color:#8B8BE0"/>
			<stop  offset="1" style="stop-color:#A177B7"/>
		</linearGradient>
		<path class="st166" d="M643.4,365.4L643.4,365.4c-0.5,0.5-8.4,8.6-33,11.4c-8.8,1-15.6,1.1-20.9,0.8c1.4,0,2.8,0,3.9-0.1
			c0,0-0.7-7.1-1-10.6c0,0,1.7,7.7,3.7,10.5c0,0,7.4-0.1,10.4-0.8c0,0-1.6-7-1.8-11.3c0,0,1.5,6.8,4,11.3l4.2-1.1
			c0,0-1.1-5.4-1.9-11.4c0,0,2.2,8.7,4.1,11.6c0,0,9.2-1.5,10.8-3c0,0,1.3-4.2-0.5-12.1c0,0,2,5.3,2.8,11.6l5.9-2.1
			c0,0,1-6.8,0.3-12.4c0,0,2,7.2,1.7,11.6l4.7-3c0,0,0.3-4.4-1.3-10.7c0,0,2.7,5,2.8,10.2L643.4,365.4z"/>
	</g>
</g>
</svg>
