<?xml version="1.0" encoding="utf-8"?>
<!-- Generator: Adobe Illustrator 19.0.0, SVG Export Plug-In . SVG Version: 6.00 Build 0)  -->
<svg version="1.1" xmlns="http://www.w3.org/2000/svg" xmlns:xlink="http://www.w3.org/1999/xlink" x="0px" y="0px"
	 viewBox="0 0 400 400" style="enable-background:new 0 0 400 400;" xml:space="preserve">
<style type="text/css">
	.st0{fill:#FFFFFF;}
	.st1{fill:#E7ECFF;}
	.st2{fill:url(#SVGID_1_);}
	.st3{fill:url(#SVGID_2_);}
	.st4{fill:url(#SVGID_3_);}
	.st5{fill:url(#SVGID_4_);}
	.st6{fill:url(#SVGID_5_);}
	.st7{fill:url(#SVGID_6_);}
	.st8{fill:#ED90BC;}
	.st9{fill:url(#SVGID_7_);}
	.st10{fill:url(#SVGID_8_);}
	.st11{fill:#EB90BC;}
	.st12{fill:url(#SVGID_9_);}
	.st13{fill:#E0A1C6;}
	.st14{fill:url(#SVGID_10_);}
	.st15{fill:url(#SVGID_11_);}
	.st16{fill:url(#SVGID_12_);}
	.st17{fill:url(#SVGID_13_);}
	.st18{fill:url(#SVGID_14_);}
	.st19{fill:url(#SVGID_15_);}
	.st20{fill:#FEB1C8;}
	.st21{fill:url(#SVGID_16_);}
	.st22{fill:url(#SVGID_17_);}
	.st23{fill:url(#SVGID_18_);}
	.st24{fill:url(#SVGID_19_);}
	.st25{fill:url(#SVGID_20_);}
	.st26{fill:url(#SVGID_21_);}
	.st27{fill:url(#SVGID_22_);}
	.st28{fill:url(#SVGID_23_);}
	.st29{opacity:0.62;fill:#A44F63;}
	.st30{opacity:0.5;fill:url(#SVGID_24_);}
	.st31{fill:#FFE4EC;}
	.st32{fill:#6C2A51;}
	.st33{fill:#9D86A2;}
	.st34{fill:url(#SVGID_25_);}
	.st35{fill:url(#SVGID_26_);}
	.st36{fill:url(#SVGID_27_);}
	.st37{fill:#CE86C8;}
	.st38{fill:url(#SVGID_28_);}
	.st39{fill:url(#SVGID_29_);}
	.st40{fill:url(#SVGID_30_);}
	.st41{fill:url(#SVGID_31_);}
	.st42{fill:#D1729B;}
	.st43{opacity:0.8;fill:url(#SVGID_32_);}
	.st44{opacity:0.5;fill:url(#SVGID_33_);}
	.st45{fill:#E392AD;}
	.st46{fill:url(#SVGID_34_);}
	.st47{fill:url(#SVGID_35_);}
	.st48{fill:url(#SVGID_36_);}
	.st49{fill:url(#SVGID_37_);}
	.st50{fill:url(#SVGID_38_);}
	.st51{fill:url(#SVGID_39_);}
	.st52{fill:url(#SVGID_40_);}
	.st53{fill:#FE9DBA;}
	.st54{fill:#FFE4DB;}
	.st55{fill:#FED2DF;}
	.st56{opacity:0.62;fill:url(#SVGID_41_);}
	.st57{fill:url(#SVGID_42_);}
	.st58{fill:url(#SVGID_43_);}
	.st59{fill:url(#SVGID_44_);}
	.st60{fill:url(#SVGID_45_);}
	.st61{fill:url(#SVGID_46_);}
	.st62{fill:url(#SVGID_47_);}
	.st63{opacity:0.5;fill:#FFFFFF;}
	.st64{fill:#D190BC;}
	.st65{fill:url(#SVGID_48_);}
	.st66{fill:url(#SVGID_49_);}
	.st67{fill:url(#SVGID_50_);}
	.st68{fill:url(#SVGID_51_);}
	.st69{fill:url(#SVGID_52_);}
	.st70{opacity:0.4;fill:#FE9DBA;}
	.st71{fill:#4B81EE;}
	.st72{fill:url(#SVGID_53_);}
	.st73{fill:url(#SVGID_54_);}
	.st74{fill:url(#SVGID_55_);}
	.st75{fill:url(#SVGID_56_);}
	.st76{fill:url(#SVGID_57_);}
	.st77{fill:url(#SVGID_58_);}
	.st78{fill:url(#SVGID_59_);}
	.st79{fill:url(#SVGID_60_);}
	.st80{fill:url(#SVGID_61_);}
	.st81{fill:url(#SVGID_62_);}
	.st82{fill:url(#SVGID_63_);}
	.st83{fill:url(#SVGID_64_);}
	.st84{fill:url(#SVGID_65_);}
	.st85{fill:url(#SVGID_66_);}
	.st86{fill:url(#SVGID_67_);}
	.st87{fill:url(#SVGID_68_);}
	.st88{fill:url(#SVGID_69_);}
	.st89{fill:url(#SVGID_70_);}
	.st90{fill:#D1A1C8;}
	.st91{fill:url(#SVGID_71_);}
	.st92{fill:#7F6186;}
	.st93{fill:#BF7988;}
	.st94{fill:url(#SVGID_72_);}
	.st95{fill:url(#SVGID_73_);}
	.st96{fill:url(#SVGID_74_);}
	.st97{fill:url(#SVGID_75_);}
	.st98{fill:url(#SVGID_76_);}
	.st99{fill:url(#SVGID_77_);}
	.st100{fill:url(#SVGID_78_);}
	.st101{fill:url(#SVGID_79_);}
	.st102{fill:url(#SVGID_80_);}
	.st103{fill:url(#SVGID_81_);}
	.st104{fill:url(#SVGID_82_);}
	.st105{fill:url(#SVGID_83_);}
	.st106{fill:#FFB8CB;}
	.st107{fill:url(#SVGID_84_);}
	.st108{fill:url(#SVGID_85_);}
	.st109{fill:url(#SVGID_86_);}
	.st110{fill:url(#SVGID_87_);}
	.st111{fill:#5143A1;}
	.st112{fill:#5CF1FF;}
	.st113{fill:url(#SVGID_88_);}
	.st114{fill:url(#SVGID_89_);}
	.st115{fill:url(#SVGID_90_);}
	.st116{fill:url(#SVGID_91_);}
	.st117{fill:url(#SVGID_92_);}
	.st118{fill:url(#SVGID_93_);}
	.st119{fill:url(#SVGID_94_);}
	.st120{fill:url(#SVGID_95_);}
	.st121{fill:url(#SVGID_96_);}
	.st122{fill:url(#SVGID_97_);}
	.st123{fill:url(#SVGID_98_);}
	.st124{fill:url(#SVGID_99_);}
	.st125{opacity:0.5;fill:url(#SVGID_100_);}
	.st126{opacity:0.8;fill:url(#SVGID_101_);}
	.st127{opacity:0.8;fill:url(#SVGID_102_);}
	.st128{opacity:0.8;fill:url(#SVGID_103_);}
	.st129{opacity:0.8;fill:url(#SVGID_104_);}
	.st130{opacity:0.8;fill:url(#SVGID_105_);}
	.st131{opacity:0.8;fill:url(#SVGID_106_);}
	.st132{opacity:0.8;fill:url(#SVGID_107_);}
	.st133{opacity:0.8;fill:url(#SVGID_108_);}
	.st134{opacity:0.8;fill:url(#SVGID_109_);}
	.st135{fill:url(#SVGID_110_);}
	.st136{fill:url(#SVGID_111_);}
	.st137{fill:url(#SVGID_112_);}
	.st138{fill:url(#SVGID_113_);}
	.st139{fill:url(#SVGID_114_);}
	.st140{fill:#BFA1BC;}
	.st141{fill:url(#SVGID_115_);}
	.st142{fill:url(#SVGID_116_);}
	.st143{fill:url(#SVGID_117_);}
	.st144{fill:#EBC2D4;}
	.st145{fill:url(#SVGID_118_);}
	.st146{fill:url(#SVGID_119_);}
	.st147{opacity:0.5;fill:url(#SVGID_120_);}
	.st148{opacity:0.5;fill:url(#SVGID_121_);}
	.st149{opacity:0.5;fill:url(#SVGID_122_);}
	.st150{opacity:0.2;fill:#FFFFFF;}
	.st151{fill:url(#SVGID_123_);}
	.st152{fill:url(#SVGID_124_);}
	.st153{fill:url(#SVGID_125_);}
	.st154{fill:url(#SVGID_126_);}
	.st155{fill:url(#SVGID_127_);}
	.st156{fill:url(#SVGID_128_);}
	.st157{fill:url(#SVGID_129_);}
</style>
<g id="background">
	<rect class="st0" width="400" height="400"/>
</g>
<g id="illustration">
	<g>
		<g>
			<path class="st1" d="M185.9,49.3c-77.3,18.8-90,77.7-101.7,131.1c-11.7,53.4-55.7,103.4,33,124.6s220.6-7.6,242.5-92.3
				c22-84.6-62.3-76.2-122.3-102.8S220.1,41,185.9,49.3z"/>
			<path class="st1" d="M216.8,78.6c-9.8,5.2-15.2-23.9-3.8-35.3c11.3-11.4,31.2-17.2,39.2-7.3c7.9,9.9-10.3,25.8-20.5,31.5
				C221.3,73.2,220.4,76.7,216.8,78.6z"/>
			<path class="st1" d="M99.5,104.3c0.3-20.3-45.6-2-59.2,35.6c-13.6,37.5-1.2,64.9,17.3,66.2c18.5,1.2,21.1-19.8,26.7-49.1
				C90,127.6,99.4,115.7,99.5,104.3z"/>
			<path class="st1" d="M326.2,325.9c7.3-13.7,19-18.2,27.1-16.3c8.1,1.9,0.2,27.9-11.2,28.9C330.7,339.6,321.8,334.3,326.2,325.9z"
				/>
		</g>
		<g>
			<g>
				<linearGradient id="SVGID_1_" gradientUnits="userSpaceOnUse" x1="285.0714" y1="234.0395" x2="285.0714" y2="114.3549">
					<stop  offset="0" style="stop-color:#B30B63"/>
					<stop  offset="1" style="stop-color:#95004C"/>
				</linearGradient>
				<path class="st2" d="M323.9,162.7c0,0-3.2,23.7,2.6,62.4l-5.3-3.8l-11-5.6c0,0-3.3-5.5-3.5-21.7c0,0-1.3,1.5,3,28.8
					c0,0-40.3,3-48.1,5.7c-7.8,2.8-11,5.4-11,5.4s-9-19.3-6.4-25.4c2.5-6.1,10.2-1.9,17.9-11.5c7.7-9.6,8.3-66.6,16.6-75.9
					c8.3-9.3,42.9-6.6,42.9-6.6l3,3.4C324.5,118.1,324.8,145.5,323.9,162.7z"/>
				<linearGradient id="SVGID_2_" gradientUnits="userSpaceOnUse" x1="309.9393" y1="199.351" x2="309.9393" y2="154.7336">
					<stop  offset="1.598750e-002" style="stop-color:#FFFFFF"/>
					<stop  offset="0.9916" style="stop-color:#C2798B"/>
				</linearGradient>
				<path class="st3" d="M323.6,165.1c0,0-3.1,2.6-4.9,4.7c-1.7,2.1-2.6,29.5-2.6,29.5l-1.3-1.5l2.1-26.6c0,0-7,4.5-8.4,7.7
					c-1.4,3.1-2.9,13.5-2.9,13.5l-1.1-1l2.9-15.3l-3.7,14.4c0,0-2.1-2.1-3.6-5.5c-1.6-3.4-4.1-30.2-4.1-30.2l28,7.9L323.6,165.1z"/>
				<linearGradient id="SVGID_3_" gradientUnits="userSpaceOnUse" x1="330.7546" y1="291.3398" x2="330.7546" y2="234.0089">
					<stop  offset="0" style="stop-color:#D61A6A"/>
					<stop  offset="1" style="stop-color:#C3065B"/>
				</linearGradient>
				<path class="st4" d="M329.2,291.3c5.5,2.1,16.1-45.8,10.1-55.2c-6-9.4-18.7,15.5-19,30.7S329.2,291.3,329.2,291.3z"/>
				<linearGradient id="SVGID_4_" gradientUnits="userSpaceOnUse" x1="324.6548" y1="291.2737" x2="324.6548" y2="198.8105">
					<stop  offset="0" style="stop-color:#FF5579"/>
					<stop  offset="1" style="stop-color:#E75979"/>
				</linearGradient>
				<path class="st5" d="M316.1,198.8c0,0,12.6,11.6,23.3,37.3c0,0-33.1,24.9-10.1,55.2c0,0-12.6-11.9-17.8-33.6
					C306.3,235.9,316.1,198.8,316.1,198.8z"/>
				<linearGradient id="SVGID_5_" gradientUnits="userSpaceOnUse" x1="361.0093" y1="191.4211" x2="361.0093" y2="188.4225">
					<stop  offset="0" style="stop-color:#D8CAEF"/>
					<stop  offset="1" style="stop-color:#EADEF4"/>
				</linearGradient>
				<path class="st6" d="M339.4,190.5c0,0,19.2-3.3,41.8-1.5l1.5,1.5l-41.3,0.9L339.4,190.5z"/>
				<linearGradient id="SVGID_6_" gradientUnits="userSpaceOnUse" x1="285.9411" y1="289.1895" x2="285.9411" y2="181.4737">
					<stop  offset="0" style="stop-color:#FF6686"/>
					<stop  offset="1" style="stop-color:#FF7C89"/>
				</linearGradient>
				<path class="st7" d="M285.3,181.5h-1.8c0,0-0.3,2.6-2.2,4.4c-1.9,1.8-12.8,4.7-23,17.2c0,0-17.3,51.4-6.3,86.1
					c0,0,3.9-38.4,18.9-49.4l1.5,1.2c0,0,1.9,15.1-0.3,20.2l1.8,1.1c0,0,8.1-3.6,13.2-2.1c5.1,1.5,10.5,6.5,19.5,8.6
					c0,0,5.1-12.3,9.3-19.7c4.3-7.5,7.1-13.8,7.1-13.8s2.3-10.6-1.8-19.7c-4.1-9-5.1-16.9-5.1-16.9s-12.5-5.2-14.8-12.4l-1.4-0.5
					L285.3,181.5z"/>
				<path class="st8" d="M314.9,225.2c0,0,3.4,3.4,3.9,8.9c0.6,6.2-3,15-3,15l3-5.4l8.8-25.9l-2.8-4L314.9,225.2z"/>
				<linearGradient id="SVGID_7_" gradientUnits="userSpaceOnUse" x1="326.0448" y1="222.8737" x2="326.0448" y2="200.3453">
					<stop  offset="1.598750e-002" style="stop-color:#FFA67F"/>
					<stop  offset="1" style="stop-color:#FF8B7C"/>
				</linearGradient>
				<path class="st9" d="M323.2,222.9c1.4-1,0.9-9.4,2.7-13.3s5.5-8.4,5.5-8.4s-1.1-1.3-3.2-0.7c-2.1,0.6-5.8,1.8-5.5,8.4
					c0,0-0.9,2.3-2.1,4.5C320.7,213.5,323.3,218.3,323.2,222.9z"/>
				<linearGradient id="SVGID_8_" gradientUnits="userSpaceOnUse" x1="309.1707" y1="170.7684" x2="309.1707" y2="98.9588">
					<stop  offset="1.598750e-002" style="stop-color:#FFC2A6"/>
					<stop  offset="1" style="stop-color:#FFB595"/>
				</linearGradient>
				<path class="st10" d="M323,102.7c7.3,6.6,10.3,11.7,10.8,16.5c0.5,4.8-5.4,19.3-5.4,22.9c0,3.5,3,6.6,1.6,11.7
					c-1.4,5.2-12.7,16.9-18.4,16.9c-2.5,0-13.7-7.2-19.4-13.9c-5.7-6.7-5.9-21.5-5.9-21.5s-6.9-24.5,6.6-32
					C306.5,95.8,319.5,99.6,323,102.7z"/>
				<path class="st11" d="M326.1,126c0,0,1.7-10.5-2.1-12.2c-3.8-1.7-5.2-1-5.2-1s-3.4,10.9-10.2,12.9c-6.7,2-14.7-0.5-14.7-0.5
					l12.2-11.4l16.1-11l6.5,5.6l1.6,13.7L326.1,126z"/>
				<linearGradient id="SVGID_9_" gradientUnits="userSpaceOnUse" x1="299.3209" y1="400" x2="299.3209" y2="259.5287">
					<stop  offset="0" style="stop-color:#7E8EFF"/>
					<stop  offset="1" style="stop-color:#7096FF"/>
				</linearGradient>
				<path class="st12" d="M307.4,266.7c0,0,2.5,2,4.6,7.6h-3.1c0,0,17,75.6,38.6,125.7h-92c0,0-6.1-76.6-3.6-97.9
					c2.5-21.2,20.2-40.9,20.2-40.9s10.3-3.4,16.1-0.7c5.8,2.7,18.4,8.2,18.4,8.2L307.4,266.7z"/>
				<path class="st13" d="M286.5,186.2c0,0-1.3-3.1-1.2-4.7c0.1-1.6,0.1-1.6,0.1-1.6l-1.4,0.7c0,0-0.1,2.8-2.7,5.3
					c-2.5,2.4-11.6,4.1-23,17.2l-2,6.6c0,0,4.4-3.5,10.5-3.3c0,0,6.6,11.9,14.1,9.1C288.4,212.7,286.5,186.2,286.5,186.2z
					 M279.6,210.9c-6.5,1-10.6-5.9-10.6-5.9s6.8,1.9,11.3-0.4c4.5-2.3,5.2-12.2,5.2-12.2S286.1,209.9,279.6,210.9z"/>
				<linearGradient id="SVGID_10_" gradientUnits="userSpaceOnUse" x1="264.062" y1="292.7549" x2="264.062" y2="238.246">
					<stop  offset="0" style="stop-color:#D61A6A"/>
					<stop  offset="1" style="stop-color:#C3065B"/>
				</linearGradient>
				<path class="st14" d="M251.9,289.2c0.6,8.9,11.9,0.2,19.5-15.5c7.6-15.7,5.4-31.8,0-35.2C265.9,235.1,250.7,270.8,251.9,289.2z"
					/>
				<linearGradient id="SVGID_11_" gradientUnits="userSpaceOnUse" x1="293.2684" y1="196.2857" x2="293.2684" y2="150.9634">
					<stop  offset="1.598750e-002" style="stop-color:#FFA67F"/>
					<stop  offset="1" style="stop-color:#FF8B7C"/>
				</linearGradient>
				<path class="st15" d="M299.1,163.4c0,0-2.1,14.2,2,25.3c0,0,1.1,7.7-4.5,7.6c-5.7-0.1-11.4-12.5-11.4-12.5L289,151
					C289,151,291.5,156.6,299.1,163.4z"/>
				<linearGradient id="SVGID_12_" gradientUnits="userSpaceOnUse" x1="320.003" y1="219.9071" x2="320.003" y2="182.8126">
					<stop  offset="0" style="stop-color:#301361"/>
					<stop  offset="1" style="stop-color:#482C6A"/>
				</linearGradient>
				<path class="st16" d="M326.5,216.6l-17.3-29.7c0,0,0-4.7,4.4-4l15.7,30.1c0,0,1.9,6.1,1.4,6.8
					C330.3,220.5,326.5,216.6,326.5,216.6z"/>
				<linearGradient id="SVGID_13_" gradientUnits="userSpaceOnUse" x1="285.5041" y1="240.3053" x2="285.5041" y2="89.8842">
					<stop  offset="0" style="stop-color:#C50B79"/>
					<stop  offset="1" style="stop-color:#E51160"/>
				</linearGradient>
				<path class="st17" d="M324,102.6c3.4,4.1,13.1,6.9,15,11.5c1.9,4.5-6.1,11-6.1,11l0.2-1c0,0,6.2-4.6,4.2-9.1
					c0,0-3.1,9.6-10.4,10.7c0,0,4.9-4.5,3.2-11.7c0,0,1.6,6.4-3.2,11.7l-0.9,0.4c0,0,5.8-9.9-3.4-19.3c0,0,0.4,23.5-20.6,17
					l-2.5-1.1c0,0,17.3-3.6,20.4-16.8c0,0-7.3,13.2-21.9,17.1l-3,0.9c0,0-8.7,23.5,4.4,27.2c0,0-9.4,1.7-9.9-5.5
					c-0.6-7.2,3.7-21.1,3.7-21.1s-3.7,6.9-4.1,12.4c0,0-1.6-4.6-3.9-6.3c0,0-1.7-1.5-5.5-2.4c0,0-5.2,28.1-1,58.6
					c0,0-11.7,6.6-15.5,11.4c-3.8,4.7-6.4,4.7-14.4,8.3c-8,3.6,3.9,25.2,3.9,25.2s-5.9,7-9.7,8.7c0,0-8.1-1.1-11.4-7.9
					c0,0,5.7,5.6,13.5,4.9c0,0,1.6-3.8,1-4.9c-0.6-1.1-15.9-10.7-10.7-24.7c0,0,21.7-5,25.3-11.5c3.5-6.4,7.4-69.1,15.9-87.1
					c8.5-18,18-18.7,22.6-19.3C303.8,89.4,317.4,94.6,324,102.6z"/>
				<linearGradient id="SVGID_14_" gradientUnits="userSpaceOnUse" x1="282.5692" y1="148.6723" x2="282.5692" y2="128.0737">
					<stop  offset="1.598750e-002" style="stop-color:#FFC2A6"/>
					<stop  offset="1" style="stop-color:#FFB595"/>
				</linearGradient>
				<path class="st18" d="M287.1,132.7c0,0-4-7.1-10.4-3.7c-1.3,0.7-1.8,9.8,1.2,14.2c3,4.4,6.9,5.4,8.7,5.4
					c1.8,0.1,2.3-2.4,2.3-2.4S291.2,136,287.1,132.7z"/>
				<linearGradient id="SVGID_15_" gradientUnits="userSpaceOnUse" x1="281.9532" y1="146.4105" x2="281.9532" y2="132.2381">
					<stop  offset="1.598750e-002" style="stop-color:#FFFFFF"/>
					<stop  offset="0.9916" style="stop-color:#F29DC8"/>
				</linearGradient>
				<path class="st19" d="M284.2,134.9c0,0-3.8-2.4-5.7-2.6c-1.9-0.2-0.9,7.1-0.9,7.1s-0.5-5.3,1-5.7c1.5-0.4,4.2,2.2,4.2,2.2
					s-2.8,1.5-2.7,5.3c0.1,3.8,4.1,5.3,4.1,5.3s0.7-0.5,1.1-1.5s-1.6-3.4-1.7-4.7c-0.1-1.3,1.4-1.5,1.4-1.5l1.6,1
					C286.5,139.7,285.9,136.3,284.2,134.9z"/>
				<path class="st20" d="M285.8,137.2c0,0-1-1.7-2.7-1.3c-1.7,0.5-3.8,3.9-2.9,6c0.9,2,3.3,3,4.3,2.2c1-0.8-1-2.9-0.8-4.4
					c0.2-1.5,2.4-0.6,2.4-0.6L285.8,137.2z"/>
				<linearGradient id="SVGID_16_" gradientUnits="userSpaceOnUse" x1="276.6472" y1="211.672" x2="276.6472" y2="122.1368">
					<stop  offset="0" style="stop-color:#C50B79"/>
					<stop  offset="1" style="stop-color:#E51160"/>
				</linearGradient>
				<path class="st21" d="M293.9,122.1c0,0-5.4,5.2-10.6,6.6c0,0-0.3,25.9,0.2,47.3s-6.8,25.4-20.2,22l-3.8,3.6c0,0,8,2.7,16.2,1.3
					c8.1-1.4,8.9-19.8,8.9-19.8s1.3,24-4.2,27.4c-5.5,3.4-13.2-7.9-13.2-7.9l-1.8-0.2c0,0,6.7,10.1,15.3,9.2
					c8.6-0.9,5-20.5,5.7-32.1c0.7-11.6,1.9-37.1,2.9-42.7C290.2,131.2,293.9,122.1,293.9,122.1z"/>
				<linearGradient id="SVGID_17_" gradientUnits="userSpaceOnUse" x1="339.9335" y1="274.4737" x2="339.9335" y2="221.5474">
					<stop  offset="1.598750e-002" style="stop-color:#FF8D90"/>
					<stop  offset="1" style="stop-color:#FFA684"/>
				</linearGradient>
				<path class="st22" d="M322.5,274.5c0,0,20-5.6,35.5-43.1v-9.9c0,0-18.9,17.6-32.9,32.8C325.2,254.3,320.1,262.1,322.5,274.5z"/>
				<linearGradient id="SVGID_18_" gradientUnits="userSpaceOnUse" x1="327.8009" y1="260.0105" x2="327.8009" y2="190.4737">
					<stop  offset="0" style="stop-color:#A586C9"/>
					<stop  offset="1" style="stop-color:#B1A4D3"/>
				</linearGradient>
				<path class="st23" d="M315.8,260l-1.5-1.2c0,0,15.4-52.5,25.1-68.3l2,0.9L315.8,260z"/>
				<linearGradient id="SVGID_19_" gradientUnits="userSpaceOnUse" x1="349.217" y1="260.5766" x2="349.217" y2="189.7923">
					<stop  offset="0" style="stop-color:#C9B6E9"/>
					<stop  offset="1" style="stop-color:#D5BDEA"/>
				</linearGradient>
				<path class="st24" d="M315.8,260c-0.9-2.6,23.3-67.5,25.6-68.6c2.3-1.1,40-2.5,41.3-0.9c1.3,1.5-32.5,67.5-34.3,68.3
					C346.6,259.5,316.3,261.6,315.8,260z"/>
				<path class="st8" d="M365.7,208.3c0,0-1.8,1.8-0.4,4.5l4.2-0.3c0,0-5.6,1.5-7.8,5.3c-2.2,3.8-1.7,8-1.7,8h0.9l2,6.6l13.9-28
					C376.8,204.4,369,205.6,365.7,208.3z"/>
				<linearGradient id="SVGID_20_" gradientUnits="userSpaceOnUse" x1="369.9824" y1="223.6875" x2="369.9824" y2="202.446">
					<stop  offset="1.598750e-002" style="stop-color:#FFC2A6"/>
					<stop  offset="1" style="stop-color:#FFB595"/>
				</linearGradient>
				<path class="st25" d="M377.7,202.4c0,0,0.8,3.5,0.8,4.7c0,1.2-3.1,2.6-3.1,2.6s1.4,2.7,0,4.1c0,0,0.6,3.6-2.6,6.2
					c-3.2,2.6-7.3,3.5-11.5,3.7c0,0-0.1-3.4,2.6-4.2l-1.4,0c0,0-0.2-3.6,3.8-5.4c4-1.8,8-4.3,8-4.3s-5.1,1.6-8.7,1.6
					c0,0-0.8-2.6,1.4-3.9c2.2-1.4,9.7-3,9.7-3L377.7,202.4z"/>
				<linearGradient id="SVGID_21_" gradientUnits="userSpaceOnUse" x1="366.3667" y1="227.9373" x2="366.3667" y2="222.4316">
					<stop  offset="1.598750e-002" style="stop-color:#FFC2A6"/>
					<stop  offset="1" style="stop-color:#FFB595"/>
				</linearGradient>
				<path class="st26" d="M369.2,222.4c0,0,1.7,1.1,0.7,2.9c-1,1.8-7.1,2.6-7.1,2.6s-1.1-2.6,1.1-3.9
					C366.1,222.8,369.2,222.4,369.2,222.4z"/>
				<linearGradient id="SVGID_22_" gradientUnits="userSpaceOnUse" x1="313.8322" y1="153.7336" x2="324.722" y2="153.7336">
					<stop  offset="1.598750e-002" style="stop-color:#FFFFFF"/>
					<stop  offset="0.9916" style="stop-color:#EA9DC8"/>
				</linearGradient>
				<path class="st27" d="M315.1,151.4c0,0-2.3,2.1-0.8,4c0,0,2.7-0.1,4.9,0.7c0,0,1.4,0.1,3.3-0.6l2.1-1.5c0,0-1.3-0.6-2.8-0.2
					c-1.5,0.4-3.2,1.1-4.7,1.2c-1.5,0.2-2.7-0.1-2.7-0.1S313.2,153.7,315.1,151.4z"/>
				<linearGradient id="SVGID_23_" gradientUnits="userSpaceOnUse" x1="314.3768" y1="155.4211" x2="314.3768" y2="151.3789">
					<stop  offset="1.598750e-002" style="stop-color:#FFFFFF"/>
					<stop  offset="0.9916" style="stop-color:#EA9DC8"/>
				</linearGradient>
				<path class="st28" d="M314.4,155.4c0,0-2.1-2.6,0.8-4C315.1,151.4,313.2,152.6,314.4,155.4z"/>
				<path class="st29" d="M315.2,155.4c0,0,0.7-0.8,1.5-0.7c0.8,0.2,2,1.1,2,1.1S316.6,155.4,315.2,155.4z"/>
				<linearGradient id="SVGID_24_" gradientUnits="userSpaceOnUse" x1="313.8252" y1="152.9817" x2="313.8252" y2="129.9263">
					<stop  offset="1.598750e-002" style="stop-color:#FFFFFF"/>
					<stop  offset="0.9916" style="stop-color:#F7839A"/>
				</linearGradient>
				<path class="st30" d="M325.1,152.6c0,0-1.4-2.5-3.3-4.9c-1.8-2.4-0.2-7.2-0.2-7.2s-2-1.7-4.6,0c0,0-1.6,5.1-4.5,7.6
					c0,0-5.5,0.6-10.8-2.8c-5.3-3.5-5-8.2-5-8.2s1.2-4.2,4-5.5s16.7-1.6,16.7-1.6s4.1,4.5,8.1,3.1c0,0,4.2-2.3,5.4-1.2
					c0,0-3.1,8.7-2.6,11.1c0.6,2.4,2.1,6.2,1.9,8.7C330.3,151.7,328.8,153.9,325.1,152.6z"/>
				<path class="st20" d="M313.8,154.4c0.3,0.7,0.8,1.4,4.2,0.4c3.5-1,5.2-1.6,6.7-0.9c0,0-4,5.4-7.4,4.8
					C314,158,313.8,154.4,313.8,154.4z"/>
				<path class="st31" d="M321.5,145.9c0,0,2.3-1.9,6.6-1.8c0,0-2.5,4.3-4.5,4.6C321.7,148.9,321.5,145.9,321.5,145.9z"/>
				<path class="st31" d="M299,141.5c0,0,6.3-1.4,12.6,2.7c0,0-1.8,2-3.6,2.3C306.2,146.7,299,141.5,299,141.5z"/>
				<path class="st32" d="M321.5,145.9c0,0,3.3-1.9,6.3-1.2l3.2-2.1l-2.6,0.4C328.4,143,325.5,142.1,321.5,145.9z"/>
				<path class="st32" d="M311.6,144.1c0,0-3.6-2.8-12.6-2.7l-1.6-3.3l3.1,2C300.5,140.1,310.3,140.5,311.6,144.1z"/>
				<path class="st33" d="M303.2,144.3c0,0,1.9-2.3,5.4-1.7l2.9,1.5c0,0-1.5,2-3.6,2.3C306,146.6,303.2,144.3,303.2,144.3z"/>
				<path class="st33" d="M325.3,144.7c0,0-1.9,1.4-2.1,4c0,0,0.4,0.2,1.8-0.7c1.4-0.9,2.7-3.2,2.7-3.2S326.7,144.4,325.3,144.7z"/>
				<path class="st20" d="M321,145.9c0,0,2.9-6.9,4.8-7.6s2.3,4.5,2.3,4.5s-0.6-4.8-2.1-4.4c-1.6,0.4-4.5,7.4-4.5,7.4H321z"/>
				<path class="st20" d="M311.6,144.1c0,0,0.2-7-2.5-7.8c-2.8-0.8-8.6,3.9-8.6,3.9s5.7-4.2,8.1-3.5c2.4,0.7,2.3,6.4,2.3,6.4
					L311.6,144.1z"/>
				<linearGradient id="SVGID_25_" gradientUnits="userSpaceOnUse" x1="328.6941" y1="134.4842" x2="328.6941" y2="127.6784">
					<stop  offset="0" style="stop-color:#FF8170"/>
					<stop  offset="1" style="stop-color:#FE467C"/>
				</linearGradient>
				<path class="st34" d="M325.1,133.9c0,0,3.1-4.7,7.2-6.2c0,0,1.5,3-1.5,5c0,0-0.2-0.8-1.2-0.6c-1,0.3-4.9,2.4-4.9,2.4
					s0.2-3.2,2.5-4.3L325.1,133.9z"/>
				<linearGradient id="SVGID_26_" gradientUnits="userSpaceOnUse" x1="309.072" y1="131.5724" x2="309.072" y2="125.6589">
					<stop  offset="0" style="stop-color:#FF8170"/>
					<stop  offset="1" style="stop-color:#FE467C"/>
				</linearGradient>
				<path class="st35" d="M317.2,130.8c0,0,1.1-3.4,0-4.9v3.5c0,0-0.1-2.8-1.4-3.5c-1.3-0.7-9.2-0.2-15.3,5.7
					C300.5,131.6,310.3,129.7,317.2,130.8z"/>
				<linearGradient id="SVGID_27_" gradientUnits="userSpaceOnUse" x1="315.2315" y1="165.1381" x2="315.2315" y2="156.57">
					<stop  offset="0" style="stop-color:#EA1A8F"/>
					<stop  offset="1" style="stop-color:#D3004C"/>
				</linearGradient>
				<path class="st36" d="M322.2,159.9l-4,2.8h0l-0.3,0.2c0,0-1.5,2-3,2.3c-1.1,0.2-3.5-3-5.2-5.9c-0.6-1-1-1.9-1.3-2.7
					c0,0,1.6,2.5,3.6,3.4c2,0.9,5.4,1.6,6.7,1.5C319.7,161.3,321.9,160,322.2,159.9z"/>
				<path class="st37" d="M322.2,159.9l-4,2.8h0c-1,0.1-2,0-2,0c-3.5-0.9-6.5-3.4-6.5-3.4c-0.6-1-1-1.9-1.3-2.7c0,0,1.6,2.5,3.6,3.4
					c2,0.9,5.4,1.6,6.7,1.5C319.7,161.3,321.9,160,322.2,159.9z"/>
				<path class="st20" d="M310.2,155.7c0,0-2.6,0.5-3.3,2.4L310.2,155.7z"/>
				<path class="st8" d="M298.8,166.9c0,0-8.9,3.5-12.4,11.5c0,0,1.1-19.3,2.6-27.5c0,0,3.5,6.5,10.2,12.4L298.8,166.9z"/>
				<linearGradient id="SVGID_28_" gradientUnits="userSpaceOnUse" x1="277.18" y1="122.28" x2="303.2417" y2="122.28">
					<stop  offset="8.379890e-003" style="stop-color:#C2798B"/>
					<stop  offset="0.984" style="stop-color:#FFFFFF"/>
				</linearGradient>
				<path class="st38" d="M277.2,128.7c0,0,14.7-6.5,26.1-12.9c0,0-7.9,9.2-20,12.9H277.2z"/>
				<linearGradient id="SVGID_29_" gradientUnits="userSpaceOnUse" x1="297.5168" y1="128.0737" x2="297.5168" y2="96.3364">
					<stop  offset="8.379890e-003" style="stop-color:#C2798B"/>
					<stop  offset="0.984" style="stop-color:#FFFFFF"/>
				</linearGradient>
				<path class="st39" d="M278.7,128.1c0,0,3-20.3,11.5-28.5c8.5-8.2,26.1,2,26.1,2s-17.4-9.5-26-1.1
					C281.7,108.7,278.7,128.1,278.7,128.1z"/>
				<linearGradient id="SVGID_30_" gradientUnits="userSpaceOnUse" x1="294.7077" y1="128.7388" x2="294.7077" y2="92.0567">
					<stop  offset="8.379890e-003" style="stop-color:#C2798B"/>
					<stop  offset="0.984" style="stop-color:#FFFFFF"/>
				</linearGradient>
				<path class="st40" d="M277.2,128.7c0,0,2.2-23.5,13.2-31.5c11-8,21.8-3.6,21.8-3.6s-14.3-5.6-23.7,3.9
					C277.4,109,277.2,128.7,277.2,128.7z"/>
				<linearGradient id="SVGID_31_" gradientUnits="userSpaceOnUse" x1="271.4382" y1="196.2857" x2="271.4382" y2="133.7263">
					<stop  offset="1.598750e-002" style="stop-color:#FFFFFF"/>
					<stop  offset="0.9916" style="stop-color:#C2798B"/>
				</linearGradient>
				<path class="st41" d="M275.6,133.7c0,0-0.8,5.3,2.3,10.1c0,0-13,10.9-7.6,48.4l-5.4,4C265,196.3,267,155.5,275.6,133.7z"/>
				<path class="st42" d="M326.1,126c0,0,5.2-4.5,4.1-12.1c-1.1-7.6-7.4-7.2-7.4-7.2S330.5,112.7,326.1,126z"/>
				<path class="st42" d="M322.2,105.5c0,0-9.5-12.4-18.1-14.9C304,90.5,322.8,96.2,322.2,105.5z"/>
				<linearGradient id="SVGID_32_" gradientUnits="userSpaceOnUse" x1="301.7593" y1="228.4947" x2="301.7593" y2="201.732">
					<stop  offset="8.379890e-003" style="stop-color:#E38B8B"/>
					<stop  offset="0.984" style="stop-color:#FFFFFF"/>
				</linearGradient>
				<path class="st43" d="M285.3,201.7c0,0,9.2,13,16.6,19.3c7.3,6.3,16.4,7.5,16.4,7.5L285.3,201.7z"/>
				<linearGradient id="SVGID_33_" gradientUnits="userSpaceOnUse" x1="240.8829" y1="218.9895" x2="252.7412" y2="218.9895">
					<stop  offset="8.379890e-003" style="stop-color:#C2798B"/>
					<stop  offset="0.984" style="stop-color:#FFFFFF"/>
				</linearGradient>
				<path class="st44" d="M248.9,206.4c0,0-6.7,1-7.9,9.3c-1.1,8.4,6.5,15.8,6.5,15.8l5.3,0.1C252.7,231.6,241,208.8,248.9,206.4z"
					/>
				<path class="st45" d="M300.3,186.1c0,0,1.1,8.1-4.4,10.1c0,0,4.1,1.4,5.3-2.6c1.2-4,0-7.1,0-7.1L300.3,186.1z"/>
				<linearGradient id="SVGID_34_" gradientUnits="userSpaceOnUse" x1="276.3875" y1="239.3343" x2="276.3875" y2="213.4646">
					<stop  offset="0" style="stop-color:#E59DB0"/>
					<stop  offset="0.984" style="stop-color:#FFFFFF"/>
				</linearGradient>
				<path class="st46" d="M276.6,239.3c0,0,1.6-9.9-3.1-25.9c0,0,5.4,7.1,5.7,24.8L276.6,239.3z"/>
				<linearGradient id="SVGID_35_" gradientUnits="userSpaceOnUse" x1="282.5996" y1="238.246" x2="282.5996" y2="222.8737">
					<stop  offset="0" style="stop-color:#E59DB0"/>
					<stop  offset="0.984" style="stop-color:#FFFFFF"/>
				</linearGradient>
				<path class="st47" d="M279.9,238.2c0,0,5.5-6.2,6.1-15.4c0,0-3.3,10.2-6.7,15.4H279.9z"/>
				<linearGradient id="SVGID_36_" gradientUnits="userSpaceOnUse" x1="253.3694" y1="236.84" x2="276.6472" y2="236.84">
					<stop  offset="1.598750e-002" style="stop-color:#FFFFFF"/>
					<stop  offset="1" style="stop-color:#E59DB0"/>
				</linearGradient>
				<path class="st48" d="M276.6,239.3c0,0-3.6-6.4-8.6-7.2c-5.1-0.8-14.7,9.5-14.7,9.5s8.7-7.3,14.1-7.2c5.4,0.2,6.1,6.1,6.1,6.1
					L276.6,239.3z"/>
				<linearGradient id="SVGID_37_" gradientUnits="userSpaceOnUse" x1="305.0912" y1="266.7628" x2="305.0912" y2="245.5474">
					<stop  offset="0" style="stop-color:#E59DB0"/>
					<stop  offset="0.984" style="stop-color:#FFFFFF"/>
				</linearGradient>
				<path class="st49" d="M295.9,264.1c0,0,11.8-16.4,18.3-18.6l-12.4,21.2L295.9,264.1z"/>
				<linearGradient id="SVGID_38_" gradientUnits="userSpaceOnUse" x1="291.3778" y1="262.6743" x2="291.3778" y2="243.4">
					<stop  offset="0" style="stop-color:#E59DB0"/>
					<stop  offset="0.984" style="stop-color:#FFFFFF"/>
				</linearGradient>
				<path class="st50" d="M293.3,262.7c0,0,0.8-11-3-19.3c0,0-2.1,10.3,0.5,18.4L293.3,262.7z"/>
				<linearGradient id="SVGID_39_" gradientUnits="userSpaceOnUse" x1="307.9709" y1="268.8211" x2="307.9709" y2="253.7178">
					<stop  offset="0" style="stop-color:#E59DB0"/>
					<stop  offset="0.984" style="stop-color:#FFFFFF"/>
				</linearGradient>
				<polygon class="st51" points="302.6,267.1 313.4,253.7 306.5,268.8 				"/>
				<linearGradient id="SVGID_40_" gradientUnits="userSpaceOnUse" x1="289.8654" y1="276.4821" x2="289.8654" y2="192.3639">
					<stop  offset="1.598750e-002" style="stop-color:#FFC2A6"/>
					<stop  offset="1" style="stop-color:#FFB595"/>
				</linearGradient>
				<path class="st52" d="M267.7,242.9c0,0,28.5-10.6,34.9-17.1c1.1-1.1-1.4-11.1-1.6-13.8c-0.2-2.7,0.3-5.6,0.8-6
					c0.6-0.4,3.3-1.4,3.7-1.7c0.4-0.3,1.2-1.5,1.8-1.8c0.6-0.3,2.7-0.6,3.1-1.1c0.1-0.1,0.4-0.7,0.9-1.4c1.5-2.3,4.3-6.5,5.3-6.9
					c1.3-0.6,3.3-1.2,4.3,0.1c1,1.3,4.8,9.7,4.8,9.7s-2.3,1.3-4.4-0.1c-2-1.5-3.2-4.1-3.2-4.1s-2.2,1.7-2.4,2.7c0,0,4.8,2.5,7,4.9
					c0.7,2-2.8,5.9-3,6.3c-0.2,0.4,4.9,4.2,3.3,10.5c0,0-6.8,2.5-12.9,6.3c-6.1,3.8-34,38.2-56.3,47.3
					C253.9,276.5,257.6,252.6,267.7,242.9z"/>
				<path class="st8" d="M265,270.4c0,0-9.2-7.9,2.8-27.5c0,0-9.4,7.3-13.8,33.6C253.9,276.5,260.8,273.4,265,270.4z"/>
				<path class="st53" d="M306,213.5l0.9-2.5l5.3,2.5l-0.9,4.1c0,0,0.3,1.4,3.5-0.1c0,0,1.6-0.3,3-2.4l2.1-2.7l0,0l1.6,2.1l-7.9,4.5
					h-2.8L306,213.5z"/>
				<path class="st54" d="M325.8,202.8c0,0-1.7-4.7-3.4-4.4c-1.7,0.3,0,4.1,0,4.1S323.6,203.6,325.8,202.8z"/>
				<path class="st55" d="M318.3,198.6c0,0-1.6-3.7-1.5-5.5c0,0-1.3,0.9-6.2,8.3c0,0,2-1.9,5.3-0.1
					C315.9,201.3,317.4,199.4,318.3,198.6z"/>
				<path class="st45" d="M273.5,240.6c0,0-0.1-3.8-3.5-5.5c0,0,2.5-0.2,6.6,4.2l2.3-7.3l0.3,6.2L273.5,240.6z"/>
				<linearGradient id="SVGID_41_" gradientUnits="userSpaceOnUse" x1="273.931" y1="268.9526" x2="311.9799" y2="268.9526">
					<stop  offset="0" style="stop-color:#8B8BE0"/>
					<stop  offset="1" style="stop-color:#A177B7"/>
				</linearGradient>
				<path class="st56" d="M312,274.3c0,0-3.4-0.5-10.7-3.1c-7.3-2.7-12-6.9-17.4-7.4c-5.4-0.5-8.9,0-8.9,0l-1,3.5
					c0,0,7.8-3.2,17.4,0.9c9.6,4.1,17.5,6.1,17.5,6.1H312z"/>
				<path class="st45" d="M251.3,325c0,0,18.2-48.3,25.3-58.4l-0.4-2.9c0,0,0.4-2.5,3.4-4h-1l-3.5,3c0,0-7.4,27.8-21.2,30.1
					C253.9,292.8,250.3,297.1,251.3,325z"/>
				<linearGradient id="SVGID_42_" gradientUnits="userSpaceOnUse" x1="257.5902" y1="400" x2="257.5902" y2="329.7643">
					<stop  offset="8.379890e-003" style="stop-color:#C2C0E1"/>
					<stop  offset="0.984" style="stop-color:#FFFFFF"/>
				</linearGradient>
				<path class="st57" d="M251.1,329.8c0,0,4.6,47.8,12.9,70.2h-8.6C255.4,400,251.1,339.7,251.1,329.8z"/>
				<linearGradient id="SVGID_43_" gradientUnits="userSpaceOnUse" x1="293.8454" y1="400" x2="293.8454" y2="282.9368">
					<stop  offset="8.379890e-003" style="stop-color:#C2C0E1"/>
					<stop  offset="0.984" style="stop-color:#FFFFFF"/>
				</linearGradient>
				<path class="st58" d="M282.6,282.9l15,117.1h7.4C305.1,400,293.3,341.8,282.6,282.9z"/>
				<linearGradient id="SVGID_44_" gradientUnits="userSpaceOnUse" x1="318.8372" y1="400" x2="318.8372" y2="276.4821">
					<stop  offset="8.379890e-003" style="stop-color:#C2C0E1"/>
					<stop  offset="0.984" style="stop-color:#FFFFFF"/>
				</linearGradient>
				<path class="st59" d="M314.4,400c0,0-9.8-76.2-7-123.5c0,0,2.1,55.3,23.3,123.5H314.4z"/>
				<linearGradient id="SVGID_45_" gradientUnits="userSpaceOnUse" x1="325.3978" y1="400" x2="325.3978" y2="302.6421">
					<stop  offset="8.379890e-003" style="stop-color:#C2C0E1"/>
					<stop  offset="0.984" style="stop-color:#FFFFFF"/>
				</linearGradient>
				<path class="st60" d="M313.7,302.6c0,0,10.9,64.8,21.5,97.4h1.8C337.1,400,323.3,351.3,313.7,302.6z"/>
				<linearGradient id="SVGID_46_" gradientUnits="userSpaceOnUse" x1="281.6203" y1="334.4737" x2="281.6203" y2="266.7628">
					<stop  offset="1.598750e-002" style="stop-color:#FFFFFF"/>
					<stop  offset="0.9916" style="stop-color:#C2C0E1"/>
				</linearGradient>
				<path class="st61" d="M285.5,266.8c0,0-9.3,31.3-7.6,67.7C277.9,334.5,279.5,293.6,285.5,266.8z"/>
				
					<linearGradient id="SVGID_47_" gradientUnits="userSpaceOnUse" x1="290.4589" y1="356.399" x2="290.4589" y2="285.3" gradientTransform="matrix(0.9919 -0.1272 0.1272 0.9919 -36.9068 20.7405)">
					<stop  offset="1.598750e-002" style="stop-color:#FFFFFF"/>
					<stop  offset="0.9916" style="stop-color:#C2C0E1"/>
				</linearGradient>
				<path class="st62" d="M287.6,266.8c0,0-4.6,19,11.2,70.2C298.9,337,287.5,290.4,287.6,266.8z"/>
				<path class="st0" d="M337.1,231.5c0,0,8.3-14,22.2-15.6C359.2,215.9,357.9,225.1,337.1,231.5z"/>
				<path class="st20" d="M364,219.5c0,0,6.8-1.2,11.6-5.4l-0.1,1.5C375.5,215.5,373,217.8,364,219.5z"/>
				<path class="st54" d="M366.4,208c0,0,4.7-1.3,5.3,0.5c0.6,1.8-4.9,3-5.3,2.8C365.8,211.1,365,210.6,366.4,208z"/>
				<path class="st54" d="M363.8,216.7c0,0-0.9,0.8-0.4,2.7c0,0,4.5-0.8,4.8-2.7C368.6,215,363.8,216.7,363.8,216.7z"/>
				<path class="st54" d="M362.7,220.6c0,0-1.1,0.7-0.6,2.8c0,0,4.9-0.2,4.9-2.1C366.9,219.4,362.7,220.6,362.7,220.6z"/>
				<path class="st54" d="M363.4,225c0,0-1.3,1.2-0.4,2.9c0,0,3.6-0.7,3.3-2.3C366.1,223.9,363.4,225,363.4,225z"/>
				<path class="st20" d="M374.4,209.7l2.8-0.9l-1.7,0.9l-6.7,3.1C368.9,212.8,373.4,210.4,374.4,209.7z"/>
				<polygon class="st63" points="360,190 323.3,236.3 316,258.2 373,189.9 				"/>
				<path class="st64" d="M282.6,256.1c0,0,0.1,2.8,3.3,3.6c3.2,0.8,4.4,0.9,4.4,0.9l2.9,2.1c0,0,10.3,3.7,14.5,3.3l-0.4,0.7
					c0,0,1.8,1.6,2.6,3.3c0.8,1.7-0.1,0-0.1,0l-3.4-1.2c0,0-15.8-7.2-18.9-8.5c-3.1-1.3-8.9-0.7-8.9-0.7L282.6,256.1z"/>
				<path class="st64" d="M311.4,257.6l7.4-14l-4.6,15.2l1.5,1.2c0,0,2.4,1.5,25.9-0.5l-3.3,3.9l-3.1,2.9c0,0-9.6,6.1-13.3,0.5
					l-0.5-1.3l-8-1.1L311.4,257.6z"/>
				<path class="st64" d="M322.5,274.5c0,0,1,7.1,4.1,9c3,1.9,13.2-21.7,13.2-21.7S329.2,272.3,322.5,274.5z"/>
				<path class="st64" d="M253.9,276.5c0,0-1.5,7.8-0.6,10.9c7.5,2.9,19-16.6,19-16.6l2.7-8.1C275.1,262.7,264,272.5,253.9,276.5z"
					/>
				<linearGradient id="SVGID_48_" gradientUnits="userSpaceOnUse" x1="309.2231" y1="343.0213" x2="309.2231" y2="274.3158">
					<stop  offset="1.598750e-002" style="stop-color:#FFFFFF"/>
					<stop  offset="0.9916" style="stop-color:#C2C0E1"/>
				</linearGradient>
				<path class="st65" d="M308.9,274.3c0,0-4.8,36.5,0,68.7c0,0-2.1-39.5,2.9-56.5L308.9,274.3z"/>
				<linearGradient id="SVGID_49_" gradientUnits="userSpaceOnUse" x1="291.6115" y1="107.8308" x2="319.2736" y2="107.8308">
					<stop  offset="1.598750e-002" style="stop-color:#FFFFFF"/>
					<stop  offset="0.9916" style="stop-color:#C2798B"/>
				</linearGradient>
				<path class="st66" d="M319.3,102c0,0-9.1-3.1-27.7,13.3C291.6,115.3,309.9,94.3,319.3,102z"/>
				<linearGradient id="SVGID_50_" gradientUnits="userSpaceOnUse" x1="277.18" y1="122.0431" x2="291.6115" y2="122.0431">
					<stop  offset="8.379890e-003" style="stop-color:#C2798B"/>
					<stop  offset="0.984" style="stop-color:#FFFFFF"/>
				</linearGradient>
				<path class="st67" d="M278.7,128.1l12.9-12.7c0,0-8.6,5.1-14.4,13.4L278.7,128.1z"/>
				<path class="st45" d="M277.4,173.6c0,0-6,13.4-12.4,22.7c0,0,7.7-5.6,13.9-9.6L277.4,173.6z"/>
				<linearGradient id="SVGID_51_" gradientUnits="userSpaceOnUse" x1="312.0052" y1="189.2015" x2="312.0052" y2="182.7331">
					<stop  offset="0" style="stop-color:#C9B6E9"/>
					<stop  offset="1" style="stop-color:#D5BDEA"/>
				</linearGradient>
				<path class="st68" d="M310.5,189.2c0,0,1.2-3.5,4.3-3.9l-1.2-2.4c0,0-4.2-1.4-4.4,4L310.5,189.2z"/>
				<path class="st53" d="M306.9,211l5.9,2c0,0,2.2-0.2,3.6-1.6l-6.5-3.6l7,3.1c0,0,2.1-0.5,3-2.2c0,0-2.8-2.6-5.4-4.4
					c0,0,3.7,1.8,5.4,3.9c0,0,2.5-0.3,2.8-2.1c0.6,1.3-1.4,4.2-3,6.3c0,0-1.9,4.7-5.5,5.7c-3.6,0.9-3.9-1.3-3.9-1.3L306.9,211z"/>
				<path class="st53" d="M323.2,222.9l-8.2,2.3l-5.8,4.8c0,0,2-1.3,5.2-3.1C317.6,225,323.2,222.9,323.2,222.9z"/>
				<path class="st53" d="M320.7,213.5c0,0,2.9,3.5,3.6,5.1c0,0,0.3-3.6,0.6-4.9l-2.4-4.1L320.7,213.5z"/>
				<linearGradient id="SVGID_52_" gradientUnits="userSpaceOnUse" x1="261.2029" y1="400" x2="261.2029" y2="285.4886">
					<stop  offset="1.598750e-002" style="stop-color:#FFFFFF"/>
					<stop  offset="0.9916" style="stop-color:#C2C0E1"/>
				</linearGradient>
				<path class="st69" d="M264.1,285.5c0,0,0.7,54.6,7.4,114.5h-16c0,0-8.9-93.9-1.5-107.2C253.9,292.8,261.1,289.4,264.1,285.5z"/>
				<path class="st20" d="M321.5,145.9c0,0,0.2,3.6,2.4,3.6c2.2,0,3.8-4.8,3.8-4.8s-2,3.6-4.1,4
					C321.6,149.1,321.5,145.9,321.5,145.9z"/>
				<path class="st20" d="M299,141.5c0,0,5.3,4.7,7.9,5.7c2.7,0.9,4.1-2.4,4.1-2.4s-1.1,1.4-3.1,1.7
					C305.3,146.1,299,141.5,299,141.5z"/>
				<path class="st70" d="M310.8,219c1.8,2.7,2.7,7.4,2.7,7.4l-4.3,3.6c0,0,7.4-4.9,14.2-7.1c0,0,0.8-2,0.9-4.3
					c0-2.2,0.6-4.9,0.6-4.9l-2.4-4.1l-1.8,3.8l-0.8-1.1c0,0-1.6,3.4-4.1,5c-1.9,1.1-4.7,0.4-4.7,0.4L310.8,219z"/>
				<path class="st0" d="M307.4,118.7c-2.4,1.4,1.9-2.9-11.5-4.3c-13.4-1.4-13.1-12.9-12.2-14c0.9-1.2-0.7-1.4-0.7-1.4
					s1.3-2.2,3.5-3.9c0,0-2.2,2.9-2.1,9.2c0.1,6.3,10.7,10,19.6,10c9,0,10.8-1.8,10.8-1.8S309.9,117.2,307.4,118.7z"/>
				<path class="st0" d="M309.2,118.8c0,0,6.1-0.9,7.8,3.2c0,0,3.1-2.8,4.1-6.2c0,0-0.8,1.2-3.4,1.3c-2.7,0.1-2-3.3-2-3.3
					S312.6,117.2,309.2,118.8z"/>
				<path class="st0" d="M329.3,121.5c0,0,2.2-1.3,3.3-1.6c1.1-0.3,1.6,0.8,1.6,0.8s1.9-2.9,2.5-4.3c0,0,0.3,1.2-2.3,1.6
					c-2.6,0.4-4.1-2.1-4.1-2.1S330.5,119.5,329.3,121.5z"/>
			</g>
			<g>
				<path class="st71" d="M42.2,312.9l2.4,28.4c0,0-7.4,6.1-13.1,6.1C31.5,347.4,29.8,335.7,42.2,312.9z"/>
				<path class="st71" d="M265.9,391.4c0,0-14,1.3-27.6-1.5c-13.6-2.8-24.3-8.6-24.3-8.6l-1.9-11.9c0,0,13.9-15.9,30.3-8.6
					C258.8,368.1,265.9,391.4,265.9,391.4z"/>
				<linearGradient id="SVGID_53_" gradientUnits="userSpaceOnUse" x1="140.0168" y1="243.7319" x2="140.0168" y2="155.9963">
					<stop  offset="0" style="stop-color:#FFB595"/>
					<stop  offset="0.984" style="stop-color:#FFC2A9"/>
				</linearGradient>
				<path class="st72" d="M134.8,156.4c-17.3,2.7-25.8,17-26.1,24.6c-0.4,7.7,5.6,36.9,7.6,44.8c2,7.9,16.8,16.1,22,17.3
					c5.2,1.3,10.4,0.1,14.7-1.9c4.3-2,14.5-10.8,16.7-18.5c2.1-7.7,2.8-43.7,0-52.7C166.8,161.1,149,154.2,134.8,156.4z"/>
				<linearGradient id="SVGID_54_" gradientUnits="userSpaceOnUse" x1="145.5423" y1="295.8081" x2="145.5423" y2="236.3351">
					<stop  offset="1.598750e-002" style="stop-color:#FFA67F"/>
					<stop  offset="1" style="stop-color:#FF8B7C"/>
				</linearGradient>
				<path class="st73" d="M129,238.9l0.9,33.5c0,0,3.8,22.6,15.7,23.4c14.8,0.9,16.5-25.3,16.5-25.3l-2.3-34.1c0,0-8.6,7.4-16.5,7.4
					C135.4,243.7,129,238.9,129,238.9z"/>
				<linearGradient id="SVGID_55_" gradientUnits="userSpaceOnUse" x1="141.3388" y1="188.2555" x2="141.3388" y2="158.6491">
					<stop  offset="1.598750e-002" style="stop-color:#FFFFFF"/>
					<stop  offset="0.9916" style="stop-color:#F29DC8"/>
				</linearGradient>
				<path class="st74" d="M111,181.1c0,0,3.5-15.1,23.7-16.3c20.3-1.2,28.2,5.6,30.9,10.4c2.7,4.8,6.1,13.1,6.1,13.1l-0.9-23
					l-12.8-6c0,0-26.8-2.5-36.5,2.3C111.7,166.4,110.8,173,111,181.1z"/>
				<linearGradient id="SVGID_56_" gradientUnits="userSpaceOnUse" x1="175.1185" y1="217.5073" x2="175.1185" y2="193.3094">
					<stop  offset="1.598750e-002" style="stop-color:#FFA67F"/>
					<stop  offset="1" style="stop-color:#FF8B7C"/>
				</linearGradient>
				<path class="st75" d="M171.4,196.1c0,0,2.3-2.7,6.8-2.8c0,0,2.8,2.3,1,8.3c-1.6,5.3-5.6,12.1-6.3,13.8c-0.8,1.7-2.5,2.1-2.5,2.1
					S171.4,203.2,171.4,196.1z"/>
				<linearGradient id="SVGID_57_" gradientUnits="userSpaceOnUse" x1="109.9342" y1="221.4577" x2="109.9342" y2="199.4977">
					<stop  offset="1.598750e-002" style="stop-color:#FFA67F"/>
					<stop  offset="1" style="stop-color:#FF8B7C"/>
				</linearGradient>
				<path class="st76" d="M111,200.6c0,0-3-2.4-6.4,0c0,0,0.7,4.6,3.2,10.7c2.5,6.1,3.8,10.2,7.3,10.2L111,200.6z"/>
				<linearGradient id="SVGID_58_" gradientUnits="userSpaceOnUse" x1="175.0679" y1="212.5446" x2="175.0679" y2="197.9456">
					<stop  offset="1.598750e-002" style="stop-color:#FFFFFF"/>
					<stop  offset="0.9916" style="stop-color:#F29DC8"/>
				</linearGradient>
				<path class="st77" d="M171.4,202.8c0,0,4.1-4.4,6.3-4.8s0.6,5.7-0.7,8.9c-1.3,3.2-1.5,3.5-1.5,3.5s2.7-7.8,1.8-9.5
					c-0.8-1.8-2.2-1-2.2-0.3c-0.1,0.7,1.4,4.5-0.6,8.2c-2,3.7-2.3,4.7-2.8,2.7c-0.6-1.9,1.2-5.1,1.2-7
					C172.9,202.8,171.4,202.8,171.4,202.8z"/>
				<linearGradient id="SVGID_59_" gradientUnits="userSpaceOnUse" x1="110.0434" y1="216.8052" x2="110.0434" y2="203.9612">
					<stop  offset="1.598750e-002" style="stop-color:#FFFFFF"/>
					<stop  offset="0.9916" style="stop-color:#F29DC8"/>
				</linearGradient>
				<path class="st78" d="M112.1,206c0,0-3.5-2.6-4.8-1.9c-1.3,0.7,0.3,7.2,3.3,12.4c0,0-3.1-7.2-2-8.9c1.1-1.7,3.5,1.3,2.4,1.4
					c-3.4,0.4-1.6,5.3,1.1,7.3s-0.4-1.5-0.9-4.6c-0.5-3.1,1.3-3,1.3-3L112.1,206z"/>
				<linearGradient id="SVGID_60_" gradientUnits="userSpaceOnUse" x1="143.9604" y1="203.8429" x2="133.9704" y2="140.7681">
					<stop  offset="0" style="stop-color:#3E2987"/>
					<stop  offset="0.5684" style="stop-color:#2C2F90"/>
					<stop  offset="1" style="stop-color:#243294"/>
				</linearGradient>
				<path class="st79" d="M123.4,158.2c0,0,6.5-16.4,21-19.1c0,0-5.4,1.7-11.3,7.6c-2,2-6.6,9.3-6.6,9.3s15.3-16.2,25.4-15.4
					c10.1,0.9,10.4,15.6,15.1,18.1c4.6,2.5,5.9,7.6,5.9,7.6s4,4.9,3.8,10.1c-0.3,5.2-5.2,23.1-5.2,23.1s1.3-16.7-3.2-23.4
					c0,0-1.5-9.2-8.1-12.9c0,0-8.8,1-22.5-0.6c-13.6-1.6-18.1,1.6-18.1,1.6s-8.4,6.7-8.3,15.1c0,0-3.2,6.2,0.1,22.8
					c0,0-7.6-17-7.5-23.9c0.1-6.9,7.3-13.8,7.3-13.8s-5.9,3.2-9.3,7.4c0,0-4.7-8.7,17.3-10.8C120.4,160.9,122.2,159.8,123.4,158.2z"
					/>
				<linearGradient id="SVGID_61_" gradientUnits="userSpaceOnUse" x1="145.6313" y1="390.9936" x2="145.6313" y2="259.9149">
					<stop  offset="0" style="stop-color:#FF6686"/>
					<stop  offset="1" style="stop-color:#FF7C89"/>
				</linearGradient>
				<path class="st80" d="M129.6,260.5c0,0-11,12.4-19.6,17.9s-15.1,8.2-15.1,8.2s-2,68.5,7.1,104.3h90.3c0,0,7.6-85.5,2.8-107.6
					c0,0-23.8-10.3-33.7-23.4l0.4,11.9c0,0-3.9,18.9-16.3,19.8c-11.4,0.9-15.7-22.1-15.7-22.1L129.6,260.5z"/>
				<linearGradient id="SVGID_62_" gradientUnits="userSpaceOnUse" x1="150.6717" y1="390.9936" x2="150.6717" y2="252.4252">
					<stop  offset="0" style="stop-color:#2B2583"/>
					<stop  offset="1" style="stop-color:#482C97"/>
				</linearGradient>
				<path class="st81" d="M129.5,256.4l-4.3-1c0,0-6.4,11-16.5,19.3c-7.6,6.3-14.2,4.8-26,11.9c0,0,13,34.7,12,65.5
					c0,0,2.1,20,5.3,38.8l96.7-0.6c0,0,6.3-24,6.7-47c0,0,5.1-43.6,15.5-60.1c-13.8-6.6-24.1-6.2-35.8-11.7
					c-11.7-5.5-19.7-19.2-19.7-19.2l-2.4,1.1l0.5,6.4c0,0,8,9.1,11.3,17.6c4,10.5-7.6,113.4-7.6,113.4l-36.8-0.6
					c0,0-9.7-102.3-8.3-112c1.3-9.7,9.5-17.9,9.5-17.9L129.5,256.4z"/>
				<linearGradient id="SVGID_63_" gradientUnits="userSpaceOnUse" x1="63.3809" y1="391.3887" x2="63.3809" y2="286.6883">
					<stop  offset="0" style="stop-color:#26258A"/>
					<stop  offset="1" style="stop-color:#3C2C95"/>
				</linearGradient>
				<path class="st82" d="M82.6,286.7v11.7l-18.1,29.9c0,0-4.3-12.6-4.5-15c-0.2-2.4,0-6.5,0-6.5l-2.8-2.3l0.5,4.3
					c0,0,1.5,25.6-26.1,37.1c0,0,2-18.1,10.7-33l-0.4-1.9c0,0-9.7,14-12.6,37.7l8.5,4c0,0,8.5,24.6,19.7,38.5l12.5,0.1
					c0,0,18.7-16.4,27.1-41.8C97.1,349.6,101.3,318.6,82.6,286.7z"/>
				<linearGradient id="SVGID_64_" gradientUnits="userSpaceOnUse" x1="54.1201" y1="303.1678" x2="54.1201" y2="198.6691">
					<stop  offset="1.598750e-002" style="stop-color:#FFC2A0"/>
					<stop  offset="1" style="stop-color:#FFA195"/>
				</linearGradient>
				<path class="st83" d="M79.7,228.9c0,0-9.5,14.4-11.2,19.7c-1.8,5.3-0.4,15.2-1.9,17.4c0,0-9.7,8.5-10.9,11.1
					c-1.1,2.6,0,16.4,0,16.4c-3.9,7.3-13,9.6-13,9.6s-0.8-23.6-1.1-24.1c-0.3-0.6-5.7-4-5.7-4c-1.4-3.2-2.5-6.7-3.3-10.1
					c-1-4-1.8-7.9-2.3-11.1v0c-0.7-4.6-1-7.7-1-7.7l-0.8-9.4c1.3-6.1,4.9-5.1,4.9-5.1c0.5,5.8,2,10.7,2,10.7L36,242
					c-1-4.7-1.4-11.7-1.4-11.7c1.8-5.1,6.1-3.7,6.1-3.7c1.1,6.2,2.5,12.4,2.5,12.4c-1.2-8-0.4-20.5-0.4-20.5
					c1.6,3.7,6.4,4.3,6.4,4.3c-1,4.4,0,13.5,0,13.5l1-0.6c0.3-4.4,1-9.2,1.8-13.7c1.8-10.2,4.2-19.4,5-21.7c1.3-3.3,4.5-0.7,4.5-0.7
					c1.3,6.3,2,10.9,1.3,14.3c0,0,0,0,0,0c-1.1,5.1-4.2,7.1-4.2,7.1S56.4,233,56.6,235c0.2,2,1.2,15.2,1.2,15.2
					c5.2-2.8,6.6-6.8,6.6-6.8c0.1-8.5,3.8-13.2,8.5-15.2C77.7,226.1,79.7,228.9,79.7,228.9z"/>
				<path class="st20" d="M115.9,199.9l-0.4,1.2c0,0,7.6,1.9,14.1-2.4L115.9,199.9z"/>
				<linearGradient id="SVGID_65_" gradientUnits="userSpaceOnUse" x1="47.9375" y1="338.9924" x2="47.9375" y2="290.9679">
					<stop  offset="0" style="stop-color:#FF6686"/>
					<stop  offset="1" style="stop-color:#FF7C89"/>
				</linearGradient>
				<path class="st84" d="M42.5,297.1c0,0-3.8,4.1-4.3,7.4c0,0,2.5,6.1,4,8.4l1,26.1c0,0,15-10.7,14.4-30.2c0,0-1-13.2,0-16.9
					l-2.2-0.9l0.2,2.6c0,0-6.4,8.1-13,9.6L42.5,297.1z"/>
				<linearGradient id="SVGID_66_" gradientUnits="userSpaceOnUse" x1="234.2521" y1="391.3887" x2="234.2521" y2="283.3599">
					<stop  offset="0" style="stop-color:#26258A"/>
					<stop  offset="1" style="stop-color:#3C2C95"/>
				</linearGradient>
				<path class="st85" d="M218.7,283.4v10.4c0,0,33.7,52.9,44.4,85.7l2.8,11.9c0,0-19.7-28.8-35-27.3c-15.3,1.5-16.9,10.6-16.9,10.6
					l1.1,4.7l-1.1,1.9l-3.2-14.4h-2.8v-2.3l-5.2-10.4C202.7,354.2,200.4,306.2,218.7,283.4z"/>
				<linearGradient id="SVGID_67_" gradientUnits="userSpaceOnUse" x1="143.8033" y1="175.1935" x2="146.6454" y2="175.1935">
					<stop  offset="0" style="stop-color:#8453B8"/>
					<stop  offset="0.2307" style="stop-color:#7755BA"/>
					<stop  offset="0.6978" style="stop-color:#6157BC"/>
					<stop  offset="1" style="stop-color:#5958BD"/>
				</linearGradient>
				<path class="st86" d="M143.8,178.4c0,0,0.7-5.2,2.8-6.4L143.8,178.4z"/>
				<path class="st20" d="M148.4,196.4c0,0,7.5,1.7,14.6-1.7l-1-1.2C162,193.5,159,196.5,148.4,196.4z"/>
				<linearGradient id="SVGID_68_" gradientUnits="userSpaceOnUse" x1="138.7907" y1="205.6753" x2="138.7907" y2="178.2282">
					<stop  offset="1.598750e-002" style="stop-color:#FFFFFF"/>
					<stop  offset="0.9916" style="stop-color:#F29DC8"/>
				</linearGradient>
				<path class="st87" d="M113.2,185.6c-5.2,4.1,0.5,19.6,0.5,19.6s12.6,2.7,19.5-5.4V190c0,0,2-3.1,9.2-2.9c0,0,2.6,9.6,4.4,13.8
					c0,0,12.9,3.3,19.8-5.2c0,0,0.6-9.5-2.6-14c-3.2-4.6-20.1-3.2-20.1-3.2s-4,3.2-14.4,2.5C129.4,180.9,116.6,183,113.2,185.6z"/>
				<linearGradient id="SVGID_69_" gradientUnits="userSpaceOnUse" x1="116.313" y1="193.6383" x2="129.6745" y2="193.6383">
					<stop  offset="1.598750e-002" style="stop-color:#FFFFFF"/>
					<stop  offset="0.9916" style="stop-color:#EA9DC8"/>
				</linearGradient>
				<path class="st88" d="M129.7,197.3c0,0-1.7-7.1-7.1-7.4c-5.3-0.3-6.3,7.4-6.3,7.4H129.7z"/>
				<linearGradient id="SVGID_70_" gradientUnits="userSpaceOnUse" x1="147.4509" y1="189.7624" x2="160.6459" y2="189.7624">
					<stop  offset="1.598750e-002" style="stop-color:#FFFFFF"/>
					<stop  offset="0.9916" style="stop-color:#EA9DC8"/>
				</linearGradient>
				<path class="st89" d="M147.5,194.7c0,0-0.1-8.2,5.4-9.7c5.5-1.4,7.8,5.1,7.8,5.1L147.5,194.7z"/>
				<path class="st31" d="M161.6,194.7c-0.5,0.4-1.7,0.8-3.3,1.1c-2.2,0.4-5.1,0.7-7.3,0.7c-1.9,0-3.3-0.1-3.5-0.5
					c-0.6-1.4,1.1-7,6.4-8.1C159.2,186.9,163.3,193.3,161.6,194.7z"/>
				<path class="st31" d="M129.9,198.4c-0.1,0.3-0.7,0.6-1.7,1c-2,0.7-5.4,1.4-8.2,1.5c-1.1,0.1-2.2,0-3-0.2
					c-2.7-0.6-0.7-6.4,4.2-7.7c0.6-0.2,1.3-0.2,1.9-0.2c0,0,0,0,0,0c1.6,0.1,3.1,0.8,4.2,1.7c0,0,0,0,0.1,0
					C129.1,195.9,130.1,197.7,129.9,198.4z"/>
				<path class="st20" d="M135.5,212.5c0,0-3.8,0.2-4.9-1.2c-1.1-1.4,0.9-2.1,4-4.5c3.1-2.4,6.3-1.7,9.3-0.4
					c2.9,1.2,5.3,1.4,5.6,2.5c0.3,1.1-3.7,2.4-4.8,2.3c-1.1,0-1.5-0.4-2.6,0.3c-1.1,0.7-3.3,1-4.5,0.8
					C136.4,212.1,135.5,212.5,135.5,212.5z"/>
				<path class="st90" d="M142.1,211.5c0,0,0.6-1.3,1.9-1.1c1.3,0.1,2.8,0.4,2.8,0.4S144.5,212.1,142.1,211.5z"/>
				<path class="st90" d="M137.3,212.3c0,0-0.6-1.2-2-1.3c-1.4-0.1-2.1,1.4-2.1,1.4s1.7,0.4,2.3,0.1
					C136.1,212.3,137.3,212.3,137.3,212.3z"/>
				<linearGradient id="SVGID_71_" gradientUnits="userSpaceOnUse" x1="144.402" y1="206.0388" x2="149.4443" y2="206.0388">
					<stop  offset="1.598750e-002" style="stop-color:#FFFFFF"/>
					<stop  offset="0.9916" style="stop-color:#EA9DC8"/>
				</linearGradient>
				<path class="st91" d="M144.4,203.2c0,0,5.2-0.5,5,5.8C149.4,208.9,149.3,204.2,144.4,203.2z"/>
				<path class="st92" d="M159.2,193c0,1-0.3,2-0.9,2.8c-2.2,0.4-5.1,0.7-7.3,0.7c-1-0.9-1.5-2.2-1.5-3.5c0-2.7,2.2-4.9,4.9-4.9
					C157,188.1,159.2,190.3,159.2,193z"/>
				<path class="st92" d="M128.5,197.7c0,0.6-0.1,1.2-0.3,1.7c-2,0.7-5.4,1.4-8.2,1.5c-0.8-0.8-1.2-2-1.2-3.2c0-2.5,1.9-4.6,4.3-4.9
					c0,0,0,0,0,0c0.2,0,0.3,0,0.5,0c1.5,0,2.8,0.7,3.7,1.7c0,0,0,0,0.1,0C128.1,195.4,128.5,196.5,128.5,197.7z"/>
				<path class="st32" d="M147.5,194.7c0,0,1.6-5.9,6.9-6.5c5.1-0.5,7.2,4,7.2,4s-1.3-4.9-5.9-5.1
					C151.2,186.8,148.3,190.8,147.5,194.7z"/>
				<path class="st32" d="M129.5,197c0,0-3.4-4.7-8.2-3.5c-4.8,1.1-5.6,5.5-5.6,5.5s0.5-5.1,5.1-6.5C126,190.8,129.5,197,129.5,197z
					"/>
				<path class="st93" d="M128.5,221c0,0,3.3,1.3,12.3,0.5c9-0.9,14-7.6,14-7.6s-6.6,9.1-12.1,9.8c-5.5,0.6-7.7-0.9-10.5-1.7
					C129.3,221.2,128.5,221,128.5,221z"/>
				<path class="st31" d="M136.9,222c0,0,2.8,2.1,5.8,1.3c3-0.8,5.1-3.5,5.1-3.5S143,222,136.9,222z"/>
				<linearGradient id="SVGID_72_" gradientUnits="userSpaceOnUse" x1="152.4243" y1="214.8944" x2="158.2226" y2="214.8944">
					<stop  offset="1.598750e-002" style="stop-color:#FFFFFF"/>
					<stop  offset="0.9916" style="stop-color:#F29DC8"/>
				</linearGradient>
				<path class="st94" d="M152.4,213.3c0,0,3.8-0.3,5.8,3.5C158.2,216.8,158.9,211.8,152.4,213.3z"/>
				<linearGradient id="SVGID_73_" gradientUnits="userSpaceOnUse" x1="143.4216" y1="229.1994" x2="143.4216" y2="224.3515">
					<stop  offset="1.598750e-002" style="stop-color:#FFFFFF"/>
					<stop  offset="0.9916" style="stop-color:#F29DC8"/>
				</linearGradient>
				<path class="st95" d="M139,225.9c0,0,4.8,0.8,8.8-1.6c0,0-1.3,4.5-4.2,4.8C140.7,229.5,139,225.9,139,225.9z"/>
				<linearGradient id="SVGID_74_" gradientUnits="userSpaceOnUse" x1="154.3051" y1="195.3654" x2="154.3051" y2="190.2702">
					<stop  offset="1.598750e-002" style="stop-color:#E0B3D1"/>
					<stop  offset="0.9916" style="stop-color:#C2798B"/>
				</linearGradient>
				<circle class="st96" cx="154.3" cy="192.8" r="2.5"/>
				<linearGradient id="SVGID_75_" gradientUnits="userSpaceOnUse" x1="123.6151" y1="199.8701" x2="123.6151" y2="194.7748">
					<stop  offset="1.598750e-002" style="stop-color:#E0B3D1"/>
					<stop  offset="0.9916" style="stop-color:#C2798B"/>
				</linearGradient>
				<circle class="st97" cx="123.6" cy="197.3" r="2.5"/>
				<path class="st0" d="M156.4,192.3c0,0,2.3-1.1,3.7,0.7L156.4,192.3z"/>
				<path class="st0" d="M125.2,196.8c0,0,2.1-1,3.7,0.3L125.2,196.8z"/>
				<path class="st45" d="M115.6,223.1c3.2,7.4,9.1,13.9,17.6,16.5c5.2,1.6,17.7-0.1,23.7-3.3c11.1-6,13.3-16.5,13.3-16.5
					s0.7,6.2-10.4,16.5l0.4,14.6c0,0-11.9,8.2-17.3,10.3c-5.4,2.1-13.6-11-13.6-11l-0.3-11.4C129,238.9,118.4,233.7,115.6,223.1z"/>
				<linearGradient id="SVGID_76_" gradientUnits="userSpaceOnUse" x1="153.9086" y1="181.6252" x2="153.9086" y2="171.9725">
					<stop  offset="0" style="stop-color:#B877B8"/>
					<stop  offset="0.2337" style="stop-color:#9A6DBA"/>
					<stop  offset="0.5605" style="stop-color:#7762BB"/>
					<stop  offset="0.8276" style="stop-color:#615BBD"/>
					<stop  offset="1" style="stop-color:#5958BD"/>
				</linearGradient>
				<path class="st98" d="M143.9,178.4c0,0,2-6.3,7.5-6.4l-6.3,5.5c0,0,5.6-4.4,10.9-3.5c0,0,5.2,1.6,8,7.6
					C163.9,181.6,155,177.7,143.9,178.4z"/>
				<linearGradient id="SVGID_77_" gradientUnits="userSpaceOnUse" x1="121.3093" y1="185.6041" x2="121.3093" y2="174.7567">
					<stop  offset="0" style="stop-color:#B877B8"/>
					<stop  offset="0.2337" style="stop-color:#9A6DBA"/>
					<stop  offset="0.5605" style="stop-color:#7762BB"/>
					<stop  offset="0.8276" style="stop-color:#615BBD"/>
					<stop  offset="1" style="stop-color:#5958BD"/>
				</linearGradient>
				<path class="st99" d="M129.4,180.9c0,0-0.5-4.5-3.6-6.1l2.8,4.9c0,0-2.5-2.7-4.1-3.2c-1.7-0.4-8.1,2-11.3,9.1
					C113.2,185.6,121.3,182.2,129.4,180.9z"/>
				<path class="st45" d="M127.7,162.2c4.5-0.8,14-16.4,23.5-17.7c9.5-1.3,12.1,14.7,10.4,17c-1.8,2.3-12.1,2-12.1,2
					s-12.6-0.7-16.5-1.3C129.1,161.6,127.7,162.2,127.7,162.2z"/>
				<linearGradient id="SVGID_78_" gradientUnits="userSpaceOnUse" x1="162.1042" y1="176.3809" x2="175.6987" y2="176.3809">
					<stop  offset="1.598750e-002" style="stop-color:#FFFFFF"/>
					<stop  offset="0.9916" style="stop-color:#C2798B"/>
				</linearGradient>
				<path class="st100" d="M162.1,164.7c0,0,7.2,2.9,10.8,7.3c3.7,4.4,2.6,10.8,2.6,10.8l-1.2,5.3
					C174.3,188.1,176.4,171.8,162.1,164.7z"/>
				<linearGradient id="SVGID_79_" gradientUnits="userSpaceOnUse" x1="105.4756" y1="179.1013" x2="118.3691" y2="179.1013">
					<stop  offset="8.379890e-003" style="stop-color:#C2798B"/>
					<stop  offset="0.984" style="stop-color:#FFFFFF"/>
				</linearGradient>
				<path class="st101" d="M118.4,165.2c0,0-15.5,7.4-12.5,22.6l1.8,5.1C107.6,193,104.3,176.2,118.4,165.2z"/>
				<linearGradient id="SVGID_80_" gradientUnits="userSpaceOnUse" x1="104.677" y1="169.1009" x2="119.5507" y2="169.1009">
					<stop  offset="8.379890e-003" style="stop-color:#C2798B"/>
					<stop  offset="0.984" style="stop-color:#FFFFFF"/>
				</linearGradient>
				<path class="st102" d="M119.6,164.2c0,0-9.9,1.8-14.9,9.8C104.7,174,108.3,164.8,119.6,164.2z"/>
				<linearGradient id="SVGID_81_" gradientUnits="userSpaceOnUse" x1="145.8886" y1="167.1609" x2="143.2702" y2="150.6295">
					<stop  offset="0" style="stop-color:#3E2987"/>
					<stop  offset="0.5684" style="stop-color:#2C2F90"/>
					<stop  offset="1" style="stop-color:#243294"/>
				</linearGradient>
				<path class="st103" d="M128.9,161.8c0,0,7.5-8.2,18.9-6.9c11.4,1.3,13.8,9.8,13.8,9.8s-1.2-12.4-12.1-14.3
					C138.5,148.4,128.9,161.8,128.9,161.8z"/>
				
					<linearGradient id="SVGID_82_" gradientUnits="userSpaceOnUse" x1="175.7127" y1="171.6691" x2="173.9524" y2="160.5548" gradientTransform="matrix(0.9759 0.218 -0.218 0.9759 38.0317 -34.9707)">
					<stop  offset="0" style="stop-color:#3E2987"/>
					<stop  offset="0.5684" style="stop-color:#2C2F90"/>
					<stop  offset="1" style="stop-color:#243294"/>
				</linearGradient>
				<path class="st104" d="M167.1,159.3c0,0,10.1,3.2,10.6,11.9C177.7,171.2,180.5,161.5,167.1,159.3z"/>
				<path class="st1" d="M134,204.6c-1,1.6,3.5-0.3,6.8,0c3.3,0.3,3,0.7,3.1,0c0.1-0.7-2.5-3.8-5.4-3.4
					C135.6,201.6,134.5,203.7,134,204.6z"/>
				<linearGradient id="SVGID_83_" gradientUnits="userSpaceOnUse" x1="131.9795" y1="210.0462" x2="137.5507" y2="210.0462">
					<stop  offset="1.598750e-002" style="stop-color:#FFFFFF"/>
					<stop  offset="0.9916" style="stop-color:#D172A6"/>
				</linearGradient>
				<path class="st105" d="M137.6,212.3c0,0-2.6-1-3.7-4.5l-1.8,0.9C132,208.7,133.4,211.6,137.6,212.3z"/>
				<path class="st106" d="M131.9,188.5c-1.3-2.3-13.7-3.2-21,4.1c-3,3,0,15,4.5,18.1c4.5,3.2,13,1.4,15.9-5.3
					C134.2,198.8,133.3,190.8,131.9,188.5z M119.6,210.7c-6.6-0.3-10.9-11.3-7.8-16.3c3.9-6.3,16.8-8.1,18.3-3.9
					C136.4,207.7,124.8,211,119.6,210.7z"/>
				<path class="st106" d="M144.2,186.1c1-2.5,14.3-7.2,23.1-1.6c3.7,2.3,2.5,15.5-2.1,19.9c-4.2,4-13.2,4.1-17.4-1.8
					C143.7,196.7,143.2,188.7,144.2,186.1z M160.9,205.3c6.8-1.7,10-14.6,5.9-18.9c-5.2-5.4-19.5-3.1-20.4,1.2
					C143,205.9,155.6,206.7,160.9,205.3z"/>
				<linearGradient id="SVGID_84_" gradientUnits="userSpaceOnUse" x1="121.4634" y1="210.3379" x2="121.4634" y2="186.5453">
					<stop  offset="0" style="stop-color:#26258A"/>
					<stop  offset="1" style="stop-color:#3C2C95"/>
				</linearGradient>
				<path class="st107" d="M131.9,188.1c-1.3-2.1-13.7-3-21,3.9c-3,2.9,0,14,4.5,17c4.5,3,13,1.3,15.9-5
					C134.2,197.7,133.3,190.2,131.9,188.1z M119.6,208.9c-6.6-0.3-10.9-10.6-7.8-15.3c3.9-5.9,16.8-7.6,18.3-3.7
					C136.4,206.1,124.8,209.2,119.6,208.9z"/>
				
					<linearGradient id="SVGID_85_" gradientUnits="userSpaceOnUse" x1="156.3172" y1="204.9899" x2="156.3172" y2="180.8513" gradientTransform="matrix(0.9817 -0.1906 0.1906 0.9817 -32.8282 34.0234)">
					<stop  offset="0" style="stop-color:#26258A"/>
					<stop  offset="1" style="stop-color:#3C2C95"/>
				</linearGradient>
				<path class="st108" d="M144.2,185.8c1-2.4,14.3-6.8,23.1-1.5c3.7,2.2,2.5,14.6-2.1,18.7c-4.2,3.7-13.2,3.9-17.4-1.7
					C143.7,195.8,143.2,188.2,144.2,185.8z M160.9,203.8c6.8-1.6,10-13.7,5.9-17.7c-5.2-5-19.5-2.9-20.4,1.2
					C143,204.4,155.6,205.1,160.9,203.8z"/>
				<linearGradient id="SVGID_86_" gradientUnits="userSpaceOnUse" x1="138.5917" y1="191.4297" x2="138.5917" y2="187.4094">
					<stop  offset="0" style="stop-color:#26258A"/>
					<stop  offset="1" style="stop-color:#3C2C95"/>
				</linearGradient>
				<path class="st109" d="M132.7,191.4c0,0,6.6-2.7,12-0.6l-0.4-2.8c0,0-5.5-2.2-11.9,1.2L132.7,191.4z"/>
				<linearGradient id="SVGID_87_" gradientUnits="userSpaceOnUse" x1="172.904" y1="194.7748" x2="172.904" y2="185.0357">
					<stop  offset="0" style="stop-color:#26258A"/>
					<stop  offset="1" style="stop-color:#3C2C95"/>
				</linearGradient>
				<polygon class="st110" points="170.7,190 172.7,194.8 175.1,193.8 171.8,185 				"/>
				<polygon class="st111" points="109.9,194.7 107.4,195.5 108.2,198.4 110.1,198.9 				"/>
				<polygon class="st111" points="172.1,189.8 169.6,190.2 168.4,185.4 171.8,185 				"/>
				<path class="st112" d="M146.8,192c0,0-0.9,7.5,6.1,11.2c0,0,4.3,1.2,9.1-0.4l-4.1-11.3L146.8,192z"/>
				<path class="st112" d="M112.1,196.5c0,0-0.7,7.5,5,11.2c0,0,3.5,1.2,7.4-0.4l-3.3-11.3L112.1,196.5z"/>
				<path class="st20" d="M133.2,195.6c0,0,4.7-4.1,11-1.5l-0.6-2.1c0,0-5.3-2.7-10.5,1.1L133.2,195.6z"/>
				<path class="st20" d="M170.7,213.3c0,0,1.8,0.4,2.2,1.6c0.5,1.2-2.5,2.6-2.5,2.6L170.7,213.3z"/>
				<path class="st20" d="M114.3,217.5c0,0-2,2.2-1.7,3c0.3,0.8,2.6,1,2.6,1L114.3,217.5z"/>
				<linearGradient id="SVGID_88_" gradientUnits="userSpaceOnUse" x1="140.0267" y1="170.0933" x2="138.4368" y2="160.0551">
					<stop  offset="0" style="stop-color:#3E2987"/>
					<stop  offset="0.5684" style="stop-color:#2C2F90"/>
					<stop  offset="1" style="stop-color:#243294"/>
				</linearGradient>
				<path class="st113" d="M128.9,161.8c0,0,6.3-2.2,15,0c8.6,2.2,3.9,7.1,3.9,7.1S145.2,158.9,128.9,161.8z"/>
				<path class="st0" d="M149.5,140.6c0,0,2.6,1.3,1.4,4c0,0,2.6-0.8,5.4,1.1c0,0-1.2-1.7-2.7-2.1c-1.5-0.5-1.6-3-1.6-3
					S150.7,140.3,149.5,140.6z"/>
				<path class="st0" d="M149.8,150.4c0.9,0.9-1.6,4.5-1.6,4.5l4.3,1c0,0-1.5-1.5-1.4-2.8c0.1-1.3,1.7-1.8,1.7-1.8L149.8,150.4z"/>
				<path class="st45" d="M125.1,266.1c0,0,1.9,29.8,20.1,30.9c20.2,1.3,21.3-23.9,18.8-34c3.7,15.2,0.4,34.3-18.4,34.7
					C126.3,298.2,125.1,266.1,125.1,266.1z"/>
				<path class="st45" d="M129.6,260.5c0,0-0.6,28.3,16.3,27.7c16.2-0.5,15.8-21.7,15.8-21.7l0.2,5.3c0,0-4.7,21.7-17.4,19.8
					C131.7,289.7,129,268.2,129.6,260.5z"/>
				<linearGradient id="SVGID_89_" gradientUnits="userSpaceOnUse" x1="136.3711" y1="279.6768" x2="136.3711" y2="239.6443">
					<stop  offset="1.598750e-002" style="stop-color:#FFFFFF"/>
					<stop  offset="0.9916" style="stop-color:#F29DC8"/>
				</linearGradient>
				<path class="st114" d="M130.2,239.6c0,0,9.7,37.9,11.8,40c2.2,2.1-3.8-36.4-3.8-36.4L130.2,239.6z"/>
				<path class="st45" d="M160.9,253.5l1.2-1.1c0,0,8.7,14.7,11.7,23.4c3,8.7-6.5,115.2-6.5,115.2l-10.6-0.3
					c0,0,11.3-62.7,13.3-87.5c2-24.8-8.8-43.3-8.8-43.3L160.9,253.5z"/>
				<path class="st45" d="M136.4,390.8c0,0-15-98.5-14.1-111.2c0.9-12.7,7.3-19.1,7.3-19.1l-0.1-4.1l-4.3-1c0,0-5.9,15.8-6.8,24.3
					c-0.9,8.4,6.8,111.1,6.8,111.1H136.4z"/>
				<linearGradient id="SVGID_90_" gradientUnits="userSpaceOnUse" x1="109.5124" y1="391.1199" x2="109.5124" y2="255.4252">
					<stop  offset="0" style="stop-color:#38328A"/>
					<stop  offset="1" style="stop-color:#5C43A2"/>
				</linearGradient>
				<path class="st115" d="M111,272.4c0,0-9.6,10.7-17.2,17.8c0,0,1.9,4.8,12,6.6l-8.4,9.5c0,0,8.5,52.3,19.1,84.9l8.5-0.3
					c0,0-7.6-98.9-6.8-111.1c0.8-12.2,6.8-24.3,6.8-24.3S118.8,264,111,272.4z"/>
				<linearGradient id="SVGID_91_" gradientUnits="userSpaceOnUse" x1="181.4138" y1="390.9936" x2="181.4138" y2="252.4252">
					<stop  offset="0" style="stop-color:#38328A"/>
					<stop  offset="1" style="stop-color:#5C43A2"/>
				</linearGradient>
				<path class="st116" d="M163.2,252.4c0,0,10.8,16.9,22.9,20.6l13.5,16.9c0,0-0.1,5.7-14.7,8.6l9.3,11c0,0-6.1,48-19.7,81
					l-7.1,0.4c0,0,10.3-98,6.8-113.4C170.7,262.3,163.2,252.4,163.2,252.4z"/>
				<linearGradient id="SVGID_92_" gradientUnits="userSpaceOnUse" x1="133.7702" y1="327.2041" x2="133.7702" y2="272.3783">
					<stop  offset="1.598750e-002" style="stop-color:#FFFFFF"/>
					<stop  offset="0.9916" style="stop-color:#EA8CC1"/>
				</linearGradient>
				<path class="st117" d="M125.2,272.4c0,0-0.5,33.9,17.2,54.8L125.2,272.4z"/>
				<linearGradient id="SVGID_93_" gradientUnits="userSpaceOnUse" x1="158.5205" y1="315.5464" x2="158.5205" y2="275.6988">
					<stop  offset="1.598750e-002" style="stop-color:#FFFFFF"/>
					<stop  offset="0.9916" style="stop-color:#EA8CC1"/>
				</linearGradient>
				<path class="st118" d="M168.4,275.7c0,0,4,24.7-20,39.8C148.4,315.5,164.6,298.5,168.4,275.7z"/>
				<path class="st45" d="M38.2,319.9l2.8,20.8c0,0,16.4-8.7,16.8-32c0,0-2.2,15.7-14.1,23.1l-1.4-18.9l-0.8-1.3L38.2,319.9z"/>
				<path class="st45" d="M42.7,303.2l-3.8,0.9c0,0,0.8-2.8,3.6-5.9L42.7,303.2z"/>
				<linearGradient id="SVGID_94_" gradientUnits="userSpaceOnUse" x1="45.2701" y1="264.6578" x2="45.2701" y2="213.9178">
					<stop  offset="8.379890e-003" style="stop-color:#EA9DC8"/>
					<stop  offset="0.984" style="stop-color:#FFDBD6"/>
				</linearGradient>
				<path class="st119" d="M62,213.9c-1.1,5.1-3.4,7.1-3.4,7.1S56.4,233,56.6,235c-8.9,1.7-21.3,8.3-23.9,11.8
					c-2.4,3.3-0.5,15.9-0.1,17.9l-2.2-10.8v0c-0.7-4.6-1-7.7-1-7.7l-0.8-9.4c1.3-6.1,4.9-5.1,4.9-5.1c0.5,5.8,2,10.7,2,10.7L36,242
					c-1-4.7-1.4-11.7-1.4-11.7c1.8-5.1,6.1-3.7,6.1-3.7c1.1,6.2,2.5,12.4,2.5,12.4c-1.2-8-0.4-20.5-0.4-20.5
					c1.6,3.7,6.4,4.3,6.4,4.3c-1,4.4,0,13.5,0,13.5l1-0.6c0.3-4.4,1-9.2,1.8-13.7C58.9,220.6,61.9,214.3,62,213.9z"/>
				<linearGradient id="SVGID_95_" gradientUnits="userSpaceOnUse" x1="52.3543" y1="222.9212" x2="52.3543" y2="208.9255">
					<stop  offset="0" style="stop-color:#FFB595"/>
					<stop  offset="0.984" style="stop-color:#FFC290"/>
				</linearGradient>
				<path class="st120" d="M42.8,218.5l18.1-9.6c0,0,6.1,11.7-11.7,13.9C49.2,222.8,43.6,224,42.8,218.5z"/>
				<linearGradient id="SVGID_96_" gradientUnits="userSpaceOnUse" x1="42.5041" y1="231.6551" x2="42.5041" y2="218.5679">
					<stop  offset="0" style="stop-color:#FFB595"/>
					<stop  offset="0.984" style="stop-color:#FFC290"/>
				</linearGradient>
				<path class="st121" d="M36.6,227.1l12.5-8.5c0,0,2.8,4,0.3,7.8c-2.2,3.2-9.2,6.3-14.8,5C34.7,231.4,33.9,229.1,36.6,227.1z"/>
				<linearGradient id="SVGID_97_" gradientUnits="userSpaceOnUse" x1="36.4376" y1="237.5128" x2="36.4376" y2="230.6041">
					<stop  offset="0" style="stop-color:#FFB595"/>
					<stop  offset="0.984" style="stop-color:#FFC290"/>
				</linearGradient>
				<path class="st122" d="M33,231.5l11.1-0.9c0,0,0.4,6-5.3,6.7c-6.1,0.8-10-1.2-10-1.2S28.3,231.8,33,231.5z"/>
				<path class="st54" d="M54.5,212.3c-2.5,1.3,1.5,0.9,3.5,0c0,0,1-2.3,2.9-3.4L54.5,212.3z"/>
				<path class="st54" d="M49.1,218.6c0,0-3.6,2.4-4.2,4.6c0,0-4.8,2.5-3.5,0.9C42.6,222.5,49.1,218.6,49.1,218.6L49.1,218.6z"/>
				<path class="st54" d="M44.1,230.6c0,0-2.3-0.3-4.1,2.4c0,0-4.3,0.3-3.5-1.1C37.2,230.5,44.1,230.6,44.1,230.6z"/>
				<linearGradient id="SVGID_98_" gradientUnits="userSpaceOnUse" x1="56.7401" y1="282.4883" x2="56.7401" y2="266.0716">
					<stop  offset="1.598750e-002" style="stop-color:#FFFFFF"/>
					<stop  offset="0.9916" style="stop-color:#EA9DC8"/>
				</linearGradient>
				<path class="st123" d="M66.6,266.1c0,0-12.8,7.7-15.9,11.5c-3.2,3.8-3.8,4.9-3.8,4.9l8.8-5.3C55.7,277.2,59.4,273,66.6,266.1z"
					/>
				<linearGradient id="SVGID_99_" gradientUnits="userSpaceOnUse" x1="51.8927" y1="264.9304" x2="51.8927" y2="248.9059">
					<stop  offset="1.598750e-002" style="stop-color:#FFFFFF"/>
					<stop  offset="0.9916" style="stop-color:#EA9DC8"/>
				</linearGradient>
				<path class="st124" d="M57.8,250.1c0,0-11.1,1.9-11.8,14.8c0,0-0.1-18.3,11.7-15.8L57.8,250.1z"/>
				<linearGradient id="SVGID_100_" gradientUnits="userSpaceOnUse" x1="62.9299" y1="256.0871" x2="62.9299" y2="239.6443">
					<stop  offset="8.379890e-003" style="stop-color:#EA9DC8"/>
					<stop  offset="0.984" style="stop-color:#FFFFFF"/>
				</linearGradient>
				<path class="st125" d="M64.4,243.3c0.8,2.3,8.7-3.7,8.7-3.7s-6.1,8.3-5.6,16.4c0,0-1.7-5.1-6.1-5.7c-4.4-0.6-8.6,1.8-8.6,1.8
					s2.4-1.5,5-2.1C57.8,250.1,62.7,247.2,64.4,243.3z"/>
				<path class="st20" d="M42.6,300.3c0,0,7.6-0.9,13.1-6.7c0,0-5.2,7.3-13,9.6L42.6,300.3z"/>
				<linearGradient id="SVGID_101_" gradientUnits="userSpaceOnUse" x1="82.6033" y1="314.0199" x2="94.7341" y2="314.0199">
					<stop  offset="8.379890e-003" style="stop-color:#C2798B"/>
					<stop  offset="0.984" style="stop-color:#FFFFFF"/>
				</linearGradient>
				<path class="st126" d="M82.6,298.4c0,0,9.4,20.4,12,42.9c0,0,1.9-33.9-12-54.7V298.4z"/>
				<linearGradient id="SVGID_102_" gradientUnits="userSpaceOnUse" x1="71.146" y1="361.2462" x2="71.146" y2="327.2041">
					<stop  offset="1.598750e-002" style="stop-color:#FFFFFF"/>
					<stop  offset="0.9916" style="stop-color:#C2798B"/>
				</linearGradient>
				<path class="st127" d="M64.5,328.3c0,0,12.1,15.2,12.9,33c0,0,3.8-27.1-12.2-34L64.5,328.3z"/>
				<linearGradient id="SVGID_103_" gradientUnits="userSpaceOnUse" x1="29.2664" y1="340.8778" x2="55.7296" y2="340.8778">
					<stop  offset="8.379890e-003" style="stop-color:#C2798B"/>
					<stop  offset="0.984" style="stop-color:#FFFFFF"/>
				</linearGradient>
				<path class="st128" d="M29.3,348.7c0,0,16.5-2.3,26.5-19.7c0,0-2.4,20.1-17.9,23.7L29.3,348.7z"/>
				<linearGradient id="SVGID_104_" gradientUnits="userSpaceOnUse" x1="64.3041" y1="376.9725" x2="64.3041" y2="313.3094">
					<stop  offset="1.598750e-002" style="stop-color:#FFFFFF"/>
					<stop  offset="0.9916" style="stop-color:#C2798B"/>
				</linearGradient>
				<path class="st129" d="M60.1,313.3c0,0,3.9,24.4,6.5,42.8c2.7,18.4,1.5,20.8,1.5,20.8s1.3-10.1-0.6-28.6
					C65.7,329.8,60.1,313.3,60.1,313.3z"/>
				<path class="st45" d="M94.6,352.2l-0.8-17.6c0,0,5.6,43.2,16.2,56.3l3.4-2.2c0,0-5-24.8-9.4-47.4l12.5,49.8L99.9,391
					C99.9,391,95.9,364.1,94.6,352.2z"/>
				<linearGradient id="SVGID_105_" gradientUnits="userSpaceOnUse" x1="204.3746" y1="303.2311" x2="218.7401" y2="303.2311">
					<stop  offset="1.598750e-002" style="stop-color:#FFFFFF"/>
					<stop  offset="0.9916" style="stop-color:#C2798B"/>
				</linearGradient>
				<path class="st130" d="M218.7,283.4c0,0-12.6,17.9-14.4,39.7c0,0,4.7-19.5,14.4-29.3V283.4z"/>
				<linearGradient id="SVGID_106_" gradientUnits="userSpaceOnUse" x1="207.9401" y1="340.1199" x2="213.4917" y2="340.1199">
					<stop  offset="8.379890e-003" style="stop-color:#C2798B"/>
					<stop  offset="0.984" style="stop-color:#FFFFFF"/>
				</linearGradient>
				<path class="st131" d="M212.9,313.3c0,0,1.9,34.3-2.1,53.6h-2.8C207.9,366.9,215.7,341.2,212.9,313.3z"/>
				<linearGradient id="SVGID_107_" gradientUnits="userSpaceOnUse" x1="188.8036" y1="361.1748" x2="204.3746" y2="361.1748">
					<stop  offset="8.379890e-003" style="stop-color:#C2798B"/>
					<stop  offset="0.984" style="stop-color:#FFFFFF"/>
				</linearGradient>
				<path class="st132" d="M202.7,354.2l1.7-22.3c0,0-6.1,44.4-15.6,58.6l7.8,0C196.6,390.4,201.9,370.7,202.7,354.2z"/>
				<linearGradient id="SVGID_108_" gradientUnits="userSpaceOnUse" x1="210.9662" y1="360.7935" x2="250.5702" y2="360.7935">
					<stop  offset="8.379890e-003" style="stop-color:#C2798B"/>
					<stop  offset="0.984" style="stop-color:#FFFFFF"/>
				</linearGradient>
				<path class="st133" d="M211.6,370.4c0,0,5-10.4,13.6-12.2c8.6-1.8,25.5,3,25.5,3s-4.5-11.4-17.6-9.8c-13.1,1.5-15.2,8-17.7,11.9
					c-2.6,3.9-4.2,4.5-4.2,4.5L211.6,370.4z"/>
				<linearGradient id="SVGID_109_" gradientUnits="userSpaceOnUse" x1="218.1085" y1="361.5541" x2="250.0664" y2="361.5541">
					<stop  offset="8.379890e-003" style="stop-color:#C2798B"/>
					<stop  offset="0.984" style="stop-color:#FFFFFF"/>
				</linearGradient>
				<path class="st134" d="M218.1,363.1c0,0,6.5-5,17.9-3.3c11.4,1.6,14,4,14,4S232.6,357.3,218.1,363.1z"/>
				<linearGradient id="SVGID_110_" gradientUnits="userSpaceOnUse" x1="206.5499" y1="361.5541" x2="206.5499" y2="309.5199">
					<stop  offset="8.379890e-003" style="stop-color:#C2798B"/>
					<stop  offset="0.984" style="stop-color:#FFFFFF"/>
				</linearGradient>
				<path class="st135" d="M206.4,361.6c0,0,6.9-27.2,2.6-52c0,0-6.6,6.2-6.3,44.7L206.4,361.6z"/>
				<path class="st45" d="M178.2,390.5c0,0,12-40.7,11.9-74.9c0,0-3.9,42.9-15.7,75L178.2,390.5z"/>
				<linearGradient id="SVGID_111_" gradientUnits="userSpaceOnUse" x1="228.548" y1="378.4869" x2="228.548" y2="365.2252">
					<stop  offset="1.598750e-002" style="stop-color:#FFA67F"/>
					<stop  offset="1" style="stop-color:#FF8B7C"/>
				</linearGradient>
				<path class="st136" d="M221.4,366.9l1.3,9.9c0,0,12.8,1.8,12.9,1.6s0-13.2,0-13.2L221.4,366.9z"/>
				<linearGradient id="SVGID_112_" gradientUnits="userSpaceOnUse" x1="238.8143" y1="391.697" x2="238.8143" y2="361.6458">
					<stop  offset="0" style="stop-color:#2B2583"/>
					<stop  offset="1" style="stop-color:#231868"/>
				</linearGradient>
				<path class="st137" d="M235.7,362.1c-17.8-2.8-24,9.1-24,9.1l2.3,10.2c21.2,13.1,51.9,10.1,51.9,10.1S253.5,364.8,235.7,362.1z
					 M215.1,379.4l-0.8-6.3c0,0,2-10.5,19.7-9c13.9,1.2,28.1,24.6,28.1,24.6C234.7,393.4,215.1,379.4,215.1,379.4z"/>
				<linearGradient id="SVGID_113_" gradientUnits="userSpaceOnUse" x1="209.3547" y1="390.6171" x2="209.3547" y2="378.4621">
					<stop  offset="1.598750e-002" style="stop-color:#FFC2A0"/>
					<stop  offset="1" style="stop-color:#FFA195"/>
				</linearGradient>
				<path class="st138" d="M215.9,378.5c0,0-11.1,5.1-13.3,7c0,0-0.6,2.3,0,3.8c0.6,1.6,4.9,1.6,7.4,0.7s6.3-7.9,6.3-7.9
					L215.9,378.5z"/>
				<linearGradient id="SVGID_114_" gradientUnits="userSpaceOnUse" x1="229.471" y1="391.7515" x2="229.471" y2="370.9012">
					<stop  offset="0" style="stop-color:#C50B79"/>
					<stop  offset="1" style="stop-color:#E51160"/>
				</linearGradient>
				<path class="st139" d="M209.7,391.5c0,0,3.3-15,14-19.7c10.7-4.7,24.9,9.2,25.5,19.9L209.7,391.5z"/>
				<path class="st45" d="M211.2,386.8h12.4c0,0,1.8-10.5,5.2-15.8C228.7,371.1,217.3,370.4,211.2,386.8z"/>
				<path class="st140" d="M216.3,377.7c0,0,5.2-2.1,12.3-0.4c7,1.7,17.2,12.1,18.1,12.5c0.9,0.4,2.4,0.7,2.4,0.7
					s-2.8-14.9-14.4-18.8C223.1,367.8,216.3,377.7,216.3,377.7z"/>
				<path class="st45" d="M226.9,386.8c0,0,0.8-10.7,2.9-15.1c0,0,6.3,0.9,9.5,3.3l-0.7,12L226.9,386.8z"/>
				<linearGradient id="SVGID_115_" gradientUnits="userSpaceOnUse" x1="233.2662" y1="388.4145" x2="233.2662" y2="361.5563">
					<stop  offset="1.598750e-002" style="stop-color:#FFC2A0"/>
					<stop  offset="1" style="stop-color:#FFA195"/>
				</linearGradient>
				<path class="st141" d="M251.1,380.4c0.1,2.6-1.4,6-2.1,7.3l0,0c-0.1,0.3-0.2,0.5-0.3,0.5l0,0c-3.9,0.6-4.6-2.2-4.6-2.2l0.9-2
					c0,0,0,0,0,0c-0.2,0.2-1.7,1-3.4,0c-1.9-1.1-3.4-4.5-3.4-4.5l0.7-2.7c-0.1,0.1-0.4,0.6-0.8,1c-0.3,0.3-0.5,0.5-0.8,0.6
					c-0.7,0.3-6.3-1.1-6.8-2.3c-0.2-0.5-0.2-1.9-0.2-3.5l0,0c0.1-2.2,0.4-4.5,0.4-4.5l-2.1-0.4c0,0-1.7,3.7-3.1,5.1l0,0
					c-0.1,0.1-0.2,0.2-0.3,0.3c-1.4,1-6.5,3.1-6.5,3.1c-3.2-1.1-3.4-3.4-3.2-4.9c0.1-0.8,0.4-1.4,0.4-1.4c2.5-3.5,2.7-8.6,6.8-8.5
					c4.1,0.1,5.7,2.5,5.7,2.5c1.3,0.5,2.4,0.4,2.4,0.4s3.1-0.9,6,0.1c2.9,1,4.6,4.7,4.6,4.7s4.6,2.5,5.4,3.7
					c0.8,1.2,0.6,4.7,0.6,4.7C249.3,378.1,251.1,380.4,251.1,380.4z"/>
				<path class="st45" d="M184.9,298.5l-10.1-6.2C174.9,292.4,180.3,294.2,184.9,298.5z"/>
				<path class="st45" d="M105.9,296.8c0,0,7.9-6.9,12.5-8C118.4,288.8,111.7,292.2,105.9,296.8z"/>
				<g>
					<linearGradient id="SVGID_116_" gradientUnits="userSpaceOnUse" x1="142.0237" y1="391.3887" x2="142.0237" y2="309.9854">
						<stop  offset="0" style="stop-color:#C9B6E9"/>
						<stop  offset="1" style="stop-color:#BBABD1"/>
					</linearGradient>
					<path class="st142" d="M90.2,391.4c0,0-10.1-42.8-13.1-75c0,0,74.3-10.6,129.8-4.6c0,0-2.4,42.7-8.6,79.6H90.2z"/>
					<path class="st63" d="M148.4,311.9l-58.2,79.5h47.3l52.5-79.5C190.1,311.9,165.4,310,148.4,311.9z"/>
					<linearGradient id="SVGID_117_" gradientUnits="userSpaceOnUse" x1="142.0237" y1="316.3988" x2="142.0237" y2="307.741">
						<stop  offset="0" style="stop-color:#D8CAEF"/>
						<stop  offset="1" style="stop-color:#EADEF4"/>
					</linearGradient>
					<path class="st143" d="M77.1,316.4l2.2-3.3c0,0,63-9.2,124-3.4l3.6,2.2C206.9,311.8,135,308.6,77.1,316.4z"/>
					<path class="st0" d="M128.8,357.6c0,0,8.3-14,22.2-15.6C150.9,342.1,149.6,351.3,128.8,357.6z"/>
					<path class="st0" d="M184.9,308.3v3l-21.7-0.2v-3.4C163.2,307.8,179.3,308,184.9,308.3z"/>
					<path class="st0" d="M86.1,312.2v3.1l15.9-1.5l0.7-3.3C102.8,310.4,90.5,311.6,86.1,312.2z"/>
					<path class="st144" d="M88.7,384.6c0,0,8.8,5.1,53.7,5.9s56.7-3.7,56.7-3.7l-0.7,4.6H90.2L88.7,384.6z"/>
				</g>
				<path class="st45" d="M225.6,372.9L225.6,372.9c-0.1,0.1-0.2,0.2-0.3,0.3c-1.4,1-6.5,3.1-6.5,3.1c-3.2-1.1-3.4-3.4-3.2-4.9
					c1.5,0.8,9.1-0.9,9.9-0.5C226.1,371.3,225.6,372.9,225.6,372.9z"/>
				<path class="st45" d="M239,375.5c0,0.7-0.4,1.7-0.8,2.5c-0.3,0.3-0.5,0.5-0.8,0.6c-0.7,0.3-6.3-1.1-6.8-2.3
					c-0.2-0.5-0.2-1.9-0.2-3.5l0,0c0,0,3-2,5.3-1C238,372.7,239,374.1,239,375.5z"/>
				<path class="st45" d="M246.1,381.6c0,0-0.1,1.6-1,2.5c0,0,0,0,0,0c-0.2,0.2-1.7,1-3.4,0c-1.9-1.1-3.4-4.5-3.4-4.5
					c0.3-1.3,2-1.9,4-1C244.3,379.6,246.1,381.6,246.1,381.6z"/>
				<path class="st45" d="M249,387.8L249,387.8c0,0.2-0.1,0.4-0.3,0.5l0,0c-3.9,0.6-4.6-2.2-4.6-2.2c0.5-1,2.6-1.1,3.7-0.4
					C248.7,386.3,249.1,387.1,249,387.8z"/>
				<path class="st45" d="M202.6,389.3c0,0,2.4,1.7,5.9,0.3c3.5-1.4,0.9-7.8,0.9-7.8l6.2-3.1c0,0-4.5,7-5.5,11.4
					C210,390,203.9,391.8,202.6,389.3z"/>
				<path class="st54" d="M216.4,370.3c0,0,3.3-1.4,7.2-0.7c0,0-1-2.9-3.6-2.7C217.4,367.2,216.4,370.3,216.4,370.3z"/>
				<path class="st54" d="M233.8,370.8c0,0,4.1-0.2,5.4,2c0,0-1.2-3.6-2.9-3.5C234.6,369.5,233.8,370.8,233.8,370.8z"/>
				<path class="st54" d="M242.2,377.5c0,0,3.1,0.9,3.9,2.9c0,0,0-3.8-1.4-4.1C243.2,376,242.2,377.5,242.2,377.5z"/>
				<path class="st54" d="M246.6,384.5c0,0,1.9,0.4,2.4,1.2c0,0,0.8-2.6-0.4-2.9C247.4,382.5,246.6,384.5,246.6,384.5z"/>
				<linearGradient id="SVGID_118_" gradientUnits="userSpaceOnUse" x1="240.5801" y1="376.9278" x2="240.5801" y2="369.3278">
					<stop  offset="1.598750e-002" style="stop-color:#FFFFFF"/>
					<stop  offset="0.9916" style="stop-color:#EA9DC8"/>
				</linearGradient>
				<path class="st145" d="M241.4,369.3c0,0-1,4.9-2.4,7.6c0,0,3-2.9,3.2-7.1L241.4,369.3z"/>
				<linearGradient id="SVGID_119_" gradientUnits="userSpaceOnUse" x1="247.1965" y1="383.1645" x2="247.1965" y2="377.7278">
					<stop  offset="1.598750e-002" style="stop-color:#FFFFFF"/>
					<stop  offset="0.9916" style="stop-color:#EA9DC8"/>
				</linearGradient>
				<path class="st146" d="M247.4,377.7l-1.6,5.4c0,0,3.5-1.6,2.9-4.9L247.4,377.7z"/>
				<path class="st45" d="M226.7,371.5l1.7-7.4l0.7,0.2l-0.4,3.6l2.1,0.4l-0.3,2.8C230.5,371.1,227.6,370.9,226.7,371.5z"/>
				<path class="st45" d="M184.9,298.5c0,0,10.3-3.2,14.7-8.6c0,0-1.9,9.3-13,10.5L184.9,298.5z"/>
				<path class="st45" d="M93.9,290.2c0,0-0.8,6.5,9.8,9l3.3-3.4C107,295.8,100.4,295,93.9,290.2z"/>
				<linearGradient id="SVGID_120_" gradientUnits="userSpaceOnUse" x1="184.2058" y1="286.6883" x2="184.2058" y2="262.7185">
					<stop  offset="1.598750e-002" style="stop-color:#FFFFFF"/>
					<stop  offset="0.9916" style="stop-color:#C2798B"/>
				</linearGradient>
				<path class="st147" d="M171.4,262.7c0,0,5.9,13.3,10,17.7c4.2,4.4,15.6,6.3,15.6,6.3L186.1,273
					C186.1,273,178.3,271.1,171.4,262.7z"/>
				<linearGradient id="SVGID_121_" gradientUnits="userSpaceOnUse" x1="111.6422" y1="289.4357" x2="111.6422" y2="258.4115">
					<stop  offset="1.598750e-002" style="stop-color:#FFFFFF"/>
					<stop  offset="0.9916" style="stop-color:#C2798B"/>
				</linearGradient>
				<path class="st148" d="M122.9,258.4c0,0-4.4,11.3-7.3,20.6c-2.8,9.3-15.1,10.4-15.1,10.4S113.7,268.2,122.9,258.4z"/>
				<polygon class="st20" points="35.4,273.9 44.1,278.8 41.6,279 35.9,275 				"/>
				<linearGradient id="SVGID_122_" gradientUnits="userSpaceOnUse" x1="46.7919" y1="265.2601" x2="46.7919" y2="243.5735">
					<stop  offset="1.598750e-002" style="stop-color:#FFFFFF"/>
					<stop  offset="0.9916" style="stop-color:#F29DC8"/>
				</linearGradient>
				<path class="st149" d="M37.4,253.3c1.9-4.8,14-10.6,16.7-9.6c2.8,1,1.9,7.2,1.9,7.2s-7.3,0.7-10,12.1c0,0-3.5,3.6-5.9,1.6
					C37.8,262.7,37.4,253.3,37.4,253.3z"/>
				<path class="st150" d="M218.7,293.8c0,0,3,14.3,10.7,33.4c7.7,19.1,27.1,35.7,27.1,35.7S234.6,317.3,218.7,293.8z"/>
				<path class="st150" d="M190.1,274.7c0,0,3.3,5.1,7.5,8.2c4.2,3.2,16.8,7,16.8,7l4.4-6.6c0,0-8.1-3.6-16.1-5.6
					C194.6,275.7,190.1,274.7,190.1,274.7z"/>
				<path class="st150" d="M82.6,286.7c0,0,2.8,4.7,4.5,8.5c0,0,5.6-5.5,9.2-9.1c3.5-3.7,5-7.1,5-7.1
					C95.5,281,85.8,283.9,82.6,286.7z"/>
				<linearGradient id="SVGID_123_" gradientUnits="userSpaceOnUse" x1="147.0211" y1="176.6001" x2="158.2743" y2="176.6001">
					<stop  offset="8.379890e-003" style="stop-color:#F29DC8"/>
					<stop  offset="0.984" style="stop-color:#FFFFFF"/>
				</linearGradient>
				<path class="st151" d="M147,178.2c0,0,4.5-4,11.3-3.1C158.3,175.1,153.5,175.4,147,178.2z"/>
				<linearGradient id="SVGID_124_" gradientUnits="userSpaceOnUse" x1="149.1078" y1="177.6233" x2="161.5894" y2="177.6233">
					<stop  offset="8.379890e-003" style="stop-color:#F29DC8"/>
					<stop  offset="0.984" style="stop-color:#FFFFFF"/>
				</linearGradient>
				<path class="st152" d="M149.1,178.2c0,0,7.8-2.5,12.5-0.3C161.6,177.9,155.8,176.3,149.1,178.2z"/>
				<linearGradient id="SVGID_125_" gradientUnits="userSpaceOnUse" x1="121.3649" y1="179.0381" x2="128.9296" y2="179.0381">
					<stop  offset="1.598750e-002" style="stop-color:#FFFFFF"/>
					<stop  offset="0.9916" style="stop-color:#F29DC8"/>
				</linearGradient>
				<path class="st153" d="M128.9,180.9c0,0-3.9-4.2-7.6-3.8L128.9,180.9z"/>
				<linearGradient id="SVGID_126_" gradientUnits="userSpaceOnUse" x1="117.1461" y1="180.0153" x2="127.7374" y2="180.0153">
					<stop  offset="1.598750e-002" style="stop-color:#FFFFFF"/>
					<stop  offset="0.9916" style="stop-color:#F29DC8"/>
				</linearGradient>
				<path class="st154" d="M127.7,181.2c0,0-5.8-4.3-10.6-1.1C117.1,180,121.4,178,127.7,181.2z"/>
				<linearGradient id="SVGID_127_" gradientUnits="userSpaceOnUse" x1="50.2026" y1="222.6239" x2="50.2026" y2="218.5679">
					<stop  offset="8.379890e-003" style="stop-color:#EA9DC8"/>
					<stop  offset="0.984" style="stop-color:#FFDBD6"/>
				</linearGradient>
				<path class="st155" d="M50.4,222.6c0,0,0.1-2.2-1.4-4.1c0,0,1.8,0.9,2.3,3.9L50.4,222.6z"/>
				<linearGradient id="SVGID_128_" gradientUnits="userSpaceOnUse" x1="38.884" y1="231.3761" x2="38.884" y2="230.5155">
					<stop  offset="8.379890e-003" style="stop-color:#EA9DC8"/>
					<stop  offset="0.984" style="stop-color:#FFDBD6"/>
				</linearGradient>
				<path class="st156" d="M43.1,230.6l-8.5,0.8C34.7,231.4,37.4,230.2,43.1,230.6z"/>
			</g>
			<linearGradient id="SVGID_129_" gradientUnits="userSpaceOnUse" x1="200" y1="400" x2="200" y2="391.3887">
				<stop  offset="0" style="stop-color:#FF6686"/>
				<stop  offset="1" style="stop-color:#FF7C89"/>
			</linearGradient>
			<rect y="391.4" class="st157" width="400" height="8.6"/>
		</g>
	</g>
</g>
</svg>
