<?xml version="1.0" encoding="utf-8"?>
<!-- Generator: Adobe Illustrator 19.0.0, SVG Export Plug-In . SVG Version: 6.00 Build 0)  -->
<svg version="1.1" xmlns="http://www.w3.org/2000/svg" xmlns:xlink="http://www.w3.org/1999/xlink" x="0px" y="0px"
	 viewBox="0 0 2520 2520" style="enable-background:new 0 0 2520 2520;" xml:space="preserve">
<style type="text/css">
	.st0{fill:#FFFFFF;}
	.st1{fill:#E7ECFF;}
	.st2{clip-path:url(#SVGID_2_);}
	.st3{fill:url(#SVGID_3_);}
	.st4{fill:url(#SVGID_4_);}
	.st5{fill:url(#SVGID_5_);}
	.st6{opacity:0.2;fill:#A492F9;}
	.st7{fill:#C5ABE3;}
	.st8{opacity:0.5;fill:#C5ABE3;}
	.st9{fill:#4F63F9;}
	.st10{fill:#93C2FF;}
	.st11{fill:#4B81EE;}
	.st12{fill:url(#SVGID_6_);}
	.st13{opacity:0.5;fill:#E392AD;}
	.st14{opacity:0.5;fill:#FFBB9A;}
	.st15{fill:url(#SVGID_7_);}
	.st16{fill:url(#SVGID_8_);}
	.st17{fill:url(#SVGID_9_);}
	.st18{fill:#E392AD;}
	.st19{fill:url(#SVGID_10_);}
	.st20{fill:url(#SVGID_11_);}
	.st21{fill:url(#SVGID_12_);}
	.st22{fill:#D07CAD;}
	.st23{fill:#B588AD;}
	.st24{fill:url(#SVGID_13_);}
	.st25{fill:url(#SVGID_14_);}
	.st26{opacity:0.5;fill:url(#SVGID_15_);}
	.st27{fill:#FFC4B1;}
	.st28{fill:#FFE4DB;}
	.st29{opacity:0.3;fill:#FFFFFF;}
	.st30{opacity:0.5;fill:url(#SVGID_16_);}
	.st31{opacity:0.5;fill:url(#SVGID_17_);}
	.st32{opacity:0.5;fill:url(#SVGID_18_);}
	.st33{fill:url(#SVGID_19_);}
	.st34{fill:url(#SVGID_20_);}
	.st35{fill:url(#SVGID_21_);}
	.st36{fill:url(#SVGID_22_);}
	.st37{fill:url(#SVGID_23_);}
	.st38{fill:url(#SVGID_24_);}
	.st39{opacity:0.3;fill:#E392AD;}
	.st40{fill:#C2096F;}
	.st41{fill:url(#SVGID_25_);}
	.st42{fill:#A4A6FF;}
	.st43{fill:url(#SVGID_26_);}
	.st44{fill:#E33D6F;}
	.st45{fill:url(#SVGID_27_);}
	.st46{opacity:0.8;fill:url(#SVGID_28_);}
	.st47{opacity:0.8;fill:url(#SVGID_29_);}
	.st48{opacity:0.8;fill:url(#SVGID_30_);}
	.st49{opacity:0.8;fill:url(#SVGID_31_);}
	.st50{opacity:0.8;fill:url(#SVGID_32_);}
	.st51{opacity:0.8;fill:url(#SVGID_33_);}
	.st52{opacity:0.5;fill:url(#SVGID_34_);}
	.st53{opacity:0.8;fill:url(#SVGID_35_);}
	.st54{opacity:0.8;fill:url(#SVGID_36_);}
	.st55{opacity:0.8;fill:url(#SVGID_37_);}
	.st56{opacity:0.8;fill:#E392AD;}
	.st57{fill:#391861;}
	.st58{fill:#FEB1C8;}
	.st59{opacity:0.8;fill:url(#SVGID_38_);}
	.st60{opacity:0.2;fill:#FFFFFF;}
	.st61{fill:url(#SVGID_39_);}
	.st62{fill:url(#SVGID_40_);}
	.st63{fill:url(#SVGID_41_);}
	.st64{fill:url(#SVGID_42_);}
	.st65{fill:url(#SVGID_43_);}
	.st66{fill:url(#SVGID_44_);}
	.st67{fill:url(#SVGID_45_);}
	.st68{opacity:0.6;fill:#BF7988;}
	.st69{fill:url(#SVGID_46_);}
	.st70{fill:#FFE4EC;}
	.st71{fill:#7F6186;}
	.st72{fill:url(#SVGID_47_);}
	.st73{fill:#6C2A51;}
	.st74{fill:url(#SVGID_48_);}
	.st75{fill:url(#SVGID_49_);}
	.st76{fill:url(#SVGID_50_);}
	.st77{fill:#CE7988;}
	.st78{fill:url(#SVGID_51_);}
	.st79{fill:url(#SVGID_52_);}
	.st80{fill:url(#SVGID_53_);}
	.st81{opacity:0.4;fill:url(#SVGID_54_);}
	.st82{fill:#8075BA;}
	.st83{opacity:0.5;fill:#E15153;}
	.st84{fill:url(#SVGID_55_);}
	.st85{fill:#CFC7B8;}
	.st86{fill:url(#SVGID_56_);}
	.st87{fill:#382A8D;}
	.st88{fill:url(#SVGID_57_);}
	.st89{fill:#5CF1FF;}
	.st90{fill:#FAFBF9;}
	.st91{fill:url(#SVGID_58_);}
	.st92{opacity:0.3;fill:url(#SVGID_59_);}
	.st93{fill:url(#SVGID_60_);}
	.st94{opacity:0.5;fill:#E7ECFF;}
	.st95{fill:#D1A1C8;}
	.st96{fill:url(#SVGID_61_);}
	.st97{opacity:0.5;fill:#FEB1C8;}
	.st98{fill:url(#SVGID_62_);}
	.st99{fill:url(#SVGID_63_);}
	.st100{fill:url(#SVGID_64_);}
	.st101{fill:url(#SVGID_65_);}
	.st102{fill:url(#SVGID_66_);}
	.st103{fill:url(#SVGID_67_);}
	.st104{fill:url(#SVGID_68_);}
	.st105{fill:url(#SVGID_69_);}
	.st106{opacity:0.5;fill:#FFFFFF;}
	.st107{opacity:0.2;fill:#E392AD;}
	.st108{fill:#A46BAD;}
	.st109{fill:#5E4FB8;}
	.st110{fill:#6A5CD4;}
	.st111{fill:#4BFFFF;}
	.st112{opacity:0.8;fill:#B892AD;}
</style>
<g id="background">
	<rect y="0" class="st0" width="2520" height="2520"/>
	<g>
		<path class="st1" d="M1340.7,398.9c-449.8-85.5-903,595.9-1036.3,1230.9s943.8,714.2,1428.8,639.8
			c273.8-42,291.4-608.7,221.2-1039.3c-54.1-332.3-170.1-531-201.7-671.7C1680.4,235.5,1517.3,432.4,1340.7,398.9z"/>
		<path class="st1" d="M1820,514c-51.5,43.1,208.1,634.6,183.8,1053.7c-24.4,419.2,364.6,302.8,335.9-302.3S1924,384.5,1820,514
			C1716,643.5,1871.5,470.9,1820,514z"/>
		<path class="st1" d="M447.2,996.6c-159.6-5.5-111.1-509.8,0-671c111.1-161.2,452-5.6,495.5,52.7
			c43.5,58.3-287.7,355.6-367.2,485.1C495.9,992.8,488.8,998.1,447.2,996.6z"/>
	</g>
</g>
<g id="illustration">
	<g>
		<defs>
			<rect id="SVGID_1_" y="0" width="2520" height="2520"/>
		</defs>
		<clipPath id="SVGID_2_">
			<use xlink:href="#SVGID_1_"  style="overflow:visible;"/>
		</clipPath>
		<g class="st2">
			<linearGradient id="SVGID_3_" gradientUnits="userSpaceOnUse" x1="1239.604" y1="2520.0315" x2="1239.604" y2="2126.8479">
				<stop  offset="0" style="stop-color:#C50B79"/>
				<stop  offset="1" style="stop-color:#C01160"/>
			</linearGradient>
			<path class="st3" d="M899.6,2411.7V2520h661.7c0,0,0.9-221.1,18-360.7C1596.3,2019.7,941.4,2373.3,899.6,2411.7z"/>
			<g>
				<linearGradient id="SVGID_4_" gradientUnits="userSpaceOnUse" x1="1816.99" y1="991.4995" x2="1816.99" y2="290.2431">
					<stop  offset="0" style="stop-color:#7E8EFF"/>
					<stop  offset="1" style="stop-color:#7096FF"/>
				</linearGradient>
				<path class="st4" d="M1493.3,950.7l575.7,40.8c0,0,21.5-441.6,71.6-683.6c0,0-360.5-39.8-613.6,0
					C1527.1,307.9,1495.4,603.5,1493.3,950.7z"/>
				<linearGradient id="SVGID_5_" gradientUnits="userSpaceOnUse" x1="2111.7979" y1="991.4995" x2="2111.7979" y2="307.9214">
					<stop  offset="0" style="stop-color:#26258A"/>
					<stop  offset="1" style="stop-color:#3C2C95"/>
				</linearGradient>
				<path class="st5" d="M2154.6,326.1l-13.9-18.2c0,0-66.8,348.5-71.6,683.6h14.3C2083.3,991.5,2083,686.6,2154.6,326.1z"/>
				<path class="st6" d="M1557.3,715.1c-48.2,23.6-34.3-363.4,0-396.9s530.9-9.5,546,4c15.1,13.5-8,167.1-23.9,174.3
					c-15.9,7.2-71.6,24.5-151.2,120.9c-79.6,96.4-174.3,13.4-224.4,5.1C1653.6,614.3,1570.7,708.5,1557.3,715.1z"/>
				<path class="st0" d="M1956,453.5c-54.1-26.9-127.8,71-83.8,150.1c44,79.1,118-29.9,124.4-70.1
					C2003,493.3,1976.7,463.8,1956,453.5z"/>
				<path class="st7" d="M2040.4,950.7c-12.7,35.6-357.3-43.5-478.7-22.8c-121.4,20.7-0.5-165,48.9-226.5
					c49.4-61.5,117.8,82.3,178.3,114.6c60.5,32.3,196.5-263.9,261-305.9C2114.5,468,2052.3,917.2,2040.4,950.7z"/>
				<path class="st8" d="M1821.1,933.7c-52.5-35,122.1-306.3,185.2-337.2c63.1-30.9,35.6,220.6,8.2,294.8
					C1987,965.5,1821.1,933.7,1821.1,933.7z"/>
				<path class="st9" d="M1570.7,557.8c-30.2,4.8,32.7-19.7,135.7-65.2c103-45.5,116.6,3.9,169.1,21.4c52.5,17.5,97.1-9,130.5-8.1
					c33.4,0.9-45.4,20-184.6,18.4C1682.1,522.8,1570.7,557.8,1570.7,557.8z"/>
				<path class="st9" d="M1688.7,584.3c-27.9-10.3,116.7-28.1,194.8-46.6c78.1-18.5,88.7,14.9,96.9,16.4
					c8.2,1.5-106.6-2.6-179.6,4.4C1727.9,565.6,1695.9,587,1688.7,584.3z"/>
				<path class="st10" d="M1522.9,371.7c12.4,30.6,14.9-60.4,130.6-71.2c115.7-10.9,427.6,20.7,453,28.4
					c25.3,7.7,30.1-17.8,30.1-17.8s-303.6-22.7-432.1-17.9c-128.5,4.8-171,12.3-174.7,17.5S1522.9,371.7,1522.9,371.7z"/>
			</g>
			<path class="st11" d="M1777.7,1238.6c-18.2,6.7-27.7,89.5-6.7,141.2c21.1,51.7,77.9,100.9,115.8,118.6
				c37.8,17.7-0.8-168.7-38.2-213.3C1811.2,1240.6,1777.7,1238.6,1777.7,1238.6z"/>
			<linearGradient id="SVGID_6_" gradientUnits="userSpaceOnUse" x1="1220.5593" y1="2471.3135" x2="1220.5593" y2="1020.3929">
				<stop  offset="0" style="stop-color:#FF6686"/>
				<stop  offset="1" style="stop-color:#FF7C89"/>
			</linearGradient>
			<path class="st12" d="M1083.7,1079c-19,14.4-54.4,85.2-110.5,103.1c-56.1,17.9-96.8-11.7-121.2,27
				c-24.4,38.7,128.4,316.8,151,612.8c22.7,296-108.6,626.7-108.6,626.7s177.4,15.8,250.7,21.5c163.1,12.7,355.7-77.6,446.4-119.4
				c4.4-52.7-57.3-892.9-79.6-1080.7c-22.3-187.8-19.1-192.6-108.2-210.1c-89.1-17.5-150.2-39.5-150.2-39.5L1083.7,1079z"/>
			<path class="st13" d="M1082,2437.2c-13.3-5.3,98-125.8,154.6-236.9c56.5-111,93.5-238.7,105.5-244.7
				c11.9-6,88.4,242.3,101.5,352.1C1456.6,2417.6,1254.1,2486.6,1082,2437.2z"/>
			<path class="st14" d="M1085.2,1230.2c-4,7.8,27.1,208.4,38.6,222.1c11.5,13.6,97.5-12.3,165.7-76c68.2-63.8,35-167.3,21.9-171.4
				c-13.1-4.1-32.5,72.1-80.4,82.5C1151.9,1304.4,1092.4,1216.3,1085.2,1230.2z"/>
			<linearGradient id="SVGID_7_" gradientUnits="userSpaceOnUse" x1="1173.6309" y1="2279.4971" x2="1173.6309" y2="1166.6934">
				<stop  offset="1.598750e-002" style="stop-color:#FFFFFF"/>
				<stop  offset="0.9916" style="stop-color:#EA8CC1"/>
			</linearGradient>
			<path class="st15" d="M1069.3,1166.7c0,0,75.1,694.6,139.9,861.7c64.8,167.1,78,224.4,64.2,248.3
				c-13.8,23.9-148.2-102-178.9-530.9C1063.9,1317,1069.3,1166.7,1069.3,1166.7z"/>
			<linearGradient id="SVGID_8_" gradientUnits="userSpaceOnUse" x1="1266.0591" y1="2450.1853" x2="1266.0591" y2="1252.5219">
				<stop  offset="1.598750e-002" style="stop-color:#FFFFFF"/>
				<stop  offset="0.9916" style="stop-color:#EA8CC1"/>
			</linearGradient>
			<path class="st16" d="M1151.9,2450.2c-72.5,3.6,135.5-273.7,204-584.1c68.5-310.4-12.1-613.6-12.1-613.6s87.3,312.1,34.6,686.1
				C1325.7,2312.5,1200.9,2447.7,1151.9,2450.2z"/>
			<linearGradient id="SVGID_9_" gradientUnits="userSpaceOnUse" x1="1493.3237" y1="2399.5906" x2="1493.3237" y2="1017.9586">
				<stop  offset="0" style="stop-color:#2B2583"/>
				<stop  offset="1" style="stop-color:#482C97"/>
			</linearGradient>
			<path class="st17" d="M1706.1,1720.4c-21.5,3.6-106.2-87.1-144.5-185c0,0,8.8,77.6,24.7,186c0,0.1,0.1,0.2,0,0.3
				c0.1,0.1,0.1,0.2,0.1,0.2c3.8,26.5,8.2,55,12.9,84.5c0,0,0,0.1,0,0.2c8.5,53.2,18.3,110.2,29.2,166.9
				c41.8,217.3-5.9,290.1-23.8,304.4c-18,14.3-99.1,27.5-201.8,95.5c-38.6,25.6-61.9,30.7-75.3,22.6c-0.9-0.6-1.8-1.2-2.7-2
				c-4.2-3.5-7.2-8.4-9.2-14.7c-0.1-0.3-0.1-0.5-0.2-0.8c-7-22.5-2.1-60.4,5-100.7c15.5-87.1,80-339,72.8-631.5
				c-7.2-292.4-87.8-544.3-99.7-570c-12-25.6-33.7-32.6-33.7-32.6l-6.6-23.4c16.6-5,125.6,34.5,137.5,32.6
				c11.9-1.9,136.1-44.8,225.2-33.1c0,0,35,20,37.4,175.3c0,0,40.6,85.9,66.8,142C1746.7,1393.4,1727.6,1716.9,1706.1,1720.4z"/>
			<path class="st18" d="M1260,1043.8c0,0,31.5,48,57.8,144.7c26.3,96.7,44.8,868.7,44.8,868.7s53-292.7,34.7-537.2
				c-18.2-244.5-78.8-445.3-96.3-476.1c-17.5-30.8-47.6-23.4-47.6-23.4L1260,1043.8z"/>
			<linearGradient id="SVGID_10_" gradientUnits="userSpaceOnUse" x1="899.6028" y1="2450.1504" x2="899.6028" y2="1053.0315">
				<stop  offset="0" style="stop-color:#2B2583"/>
				<stop  offset="1" style="stop-color:#482C97"/>
			</linearGradient>
			<path class="st19" d="M1061,2335.9c-5.9,17.8-12.5,31.9-20.2,41.8c-57.3,74.5-163.4,75-209.7,71.1c-0.4,0-0.7,0-0.9-0.1h-0.1
				c-13.5-1.1-21.6-2.6-21.6-2.6c8.6-12.7,16.6-27,24.4-42.5c0.1-0.1,0.1-0.3,0.2-0.4c5.7-11.4,11.2-23.5,16.3-36.2
				c43.7-106,73-254.4,92.5-393.3c0.1-0.4,0.1-0.9,0.2-1.3c2.8-19.7,5.4-39.2,7.7-58.3c21.3-171.4,27.7-315.5,28.2-326.7
				c-1.8,14.7-30.6,250.9-56,277.5c-26.3,27.5-174.3,82.3-186.2,69.2c-12-13.1-57.3-131.3-23.9-282.9
				c33.4-151.6,124.1-298.4,124.1-298.4c-25-91.9-19.5-143.7-19.5-143.7c85.2-56.2,175.1-45.7,194.2-57.6
				c19.1-12,59.7-103.4,68.4-98.2l4.7,25.7c0,0-10.2,23.2-12.6,43.5c-2.4,20.3-4.8,211.2,14.3,427.7
				C1102.6,1744.6,1113.3,2179.2,1061,2335.9z"/>
			<path class="st18" d="M1079,1053.3c0,0-29.3,92.9-27.3,211.3c2,118.4,20.3,742.3,22.3,904.7c1.9,162.3-53.4,230.3-53.4,230.3
				s77.3-29.7,95.8-286c18.5-256.2-43.5-842.4-46.8-925.1c-3.3-82.7,21.2-103.3,21.2-103.3L1079,1053.3z"/>
			<linearGradient id="SVGID_11_" gradientUnits="userSpaceOnUse" x1="1001.5056" y1="2237.3323" x2="1001.5056" y2="1053.2767">
				<stop  offset="0" style="stop-color:#38328A"/>
				<stop  offset="1" style="stop-color:#5C43A2"/>
			</linearGradient>
			<path class="st20" d="M1079,1053.3c0,0-20.7,26.9-58.5,88s-96.4,140.5-96.4,150.1c0,21.4,37.1,21.4,51.7,28
				c14.5,6.6-24.2,64.9-27.2,105.4c-3,40.6,61.7,421,83.2,552.3c21.5,131.3,35.2,258,37.2,260.2c2,2.2,14.5-436.9,1.2-674.4
				c-13.3-237.5-29.1-384.4-16.5-444.1C1066.3,1059.1,1079,1053.3,1079,1053.3z"/>
			<linearGradient id="SVGID_12_" gradientUnits="userSpaceOnUse" x1="1393.6052" y1="2201.853" x2="1393.6052" y2="1022.3724">
				<stop  offset="0" style="stop-color:#38328A"/>
				<stop  offset="1" style="stop-color:#5C43A2"/>
			</linearGradient>
			<path class="st21" d="M1277,1022.4c0,0,92.5,34.4,168.1,94.9s62.9,82.6,63.7,91.9c0.8,9.2-53.3,40.3-57.3,43.4
				c-4,3.2,42.9,67.6,57.7,152c14.8,84.4-124.5,649.4-139.6,692.3c-15.1,43-33.7,105-33.7,105s74.3-314.2,75.9-613.5
				C1413.3,1289.1,1295.1,1072.3,1277,1022.4z"/>
			<path class="st22" d="M943.8,1962.4c-5.2,40.8,138.2,4.4,257.8-317.1c42.5-114.3,137.7-52.2,184.6-73.7
				c47-21.5,57.3-140.9,57.3-140.9s-157.7-6.8-228.5,33.4c-70.7,40.2-267.3,251.5-267.3,251.5l-0.1,199.2L943.8,1962.4z"/>
			<path class="st11" d="M935,1870.9c1.1,78.5,114.6-13.1,128.3-140.9c9.3-86.9,4.2-131.3,4.2-131.3s-17.3-45.4-60.3-26.3
				C964.2,1591.5,934.4,1828.5,935,1870.9z"/>
			<path class="st23" d="M1508.7,1194.5c0.9,19.4-36.5,36.5-62,35.7c-25.5-0.8-93.7-10.5-93.7-10.5s1.4,6.4,1.4,6.2
				c-0.1-0.2,39.4-1.4,60.9,6c21.5,7.4,36.2,20.6,36.2,20.6s45-13.5,62.1-27.1C1530.7,1211.9,1508.7,1194.5,1508.7,1194.5z"/>
			<g>
				<linearGradient id="SVGID_13_" gradientUnits="userSpaceOnUse" x1="1215.042" y1="1760.1791" x2="1215.042" y2="1156.0964">
					<stop  offset="0" style="stop-color:#FFB595"/>
					<stop  offset="0.984" style="stop-color:#FFAEA9"/>
				</linearGradient>
				<path class="st24" d="M1337.1,1315.8c-0.2,0.2-0.3,0.4-0.4,0.6l0.2-0.1l0.5-0.1c7.2-1.3,68.5-12.9,78.1-11.8
					c10.1,1.2,17.3,30.4,17.7,34c0.4,3.6-6.7,6.4-6.7,6.4s6.7-0.8,12.3,0.4c5.5,1.2,10.3,33,10,38.6c-0.4,5.6-5.2,7.6-5.2,7.6
					s7.6,17.5,7.6,33.5c0,15.9-36.9,40.2-50,68.2c0,0-30.4,6.6-35.2-14.3c0,0-53.7,49.5-73.4,58.5c-5.9,2.7-14,3.1-22.9,2.5
					c-20.9-1.4-46.9-8.3-63.6-4.9c-23.9,4.8-186.2,171.2-247.5,225.4c0,0-13.1-110.6,57.7-192.7c0,0,68-59.5,129-109.6
					c60.9-50.1,118.8-146.2,122.9-151c4.2-4.8,47.2-23.9,71.6-69.8c0.1,0,0.1,0,0.1-0.1c2.3-1.2,39.9-20.3,59.6-42.3
					c20.3-22.7,30.4-35.8,43.5-38.2c13.2-2.4,25.1,7.7,29.2,26.8c2.1,9.5-2.6,26.4-16.1,43.2c-13.4,16.8-35.5,33.5-68,42.7
					C1388,1269.2,1355.7,1289.8,1337.1,1315.8z"/>
				<linearGradient id="SVGID_14_" gradientUnits="userSpaceOnUse" x1="1268.0168" y1="1274.9677" x2="1456.0114" y2="1274.9677">
					<stop  offset="1.598750e-002" style="stop-color:#FFFFFF"/>
					<stop  offset="0.9916" style="stop-color:#EA9DC8"/>
				</linearGradient>
				<path class="st25" d="M1456,1226.5c-13.4,16.8-35.5,33.5-68,42.7c0,0-32.3,20.6-50.9,46.6l3.3-0.6l-3.1,1l-0.5,0.1l-0.2,0.1
					c0,0-36,5.7-39.6,6.9c-0.4,0.1-1.1,0.1-2,0.1h-0.1c-6.6-0.9-23.4-8-26.9-16.6c4.2-4.8,47.2-23.9,71.6-69.8c0.1,0,0.1,0,0.1-0.1
					c25.8-7.4,29.1,17.5,36.5,26.3C1383.7,1272.2,1456,1226.5,1456,1226.5z"/>
				<linearGradient id="SVGID_15_" gradientUnits="userSpaceOnUse" x1="1269.5919" y1="1422.1635" x2="1451.0972" y2="1422.1635">
					<stop  offset="8.379890e-003" style="stop-color:#EA9DC8"/>
					<stop  offset="0.984" style="stop-color:#FFDBD6"/>
				</linearGradient>
				<path class="st26" d="M1451.1,1424.8c0,15.9-36.9,40.2-50,68.2c0,0-30.4,6.6-35.2-14.3c0,0-53.7,49.5-73.4,58.5
					c-5.9,2.7-14,3.1-22.9,2.5c28.3,1.3,87.9-72.3,95.5-97.8c7.6-25.5-9.6-35.8-15.5-40.2c-6-4.3-11.1-37-22.2-41.8
					c-11.2-4.7-14.7-26.3-20.3-29.8c-5.5-3.6-12.3-6.7-12.3-6.7l0.2-0.1h0.1l42.1-7.6l3.3-0.6l-3.1,1c7.2-1.3,68.5-12.9,78.1-11.8
					c10.1,1.2,17.3,30.4,17.7,34c0.4,3.6-6.7,6.4-6.7,6.4s6.7-0.8,12.3,0.4c5.5,1.2,10.3,33,10,38.6c-0.4,5.6-5.2,7.6-5.2,7.6
					S1451.1,1408.9,1451.1,1424.8z"/>
				<path class="st18" d="M1405.3,1188c0,0-8.5,9.6-6.5,19.4c2,9.7,40.7,3.2,57.3-8.4c16.6-11.5,13.9-25.9,3.9-31.5
					C1449.9,1161.8,1405.3,1188,1405.3,1188z"/>
				<path class="st27" d="M1442,1158.2c-9.8-1.5-46.6,32.1-42.1,46.6c4.5,14.5,59.7-3.1,65.7-20.4
					C1471.6,1167.2,1442,1158.2,1442,1158.2z"/>
				<path class="st28" d="M1433,1161.4c0,0,16.3,4.2,24.3,12.2c8,8,6.2,12.4,7.8,12.3c1.6,0,6.9-11.8-9-21
					C1440.1,1155.6,1433,1161.4,1433,1161.4z"/>
				<path class="st28" d="M1400.5,1197.3c0,0,6.8-6.5,12-2.8c5.2,3.7,3.2,15.6,3.2,15.6S1395.2,1212.3,1400.5,1197.3z"/>
				<path class="st13" d="M1367.9,1260c5.7,16.1-31.5-20.8-23.5-24.1C1352.4,1232.6,1363.5,1247.6,1367.9,1260z"/>
				<path class="st18" d="M1433.1,1338.5c0,0-61.3-2.4-109.4,15.5l102.7-9.2C1426.4,1344.8,1431.5,1341.2,1433.1,1338.5z"/>
				<path class="st18" d="M1443.5,1391.4c0,0-33-5.6-96,7.7L1443.5,1391.4z"/>
				<path class="st18" d="M1365.9,1478.8c0,0,31-26.6,39.1-30.8c8.1-4.2,26.9-6,26.9-6s-24.2,5.7-26,7.5c-1.8,1.8,22.1,1.8,22.1,1.8
					s-19,4-26.8,5.6c-7.8,1.6-14.4,6.4-15.8,9.7c-1.4,3.4,0.1,17-7,19.3C1371.4,1488.2,1365.9,1478.8,1365.9,1478.8z"/>
				<path class="st29" d="M1139.1,1484.1c-5.3,44.6,72.3,38.3,120.9,28.1c48.6-10.2,85.4-75.8,87.5-93.2
					c2.1-17.3-9.9-40.6-23.8-55.5c-13.9-14.9-24-26.4-39-40.1c-15-13.7-41.5,28.4-69.7,66.8
					C1186.9,1428.6,1141.5,1463.9,1139.1,1484.1z"/>
				<linearGradient id="SVGID_16_" gradientUnits="userSpaceOnUse" x1="1271.9001" y1="1343.3198" x2="1288.3787" y2="1343.3198">
					<stop  offset="1.598750e-002" style="stop-color:#FFFFFF"/>
					<stop  offset="0.9916" style="stop-color:#EA9DC8"/>
				</linearGradient>
				<path class="st30" d="M1288.3,1330.3c-11.6,2-16.4,26.1-16.4,26.1S1289.6,1344.6,1288.3,1330.3z"/>
				<linearGradient id="SVGID_17_" gradientUnits="userSpaceOnUse" x1="1294.8751" y1="1370.976" x2="1319.6674" y2="1370.976">
					<stop  offset="1.598750e-002" style="stop-color:#FFFFFF"/>
					<stop  offset="0.9916" style="stop-color:#EA9DC8"/>
				</linearGradient>
				<path class="st31" d="M1319.7,1356.4c0,0-23.9,5.7-24.8,24.5C1294,1399.6,1319.7,1356.4,1319.7,1356.4z"/>
				<linearGradient id="SVGID_18_" gradientUnits="userSpaceOnUse" x1="1314.0522" y1="1408.8744" x2="1337.2749" y2="1408.8744">
					<stop  offset="1.598750e-002" style="stop-color:#FFFFFF"/>
					<stop  offset="0.9916" style="stop-color:#EA9DC8"/>
				</linearGradient>
				<path class="st32" d="M1337.3,1397.6c0,0-16.9,10.2-23.2,22.6C1329.1,1418.8,1337.3,1397.6,1337.3,1397.6z"/>
			</g>
			<g>
				<linearGradient id="SVGID_19_" gradientUnits="userSpaceOnUse" x1="1161.4031" y1="1209.0887" x2="1161.4031" y2="931.0187">
					<stop  offset="1.598750e-002" style="stop-color:#FFA67F"/>
					<stop  offset="1" style="stop-color:#FF8B7C"/>
				</linearGradient>
				<path class="st33" d="M1046.4,931c0,0,34.1,91.1,46.7,217.7c0,0,50.4,65.7,117.2,60.1c66.8-5.6,66.1-103.5,66.1-103.5
					s-27.6-107.8-45.2-157.4L1046.4,931z"/>
				<path class="st18" d="M1067,1000.2c0,0,60.5,43.4,123.8,69.8c63.3,26.5,56.4-71.3,56.4-71.3l-16.1-50.8c0,0-92.5,9.4-184.8-16.9
					L1067,1000.2z"/>
				<linearGradient id="SVGID_20_" gradientUnits="userSpaceOnUse" x1="1123.8228" y1="1144.1704" x2="1123.8228" y2="935.4023">
					<stop  offset="1.598750e-002" style="stop-color:#FFFFFF"/>
					<stop  offset="0.9916" style="stop-color:#F29DC8"/>
				</linearGradient>
				<path class="st34" d="M1059.2,935.7c-30.8-7.5,56.2,135.7,106.7,186.7s24.7,4.5,0-55.1s-52-121.6-64.2-123.9
					C1089.6,941,1059.2,935.7,1059.2,935.7z"/>
			</g>
			<linearGradient id="SVGID_21_" gradientUnits="userSpaceOnUse" x1="894.3682" y1="1938.983" x2="894.3682" y2="1557.4038">
				<stop  offset="0" style="stop-color:#38328A"/>
				<stop  offset="1" style="stop-color:#4F349B"/>
			</linearGradient>
			<path class="st35" d="M1076,1649c-4.1,165-72.6,246.5-72.6,246.5c-15.1,7-32.8,13.1-51.8,18.3c-86.6,23.8-199.1,29.5-210.8,22.2
				c-14.3-8.9-34.2-70.7-26.3-165.4s64.9-202.9,101.5-207.3c36.6-4.4,69.2,41,90.7,39c21.5-2,87.5-42.6,91.9-44.2
				c0.2-0.1,0.4-0.1,0.6-0.2c4.7-1.3,14.5,0.2,14.5,0.2l2.3,9.3c-44.5,59.5-90.7,312.2-39.8,311.3c50.9-0.8,84.5-215.1,84.5-215.1
				L1076,1649z"/>
			<g>
				<linearGradient id="SVGID_22_" gradientUnits="userSpaceOnUse" x1="1797.7905" y1="1550.1312" x2="1797.7905" y2="893.0294">
					<stop  offset="0" style="stop-color:#FFB595"/>
					<stop  offset="0.984" style="stop-color:#FFAEA9"/>
				</linearGradient>
				<path class="st36" d="M1942,982.5c0,0-25,106.9-35.3,124.4c-10.3,17.5-21.3,23.7-32.4,49.2c-11.2,25.6-10.6,247.6-45.6,355.9
					c-35,108.2-154.2-48.1-154.2-48.1s104.8-165.1,121.8-311.9c0.8-6.3,1.3-12.6,1.7-18.8c0,0-74.8-22.7-82.2-47.9
					c-0.1-0.2-0.1-0.3-0.1-0.4c0-0.1,0-0.1-0.1-0.1c-2.5-9.7-4.5-21.6-6.9-34.5c0,0,0-0.1-0.1-0.1c-3.8-21-8.3-44.4-16.2-64.1
					c-0.8-1.9-1.6-3.8-2.4-5.7c-13.4-30-36.6-60.2-36.6-69.9c0-10.3,27.8-29.4,59.7-6.4c21.7,15.8,24.1,33.7,24.8,48.1
					c0.3,6.7,0.2,12.6,1.4,17.2c1.8,6.5,5.9,10.1,9.8,12c4.8,2.3,9.3,2.3,9.3,2.3l-0.8-13.5L1942,982.5z"/>
				<linearGradient id="SVGID_23_" gradientUnits="userSpaceOnUse" x1="1849.9167" y1="1055.9867" x2="1849.9167" y2="970.0131">
					<stop  offset="1.598750e-002" style="stop-color:#FFDBD6"/>
					<stop  offset="0.9916" style="stop-color:#EA9DC8"/>
				</linearGradient>
				<path class="st37" d="M1758.7,983.5c0,0,36.5,9.4,60,57.7c23.5,48.3,2.6-36.5-37.7-49.7c0,0,29.2,5.6,70.7,38.4
					c41.5,32.8,68.9-28.9,73.7-35.2c4.8-6.3,12.7,3.6,12.7,3.6l3.8-15.8L1757.9,970L1758.7,983.5z"/>
				<linearGradient id="SVGID_24_" gradientUnits="userSpaceOnUse" x1="1715.7635" y1="1118.4877" x2="1843.5343" y2="1118.4877">
					<stop  offset="8.379890e-003" style="stop-color:#EA9DC8"/>
					<stop  offset="0.984" style="stop-color:#FFFFFF"/>
				</linearGradient>
				<path class="st38" d="M1796.3,1152c0.8-6.3,1.3-12.6,1.7-18.8c0,0-74.8-22.7-82.2-47.9c-0.1-0.2-0.1-0.3-0.1-0.4
					c13.8,16.7,121.5,46.8,127.2,54C1847.4,1144.3,1825.8,1153.9,1796.3,1152z"/>
				<path class="st18" d="M1664,933.5c0,0,13.5,28.8,33,27c16.6-1.6,13.7-43.3,2.6-51.7C1688.5,900.4,1664,933.5,1664,933.5z"/>
				<path class="st39" d="M1708.8,1050.1c0,0,0-0.1-0.1-0.1c-3.8-21-8.3-44.4-16.2-64.1c-0.8-1.9-1.6-3.8-2.4-5.7
					c26.4,11.8,43-33.9,43-33.9s1.4-0.8,4.9,5.7c0.3,6.7,0.2,12.6,1.4,17.2c1.8,6.5,5.9,10.1,9.8,12
					C1761.1,1018.4,1715.9,1085.2,1708.8,1050.1z"/>
				<path class="st27" d="M1654.6,914.8c-3.3-9.5,31.7-12.8,42-8.4c10.3,4.4,15.9,44.6,0,49.7
					C1680.6,961.3,1660.7,932.4,1654.6,914.8z"/>
				<path class="st28" d="M1656.1,918.6c0,0,2.3-7.5,21.4-9.9c19.1-2.4,26.1,7.5,26.1,7.5s0.5-16.1-30.2-11.8
					C1642.6,908.7,1656.1,918.6,1656.1,918.6z"/>
				<path class="st28" d="M1680.5,951.9c0,0,11.4-8,23.1-0.8C1703.5,951.1,1697.7,968.1,1680.5,951.9z"/>
				<path class="st29" d="M1729.2,1090.2c-15.3-12.6,18-64.1,26.1-89.1c8.1-25.1,67.4,19.1,82.9,80.8
					C1853.7,1143.5,1760.6,1116,1729.2,1090.2z"/>
			</g>
			<path class="st40" d="M1116.3,1610l23.1-21.6c0,0-8,33.2-12.7,34.4C1121.8,1624,1116.3,1610,1116.3,1610z"/>
			<linearGradient id="SVGID_25_" gradientUnits="userSpaceOnUse" x1="1771.0057" y1="1721.8782" x2="1771.0057" y2="1231.9614">
				<stop  offset="0" style="stop-color:#38328A"/>
				<stop  offset="1" style="stop-color:#4F349B"/>
			</linearGradient>
			<path class="st41" d="M1930.5,1504.5c-1.1,2.5-2.4,5.1-3.8,7.7c-40.4,76.8-182.5,204.8-201.5,208.8c-19.7,4.2-57.3-5.4-93.7-77.6
				c-36.4-72.2-18.5-262.6,16.1-293c34.6-30.4,57.3,15.5,79.9-23.3c13.3-22.7,24.9-54.6,34.5-75c6.8-14.6,12.6-23.3,17.3-19
				c0,0-15.2,42.5-7.2,95.1c8,52.5,101.1,177.5,117.8,156c16.7-21.4-33.5-177.9-33.5-177.9l0.8-22.6
				C1911.6,1407.9,1930.5,1504.5,1930.5,1504.5z"/>
			<path class="st42" d="M1930.5,1504.5c-1.1,2.5-2.4,5.1-3.8,7.7c-19.7-5.2-44.2-15.9-74.8-35.3
				c-104.1-65.9-104.3-175.9-89.8-224.8c6.8-14.6,12.6-23.3,17.3-19c0,0-15.2,42.5-7.2,95.1c8,52.5,101.1,177.5,117.8,156
				c16.7-21.4-33.5-177.9-33.5-177.9l0.8-22.6C1911.6,1407.9,1930.5,1504.5,1930.5,1504.5z"/>
			<linearGradient id="SVGID_26_" gradientUnits="userSpaceOnUse" x1="1823.6749" y1="1452.2942" x2="1823.6749" y2="1173.2632">
				<stop  offset="0" style="stop-color:#FF6686"/>
				<stop  offset="1" style="stop-color:#FF7C89"/>
			</linearGradient>
			<path class="st43" d="M1878.4,1222.5c-0.1,0.4-0.3,0.9-0.4,1.4c-9.5,32.3-35.5,228.4-35.5,228.4
				c-113.2-101.1-66.2-208.2-66.2-208.2c5.7-35.3,6.9-63.8,7.5-67.3c0.6-3.6,9.6-3.5,9.6-3.5s-2.3,17.3,2,24.3
				c22.5,37,76.8,22.7,76,10c-0.8-12.7-2.8-13-2.8-13l1-10.3C1869.4,1184.2,1887.1,1191.5,1878.4,1222.5z"/>
			<path class="st44" d="M1868.4,1194.5l-2.9,19.8c0,0,6.4,1.9,8.6-8.8C1876.2,1194.8,1868.4,1194.5,1868.4,1194.5z"/>
			<path class="st18" d="M1090.7,1127.3c0,0,39.2,81.8,104.9,78.2c65.7-3.6,78.7-91.5,75.5-120.4l5.2,22.9c0,0,11.5,97.5-67.2,107.8
				c-78.8,10.3-115.1-58.2-116-67.2C1092.2,1139.7,1090.7,1127.3,1090.7,1127.3z"/>
			<path class="st23" d="M1051.6,1264.6c0,0-65.9,50.9-69.2,53c-3.3,2.1-49.2-13.4-55.8-21.8c-6.6-8.4,0,14,11.9,26.3
				c11.9,12.2,40.4,3.9,40.4,4.8c0,0.8-2.2,10.9-2.2,10.9s9.3-24.5,45.1-47.9c22.4-14.7,29.8-14.9,29.8-14.9V1264.6z"/>
			<path class="st18" d="M1076,1649c-4.1,165-72.6,246.5-72.6,246.5c-15.1,7-32.8,13.1-51.8,18.3c-4.8-5.5-9.1-13.5-13-24.3
				c-24.6-68.2,46-287.3,60.7-331.6c4.7-1.3,14.5,0.2,14.5,0.2l2.3,9.3c-44.5,59.5-90.7,312.2-39.8,311.3
				c50.9-0.8,84.5-215.1,84.5-215.1L1076,1649z"/>
			<linearGradient id="SVGID_27_" gradientUnits="userSpaceOnUse" x1="1053.6252" y1="1789.6633" x2="1053.6252" y2="1484.1487">
				<stop  offset="0" style="stop-color:#FF6686"/>
				<stop  offset="1" style="stop-color:#FF7C89"/>
			</linearGradient>
			<path class="st45" d="M1151.9,1576.8c0,0-16.4,44.5-29.1,61.1c-3,4-5.8,6.4-8.1,6.1c-12-1.2-159.3,145.6-159.3,145.6
				s13.1-158.6,60.8-222.2c0,0,55.2-48.4,68.9-67.5c16.1-22.2,27-14.6,27-14.6s-31.3,65.5,9.3,133.6l18.1-30.6L1151.9,1576.8z"/>
			<linearGradient id="SVGID_28_" gradientUnits="userSpaceOnUse" x1="1592.5449" y1="1535.4288" x2="1592.5449" y2="1204.8608">
				<stop  offset="8.379890e-003" style="stop-color:#C2798B"/>
				<stop  offset="0.984" style="stop-color:#FFFFFF"/>
			</linearGradient>
			<path class="st46" d="M1561.7,1535.4c0,0-17.9-165.1,0-246.3c17.9-81.2,76.8-63.9,80.8-72.2c4-8.2-42.2-24.7-74.8,4.6
				C1535,1250.9,1535,1428.4,1561.7,1535.4z"/>
			<path class="st18" d="M1653.6,1195.2c-34.6-7.2-54.9,52.5-87.1,48.9c-32.2-3.6,28.9-204.7,49.7-224.2
				c31,33.1,35.9,131.7,36.4,143.6C1653.1,1175.5,1653.6,1195.2,1653.6,1195.2z"/>
			<path class="st18" d="M816.4,1209.1c12.3-19.8,105.8,120,119.8,181.9c14,61.9,14.3,102.1,6,103.9c-8.4,1.8-59.1-124.7-73.4-146.2
				c-14.3-21.5-32.8,4.2-32.8,4.2S810.1,1255.2,816.4,1209.1z"/>
			<linearGradient id="SVGID_29_" gradientUnits="userSpaceOnUse" x1="898.2929" y1="1597.1198" x2="898.2929" y2="1512.208">
				<stop  offset="8.379890e-003" style="stop-color:#C2798B"/>
				<stop  offset="0.984" style="stop-color:#FFFFFF"/>
			</linearGradient>
			<path class="st47" d="M959.5,1579.9c0,0-31.6-64.6-122.4-67.7c0,0,72,38,86.9,84.9L959.5,1579.9z"/>
			<linearGradient id="SVGID_30_" gradientUnits="userSpaceOnUse" x1="752.6691" y1="1591.1193" x2="927.8359" y2="1591.1193">
				<stop  offset="1.598750e-002" style="stop-color:#FFFFFF"/>
				<stop  offset="0.9916" style="stop-color:#C2798B"/>
			</linearGradient>
			<path class="st48" d="M927.8,1595.5c0,0-9.6,9.2-21.1,6.8c-11.4-2.4-56.9-41.8-90.7-39c-33.8,2.8-63.4,73.6-63.4,73.6
				s17.1-63.6,62.8-86.8C861.1,1527,927.8,1595.5,927.8,1595.5z"/>
			<linearGradient id="SVGID_31_" gradientUnits="userSpaceOnUse" x1="760.7181" y1="1639.609" x2="899.6122" y2="1639.609">
				<stop  offset="1.598750e-002" style="stop-color:#FFFFFF"/>
				<stop  offset="0.9916" style="stop-color:#C2798B"/>
			</linearGradient>
			<path class="st49" d="M760.7,1689.4c0,0,34.3-87.6,138.9-88l-12.9-10.3C886.7,1591.1,785.4,1570.8,760.7,1689.4z"/>
			<linearGradient id="SVGID_32_" gradientUnits="userSpaceOnUse" x1="1610.5663" y1="1399.0875" x2="1720.452" y2="1399.0875">
				<stop  offset="1.598750e-002" style="stop-color:#FFFFFF"/>
				<stop  offset="0.9916" style="stop-color:#C2798B"/>
			</linearGradient>
			<path class="st50" d="M1720.5,1337.3c-11.7,6-84.8,48.9-89.5,152.8c0,0-0.4-79.5,26.9-114.6c27.3-35.1,42.9-32,42.9-32
				s-38.7-7.5-61.4,17.9c-22.7,25.5-25.4,108.3-25.4,108.3s-15.2-71.7,19.4-131.9c34.6-60.2,82.6-10.2,82.6-10.2L1720.5,1337.3z"/>
			<path class="st18" d="M1561.7,1535.4c0,0-36.2-44.2-38.6-103.1c-2.4-58.9,34.2-124.3,34.2-124.3S1537.4,1415.7,1561.7,1535.4z"/>
			<linearGradient id="SVGID_33_" gradientUnits="userSpaceOnUse" x1="1678.4238" y1="1629.7583" x2="1888.7864" y2="1629.7583">
				<stop  offset="8.379890e-003" style="stop-color:#C2798B"/>
				<stop  offset="0.984" style="stop-color:#FFFFFF"/>
			</linearGradient>
			<path class="st51" d="M1687.8,1712.9c-56.3-69.5,156.8-166.9,192.3-174.5c35.6-7.7-46.8,100.8-100.9,141.8
				C1725.2,1721.1,1709.6,1730.9,1687.8,1712.9z"/>
			<linearGradient id="SVGID_34_" gradientUnits="userSpaceOnUse" x1="1479.6321" y1="2399.5906" x2="1479.6321" y2="1411.0112">
				<stop  offset="8.379890e-003" style="stop-color:#C2798B"/>
				<stop  offset="0.984" style="stop-color:#FFFFFF"/>
			</linearGradient>
			<path class="st52" d="M1604.7,2277.9c-18,14.3-99.1,27.5-201.8,95.5c-38.6,25.6-61.9,30.7-75.3,22.6c-0.9-0.6-1.8-1.2-2.7-2
				c-4.6-3.6-7.7-8.5-9.2-14.7c-0.1-0.3-0.1-0.5-0.2-0.8c-17-80.8,118.7-540.5,157.1-704.7c38.4-164.2,53.2-261.4,64-262.8
				c10.7-1.4,18.8,87.6,25,124.4c6,35.7,23.6,177.2,24.7,186c0,0.1,0.1,0.2,0,0.3c-2-6-52.9-156.7-93,26.5
				c-40.9,186.9-175.9,548.1-129.5,586.6c46.5,38.5,157.6-35,210.1-146.4c51.7-109.7,26.1-373.5,25.3-381.8
				c8.5,53.2,18.3,110.2,29.2,166.9C1670.3,2190.8,1622.6,2263.6,1604.7,2277.9z"/>
			<linearGradient id="SVGID_35_" gradientUnits="userSpaceOnUse" x1="820.6797" y1="2448.8406" x2="820.6797" y2="2403.6692">
				<stop  offset="1.598750e-002" style="stop-color:#FFFFFF"/>
				<stop  offset="0.9916" style="stop-color:#C2798B"/>
			</linearGradient>
			<path class="st53" d="M830.1,2448.8c-13.5-1.1-21.6-2.6-21.6-2.6c8.6-12.7,16.6-27,24.4-42.5
				C824.7,2424.8,818.8,2447.3,830.1,2448.8z"/>
			<linearGradient id="SVGID_36_" gradientUnits="userSpaceOnUse" x1="953.2105" y1="2450.1504" x2="953.2105" y2="1708.7704">
				<stop  offset="1.598750e-002" style="stop-color:#FFFFFF"/>
				<stop  offset="0.9916" style="stop-color:#C2798B"/>
			</linearGradient>
			<path class="st54" d="M1071.5,2178.8c7,51.8,0.9,106.7-10.5,157.1c-5.9,17.8-12.5,31.9-20.2,41.8c-57.3,74.5-163.4,75-209.7,71.1
				c25.6,1.3,211.3-46.7,209.7-125.4c-1.6-79.8-4.2-442.3-113-252.9c5.1-19.6,10.3-61.5,14-96.9c0.1-0.4,0.1-0.9,0.2-1.3
				c3.3-31.5,5.5-57.5,5.5-57.5l2.1-0.8l53.7-18.6c61.9-81,68-186.7,68-186.7s13.2,96-9.1,135c-22.3,39-46.9,34.5-41.8,70
				C1025.6,1949.2,1050.4,2022.8,1071.5,2178.8z"/>
			<linearGradient id="SVGID_37_" gradientUnits="userSpaceOnUse" x1="739.4839" y1="1887.3744" x2="947.5949" y2="1887.3744">
				<stop  offset="8.379890e-003" style="stop-color:#C2798B"/>
				<stop  offset="0.984" style="stop-color:#FFFFFF"/>
			</linearGradient>
			<path class="st55" d="M740.8,1936c-18.3-19.8,156.4-86.5,175.1-98.6c18.7-12,16.4,65.7,31.7,77.4
				C947.6,1914.8,806.9,1947.9,740.8,1936z"/>
			<path class="st56" d="M1151.9,1576.8c0,0-16.4,44.5-29.1,61.1c-15.6-9.2-31.4-28.9-35.9-70.2c-9.7-88.4,25.1-82.3,25.1-82.3
				s-31.3,65.5,9.3,133.6l18.1-30.6L1151.9,1576.8z"/>
			<path class="st18" d="M1016.1,1567.5c0,0-54.7,128.7-22.1,184.1l61.7-59c0,0-45.4,136.1-67.9,148c-22.6,11.9-32.5-51-32.5-51
				S961.2,1648.4,1016.1,1567.5z"/>
			<path class="st18" d="M1777.7,1238.6c0,0-15.7,68.7,11.6,128.1c27.3,59.4,56,64.2,56,64.2l15.7-110.2c0,0,14.2,45.9,10.7,90.3
				c-3.6,44.4-21.9,49.6-21.9,49.6S1726.3,1387.7,1777.7,1238.6z"/>
			<path class="st57" d="M1349.6,2154.8c-2.8-13,144.7-604.7,144.7-604.7s-31.8,233.6-72.4,405.5
				C1381.4,2127.5,1349.6,2154.8,1349.6,2154.8z"/>
			<path class="st18" d="M1040.3,2002.3c-16.2-69.8,10.9,291.4,13.4,319.2c2.5,27.8,26.7-30.5,15.3-131.6
				C1057.6,2089,1040.3,2002.3,1040.3,2002.3z"/>
			<path class="st58" d="M1139.3,1588.4c0,0-39.6,3.4-27.3-102.9c0,0-29.3,50.5,4.3,124.5L1139.3,1588.4z"/>
			<path class="st18" d="M1069.3,1166.7c0,0,74.6,121.1,160,97.9c85.4-23.2,82.1-146.1,82.1-146.1s4.8,131-84.5,156.5
				c-89.3,25.5-157.3-102.2-157.3-102.2L1069.3,1166.7z"/>
			<path class="st22" d="M1561.7,2426.3c-60.9-51.7-229.8,80.4-341.1,93.8c-111.3,13.3-206.8-45.2-250.3-58.3
				c-43.6-13.1-70.6,9.6-70.6,9.6l0-21.2c0,0,33.1-2.2,91.1,3.3c60.4,5.7,147.5,19,238.7,9.5c179.1-18.6,362.1-112.2,362.1-112.2
				l-28.1,14.9L1561.7,2426.3z"/>
			<path class="st22" d="M1388.3,2382.6c0,0,47.3-0.8,99.8-13.5c52.5-12.7,103.5-45.6,103.5-45.6l-1.8-37.9c0,0-55.8,13.4-99.9,33.3
				S1388.3,2382.6,1388.3,2382.6z"/>
			<path class="st22" d="M899.6,2450.2c0,0,92.7,1.5,140.4-23.9c47.7-25.4,51.7-247.4,51.7-247.4s-19.1,154.4-50.9,198.9
				C1009,2422.3,899.6,2450.2,899.6,2450.2z"/>
			<linearGradient id="SVGID_38_" gradientUnits="userSpaceOnUse" x1="1604.5171" y1="1576.4595" x2="1737.0708" y2="1346.8698">
				<stop  offset="1.598750e-002" style="stop-color:#FFFFFF"/>
				<stop  offset="0.9916" style="stop-color:#C2798B"/>
			</linearGradient>
			<path class="st59" d="M1720.5,1337.3c0,0-63.5,107.2-70,220.1c-6.5,112.9-28-35-17.1-105.1
				C1644.3,1382.1,1720.5,1337.3,1720.5,1337.3z"/>
			<path class="st60" d="M1391,1053.1c-12.6,18.8,102,75.7,135.1,79.1c33.2,3.4,84.4-104.3,84.4-104.3S1573.6,1002.8,1391,1053.1z"
				/>
			<path class="st60" d="M830.4,1204.4c-4.8,7.6,60.1,69.6,72.8,79.6c12.7,9.9,90.3-108.4,95.1-117.3
				C1003,1157.8,898.8,1157.8,830.4,1204.4z"/>
			<path class="st60" d="M805,1633c-39.1,27.4-90.4,194.1-70.5,233.9c19.9,39.8,150.8-56.6,189.6-121c38.8-64.4-9.8-144.8-9.8-144.8
				S862.8,1592.5,805,1633z"/>
			<path class="st13" d="M1737.5,1308.1c0,0-55.3,107.9-72,168.8c-16.7,60.9-19.7,161.8-11.9,177.3c7.8,15.5,110.4-93.1,123-125.9
				c12.5-32.8-48.9-140.3-45.4-168.3C1734.8,1331.9,1737.5,1308.1,1737.5,1308.1z"/>
			<path class="st60" d="M1561.7,1611.3c-54.5-56.4-77.4,297-68.4,364.6c9.1,67.6,84.3,132.9,99.2,128.1c14.9-4.8,14.9-156-1-302.4
				C1575.6,1655.2,1561.7,1611.3,1561.7,1611.3z"/>
			<path class="st60" d="M1586,2257.6c-23.1-21.5,20.7-127.1,34.2-178.2c13.5-51,30.4,65.9,13.5,125S1586,2257.6,1586,2257.6z"/>
			<g>
				<linearGradient id="SVGID_39_" gradientUnits="userSpaceOnUse" x1="1241.7731" y1="586.1437" x2="1209.6995" y2="383.6388">
					<stop  offset="0" style="stop-color:#3E2987"/>
					<stop  offset="0.1442" style="stop-color:#372987"/>
					<stop  offset="0.6639" style="stop-color:#212885"/>
					<stop  offset="1" style="stop-color:#192885"/>
				</linearGradient>
				<path class="st61" d="M1180.8,388.2c0,0,38.7,9.8,60,42.7c21.3,32.9,19.2,152.3,19.2,152.3L1180.8,388.2z"/>
				<linearGradient id="SVGID_40_" gradientUnits="userSpaceOnUse" x1="1093.0962" y1="950.6655" x2="1093.0962" y2="372.4907">
					<stop  offset="0" style="stop-color:#FFB595"/>
					<stop  offset="0.984" style="stop-color:#FFC2A9"/>
				</linearGradient>
				<path class="st62" d="M1340.6,833.6c0,0.1-0.1,0.2-0.1,0.4c-10.1,44.8-42.7,90.7-80.5,106.6c-48.9,20.7-171.4,5.6-213.6-9.5
					c-15-5.4-29-20.2-42.9-39.7c-0.1-0.1-0.1-0.1-0.1-0.1c-25.1-35.3-49.9-86.1-79.1-124.6c-5.5-7.2-10.8-14.2-15.8-21.1
					c-35.8-49.3-57-89-65.5-142.4c-9.5-60.9,81.4-139.4,93.1-152.8c98.9-112.8,204.1-82.3,254.3-37c16.8,15.2,29.4,32.1,38.7,47.8
					l0.1,0.2c18.5,31.4,24.2,58.2,24.2,58.2s1.4,14.7,4.6,33.8c0.4,2.9,1,5.9,1.6,9c1.9,10.2,6.5,25.6,9.4,35.8
					c4.9,17.1,20.9,50.6,38.3,91c1.9,4.3,3.8,8.8,5.7,13.1c14.6,34.8,27.7,69.7,30.2,93.1C1344.6,807.5,1343.6,820.5,1340.6,833.6z"
					/>
				<linearGradient id="SVGID_41_" gradientUnits="userSpaceOnUse" x1="1068.6976" y1="737.6083" x2="1012.3701" y2="381.9704">
					<stop  offset="1.598750e-002" style="stop-color:#FFFFFF"/>
					<stop  offset="0.9916" style="stop-color:#F29DC8"/>
				</linearGradient>
				<path class="st63" d="M1229.3,461.4c0,0-13.7,33.5-112.8,41.5c-99.1,8.1-155.2-34.6-177.9-8.4c-22.7,26.3,16.7,161.2,45.4,136.1
					c0,0-10.2,22.7-4.1,75.5c6,52.8-2,46.3-16.3,46.7c-5.4,0.2-28-2.5-55.1-7.2c-35.8-49.3-57-89-65.5-142.4
					c-9.5-60.9,81.4-139.4,93.1-152.8c98.9-112.8,204.1-82.3,254.3-37c16.8,15.2,29.4,32.1,38.7,47.8L1229.3,461.4z"/>
				<linearGradient id="SVGID_42_" gradientUnits="userSpaceOnUse" x1="978.3357" y1="893.9042" x2="874.6901" y2="751.2482">
					<stop  offset="0" style="stop-color:#FFB595"/>
					<stop  offset="0.984" style="stop-color:#FF958D"/>
				</linearGradient>
				<path class="st64" d="M939.8,765.5c0,0-40-20.3-69.8-9.6c-29.8,10.7-19.7,68.1,10.1,94.3c29.8,26.3,54.9,28.6,87.7,39.4
					c32.8,10.7,28.1-37.6,28.1-37.6S988.1,784,939.8,765.5z"/>
				<linearGradient id="SVGID_43_" gradientUnits="userSpaceOnUse" x1="861.5445" y1="597.1654" x2="843.7632" y2="484.8992">
					<stop  offset="0" style="stop-color:#3E2987"/>
					<stop  offset="0.5684" style="stop-color:#2C2F90"/>
					<stop  offset="1" style="stop-color:#243294"/>
				</linearGradient>
				<path class="st65" d="M911.1,474.2c-7,20.3-87,31.4-105.5,65.9c-18.5,34.4-14.9,59.3-9.7,66.6c5.3,7.2,16.3-42.5,64.5-74.3
					C908.8,500.5,911.1,474.2,911.1,474.2z"/>
				<linearGradient id="SVGID_44_" gradientUnits="userSpaceOnUse" x1="918.681" y1="869.9741" x2="918.681" y2="785.4996">
					<stop  offset="1.598750e-002" style="stop-color:#FFFFFF"/>
					<stop  offset="0.9916" style="stop-color:#F29DC8"/>
				</linearGradient>
				<path class="st66" d="M957.5,806.9c0,0-46.3-25.9-73.4-20.7c-27.1,5.2-11.3,46.8,0,61.3c11.3,14.5,31,17.9,31,17.9
					s-27.3-5.3-34.4-34.2c-7.2-28.9,7.8-34.3,19.1-37c11.3-2.7,1.1,17.2,6,43.6c4.9,26.3,23.3,31.3,33.7,32.2
					c10.4,0.9-10.7-16.7-10.7-37.9c0-21.2,14,16.7,32.2,10.7C979.2,836.8,957.5,806.9,957.5,806.9z"/>
				<linearGradient id="SVGID_45_" gradientUnits="userSpaceOnUse" x1="1131.8979" y1="760.6479" x2="1131.8979" y2="533.5178">
					<stop  offset="1.598750e-002" style="stop-color:#FFFFFF"/>
					<stop  offset="0.9916" style="stop-color:#F29DC8"/>
				</linearGradient>
				<path class="st67" d="M1093.1,591c59.1,2.6,87.7-16.5,87.7-16.5s42.2-30.2,56.6-39c14.4-8.8,19.4,14.2,19.4,14.2
					s9.2,54.5,34.7,103.3c0,0-39.5,26.3-67.2,20.1c-27.7-6.2-23.5-26.1-41.4-50.3c-32.6-16.9-37.4,14.5-37.4,14.5
					s11.1,53.8-6.8,83.8c-17.9,30-96.2,54.4-135.2,28.7c-39-25.7-30.3-92.4-30.3-92.4S1022,594,1093.1,591z"/>
				<path class="st68" d="M929.7,794.1c-24.9-7.3-2.2,43.3,18.7,44.5c20.9,1.2,2.4-20.3,0.9-26.6c-1.5-6.3,8.1-5.2,8.1-5.2
					S941.7,798.3,929.7,794.1z"/>
				<g>
					<linearGradient id="SVGID_46_" gradientUnits="userSpaceOnUse" x1="1027.4296" y1="676.8356" x2="1129.0648" y2="676.8356">
						<stop  offset="8.379890e-003" style="stop-color:#EA9DC8"/>
						<stop  offset="0.984" style="stop-color:#FFFFFF"/>
					</linearGradient>
					<path class="st69" d="M1031.2,714.2c0,0-16-34,18.2-66c34.2-32,79.7,34.3,79.7,34.3L1031.2,714.2z"/>
					<path class="st18" d="M1032.2,719.7c4.7,17.6,79.7-18.3,95.8-25.4c16.1-7.2-7.4-15.2-16.3-26c-8.9-10.8-25.7-22.2-53.8-10
						C1029.8,670.5,1028,704.1,1032.2,719.7z"/>
					<path class="st70" d="M1120.4,695.6c-4.7,1.6-14.3,5.7-25.7,10.2c-17.2,6.7-38,14.5-50.9,16.2c-6,0.8-10.3,0.3-11.6-2.3
						c-1.1-2.1-1.8-6.3-1.6-11.5c0.3-16.7,9-44.5,39.4-51.2c0.3-0.1,0.7-0.2,1-0.2C1110.1,649,1132.8,691.4,1120.4,695.6z"/>
					<path class="st71" d="M1097.9,691.3c0,5.1-1.1,10.1-3.1,14.5c-17.2,6.7-38,14.5-50.9,16.2c-5.6-3.3-10.2-8.1-13.2-13.8
						c0.3-16.7,9-44.5,39.4-51.2c0.3-0.1,0.7-0.2,1-0.2C1086.5,660.7,1097.9,674.7,1097.9,691.3z"/>
					<linearGradient id="SVGID_47_" gradientUnits="userSpaceOnUse" x1="1062.1051" y1="714.1681" x2="1062.1051" y2="668.5007">
						<stop  offset="1.598750e-002" style="stop-color:#E0B3D1"/>
						<stop  offset="0.9916" style="stop-color:#C2798B"/>
					</linearGradient>
					<circle class="st72" cx="1062.1" cy="691.3" r="22.8"/>
					<path class="st73" d="M1119.9,678.3c0,0-16.5-28.3-56.3-17.9c-39.9,10.4-32,57.7-32,57.7s-14.9-34.5,15.3-59.7
						C1078.7,631.6,1114.1,666.2,1119.9,678.3z"/>
					<path class="st0" d="M1078.2,682.5c0,0,9.1-9.9,20.4-7.1L1078.2,682.5z"/>
				</g>
				<g>
					<linearGradient id="SVGID_48_" gradientUnits="userSpaceOnUse" x1="1212.4763" y1="614.8763" x2="1264.9708" y2="614.8763">
						<stop  offset="1.598750e-002" style="stop-color:#FFFFFF"/>
						<stop  offset="0.9916" style="stop-color:#EA9DC8"/>
					</linearGradient>
					<path class="st74" d="M1219.6,652.7c0,0-16.6-47.8,1-69.6c17.6-21.8,44.4,22,44.4,22L1219.6,652.7z"/>
					<path class="st18" d="M1219.6,658.2c-7.4-8.9-10.2-41.9,10.5-60.2s39.1,15.3,44.2,30.1c5.1,14.8-17,25-30.3,27.7
						C1230.7,658.5,1220.8,659.6,1219.6,658.2z"/>
					<path class="st70" d="M1268.9,639.3c-3.2,3.3-8.6,6.6-14.7,9.4c-6.6,3-13.9,5.4-20.1,6.5c-5.2,1-9.7,1.2-12.3,0.1
						c-1.2-0.6-2-1.4-2.2-2.5c-2.3-12.3-2.2-28.2,1.8-40c2.1-6.3,5.5-11.5,10.1-14.5c2.4-1.5,5-2.4,8.1-2.6
						C1260.3,593.8,1279.7,627.9,1268.9,639.3z"/>
					<path class="st71" d="M1256.6,633.8c0,5.2-0.9,10.3-2.4,14.8c-6.6,3-13.9,5.4-20.1,6.5c-1.9,1-4,1.6-6.2,1.6
						c-2.1,0-4.2-0.5-6.1-1.5c-1.2-0.6-2-1.4-2.2-2.5c-2.3-12.3-2.2-28.2,1.8-40c2.1-6.3,5.5-11.5,10.1-14.5
						C1245.5,599.5,1256.6,615,1256.6,633.8z"/>
					<linearGradient id="SVGID_49_" gradientUnits="userSpaceOnUse" x1="1231.627" y1="656.6969" x2="1231.627" y2="611.0428">
						<stop  offset="1.598750e-002" style="stop-color:#E0B3D1"/>
						<stop  offset="0.9916" style="stop-color:#C2798B"/>
					</linearGradient>
					<path class="st75" d="M1245.2,633.8c0,9.7-4.7,18.1-11.2,21.3c-1.9,1-4,1.6-6.2,1.6c-2.1,0-4.2-0.5-6.1-1.5
						c-1.2-0.6-2-1.4-2.2-2.5c-2.3-12.3-2.2-28.2,1.8-40c2-1.1,4.1-1.7,6.4-1.7C1237.4,611,1245.2,621.2,1245.2,633.8z"/>
					<path class="st73" d="M1218.1,642c0,0,1.5-36.2,22.6-43.4c21.1-7.1,31.4,27.1,31.4,27.1s-7.7-35.8-23.8-37.1
						C1232.1,587.4,1215.2,605.5,1218.1,642z"/>
					<path class="st0" d="M1246.4,622.9c0,0,9.1-9.9,20.4-7.1L1246.4,622.9z"/>
				</g>
				<linearGradient id="SVGID_50_" gradientUnits="userSpaceOnUse" x1="1173.5662" y1="765.9833" x2="1173.5662" y2="727.6226">
					<stop  offset="8.379890e-003" style="stop-color:#EA9DC8"/>
					<stop  offset="0.984" style="stop-color:#FFFFFF"/>
				</linearGradient>
				<path class="st76" d="M1161.6,727.6c0,0-0.4,26.5,3.8,33.4c4.2,6.9,25.4,1.7,25.4,1.7s-17.9,7.8-29.4-0.8
					C1149.9,753.3,1161.6,727.6,1161.6,727.6z"/>
				<path class="st77" d="M1139.1,816c0,0,108.6,16.3,149.2-37c0,0-17.2,34.7-65.7,43C1182.9,828.8,1139.1,816,1139.1,816z"/>
				
					<linearGradient id="SVGID_51_" gradientUnits="userSpaceOnUse" x1="1052.0398" y1="834.2296" x2="1088.5717" y2="834.2296" gradientTransform="matrix(-0.7872 0.6166 0.6166 0.7872 1474.6136 -503.9013)">
					<stop  offset="1.598750e-002" style="stop-color:#FFFFFF"/>
					<stop  offset="0.9916" style="stop-color:#F29DC8"/>
				</linearGradient>
				<path class="st78" d="M1154.5,793.4c0,0-20,13.2-14.9,40C1139.6,833.4,1116.7,810.9,1154.5,793.4z"/>
				<path class="st58" d="M954,885.4c13.8,4.2,40.5-11.9,40.5-11.9s-3.6,17.3-15.5,17.7C967,891.6,954,885.4,954,885.4z"/>
				<path class="st18" d="M1340.5,833.9c-10.1,44.8-42.7,90.7-80.5,106.6c-48.9,20.7-171.4,5.6-213.6-9.5c-15-5.4-29-20.2-42.9-39.7
					c3,2.7,52.4,46.4,140.1,48.6c90.7,2.3,153.9-35.1,167-48.7C1323,878.5,1338.6,838.9,1340.5,833.9z"/>
				<linearGradient id="SVGID_52_" gradientUnits="userSpaceOnUse" x1="1220.3138" y1="574.501" x2="1220.3138" y2="506.7465">
					<stop  offset="0" style="stop-color:#B877B8"/>
					<stop  offset="0.2337" style="stop-color:#9A6DBA"/>
					<stop  offset="0.5605" style="stop-color:#7762BB"/>
					<stop  offset="0.8276" style="stop-color:#615BBD"/>
					<stop  offset="1" style="stop-color:#5958BD"/>
				</linearGradient>
				<path class="st79" d="M1184.7,574.5c0,0-4.6-23.9,0-40.9V562c0,0,1.6-31.5,23.1-42.8l-18.5,34.5c0,0,29.2-39.7,44.2-46
					c15-6.2,22.2,21.6,23.9,25.9c1.6,4.2-0.6,16.2-0.6,16.2S1243.5,533.9,1184.7,574.5z"/>
				
					<linearGradient id="SVGID_53_" gradientUnits="userSpaceOnUse" x1="989.5758" y1="675.26" x2="989.5758" y2="583.5443" gradientTransform="matrix(0.9967 8.080000e-002 -8.080000e-002 0.9967 97.6964 -95.679)">
					<stop  offset="0" style="stop-color:#B877B8"/>
					<stop  offset="0.2337" style="stop-color:#9A6DBA"/>
					<stop  offset="0.5605" style="stop-color:#7762BB"/>
					<stop  offset="0.8276" style="stop-color:#615BBD"/>
					<stop  offset="1" style="stop-color:#5958BD"/>
				</linearGradient>
				<path class="st80" d="M1094.6,595.9c0,0-21.9-24.3-46-29.1l34.6,25.2c0,0-32.4-24-49.5-20c0,0-12.2-1.2-27.5,13.7
					c-19.5,19.2-36.5,66.7-36.5,66.7S1040.6,603.9,1094.6,595.9z"/>
				<linearGradient id="SVGID_54_" gradientUnits="userSpaceOnUse" x1="1059.6769" y1="929.075" x2="1059.6769" y2="769.1961">
					<stop  offset="1.598750e-002" style="stop-color:#FFFFFF"/>
					<stop  offset="0.9916" style="stop-color:#F29DC8"/>
				</linearGradient>
				<path class="st81" d="M976.8,777.4c29-37.4,106,62.1,152.3,109c46.3,47-27.7,51.2-82.7,31.6c-54.9-19.6-45.4-75.5-60.3-102
					C971.1,789.6,976.8,777.4,976.8,777.4z"/>
				<g>
					<path class="st82" d="M1274.3,582.6l34.4-22c0,0-0.4-15.8-6.8-13.8c-6.4,2.1-31.2,20.9-31.2,20.9L1274.3,582.6z"/>
					<path class="st83" d="M1304.3,681c-2.5,3.2-8.4,12.4-11.7,14.4c-25.6,15.6-91.5,26.8-99.9-95.1c-1.3-18.4,37.3-40.7,65.5-45.1
						c-0.8-3.1-1-6.4-1.6-9.4c-35.2,6.1-76.5,35-77.6,47.1c-0.4,4.4,0.2,10.9,1.8,18.7l-0.8-3.1c0,0-34.5-11.9-57,20.3
						c-1.5-2.4-2.9-4.4-4.2-5.8c-12-13.3-104.4-13.2-145.8,40.3c-17.3,22.3,20.6,100.4,59,117c34.9,15.2,96.5-0.8,108.3-45.9
						c8.5-32.5-0.2-68.8-10.1-91.7c2.8-5.8,18.4-33.7,52.9-21.6c6.1,22.7,18.9,52.1,38.5,73.6c24.8,27.2,68.1,23.1,89.7,3.8
						C1309.2,694.1,1306.5,685.5,1304.3,681z M1061,776.4c-45.9,4.2-95.4-67.5-80-102.4c19.5-44.1,112.7-61.5,128-36.6
						C1172.5,741.1,1097.1,773.2,1061,776.4z"/>
					
						<linearGradient id="SVGID_55_" gradientUnits="userSpaceOnUse" x1="1295.6866" y1="711.0519" x2="1295.6866" y2="550.1017" gradientTransform="matrix(1 0 6.190000e-002 1.0161 -73.6305 -19.3241)">
						<stop  offset="0" style="stop-color:#26258A"/>
						<stop  offset="1" style="stop-color:#3C2C95"/>
					</linearGradient>
					<path class="st84" d="M1301.9,546.8c-53.7-24.3-112.3,19.4-113.8,36.6c-1.5,17.3,12.6,67.5,42.5,99.5
						c29.9,32.1,81.5,23.2,96.9-7.6C1342.9,644.6,1324.3,556.9,1301.9,546.8z M1301.6,683.7c-25.6,15.3-91.5,26.2-99.8-93.1
						c-2-28.7,65.5-58.3,100.1-30.8C1329.1,581.5,1334.2,664.2,1301.6,683.7z"/>
					<path class="st85" d="M1301.6,683.7c-25.6,15.3-91.5,26.2-99.8-93.1c-2-28.7,65.5-58.3,100.1-30.8
						C1329.1,581.5,1334.2,664.2,1301.6,683.7z"/>
					
						<linearGradient id="SVGID_56_" gradientUnits="userSpaceOnUse" x1="1096.3314" y1="779.0891" x2="1096.3314" y2="615.0994" gradientTransform="matrix(1 0 6.190000e-002 1.0161 -73.6305 -19.3241)">
						<stop  offset="0" style="stop-color:#26258A"/>
						<stop  offset="1" style="stop-color:#3C2C95"/>
					</linearGradient>
					<path class="st86" d="M1128,612.9c-11.9-13.1-104.4-12.9-145.9,39.4c-17.3,21.8,20.5,98.3,58.8,114.6
						c34.9,14.9,96.6-0.8,108.4-44.9C1161.2,677.8,1139.9,626,1128,612.9z M1069.8,763c-45.9,4.1-95.3-66.1-79.9-100.2
						c19.5-43.2,112.8-60.2,128-35.8C1181.4,728.4,1105.9,759.8,1069.8,763z"/>
					<path class="st85" d="M1069.8,763c-45.9,4.1-95.3-66.1-79.9-100.2c19.5-43.2,112.8-60.2,128-35.8
						C1181.4,728.4,1105.9,759.8,1069.8,763z"/>
					<path class="st87" d="M1138.8,633.2c0,0,15.2-35.4,53.4-22.2l-3-12.2c0,0-34.6-11.7-57.1,20L1138.8,633.2z"/>
					
						<linearGradient id="SVGID_57_" gradientUnits="userSpaceOnUse" x1="974.033" y1="762.0137" x2="974.033" y2="688.2542" gradientTransform="matrix(1 0 6.190000e-002 1.0161 -73.6305 -19.3241)">
						<stop  offset="0" style="stop-color:#26258A"/>
						<stop  offset="1" style="stop-color:#3C2C95"/>
					</linearGradient>
					<path class="st88" d="M978.9,680c0,0-13.4,5.3-18.7,9.5c-5.3,4.2-53.9,61.7-53.9,61.7l12.6,3.8c0,0,43.4-41.2,49.9-46.8
						c6.4-5.6,16.5-8.9,16.5-8.9L978.9,680z"/>
					<path class="st89" d="M962,688.2c-5.4,4.5-3.4,11.9,0.9,15.3c4.3,3.4,19.5-5,20.7-7.7c1.2-2.7-3.2-15.9-3.2-15.9
						S965.9,685,962,688.2z"/>
					<path class="st89" d="M1212.1,633.2c19.5-35,71.8,28,82,38.4c10.2,10.3,24.3-10.2,24.3-10.2s-10.9,33.3-54,24.9
						C1221.3,677.9,1212.1,633.2,1212.1,633.2z"/>
					<path class="st89" d="M1004.1,707.4c19.5-35,71.8,28,82,38.4c10.2,10.3,24.3-10.2,24.3-10.2s-10.9,33.3-54,24.9
						C1013.3,752,1004.1,707.4,1004.1,707.4z"/>
					<path class="st89" d="M1064.6,610.5c-2.5,1.5,34.3,0.4,46.1,9c11.7,8.6,25.5,34.1,31.4,32.6c5.9-1.4-5.3-29.8-19.2-39.8
						C1108.9,602.4,1068.8,608,1064.6,610.5z"/>
					<path class="st89" d="M1247.7,544.6c-3.6,2,25.7-1.7,44.6,6.4c18.8,8,27.2,34.7,29,35.2c1.8,0.5-4.6-31.1-19.8-38.7
						C1286.2,539.9,1259.7,538.1,1247.7,544.6z"/>
					<path class="st90" d="M1317.1,685.6c-9,2.9,3.1-20.4,7.7-27.6C1329.3,650.8,1333.1,680.4,1317.1,685.6z"/>
					<path class="st90" d="M1136.1,740.2c-7.7,2.5,2.7-17.6,6.6-23.8C1146.6,710.2,1149.9,735.7,1136.1,740.2z"/>
				</g>
				<g>
					<linearGradient id="SVGID_58_" gradientUnits="userSpaceOnUse" x1="1157.2595" y1="704.3801" x2="1261.5062" y2="704.3801">
						<stop  offset="0" style="stop-color:#FFB595"/>
						<stop  offset="0.984" style="stop-color:#FFC2A9"/>
					</linearGradient>
					<path class="st91" d="M1161.4,755.6c4.4,11,40.9,1,64.5-5.8c23.5-6.8,35.4-16.3,35.6-25.3c0.3-9-24.2-33.4-43.8-53.3
						c-19.5-19.9-34.9-27.1-48-20.8C1156.6,656.9,1153.8,736.6,1161.4,755.6z"/>
					<linearGradient id="SVGID_59_" gradientUnits="userSpaceOnUse" x1="1209.1898" y1="763.7421" x2="1209.1898" y2="666.5119">
						<stop  offset="8.379890e-003" style="stop-color:#F29DC8"/>
						<stop  offset="0.984" style="stop-color:#FFFFFF"/>
					</linearGradient>
					<path class="st92" d="M1253.5,741.1c20.5-9.8-6.9-38.9-19.7-46c-12.7-7.2-30.5-39-53.1-25.1c-22.5,13.9-29.8,84.6-16.8,91.5
						c13,6.8,32.8-3.7,44.2-4.9c11.3-1.2,22.9,5.3,34.1-10.2L1253.5,741.1z"/>
					<linearGradient id="SVGID_60_" gradientUnits="userSpaceOnUse" x1="1215.4296" y1="765.0511" x2="1215.4296" y2="713.2941">
						<stop  offset="8.379890e-003" style="stop-color:#F29DC8"/>
						<stop  offset="0.984" style="stop-color:#FFFFFF"/>
					</linearGradient>
					<path class="st93" d="M1244.3,745.7c0,0,20-8,22.3-18.1c2.3-10.1-9.5-8.5-31.4-13.2c-21.9-4.7-36.6,7.1-48.6,20.6
						c-12,13.5-23.7,20.2-22.8,26.5c0.9,6.3,24.7,3,30.1,0.1c5.5-2.9,6.8-5.7,14-4.9c7.2,0.7,19.5-2.8,25-6.9
						C1238.6,745.5,1244.3,745.7,1244.3,745.7z"/>
					<path class="st94" d="M1247.6,710.3c-19.4-7.2-47.4,6.6-62.4,4.4c-15.1-2.2-8.8-23.3,0-35.3c8.8-12,29,5.5,39.9,14
						C1236,701.9,1247.6,710.3,1247.6,710.3z"/>
					<path class="st95" d="M1237.3,747.2c6.8-7.6,12.1-10.9,14.9-9.8c4.3,1.7-7.7,9.4-10.1,8.9
						C1239.8,745.8,1237.3,747.2,1237.3,747.2z"/>
					<linearGradient id="SVGID_61_" gradientUnits="userSpaceOnUse" x1="1237.326" y1="719.6073" x2="1264.0033" y2="719.6073">
						<stop  offset="8.379890e-003" style="stop-color:#EA9DC8"/>
						<stop  offset="0.984" style="stop-color:#FFDBD6"/>
					</linearGradient>
					<path class="st96" d="M1237.3,747.2c0,0,15.3-19.7,12.9-30.2c-2.4-10.4-12.3-25.1-12.3-25.1s14.4,13.6,23,26.4
						c8.6,12.7-2.1,21.4-11.5,24.7C1240,746.3,1237.3,747.2,1237.3,747.2z"/>
					<path class="st97" d="M1161.4,758.9c11.1,11.3,37.6,30.2,65.7,26.6c28.1-3.6,36.9-61,36.9-61s-3.5-0.8-12.5-2.2
						c-9-1.4-17.7-15.6-42.3-4.3C1190.2,726.9,1179.7,752,1161.4,758.9z"/>
					<path class="st95" d="M1195,759.7c0,0,7.1-7.3,12.1-9.2c5.1-1.9,5.8,3.4,4.6,4.6c-1.2,1.2-7.5,0.5-11.2,2.2
						C1196.9,759,1195,759.7,1195,759.7z"/>
				</g>
				
					<linearGradient id="SVGID_62_" gradientUnits="userSpaceOnUse" x1="939.0659" y1="623.4417" x2="1040.0868" y2="623.4417" gradientTransform="matrix(0.9967 8.080000e-002 -8.080000e-002 0.9967 97.6964 -95.679)">
					<stop  offset="1.598750e-002" style="stop-color:#FFFFFF"/>
					<stop  offset="0.9916" style="stop-color:#F29DC8"/>
				</linearGradient>
				<path class="st98" d="M1085,596.7c0,0-33.7-21.4-55.6-20.1c-21.9,1.3-45.4,37.3-48.1,49.8c-2.7,12.6,26-5.9,56.8-16
					C1068.8,600.4,1085,596.7,1085,596.7z"/>
				<path class="st18" d="M1190.2,570.8c0,0,22.8-53.6,41.8-59.9c17.5-5.9,19.2,20,14.6,29.8C1242,550.4,1225.1,546.1,1190.2,570.8z
					"/>
				<linearGradient id="SVGID_63_" gradientUnits="userSpaceOnUse" x1="1227.188" y1="857.5021" x2="1227.188" y2="823.3838">
					<stop  offset="1.598750e-002" style="stop-color:#FFFFFF"/>
					<stop  offset="0.9916" style="stop-color:#F29DC8"/>
				</linearGradient>
				<path class="st99" d="M1195,835c0,0,39.2,3.6,64.3-11.6c0,0-3.5,32.2-22,34C1218.8,859.2,1195,835,1195,835z"/>
				<g>
					<linearGradient id="SVGID_64_" gradientUnits="userSpaceOnUse" x1="1082.4618" y1="434.1198" x2="1062.686" y2="309.2602">
						<stop  offset="0" style="stop-color:#3E2987"/>
						<stop  offset="0.5684" style="stop-color:#2C2F90"/>
						<stop  offset="1" style="stop-color:#243294"/>
					</linearGradient>
					<path class="st100" d="M937.4,430c0,0,99.9-127.8,189.6-130c89.8-2.2,99.5,106.8,90.9,112.5c-8.6,5.8,6.3-86-88.9-97.6
						C1055.3,305.9,958.6,399.2,937.4,430z"/>
					<linearGradient id="SVGID_65_" gradientUnits="userSpaceOnUse" x1="1087.2765" y1="775.3942" x2="1013.281" y2="308.2047">
						<stop  offset="0" style="stop-color:#3E2987"/>
						<stop  offset="0.5684" style="stop-color:#2C2F90"/>
						<stop  offset="1" style="stop-color:#243294"/>
					</linearGradient>
					<path class="st101" d="M1273.4,437.8c-32.3,28.7-48.3,16.9-48.3,16.9s-10.8,10-66.9,14.3c-56.1,4.3-104.5,5.9-104.5,5.9
						c-0.6,14.9-7.4,22.1-7.4,22.1c-23.4-19.1-110.2-33.8-122.3,2.8c-12.1,36.6,7.4,108.2,7.4,108.2s-15.5,35.8-17.9,70.4
						c-2.4,34.7,63.3,99.1,63.3,99.1l-7.7,16.7c-14.9-23.9-67.1-40.4-67.1-40.4c-67.7-54.7-77.9-118.4-85.1-176.8
						c-7.1-58.5,88.8-76.4,107.2-127.3c18.5-51,69-148.1,147-149.6c71.6-1.4,109.9,80.1,128.6,104.1c1.7,2.1,3.2,3.8,4.5,4.9
						C1221,422.7,1273.4,437.8,1273.4,437.8z"/>
					<linearGradient id="SVGID_66_" gradientUnits="userSpaceOnUse" x1="967.6537" y1="469.3589" x2="946.6856" y2="336.9718">
						<stop  offset="0" style="stop-color:#3E2987"/>
						<stop  offset="0.5684" style="stop-color:#2C2F90"/>
						<stop  offset="1" style="stop-color:#243294"/>
					</linearGradient>
					<path class="st102" d="M940.4,439.4c0,0-4.8-40.8,12.5-73.6c17.3-32.9,51.3-32.6,51.3-36c0,0-56.7-4.9-76.4,45.4
						c-19.7,50.3-10.1,81.9-16.7,99.6C904.6,492.5,940.4,439.4,940.4,439.4z"/>
					<linearGradient id="SVGID_67_" gradientUnits="userSpaceOnUse" x1="924.2216" y1="428.5612" x2="1273.4351" y2="428.5612">
						<stop  offset="1.598750e-002" style="stop-color:#FFFFFF"/>
						<stop  offset="0.9916" style="stop-color:#C2798B"/>
					</linearGradient>
					<path class="st103" d="M1273.4,437.8c-32.3,28.7-48.3,16.9-48.3,16.9s-10.8,10-66.9,14.3c-56.1,4.3-104.5,5.9-104.5,5.9
						c-62.4-43.5-125.9-26.3-129.5-25.3c42.4-25.3,112.7,14.4,141.4,15.2c28.7,0.8,110.4-14.4,110.4-14.4s-67.5-50.5-120.9-53.3
						c-53.4-2.8-114.7,42.3-114.7,42.3s70.2-78.9,136.8-51.2c66.7,27.8,121.6,31.1,122.5,15.8c1.7,2.1,3.2,3.8,4.5,4.9
						C1221,422.7,1273.4,437.8,1273.4,437.8z"/>
					<linearGradient id="SVGID_68_" gradientUnits="userSpaceOnUse" x1="889.1352" y1="742.2577" x2="889.1352" y2="493.4222">
						<stop  offset="1.598750e-002" style="stop-color:#FFFFFF"/>
						<stop  offset="0.9916" style="stop-color:#C2798B"/>
					</linearGradient>
					<path class="st104" d="M927.2,493.4c0,0-67.5,76.1-75.2,140.1c-7.7,63.9,36.7,108.7,36.7,108.7s-26.5-83.9-9.2-144.1
						C896.8,538.1,927.2,493.4,927.2,493.4z"/>
					<linearGradient id="SVGID_69_" gradientUnits="userSpaceOnUse" x1="907.1866" y1="749.8259" x2="907.1866" y2="607.9242">
						<stop  offset="1.598750e-002" style="stop-color:#FFFFFF"/>
						<stop  offset="0.9916" style="stop-color:#C2798B"/>
					</linearGradient>
					<path class="st105" d="M931.4,607.9c0,0-33.4,29.2-44.8,60.6c-11.3,31.3,7,78.3,7,78.3l5.1,3
						C898.8,749.8,877.7,672.4,931.4,607.9z"/>
					<path class="st18" d="M947.8,431.9c0,0,58-69.8,113.1-83.6c55-13.7,83.3,83.6,83.3,83.6s-44.5-35.1-98.2-34.8
						C992.3,397.2,947.8,431.9,947.8,431.9z"/>
					<path class="st18" d="M927.2,493.4c0,0,7.2-29.9,46-38.9c38.8-9,73.2,42.4,73.2,42.4S998.7,475,927.2,493.4z"/>
					<path class="st18" d="M796,606.6c0,0,17.2-59.2,46.4-86.3c29.2-27.1,61.7-29.4,61.7-29.4s-42,50-53,66.4
						c-11,16.4-34.3,19.4-34.3,19.4s-8.8,15.6-13.5,22.7C798.6,606.6,800,608.1,796,606.6z"/>
					<path class="st106" d="M1047.8,303.4c45.8-1,64.3,16.9,73.8,36c9.5,19.1-46,7.1-68.2,11.1c-22.1,4,25-6.7,45.4-11.1
						C1119.2,334.9,1096.1,299.6,1047.8,303.4z"/>
					<path class="st106" d="M1023.9,399c34.5-1.9,13.1,25.8-6.9,36.7c-20,10.9-41.8,5.4-56.9,5.5c-15.1,0.1,37.8-4.7,58.9-18.6
						C1040,408.6,1023.9,399,1023.9,399z"/>
				</g>
				<path class="st107" d="M1008.6,776.8c-70.5-17.6-8.5,50.5,45.9,79.6C1108.8,885.4,1058,789.1,1008.6,776.8z"/>
			</g>
			<path class="st108" d="M1697.5,895.6c0,0,47.6,8.8,53.8,73.4l-11.7,0.2c0,0-1.7-21.1-6.4-38.6
				C1728.4,912.9,1697.5,895.6,1697.5,895.6z"/>
			<path class="st106" d="M1190.3,1265.9c-37.2-14.4,40.6-42.3,62.7-71.4c22.1-29.1,26.3-80.5,31.7-79.9
				c5.4,0.6,25.1,51.3-3.6,106.2C1252.5,1275.8,1190.3,1265.9,1190.3,1265.9z"/>
			<path class="st29" d="M995.9,1636.9c-10.3,72.7,33.9,35.2,59.9-6.6c26-41.8,29.8-110.9,29.4-118.1c-0.4-7.2-41.8,29-57.5,45.2
				S999,1614.8,995.9,1636.9z"/>
			<path class="st106" d="M1878.4,1222.5c-9.8,5.5-24.8,10-45.7,6.6c-42.4-7.1-48.9-52.3-48.9-52.3c0.6-3.6,9.6-3.5,9.6-3.5
				s-2.3,17.3,2,24.3c22.5,37,76.8,22.7,76,10c-0.8-12.7-2.8-13-2.8-13l1-10.3C1869.4,1184.2,1887.1,1191.5,1878.4,1222.5z"/>
			<path class="st18" d="M1792.7,1185.9c0,0,10.4,27.3,37.9,29.9s37.8-21.3,37.8-21.3l-2.9,21.5
				C1865.5,1216,1804.1,1241,1792.7,1185.9z"/>
			<path class="st13" d="M914.3,1601.1c0,0-52-10.1-117.2,38.5c-42.3,31.5,71.7-42.4,117.1-128.8c24.6-46.7-22.2-117.6-7.9-130.6
				c40.6-37,60.5,195.6,60.5,195.6L914.3,1601.1z"/>
			<path class="st60" d="M947.7,1278.3c1.8,19.1,34.2,19.6,66.9-5.1c32.6-24.7,37.8-167.1,40.2-173.5c2.4-6.4-44.3,58.3-64.1,87.7
				C970.8,1216.9,946.5,1265.1,947.7,1278.3z"/>
			<path class="st109" d="M1467.9,1287.3c-2.9,9.4,28.4,159.1,23.5,232.3c-4.9,73.1-49.1,240.6-49.1,240.6s77.5-270.5,66.8-355.7
				C1498.4,1319.4,1467.9,1287.3,1467.9,1287.3z"/>
			<path class="st109" d="M963.7,1545.4c0,0-3.3-103.8,3.1-150.7c6.5-46.9,27.5-82.1,27.5-82.1s-33.4,51.1-41.1,86.5
				C945.5,1434.5,963.7,1545.4,963.7,1545.4z"/>
			<path class="st109" d="M926.6,1295.8c7.6-9.8,34.6,4.9,58.5,1.7c23.9-3.2,45-19.2,45-19.2s-39.4,36.1-49.3,36.7
				C970.8,1315.5,933.4,1300.1,926.6,1295.8z"/>
			<path class="st110" d="M1765.2,1367.1c0,0,66.3,88.2,100.3,108.9c34,20.8,51.6,3.4,57.1,10.2c5.5,6.8,4.2,26,4.2,26
				S1805.9,1481.7,1765.2,1367.1z"/>
			<path class="st14" d="M1167.8,1760.2c-15.2,11.4,35,248.6,71.8,319.3c36.8,70.7,107.1-201.3,110-277.8c2.9-76.6-73.2,95.5-115,80
				C1192.8,1866.1,1192.7,1741.4,1167.8,1760.2z"/>
			<path class="st109" d="M1296.4,1030.3c0,0,134.5,85.9,176.3,113.9C1472.6,1144.2,1411.8,1067.5,1296.4,1030.3z"/>
			<path class="st22" d="M899.6,2520c0,0,0.4-49.9,4.3-57.1c4-7.2,20.1,59.1,20.1,59.1L899.6,2520z"/>
			<path class="st22" d="M1561.3,2520c0,0,0-83.4-6.4-88.9c-6.4-5.6-22.1,90.5-22.1,90.5L1561.3,2520z"/>
			<path class="st111" d="M730,1929.3c0,0-27.5-140.7-11.1-251.3c16.4-110.6,117-325.2,117-325.2S719.4,1545,704.9,1689.4
				S730,1929.3,730,1929.3z"/>
			<path class="st111" d="M835.9,1352.8c7.2,2.4-4.8-31.7,26.3-43.6c31-11.9-19.8-69.9-27.2-92.2c-7.4-22.3,75.6-47.7,75.6-47.7
				s-58.9,13.6-91.2,38C819.3,1207.2,806.1,1225.1,835.9,1352.8z"/>
			<path class="st111" d="M1513.8,1024c0,0,74.7-6.2,97.7,9.7s17.3,127.7,17.4,144.1c0,16.3,16.1,14,23,24
				c31,45.2,32.2,105.1,42.7,111c10.5,5.9,25.9,24.5,25.9,24.5l-66.8-142.1c0,0,1.6-145.2-37.4-175.3
				C1616.2,1020,1585,1014.1,1513.8,1024z"/>
			<path class="st111" d="M849.4,2446.8c-30.3-17.6,46-164.5,70.5-250.4c24.5-85.9,15.1-171.5,15.1-171.5s-18.3,133-50.1,237
				c-31.8,104-59.2,159.2-76.4,184.3C808.5,2446.2,838.5,2451.3,849.4,2446.8z"/>
			<path class="st111" d="M1603.6,1616c0,0,67.3,87.3,110.3,85.3c43-2,182.5-143.7,182.5-143.7s-119.2,141.9-171.1,163.4
				c0,0-19.5,6.3-44.9-13.3C1654.8,1688.2,1603.6,1616,1603.6,1616z"/>
			<path class="st111" d="M1585.2,2279.5c-11.9-12.3,40.6-49.4,49.3-124.7c8.8-75.3-11.6-210.9-11.6-210.9s28.5,119.8,20.1,230.2
				C1634.5,2284.5,1585.2,2279.5,1585.2,2279.5z"/>
			<path class="st112" d="M1561.7,1535.5c0,0,45.7,126.5,92.7,126.5c47,0,128.4-132.6,122.9-155.5c-5.4-22.9-55.5-135.8-61.5-150.1
				c-6.1-14.3-58.3,42.7-58.3,42.7s-7.2-57.1-30.6-13.5c-23.4,43.6-36.5-131.9-59.2-133.1C1545,1251.3,1535.4,1429.2,1561.7,1535.5z
				"/>
		</g>
	</g>
</g>
</svg>
