<?xml version="1.0" encoding="utf-8"?>
<!-- Generator: Adobe Illustrator 19.0.0, SVG Export Plug-In . SVG Version: 6.00 Build 0)  -->
<svg version="1.1" xmlns="http://www.w3.org/2000/svg" xmlns:xlink="http://www.w3.org/1999/xlink" x="0px" y="0px"
	 viewBox="0 0 1122 1122" style="enable-background:new 0 0 1122 1122;" xml:space="preserve">
<style type="text/css">
	.st0{fill:#E5F5F9;}
	.st1{opacity:0.37;fill:#FFFFFF;}
	.st2{fill:#F4D242;}
	.st3{fill:#59595B;}
	.st4{fill:#808183;}
	.st5{fill:#FFFFFF;}
	.st6{fill:#2E4661;stroke:#2E4661;stroke-width:4;stroke-miterlimit:10;}
</style>
<g id="BG">
	<g>
		<rect class="st0" width="1122" height="1122"/>
		<circle class="st1" cx="561" cy="561" r="454.5"/>
	</g>
</g>
<g id="Objects">
	<g>
		<g>
			<g>
				<path class="st2" d="M760.4,507.3c0-109.3-88.6-197.9-197.9-197.9c-109.3,0-198.3,89.3-197.9,198.6
					c0.2,54.3,22.2,103.4,57.8,139c27.7,27.7,47.9,62,58.1,99.8l16,59h129.7l15.1-55.9c10.4-38.6,31.4-73.5,59.9-101.6
					C737.7,612.5,760.4,562.5,760.4,507.3z"/>
				<path class="st3" d="M592.5,875h-63.2c-17.9,0-33.3-13.2-34.3-30l-5.3-64.8l143.2-0.9l-6.1,65.7
					C625.7,861.7,610.4,875,592.5,875z"/>
			</g>
			<path class="st4" d="M620,807.5c-40,1.7-80.2-0.3-120.2,1.4c-3.6,0.2-3.3,5.3,0.2,5.5c40,1.3,80.2-1.2,120.2,0.1
				C624.7,814.6,624.5,807.3,620,807.5z"/>
			<path class="st4" d="M620,824.9c-40,1.7-80.2-0.3-120.2,1.4c-3.6,0.2-3.3,5.3,0.2,5.5c40,1.3,80.2-1.2,120.2,0.1
				C624.7,832,624.5,824.7,620,824.9z"/>
		</g>
		<g>
			<path class="st2" d="M578.6,208.7c0,12.8-6.8,58.6-15.1,58.6c-8.4,0-15.1-45.8-15.1-58.6s6.8-23.1,15.1-23.1
				C571.8,185.7,578.6,196,578.6,208.7z"/>
			<path class="st2" d="M767.3,279.2c-9.7,8.3-40,43.3-34.6,49.7c5.5,6.3,44.6-18.4,54.3-26.7c9.7-8.3,13.1-20.2,7.6-26.5
				C789.3,269.3,777,270.8,767.3,279.2z"/>
			<path class="st2" d="M840.9,483.8c-12.7,1.6-59,0.7-60-7.6c-1.1-8.3,43.6-20.8,56.2-22.4c12.7-1.6,23.8,3.8,24.8,12.1
				C862.9,474.1,853.5,482.1,840.9,483.8z"/>
			<path class="st2" d="M376.9,263.9c10,7.9,42,41.5,36.8,48.1c-5.2,6.6-45.4-16.3-55.5-24.2c-10-7.9-14-19.6-8.8-26.2
				C354.6,255,366.9,256.1,376.9,263.9z"/>
			<path class="st2" d="M281.1,451c12.7,1.6,59,0.7,60-7.6c1.1-8.3-43.6-20.8-56.2-22.4c-12.7-1.6-23.8,3.8-24.8,12.1
				C259.1,441.3,268.5,449.4,281.1,451z"/>
		</g>
		<g>
			<path class="st5" d="M647.9,608c-6.4-4.7-11.3-10.7-14.9-17.6c7.2-8.9,10.3-20.8,11.7-31.9c0.8-6.8,1-13.6,1.1-20.4
				c0.1-6.6-0.8-12.1-6.3-16.2c-5-3.6-11.6-0.4-15.4,3.2c-4.4,4.1-6.5,10.8-8.2,16.3c-3.4,11.2-3.4,23.3-1.2,34.7
				c0.7,4,1.9,7.9,3.3,11.7c-2.8,2.2-6,3.9-9.5,5.1c-10.8,3.5-19-2.8-24-12c-0.8-1.5-1.6-3.1-2.3-4.8c0.9-2.3,1.7-4.6,2.4-6.8
				c3.7-11,5.7-22.4,6.6-33.9c0.8-9.5,1-20.9-8.1-26.6c-2.9-1.8-6.3-0.4-8.1,2.1c-13.4,18.6-12.6,43.2-5.4,64.3
				c-2.3,5.6-5.1,11-8.1,16.3c-3.4,5.8-9.8,14.7-17.6,13.6c-7.2-1.1-13-10.1-16.6-15.8c-2.6-4.1-4.7-8.5-6.3-13.1
				c0.9-2.4,1.8-4.9,2.6-7.3c3.1-9.7,4.8-19.9,5.6-30.1c0.7-8.5,0.9-20.4-8.3-24.5c-2.7-1.2-6.7-1.1-8.1,2.1
				c-8.1,18.1-9.7,38-4.6,57.3c0.2,0.7,0.4,1.3,0.6,1.9c-5.6,14.3-14.2,27.6-24.6,38.9c-4.7,5.1,2.7,12.5,7.6,7.6
				c9.3-9.5,17-20.2,23-31.9c1.8,3.4,3.8,6.6,6,9.7c6.1,8.4,13.7,16.3,24.6,16.8c10.2,0.6,18.5-8,24-15.5c2.6-3.6,5-7.5,7-11.5
				c5,8,12.2,14.3,22,15.6c9,1.3,17.8-1.5,25.2-6.5c4.3,7.4,9.9,14,16.5,19.5C647.2,624.8,655.7,613.8,647.9,608z M579.7,525.5
				c0.4,4.7-0.7,10.6-0.9,13.5c-0.5,5.2-1.4,10.5-2.6,15.6C575,544.4,575.8,534.1,579.7,525.5z M626,555.3c0.4-4.9,1.7-9.8,3.3-14.4
				c0.7-2.1,1.7-4.1,2.9-6c0.1-0.1,0.5-0.7,0.9-1.2c0.1,0.3,0.2,0.8,0.2,1.4c0.6,12-0.4,25-4.1,36.4c-0.5,1.4-1,2.8-1.6,4.1
				C626,569.1,625.5,562.1,626,555.3z"/>
			<path class="st5" d="M659.2,578.9c-21,64.2-43.2,128.1-67,191.4c-2.8,7.6,8.8,12.2,11.7,4.6c23.7-63.4,45.7-127.3,65.5-192
				C671.3,576.3,661.4,572.2,659.2,578.9z"/>
			<path class="st5" d="M467.8,574.9c16.8,65.5,32.5,131.3,46.4,197.4c1.7,7.9,14,5.6,12.3-2.3c-14.1-66.2-29.9-131.9-48-197.1
				C476.6,566.1,466,568,467.8,574.9z"/>
		</g>
	</g>
</g>
<g id="Text">
	<g>
		<path class="st6" d="M442.7,1035.6v-71.5h4.8v71.5H442.7z"/>
		<path class="st6" d="M491.5,970.1c10,0,18.3,3.1,25,9.3c6.7,6.2,10,14.5,10,25.1c0,10.6-3.1,18.6-9.3,23.9c-6.2,5.3-14.1,8-23.8,8
			c-6.7,0-13.7-0.3-20.8-1v-64.7C478,970.3,484.3,970.1,491.5,970.1z M493.5,1032.2c8.5,0,15.4-2.3,20.5-6.9
			c5.2-4.6,7.8-11.5,7.8-20.8c0-9.3-2.9-16.6-8.8-22.1c-5.8-5.5-13-8.2-21.5-8.2c-6.1,0-10.7,0.1-14,0.4v56.9
			C481.5,1031.9,486.8,1032.2,493.5,1032.2z"/>
		<path class="st6" d="M546.6,1035.6v-64.9h30.3v4h-25.7v23.6h23.2v3.9h-23.2v29.2h26.7v4.2H546.6z"/>
		<path class="st6" d="M599.5,1013.1l-9.3,22.5h-4.7l27.2-65.3h2.7l27.4,65.3h-5.1l-9.4-22.5H599.5z M613.8,977.7
			c-1,3-1.9,5.5-2.7,7.5l-10,24h25.6l-9.9-23.9C615.3,981.5,614.3,979,613.8,977.7z"/>
		<path class="st6" d="M669.1,973.5c-3.6,0-6.5,0.9-8.8,2.6c-2.3,1.7-3.4,4.2-3.4,7.3c0,3.6,1.5,6.8,4.5,9.7
			c2.1,2.1,4.9,4.3,8.3,6.5c3.4,2.3,5.7,4,7,5c1.3,1,2.8,2.4,4.6,4.1c3.3,3.3,4.9,7,4.9,11.3c0,5.5-1.8,9.7-5.6,12.6
			c-3.7,2.8-8.9,4.3-15.5,4.3c-6.6,0-12.2-1.7-16.6-5.2l2.4-3.5c4.5,3.1,9.3,4.6,14.4,4.6s9-1.1,11.8-3.2c2.8-2.1,4.3-5.1,4.3-9
			c0-3.3-1.4-6.4-4.3-9.2c-2-2-4.7-4.2-8.1-6.5c-3.4-2.3-5.7-4-7-5.1c-1.3-1-2.9-2.4-4.7-4.1c-3.4-3.4-5.1-7.3-5.1-11.8
			c0-4.5,1.6-8,4.8-10.5c3.2-2.5,7.5-3.8,13.2-3.8c5.6,0,10.6,1.1,15.1,3.3l-1.7,3.7C679.3,974.5,674.5,973.5,669.1,973.5z"/>
	</g>
</g>
</svg>
