<svg width="22" height="26" viewBox="0 0 22 26" fill="none" xmlns="http://www.w3.org/2000/svg">
<g id="bulb">
<path id="bulb-glass" d="M15.5864 17.0384L15.5865 17.0382C16.7814 15.8103 17.5252 14.0945 17.5252 12.1993C17.5252 8.44502 14.6218 5.40981 11.0498 5.40981C7.47797 5.40981 4.56136 8.46917 4.57447 12.2233C4.58102 14.0878 5.3019 15.7726 6.46725 16.9936C7.39927 17.9702 8.07895 19.1794 8.42216 20.512L8.93434 22.4909H13.0888L13.5711 20.62L15.5864 17.0384ZM15.5864 17.0384C14.6278 18.0286 13.9212 19.2588 13.5712 20.6199L15.5864 17.0384Z" fill="#F4D242" stroke="black" stroke-width="0.2"/>
<g id="Group">
<path id="Vector" d="M12.0467 25H9.94684C9.3521 25 8.84042 24.5405 8.8072 23.9556L8.6311 21.6997L13.389 21.6684L13.1863 23.9556C13.1498 24.537 12.6414 25 12.0467 25Z" fill="#59595B" stroke="black" stroke-width="0.2"/>
<path id="Vector_2" d="M12.9603 22.6501C11.6313 22.7093 10.2956 22.6397 8.9666 22.6989C8.84699 22.7058 8.85695 22.8834 8.97324 22.8903C10.3023 22.9356 11.6379 22.8486 12.967 22.8938C13.1165 22.8973 13.1098 22.6432 12.9603 22.6501Z" fill="#808183" stroke="black" stroke-width="0.2"/>
<path id="Vector_3" d="M12.9603 23.2559C11.6313 23.3151 10.2956 23.2454 8.9666 23.3046C8.84699 23.3116 8.85695 23.4891 8.97324 23.4961C10.3023 23.5413 11.6379 23.4543 12.967 23.4996C13.1165 23.503 13.1098 23.2489 12.9603 23.2559Z" fill="#808183" stroke="black" stroke-width="0.2"/>
</g>
<g id="spark">
<path id="Vector_4" d="M11.5848 1.80418C11.5848 2.24978 11.3588 3.84421 11.0831 3.84421C10.804 3.84421 10.5814 2.24978 10.5814 1.80418C10.5814 1.35857 10.8073 1 11.0831 1C11.3588 1.00348 11.5848 1.36205 11.5848 1.80418Z" fill="#F4D242" stroke="black" stroke-width="0.2"/>
<path id="Vector_5" d="M17.8544 4.25849C17.5322 4.54743 16.5254 5.76588 16.7048 5.98869C16.8876 6.20801 18.1867 5.34813 18.509 5.05918C18.8313 4.77024 18.9442 4.35596 18.7615 4.13664C18.5854 3.91384 18.1767 3.96606 17.8544 4.25849Z" fill="#F4D242" stroke="black" stroke-width="0.2"/>
<path id="Vector_6" d="M20.2998 11.3812C19.8778 11.4369 18.3395 11.4056 18.3063 11.1166C18.2697 10.8277 19.7549 10.3925 20.1735 10.3368C20.5955 10.2811 20.9643 10.4691 20.9975 10.7581C21.0308 11.0435 20.7184 11.322 20.2998 11.3812Z" fill="#F4D242" stroke="black" stroke-width="0.2"/>
<path id="Vector_7" d="M4.88316 3.72585C5.21541 4.00087 6.27863 5.17058 6.10586 5.40035C5.93309 5.63011 4.59742 4.8329 4.26184 4.55788C3.92958 4.28285 3.79668 3.87554 3.96945 3.64578C4.14223 3.41601 4.5509 3.45431 4.88316 3.72585Z" fill="#F4D242" stroke="black" stroke-width="0.2"/>
<path id="Vector_8" d="M1.70016 10.2393C2.12213 10.295 3.66047 10.2637 3.6937 9.97476C3.73024 9.68581 2.24506 9.25065 1.82642 9.19495C1.40445 9.13925 1.03565 9.32724 1.00242 9.61619C0.969198 9.90165 1.28152 10.1836 1.70016 10.2393Z" fill="#F4D242" stroke="black" stroke-width="0.2"/>
</g>
<g id="Group_2">
<path id="Vector_9" d="M13.8873 15.705C13.6746 15.5413 13.5118 15.3325 13.3922 15.0923C13.6314 14.7824 13.7344 14.3682 13.781 13.9817C13.8075 13.745 13.8142 13.5083 13.8175 13.2715C13.8208 13.0418 13.7909 12.8503 13.6082 12.7076C13.4421 12.5823 13.2228 12.6936 13.0965 12.819C12.9503 12.9617 12.8805 13.195 12.8241 13.3864C12.7111 13.7763 12.7111 14.1976 12.7842 14.5944C12.8074 14.7337 12.8473 14.8695 12.8938 15.0017C12.8008 15.0783 12.6945 15.1375 12.5782 15.1793C12.2194 15.3011 11.9469 15.0818 11.7808 14.7615C11.7542 14.7093 11.7276 14.6536 11.7044 14.5944C11.7343 14.5144 11.7608 14.4343 11.7841 14.3577C11.907 13.9748 11.9735 13.5779 12.0034 13.1776C12.03 12.8468 12.0366 12.45 11.7343 12.2515C11.6379 12.1889 11.5249 12.2376 11.4651 12.3246C11.0199 12.9722 11.0465 13.8286 11.2857 14.5631C11.2093 14.7581 11.1163 14.946 11.0166 15.1306C10.9036 15.3325 10.691 15.6423 10.4318 15.604C10.1926 15.5657 9.99989 15.2524 9.88027 15.054C9.79389 14.9112 9.72411 14.7581 9.67095 14.5979C9.70086 14.5144 9.73076 14.4273 9.75734 14.3438C9.86034 14.0061 9.91682 13.651 9.9434 13.2959C9.96666 13 9.97331 12.5857 9.66763 12.443C9.57792 12.4012 9.44502 12.4047 9.3985 12.5161C9.12938 13.1462 9.07622 13.839 9.24567 14.5109C9.25231 14.5353 9.25896 14.5561 9.2656 14.577C9.07954 15.0749 8.7938 15.5379 8.44825 15.9312C8.29209 16.1088 8.53796 16.3664 8.70077 16.1958C9.00976 15.8651 9.2656 15.4926 9.46495 15.0853C9.52476 15.2037 9.59121 15.3151 9.66431 15.423C9.86698 15.7154 10.1195 15.9904 10.4817 16.0078C10.8206 16.0287 11.0963 15.7293 11.2791 15.4682C11.3655 15.3429 11.4452 15.2071 11.5117 15.0679C11.6778 15.3464 11.917 15.5657 12.2426 15.611C12.5416 15.6562 12.834 15.5588 13.0799 15.3847C13.2228 15.6423 13.4088 15.8721 13.6281 16.0635C13.864 16.2898 14.1464 15.9069 13.8873 15.705ZM11.6213 12.8329C11.6346 12.9965 11.598 13.2019 11.5914 13.3029C11.5748 13.4839 11.5449 13.6684 11.505 13.846C11.4651 13.4909 11.4917 13.1323 11.6213 12.8329ZM13.1596 13.8703C13.1729 13.6997 13.2161 13.5292 13.2693 13.369C13.2925 13.2959 13.3258 13.2263 13.3656 13.1601C13.369 13.1567 13.3822 13.1358 13.3955 13.1184C13.3989 13.1288 13.4022 13.1462 13.4022 13.1671C13.4221 13.5849 13.3889 14.0374 13.266 14.4343C13.2493 14.483 13.2327 14.5318 13.2128 14.577C13.1596 14.3507 13.143 14.1071 13.1596 13.8703Z" fill="white" stroke="black" stroke-width="0.2"/>
<path id="Vector_10" d="M14.2627 14.6919C13.565 16.9269 12.8274 19.1514 12.0366 21.3551C11.9436 21.6197 12.329 21.7798 12.4253 21.5152C13.2128 19.3081 13.9437 17.0836 14.6016 14.8312C14.6647 14.6014 14.3358 14.4587 14.2627 14.6919Z" fill="white" stroke="black" stroke-width="0.2"/>
<path id="Vector_11" d="M7.90335 14.5527C8.46154 16.8329 8.98319 19.1236 9.44502 21.4247C9.5015 21.6997 9.91018 21.6197 9.8537 21.3446C9.38521 19.04 8.86025 16.7528 8.25887 14.483C8.19574 14.2463 7.84355 14.3124 7.90335 14.5527Z" fill="white" stroke="black" stroke-width="0.2"/>
</g>
</g>
</svg>
