<svg width="1122" height="1122" viewBox="0 0 1122 1122" fill="none" xmlns="http://www.w3.org/2000/svg">
<g id="bulb">
<path id="bulb-glass" d="M784.586 720.038L784.587 720.038C785.781 718.81 786.525 717.095 786.525 715.199C786.525 711.445 783.622 708.41 780.05 708.41C776.478 708.41 773.561 711.469 773.574 715.223C773.581 717.088 774.302 718.773 775.467 719.994C776.399 720.97 777.079 722.179 777.422 723.512L777.934 725.491H782.089L782.571 723.62L784.586 720.038ZM784.586 720.038C783.628 721.029 782.921 722.259 782.571 723.62L784.586 720.038Z" fill="#F4D242" stroke="black" stroke-width="0.2"/>
<g id="Group">
<g id="Group_2">
<path id="Vector" d="M781.047 728H778.947C778.352 728 777.84 727.54 777.807 726.956L777.631 724.7L782.389 724.668L782.186 726.956C782.15 727.537 781.641 728 781.047 728Z" fill="#59595B" stroke="black" stroke-width="0.2"/>
<path id="Vector_2" d="M781.96 725.65C780.631 725.709 779.296 725.64 777.967 725.699C777.847 725.706 777.857 725.883 777.973 725.89C779.302 725.936 780.638 725.849 781.967 725.894C782.116 725.897 782.11 725.643 781.96 725.65Z" fill="#808183" stroke="black" stroke-width="0.2"/>
<path id="Vector_3" d="M781.96 726.256C780.631 726.315 779.296 726.245 777.967 726.305C777.847 726.312 777.857 726.489 777.973 726.496C779.302 726.541 780.638 726.454 781.967 726.5C782.116 726.503 782.11 726.249 781.96 726.256Z" fill="#808183" stroke="black" stroke-width="0.2"/>
</g>
<g id="spark">
<path id="Vector_4" d="M780.585 704.804C780.585 705.25 780.359 706.844 780.083 706.844C779.804 706.844 779.581 705.25 779.581 704.804C779.581 704.359 779.807 704 780.083 704C780.359 704.003 780.585 704.362 780.585 704.804Z" fill="#F4D242" stroke="black" stroke-width="0.2"/>
<path id="Vector_5" d="M786.854 707.258C786.532 707.547 785.525 708.766 785.705 708.989C785.888 709.208 787.187 708.348 787.509 708.059C787.831 707.77 787.944 707.356 787.762 707.137C787.585 706.914 787.177 706.966 786.854 707.258Z" fill="#F4D242" stroke="black" stroke-width="0.2"/>
<path id="Vector_6" d="M789.3 714.381C788.878 714.437 787.339 714.406 787.306 714.117C787.27 713.828 788.755 713.393 789.174 713.337C789.596 713.281 789.964 713.469 789.998 713.758C790.031 714.044 789.718 714.322 789.3 714.381Z" fill="#F4D242" stroke="black" stroke-width="0.2"/>
<path id="Vector_7" d="M773.883 706.726C774.215 707.001 775.279 708.171 775.106 708.4C774.933 708.63 773.597 707.833 773.262 707.558C772.93 707.283 772.797 706.876 772.969 706.646C773.142 706.416 773.551 706.454 773.883 706.726Z" fill="#F4D242" stroke="black" stroke-width="0.2"/>
<path id="Vector_8" d="M770.7 713.239C771.122 713.295 772.66 713.264 772.694 712.975C772.73 712.686 771.245 712.251 770.826 712.195C770.404 712.139 770.036 712.327 770.002 712.616C769.969 712.902 770.282 713.184 770.7 713.239Z" fill="#F4D242" stroke="black" stroke-width="0.2"/>
</g>
<g id="Group_3">
<path id="Vector_9" d="M782.887 718.705C782.675 718.541 782.512 718.332 782.392 718.092C782.631 717.782 782.734 717.368 782.781 716.982C782.808 716.745 782.814 716.508 782.818 716.272C782.821 716.042 782.791 715.85 782.608 715.708C782.442 715.582 782.223 715.694 782.097 715.819C781.95 715.962 781.881 716.195 781.824 716.386C781.711 716.776 781.711 717.198 781.784 717.594C781.807 717.734 781.847 717.869 781.894 718.002C781.801 718.078 781.694 718.138 781.578 718.179C781.219 718.301 780.947 718.082 780.781 717.762C780.754 717.709 780.728 717.654 780.704 717.594C780.734 717.514 780.761 717.434 780.784 717.358C780.907 716.975 780.973 716.578 781.003 716.178C781.03 715.847 781.037 715.45 780.734 715.252C780.638 715.189 780.525 715.238 780.465 715.325C780.02 715.972 780.046 716.829 780.286 717.563C780.209 717.758 780.116 717.946 780.017 718.131C779.904 718.332 779.691 718.642 779.432 718.604C779.193 718.566 779 718.252 778.88 718.054C778.794 717.911 778.724 717.758 778.671 717.598C778.701 717.514 778.731 717.427 778.757 717.344C778.86 717.006 778.917 716.651 778.943 716.296C778.967 716 778.973 715.586 778.668 715.443C778.578 715.401 778.445 715.405 778.399 715.516C778.129 716.146 778.076 716.839 778.246 717.511C778.252 717.535 778.259 717.556 778.266 717.577C778.08 718.075 777.794 718.538 777.448 718.931C777.292 719.109 777.538 719.366 777.701 719.196C778.01 718.865 778.266 718.493 778.465 718.085C778.525 718.204 778.591 718.315 778.664 718.423C778.867 718.715 779.119 718.99 779.482 719.008C779.821 719.029 780.096 718.729 780.279 718.468C780.365 718.343 780.445 718.207 780.512 718.068C780.678 718.346 780.917 718.566 781.243 718.611C781.542 718.656 781.834 718.559 782.08 718.385C782.223 718.642 782.409 718.872 782.628 719.064C782.864 719.29 783.146 718.907 782.887 718.705ZM780.621 715.833C780.635 715.997 780.598 716.202 780.591 716.303C780.575 716.484 780.545 716.668 780.505 716.846C780.465 716.491 780.492 716.132 780.621 715.833ZM782.16 716.87C782.173 716.7 782.216 716.529 782.269 716.369C782.293 716.296 782.326 716.226 782.366 716.16C782.369 716.157 782.382 716.136 782.396 716.118C782.399 716.129 782.402 716.146 782.402 716.167C782.422 716.585 782.389 717.037 782.266 717.434C782.249 717.483 782.233 717.532 782.213 717.577C782.16 717.351 782.143 717.107 782.16 716.87Z" fill="white" stroke="black" stroke-width="0.2"/>
<path id="Vector_10" d="M783.263 717.692C782.565 719.927 781.827 722.151 781.037 724.355C780.944 724.62 781.329 724.78 781.425 724.515C782.213 722.308 782.944 720.084 783.602 717.831C783.665 717.601 783.336 717.459 783.263 717.692Z" fill="white" stroke="black" stroke-width="0.2"/>
<path id="Vector_11" d="M776.903 717.553C777.462 719.833 777.983 722.124 778.445 724.425C778.502 724.7 778.91 724.62 778.854 724.345C778.385 722.04 777.86 719.753 777.259 717.483C777.196 717.246 776.844 717.312 776.903 717.553Z" fill="white" stroke="black" stroke-width="0.2"/>
</g>
</g>
</g>
</svg>
