<svg width="200" height="147" viewBox="0 0 200 147" fill="none" xmlns="http://www.w3.org/2000/svg">
<g id="boxLadder">
<g id="XMLID_224_">
<path id="XMLID_225_" d="M119.97 147H92V131.25H119.97V147ZM93.5539 146.25H118.727V132H93.5539V146.25Z" fill = ""/>
</g>
<g id="XMLID_220_">
<path id="XMLID_221_" d="M146.698 132.375H118.727V116.625H146.698V132.375ZM119.97 131.625H145.144V117.375H119.97V131.625Z" fill = ""/>
</g>
<g id="XMLID_216_">
<path id="XMLID_217_" d="M173.114 132.375H145.144V116.625H173.114V132.375ZM146.698 131.625H171.871V117.375H146.698V131.625Z" fill = ""/>
</g>
<g id="XMLID_212_">
<path id="XMLID_213_" d="M146.698 117.375H118.727V101.625H146.698V117.375ZM119.97 116.625H145.144V102.375H119.97V116.625Z" fill = ""/>
</g>
<g id="XMLID_208_">
<path id="XMLID_209_" d="M146.698 147H118.727V131.25H146.698V147ZM119.97 146.25H145.144V132H119.97V146.25Z" fill = ""/>
</g>
<g id="XMLID_204_">
<path id="XMLID_205_" d="M173.114 147H145.144V131.25H173.114V147ZM146.698 146.25H171.871V132H146.698V146.25Z" fill = ""/>
</g>
<g id="XMLID_200_">
<path id="XMLID_201_" d="M199.531 147H171.56V131.25H199.531V147ZM173.114 146.25H198.288V132H173.114V146.25Z" fill = ""/>
</g>
<g id="XMLID_196_">
<path id="XMLID_197_" d="M119.97 132.375H92V116.625H119.97V132.375ZM93.5539 131.625H118.727V117.375H93.5539V131.625Z" fill = ""/>
</g>
<g id="XMLID_192_">
<path id="XMLID_193_" d="M119.97 117.375H92V101.625H119.97V117.375ZM93.5539 116.625H118.727V102.375H93.5539V116.625Z" fill = ""/>
</g>
<g id="XMLID_188_">
<path id="XMLID_189_" d="M119.97 102.75H92V87H119.97V102.75ZM93.5539 102H118.727V87.75H93.5539V102Z" fill = ""/>
</g>
<path id="XMLID_73_" d="M112.786 0H74.1164V2.1345H111.819L151.133 31.4843H74.1164V33.6188H152.1V116.865H43.8253V78.9776H41.2474V115.798L2.57795 85.9148V78.9776H0V86.982L41.2474 119H155V31.4843L112.786 0Z" fill = ""/>
</g>
</svg>
