<svg width="259" height="248" viewBox="0 0 259 248" fill="none" xmlns="http://www.w3.org/2000/svg">
<g id="compositeShape">
<g id="XMLID_929_">
<path id="XMLID_930_" d="M149.41 185.701C89.0403 185.701 39.8205 144.106 39.8205 92.8504C39.8205 41.5944 89.0403 0 149.41 0C209.78 0 259 41.5944 259 92.8504C259 143.943 209.78 185.701 149.41 185.701ZM149.41 0.818787C89.5182 0.818787 40.7762 42.0856 40.7762 92.8504C40.7762 143.615 89.5182 184.882 149.41 184.882C209.302 184.882 258.044 143.615 258.044 92.8504C257.885 42.0856 209.302 0.818787 149.41 0.818787Z" fill="black"/>
</g>
<path id="XMLID_1015_" d="M222.803 150.937L182.099 114.987L130.34 129.128L119.284 179.22L159.887 215.476L211.646 201.335L222.803 150.937Z" fill = "" fill-opacity="0.64"/>
<g id="XMLID_970_">
<path id="XMLID_971_" d="M173.807 141.263L214.996 170.588L215.036 170.826L210.439 220.784L210.048 220.85L164.497 241.688L123.309 212.363L123.269 212.125L127.866 162.167L128.257 162.101L173.807 141.263ZM213.707 171.293L173.658 142.756L129.046 163.193L124.483 212.167L164.532 240.704L209.144 220.267L213.707 171.293Z" fill="black"/>
</g>
<path id="XMLID_1010_" d="M78.736 39.6725L39.296 92.5693L0 39.6725H78.736Z" fill = "" fill-opacity="0.71"/>
</g>
</svg>
