<svg width="368" height="222" viewBox="0 0 368 222" fill="none" xmlns="http://www.w3.org/2000/svg">
<path id="curlyRings" d="M0.929067 138.722C2.80688 154.074 13.6687 172.178 30.8926 188.508C46.8684 203.46 65.9617 214.869 81.808 218.602C128.723 229.998 148.053 210.898 178.231 175.85C180.601 173.093 182.97 170.336 185.215 167.777C198.682 152.025 210.155 138.242 226.62 130.362C244.707 121.694 266.79 121.291 296.361 128.955C314.703 133.671 329.924 132.09 341.648 124.212C366.593 107.275 367.2 66.9242 367.325 66.1368C368.935 36.8085 363.562 17.1278 351.206 7.48826C345.341 2.96361 338.103 0.801444 329.121 0.805177C325.003 0.806889 320.512 1.20244 315.772 2.18856C308.786 3.56927 301.801 9.08341 294.443 14.9914C279.601 26.8073 262.888 40.0019 239.178 27.2178C225.326 19.744 210.853 17.9785 197.131 21.9208C180.415 27.0454 165.574 40.8296 157.597 58.9412C154.855 65.0441 151.737 69.3757 148.121 72.7233C147.248 73.1173 146.25 73.3145 145.376 73.7086C144.254 74.1027 143.006 74.4969 141.884 74.891C139.888 75.4823 137.767 76.0737 135.771 76.665C134.149 77.0593 132.528 77.4537 130.781 77.8481C129.159 78.2424 127.537 78.4399 125.916 78.8342C124.419 79.0317 122.922 79.426 121.3 79.6235C119.803 79.8209 118.306 80.0184 116.809 80.2158C116.31 80.2161 115.686 80.4132 115.187 80.4134C114.314 80.6106 113.44 80.6109 112.567 80.8081C111.195 81.0055 109.822 81.2029 108.325 81.2035C106.953 81.4009 105.705 81.4014 104.333 81.5988C102.961 81.5994 101.713 81.7967 100.341 81.9941C99.0932 81.9947 97.7209 82.1921 96.4732 82.1926C95.2256 82.1931 93.9781 82.3905 92.6057 82.391C74.5155 82.9891 53.1822 85.5567 28.2347 97.18C8.27676 106.833 -1.19917 121.205 0.929067 138.722ZM91.2412 101.287C88.3741 107.193 90.7478 114.869 97.2379 120.771C100.733 123.919 106.847 127.853 116.455 129.227C125.438 130.404 135.169 129.022 145.273 124.884C161.988 118.185 171.592 112.079 179.45 106.565C180.074 106.171 180.697 105.58 181.321 105.186C192.297 97.3086 200.154 91.5973 223.609 90.0129C229.223 89.617 234.837 88.6304 240.825 87.6438C244.942 87.0516 249.184 86.2625 253.675 85.6702C253.924 85.6701 254.049 85.67 254.299 85.6699C252.178 86.0645 250.182 86.6558 248.186 87.2471C240.95 89.0216 234.089 90.7959 226.354 90.996C201.402 91.5968 193.046 98.0957 181.322 106.958C180.573 107.549 179.7 108.14 178.952 108.73C169.723 115.82 159.869 121.729 142.529 128.035C127.935 133.355 107.599 134.348 94.3688 121.953C87.8787 115.854 85.505 108.179 88.2474 102.469C89.9926 98.9258 93.3601 96.3656 98.1005 94.9859C94.2336 96.7589 92.2385 99.3185 91.2412 101.287ZM101.469 94.3939C98.3503 95.773 96.1054 97.7423 94.8589 100.302C91.9917 106.011 94.3653 113.489 100.731 119.195C104.849 122.736 120.449 133.752 147.891 121.34C163.983 114.051 173.088 108.142 180.322 103.415C194.791 93.9615 202.524 88.8407 246.813 86.0667C244.817 86.4612 242.821 86.6589 240.95 87.0533C234.962 88.0399 229.348 89.0264 223.734 89.4224C200.154 91.0068 192.172 96.7182 181.071 104.793C180.448 105.187 179.824 105.777 179.2 106.171C170.096 112.671 160.865 118.186 145.148 124.491C130.803 130.205 110.842 132.181 97.8615 120.377C91.4963 114.672 89.1227 107.193 91.9899 101.484C93.6104 98.137 96.8532 95.7737 101.469 94.3939ZM87.8729 102.076C85.0059 108.179 87.3797 116.051 94.1195 122.347C97.6142 125.691 103.979 130.019 113.836 131.786C122.944 133.357 132.8 132.369 143.029 128.625C160.493 122.319 170.347 116.41 179.576 109.321C180.449 108.73 181.197 108.139 181.946 107.548C193.42 98.686 201.777 92.384 226.479 91.7832C234.214 91.5832 241.2 89.8088 248.436 88.0343C251.555 87.2457 254.673 86.4571 258.042 85.6684C258.166 85.6683 258.416 85.6682 258.541 85.6682C259.04 85.6679 259.414 85.6678 259.788 85.6676C257.917 86.2589 256.046 86.8502 254.175 87.4414C246.565 90.0034 238.831 92.7622 229.224 92.5694C228.601 92.5696 227.977 92.5699 227.353 92.5702C202.401 92.5805 193.171 100.064 181.697 109.32C180.824 110.107 179.951 110.698 178.953 111.486C169.225 119.363 158.872 125.666 140.16 131.579C117.582 138.871 99.9874 132.186 91.1257 123.529C84.5107 117.233 82.0121 109.164 84.8791 103.258C86.6243 99.5177 90.366 96.7605 95.4806 95.1838C91.9879 96.7599 89.2441 99.123 87.8729 102.076ZM84.38 103.062C81.513 109.165 84.0117 117.43 90.7516 124.12C95.9937 129.038 102.857 132.578 110.843 134.347C120.201 136.311 130.056 135.52 140.535 132.366C159.372 126.453 169.724 119.953 179.577 112.076C180.45 111.288 181.448 110.501 182.321 109.91C194.045 100.457 203.274 92.9738 229.474 93.3566C239.081 93.5494 247.065 90.7905 254.674 88.2286C257.294 87.2433 259.913 86.4549 262.658 85.6664C263.531 85.6661 264.28 85.4689 265.153 85.4686C263.407 86.2566 261.785 86.8478 260.039 87.6358C252.055 91.1821 243.698 94.7285 232.344 94.3395C204.397 93.1702 194.544 101.441 182.072 112.075C181.075 112.863 180.077 113.651 179.079 114.635C168.478 123.497 158.001 129.997 137.916 135.713C114.963 142.218 97.1189 134.746 88.0076 125.892C81.1428 119.006 78.6442 110.937 81.5111 104.637C83.3809 100.7 87.2473 97.746 92.8609 95.9722C88.869 97.1548 85.8758 99.7149 84.38 103.062ZM80.887 103.85C77.8954 110.347 80.3941 118.613 87.5085 125.696C96.7447 134.943 114.838 142.218 138.041 135.713C158.126 129.997 168.852 123.3 179.453 114.438C180.451 113.65 181.449 112.863 182.447 111.878C194.794 101.441 204.522 93.1701 232.219 94.3396C243.698 94.9253 252.055 91.1821 260.163 87.6358C262.533 86.6506 264.903 85.6655 267.149 84.6804C267.273 84.6804 267.398 84.6803 267.398 84.6803C265.777 85.4683 264.28 86.4531 262.658 87.2411C255.299 91.3776 246.942 96.1049 234.965 95.3226C205.395 93.3666 195.168 102.425 182.073 113.847C181.075 114.831 180.078 115.619 178.955 116.604C167.481 126.647 156.755 133.343 135.422 138.667C112.219 144.384 94.1253 136.322 84.7642 126.878C77.7746 119.795 75.1511 111.332 78.0179 104.836C79.8875 100.505 84.1281 97.3536 90.2407 95.5796C85.7501 97.5498 82.6322 100.307 80.887 103.85ZM77.5189 104.836C74.5273 111.529 77.1509 120.189 84.2654 127.469C93.6266 137.109 112.095 145.172 135.548 139.454C157.004 134.131 167.856 127.237 179.33 117.194C180.452 116.209 181.45 115.421 182.448 114.437C195.418 103.015 205.645 93.957 234.84 96.11C247.067 96.8923 255.424 92.1649 262.908 88.0283C265.029 86.8465 267.024 85.6646 269.02 84.6796C270.143 84.4823 271.266 84.4819 272.389 84.2846C270.892 85.2694 269.27 86.2542 267.774 87.239C260.04 92.3598 251.434 98.0714 237.71 96.8961C206.643 94.1534 195.793 103.999 182.074 116.405C180.952 117.39 179.954 118.375 178.832 119.359C166.734 130.19 155.259 137.477 132.929 142.211C109.476 147.338 91.0071 138.488 81.5211 128.651C74.4066 121.174 71.6581 112.318 74.6497 105.821C76.2701 102.278 79.8865 98.1427 88.3694 95.7772C83.1302 97.7477 79.2638 100.702 77.5189 104.836ZM74.1506 105.625C71.1592 112.515 73.7829 121.568 81.1471 129.241C90.7579 139.276 109.476 148.125 133.179 142.998C155.758 138.068 167.234 130.78 179.331 119.949C180.453 118.965 181.576 117.98 182.574 116.996C189.558 110.694 195.544 105.18 203.652 101.634C212.633 97.6939 223.487 96.3115 237.586 97.6835C251.559 98.8587 260.29 93.147 268.148 88.0261C270.144 86.6475 272.14 85.4657 274.01 84.2839C275.258 84.0866 276.381 83.8893 277.628 83.6919C276.132 84.6767 274.51 85.8584 272.889 87.2369C265.405 92.948 255.927 100.235 240.58 98.4695C207.891 94.9402 196.542 105.574 182.2 118.964C181.078 119.949 179.955 121.13 178.833 122.115C165.738 134.127 154.138 141.611 130.56 145.951C106.857 150.291 88.1386 140.851 78.4028 130.423C70.9137 122.356 68.2901 113.5 71.2815 106.61C73.4004 101.688 78.2645 97.9465 85.3752 95.9753C78.6391 98.5369 75.5217 102.475 74.1506 105.625ZM273.137 83.6938C273.386 83.6937 273.761 83.6935 274.01 83.4966C273.636 83.6936 273.386 83.6937 273.137 83.6938ZM275.757 83.2991L275.881 83.299C277.004 83.1017 278.127 82.9044 279.25 82.7071C279.125 82.7071 279.125 82.7072 279 82.904C277.878 83.1013 276.88 83.1018 275.757 83.2991ZM70.6577 106.61C67.5416 113.697 70.2902 122.947 77.904 131.014C87.7645 141.442 106.732 151.079 130.685 146.739C154.388 142.398 166.112 134.914 179.332 122.705C180.455 121.72 181.577 120.539 182.699 119.554C196.917 106.164 208.141 95.7274 240.456 99.2569C256.176 101.022 265.655 93.7352 273.263 87.8272C275.259 86.2517 277.255 84.8731 279.125 83.6913C280.373 83.4939 281.621 83.2966 282.868 82.9024C281.247 84.0841 279.625 85.4626 277.879 87.0379C270.147 93.7334 260.544 102.201 243.326 100.043C209.014 95.7271 197.291 107.148 182.326 121.523C181.204 122.704 179.956 123.689 178.709 124.87C164.492 138.261 152.892 145.745 128.066 149.692C104.113 153.442 84.6461 142.821 75.1598 132.393C67.5459 124.129 64.7973 114.879 67.7885 107.596C70.032 102.28 75.2704 98.3415 83.0048 96.1731C75.645 98.9318 72.1533 103.067 70.6577 106.61ZM312.178 60.4517C311.928 60.8454 311.554 61.2393 311.18 61.6331C311.554 61.2393 311.804 60.8455 312.178 60.4517ZM312.052 57.6961C312.051 56.1215 311.676 54.547 310.677 52.7759C307.681 47.6596 298.697 44.5141 285.721 43.7321C299.321 44.317 307.181 46.4788 310.302 50.8078C312.05 53.169 312.55 55.334 312.052 57.6961ZM316.665 51.1988C316.539 48.0496 314.542 45.8853 311.547 43.5246C306.68 39.7868 297.198 40.3813 285.221 40.9767C283.599 40.9774 281.853 41.1749 280.106 41.1756C283.1 40.9776 285.97 40.7796 288.714 40.3848C298.944 39.3964 306.929 38.8026 311.421 41.5563C314.292 43.3266 317.037 45.4906 317.538 48.8365C318.038 52.5761 315.67 57.8914 310.183 64.7827C310.433 64.1921 310.682 63.6015 310.931 63.011C314.922 58.2854 316.791 54.348 316.665 51.1988ZM285.221 41.5672C297.073 40.9718 306.43 40.3774 311.048 43.9185C313.918 46.0824 315.791 48.0499 315.917 51.0023C316.042 53.3642 314.921 56.1203 312.801 59.2704C314.297 56.9078 315.045 54.9392 315.169 53.1677C315.292 49.8215 313.295 47.4604 311.298 45.6898C306.306 40.968 295.202 41.1694 281.229 41.7657C282.601 41.7651 283.974 41.7646 285.221 41.5672ZM310.799 46.2805C312.796 48.2479 314.669 50.2155 314.545 53.3648C314.546 54.349 314.172 55.5301 313.673 56.7113C313.798 56.3176 313.798 55.9239 313.922 55.727C314.42 52.5776 312.672 50.0195 311.175 48.2486C306.681 43.3297 295.951 42.3501 282.602 42.5524C295.826 41.9565 306.181 41.9521 310.799 46.2805ZM310.551 48.4457C312.798 51.0036 313.547 52.9716 313.174 55.3337C313.049 55.7274 312.925 56.3179 312.8 56.7117C313.049 54.5464 312.424 52.5784 310.801 50.2171C306.806 44.7075 295.827 42.9406 284.224 42.7486C296.575 42.9403 306.432 43.9203 310.551 48.4457ZM310.054 52.973C311.177 54.744 311.552 56.5153 311.303 58.0901C311.178 56.9091 310.803 55.9251 310.429 54.9411C307.432 48.447 296.701 45.1053 285.222 44.126C298.073 44.9079 307.182 48.0534 310.054 52.973ZM309.805 55.3351C310.554 56.9094 310.805 58.6808 310.805 60.2554C310.805 59.0744 310.555 58.0904 310.18 57.3032C308.057 51.2024 299.197 46.6789 287.843 45.109C299.072 46.2853 307.432 50.0217 309.805 55.3351ZM310.057 60.4526C310.057 60.2557 309.932 59.8621 309.932 59.6653C308.432 53.3674 300.445 48.4499 290.463 46.0921C300.195 48.0563 307.683 52.1867 309.557 57.5003C309.806 58.2875 309.932 59.2716 310.057 60.4526ZM309.183 59.8624C309.308 60.256 309.308 60.6497 309.433 61.0433C307.684 54.3518 298.948 48.6474 288.592 46.4866C299.197 48.2536 307.683 53.3676 309.183 59.8624ZM308.935 62.0276C308.435 60.4532 307.561 58.6821 306.188 56.9112C302.942 52.7791 297.701 49.6321 291.836 47.863C300.82 50.4181 308.059 55.9263 308.935 62.0276ZM308.686 64.7833C306.317 67.5399 303.449 70.4936 299.832 73.8412C298.834 74.4321 297.711 75.0231 296.464 75.6141C301.702 71.4785 305.818 67.737 308.686 64.7833C308.686 64.7833 308.686 64.5865 308.686 64.7833ZM295.717 78.37C295.966 78.1731 296.215 77.9761 296.465 77.7792C298.087 76.9912 299.583 76.4001 300.831 75.6122C300.581 75.8092 300.332 76.203 299.958 76.4C298.71 77.1878 297.214 77.7789 295.717 78.37ZM298.711 77.7783C298.711 77.7783 298.586 77.7783 298.586 77.9752C298.461 77.9752 298.461 77.9752 298.336 77.9753C298.461 77.9752 298.586 77.7783 298.711 77.7783ZM292.473 78.765C292.598 78.765 292.598 78.5681 292.722 78.5681C294.095 78.1738 295.217 77.5829 296.34 77.1888C296.215 77.1888 296.215 77.3857 296.09 77.3857C294.968 77.7799 293.72 78.174 292.473 78.765ZM294.719 78.5672C294.719 78.5672 294.594 78.5673 294.594 78.7641C294.469 78.7642 294.469 78.7642 294.344 78.7642C294.469 78.5673 294.594 78.5673 294.719 78.5672ZM297.962 76.4008C298.086 76.4008 298.211 76.2039 298.211 76.2039C299.957 75.4158 301.454 74.431 302.701 73.6432C302.577 73.6432 302.577 73.8401 302.452 73.8401C301.329 74.6279 299.833 75.6127 297.962 76.4008ZM303.076 74.2335C304.573 73.0519 305.82 72.0673 306.693 71.0827C305.57 72.6579 303.949 74.0364 302.078 75.4149C302.328 74.8244 302.702 74.6274 303.076 74.2335ZM302.701 72.0686C305.07 69.9024 307.066 67.7365 308.811 65.7674C308.562 66.1612 308.313 66.555 308.063 66.9487C307.939 67.1456 307.689 67.5394 307.44 67.7363C306.193 69.3115 304.696 70.6899 302.701 72.0686ZM294.219 76.5991C293.346 76.9932 292.348 77.3872 291.35 77.7813C295.715 74.8271 299.332 72.2668 302.325 69.9036C302.45 69.9035 302.45 69.7067 302.575 69.7066C300.205 71.6759 297.337 74.0391 294.219 76.5991ZM288.98 78.5696C288.231 78.7668 287.483 78.9639 286.734 79.3579C289.852 77.5852 292.721 76.0093 295.341 74.4336C293.345 75.6154 291.225 76.994 288.98 78.5696ZM290.602 79.3563C290.477 79.3564 290.352 79.3564 290.227 79.3565C290.352 79.3564 290.602 79.1595 290.726 79.1594C290.726 79.1594 290.602 79.3563 290.602 79.3563ZM290.602 79.9468C290.353 80.1437 290.103 80.3406 289.729 80.5376C288.481 80.9318 287.234 81.1291 285.986 81.5233C286.236 81.3264 286.485 81.3263 286.735 81.1294C288.232 80.7351 289.479 80.3409 290.602 79.9468ZM283.99 79.9495C283.491 80.1466 282.992 80.1468 282.493 80.3438C284.239 79.5558 285.985 78.7677 287.607 77.9797C286.484 78.5707 285.237 79.3585 283.99 79.9495ZM284.614 81.5239C284.489 81.5239 284.365 81.7208 284.24 81.7209C283.117 81.9182 281.87 82.1156 280.747 82.3129C280.872 82.3128 280.996 82.1159 281.121 82.1159C282.369 82.1153 283.491 81.918 284.614 81.5239ZM67.2894 107.399C64.1734 114.683 66.9222 124.326 74.7857 132.787C84.2719 143.215 104.114 154.032 128.316 150.282C153.267 146.336 164.991 138.851 179.333 125.264C180.58 124.082 181.703 122.901 182.95 121.916C197.791 107.738 209.514 96.5142 243.451 100.633C261.043 102.791 270.771 94.3236 278.628 87.4313C280.748 85.6589 282.744 83.8866 284.739 82.508C286.111 82.1137 287.359 81.9164 288.731 81.5222C286.985 82.9007 285.239 84.6729 283.244 86.642C275.761 94.1247 265.535 104.167 246.445 101.616C240.831 100.831 235.84 100.44 231.224 100.442C206.646 100.452 195.796 111.085 182.701 123.885C181.454 125.066 180.207 126.248 178.96 127.429C163.994 141.804 151.771 149.682 125.947 153.236C111.475 155.21 96.627 151.87 84.2724 144.199C73.1657 137.315 65.5512 127.673 63.9254 118.423C62.0496 107.795 68.4092 99.919 81.5076 96.1737C72.6507 98.933 68.9098 103.658 67.2894 107.399ZM67.0383 103.462C63.4219 107.597 61.9269 112.716 63.0522 118.62C64.678 128.067 72.4173 137.709 83.7736 144.79C96.3778 152.658 111.351 155.998 125.947 154.023C151.896 150.666 164.369 142.591 179.334 128.019C180.581 126.838 181.829 125.656 183.076 124.475C198.54 109.313 210.762 97.301 246.196 102.207C265.66 104.954 276.011 94.5183 283.494 87.0356C285.988 84.6726 288.108 82.5066 290.228 81.1279C291.85 80.7336 293.347 80.1425 294.719 79.7482C292.599 81.3237 290.479 83.6866 287.985 86.2464C280.378 94.7133 270.027 106.33 249.066 103.19C211.635 97.4974 198.79 110.297 182.577 126.444C181.33 127.625 180.083 129.003 178.711 130.382C162.624 146.135 150.276 154.21 123.328 156.977C92.638 160.139 63.6846 139.287 60.3078 119.605C58.307 108.387 65.1654 100.117 79.2619 96.1747C73.8978 97.7515 69.7817 100.312 67.0383 103.462ZM59.5593 119.606C61.3099 129.25 69.1742 139.481 80.7802 146.956C93.5093 155.218 108.732 158.951 123.328 157.37C150.525 154.407 162.998 146.331 179.086 130.578C180.458 129.2 181.705 128.019 182.952 126.64C199.039 110.493 211.76 97.8911 248.817 103.584C270.152 106.724 280.627 95.1068 288.359 86.4431C292.225 82.1112 295.342 78.567 298.711 78.5656L298.836 78.5655L298.961 78.5655C299.459 77.9748 299.958 77.5809 300.457 76.9902C304.199 75.0204 306.818 72.4605 308.189 69.9011C308.563 69.1137 308.937 68.3262 309.062 67.342C315.671 59.2692 318.538 53.3631 318.037 49.0331C317.536 45.2935 314.541 43.1296 311.671 41.3594C309.175 39.7858 305.557 39.1968 301.315 39.1985C297.572 39.2001 293.33 39.5956 288.464 39.9912C285.345 40.1894 281.977 40.5844 278.609 40.7826C282.975 40.3872 287.092 39.7949 290.959 39.3997C300.067 38.2149 307.178 37.2278 311.67 39.5879C315.164 41.3579 318.409 43.3249 319.159 47.0643C320.409 52.9687 315.173 62.6156 302.578 77.383C299.334 77.5812 296.466 81.3221 292.85 85.8507C285.244 95.3017 274.644 108.494 251.811 104.763C212.758 98.4811 199.414 111.871 182.703 129.002C181.331 130.381 180.084 131.759 178.713 133.137C161.877 150.072 148.905 158.541 120.959 160.717C89.7698 163.289 60.4415 141.06 56.9398 120.984C54.814 109.176 62.4207 100.118 77.64 96.1753C64.1673 99.9207 57.5584 108.387 59.5593 119.606ZM56.1912 120.788C59.6929 141.06 89.3957 163.683 120.959 161.111C149.155 158.737 162.126 150.268 179.087 133.334C180.459 131.956 181.831 130.577 183.078 129.199C199.789 112.265 212.883 98.8747 251.562 105.157C274.894 108.887 285.867 95.1046 293.225 86.0474C296.841 81.5188 299.584 77.9747 302.578 77.9735L302.703 77.9734L302.828 77.7766C315.672 62.8122 320.908 52.9685 319.658 46.8673C318.783 42.9311 315.413 40.9642 311.795 38.9974C309.673 38.0141 307.053 37.4247 304.059 37.4259C300.316 37.4275 295.825 38.0199 290.71 38.6125C286.717 39.2046 282.476 39.7969 277.86 39.9957C283.099 39.403 287.965 38.6136 292.456 37.8244C300.814 36.2463 307.426 35.2594 311.794 37.0291C316.036 38.7988 319.655 40.5687 320.78 44.5049C322.654 50.6058 318.042 60.8429 306.445 76.3973C303.576 76.5953 300.833 80.3362 297.591 84.8646C290.359 94.9059 279.386 110.066 254.557 105.746C247.32 104.568 240.832 103.981 235.093 103.983C208.768 103.994 196.921 116.202 182.704 130.971C181.332 132.349 179.96 133.727 178.464 135.303C160.381 153.615 147.409 162.084 118.341 163.868C103.744 164.661 88.3961 160.141 75.2923 151.092C63.3117 142.83 55.0729 131.811 53.322 121.576C51.071 108.783 59.1766 99.5291 75.893 95.3887C61.2977 99.9219 54.0653 108.979 56.1912 120.788ZM52.8231 121.97C56.4498 142.833 86.5273 166.44 118.59 164.655C147.784 162.871 161.379 154.008 179.213 135.893C180.585 134.514 182.081 132.939 183.453 131.561C200.787 113.642 214.381 99.6614 254.682 106.534C280.01 110.853 291.108 95.4961 298.464 85.2579C301.706 80.7295 304.325 77.1855 306.945 76.9875L307.069 76.9875L307.194 76.7906C319.04 60.8425 323.652 50.6054 321.653 44.3077C320.404 40.1748 316.535 38.2081 312.293 36.4384C310.546 35.6518 308.549 35.4558 306.304 35.4567C302.436 35.4583 297.945 36.2475 292.58 37.2339C287.59 38.0233 282.101 39.0097 276.362 39.6026C282.85 39.0094 288.838 37.6291 293.953 36.446C301.812 34.6713 307.925 33.2909 312.292 34.8638C317.158 36.4364 321.276 38.2061 322.9 42.3389C325.273 48.6364 321.285 59.4637 310.812 75.8049C308.192 76.0029 305.948 79.5467 302.831 84.4688C295.599 95.6911 284.627 112.426 257.676 107.517C215.379 99.8578 201.162 114.823 183.08 133.726C181.708 135.301 180.211 136.68 178.715 138.255C159.759 157.749 146.288 166.612 116.221 167.608C101.749 168.205 85.9021 163.094 72.7982 153.652C60.443 144.799 52.0792 133.387 50.3282 122.956C49.0774 115.28 50.4441 101.501 74.396 95.5862C74.6455 95.5861 75.0197 95.3891 75.2692 95.389C58.6776 99.7261 50.5721 109.374 52.8231 121.97ZM276.615 46.8852C287.219 45.503 299.697 50.0249 305.689 57.3051C307.312 59.2727 308.186 61.2406 308.561 63.2088C308.062 63.7995 307.438 64.3902 306.815 64.981C304.445 67.1471 301.203 69.7072 297.086 72.2677C292.347 75.0253 286.359 77.9803 279.124 81.1325C278.625 81.3296 278.126 81.3297 277.627 81.5268C276.255 81.7242 275.008 81.9216 273.76 82.3158C272.762 82.513 271.639 82.7103 270.641 82.9075C269.643 83.1048 268.521 83.302 267.523 83.4993C267.273 83.4994 266.899 83.4995 266.649 83.6965C264.778 83.8941 262.907 84.2885 261.16 84.4861C258.665 84.6839 256.295 85.0786 253.924 85.2764C203.147 88.0532 195.289 93.174 180.072 103.022C172.838 107.749 163.858 113.657 147.766 120.75C120.698 132.965 105.348 122.145 101.354 118.604C95.1137 113.095 92.865 105.814 95.6075 100.498C97.3528 97.1513 100.72 94.7879 105.336 93.8019C105.71 93.8017 106.085 93.8015 106.459 93.8014C106.584 93.8013 106.709 93.8013 106.833 93.8012C108.206 93.8007 109.703 93.8 111.075 93.6026C111.2 93.6026 111.325 93.6025 111.325 93.6025C112.697 93.602 113.945 93.6014 115.317 93.404C116.689 93.4035 118.187 93.4028 119.559 93.4023C140.27 93.7873 156.109 81.1837 170.203 70.1553C176.314 65.232 182.176 60.7025 187.913 57.354C190.034 56.7627 192.155 56.1713 194.4 55.5799C195.648 55.3825 196.771 55.1852 198.018 54.9879C198.642 54.9876 199.266 54.7906 199.89 54.7903C201.012 54.7898 202.26 54.5925 203.383 54.592C204.506 54.5915 205.629 54.5911 206.751 54.5906C207.874 54.5901 209.122 54.5896 210.245 54.5891C211.368 54.7855 212.491 54.7851 213.613 54.7846C214.861 54.9809 215.984 54.9804 217.107 55.1768C218.23 55.3731 219.353 55.5695 220.476 55.569C235.947 58.5151 247.05 54.9675 257.778 51.6169C263.641 49.6462 269.753 47.6754 276.615 46.8852ZM167.832 69.7626C155.235 79.2157 141.391 89.6534 124.05 92.4162C140.767 88.8664 154.362 79.2161 166.709 70.3536C169.453 68.3842 172.197 66.4148 174.817 64.6422C172.447 66.2178 170.202 67.9902 167.832 69.7626ZM177.81 63.0663C175.066 65.0357 172.322 67.3989 169.579 69.5651C157.481 79.2148 144.136 89.8492 127.543 92.218C143.511 88.8653 156.607 79.0183 168.331 70.1561C171.574 67.596 174.692 65.2327 177.81 63.0663ZM166.335 69.7633C153.239 79.2165 138.771 89.4577 120.557 92.4177C138.147 88.8675 152.365 79.2169 165.212 70.3542C167.457 68.7787 169.702 67.3999 171.823 65.8244C169.952 67.0061 168.206 68.3847 166.335 69.7633ZM164.713 69.7639C151.118 79.0206 136.026 89.262 116.938 92.2224C135.402 88.475 150.244 78.8241 163.715 70.158C165.336 69.1732 167.083 67.9915 168.704 67.0067C167.457 67.9913 166.085 68.976 164.713 69.7639ZM163.341 69.7645C149.121 78.8246 133.406 89.0663 113.32 92.2239C132.906 88.2792 148.373 78.6281 162.343 70.1586C163.34 69.5677 164.214 68.9768 165.211 68.3859C164.713 68.9766 163.964 69.3706 163.341 69.7645ZM109.453 92.4223C130.286 88.0834 146.626 78.6288 161.345 70.159C161.469 70.159 161.594 69.9621 161.719 69.962C146.876 79.0223 130.411 89.0675 109.453 92.4223ZM105.71 92.6207C126.543 88.2818 142.884 79.8113 157.602 71.7352C143.009 80.0081 126.544 89.0691 105.71 92.6207ZM101.593 92.8193C122.302 88.4804 138.642 80.7973 153.236 73.3117C138.642 81.1909 122.177 89.0709 101.593 92.8193ZM205.877 52.229C205.503 52.2291 205.129 52.2293 204.879 52.2294C205.253 52.2292 205.628 52.2291 205.877 52.229C205.877 52.229 206.002 52.2289 205.877 52.229ZM206.501 53.016C206.252 53.0161 206.002 53.0162 205.877 53.0163C206.127 53.0162 206.376 53.0161 206.501 53.016ZM208.248 52.6217C207.998 52.6218 207.749 52.6219 207.499 52.4251C207.624 52.4251 207.624 52.4251 207.749 52.425C207.998 52.4249 208.248 52.4248 208.497 52.6216C208.373 52.6216 208.248 52.6217 208.248 52.6217ZM208.498 53.4089C208.373 53.4089 208.373 53.4089 208.498 53.4089C208.248 53.409 208.248 53.409 208.123 53.409L208.248 53.409C208.248 53.2122 208.373 53.4089 208.498 53.4089ZM209.62 53.0147C209.745 53.0147 209.87 53.0146 209.87 53.0146C209.995 53.0146 210.244 53.0145 210.369 53.2113C210.244 53.2113 210.119 53.2114 209.995 53.2114C209.87 53.2115 209.87 53.2115 209.745 53.2115C209.745 53.0147 209.62 53.0147 209.62 53.0147ZM211.617 53.4076C211.741 53.4075 211.741 53.4075 211.866 53.4075C211.991 53.4074 211.991 53.4074 212.116 53.4074C211.991 53.4074 211.991 53.4074 211.866 53.4075C211.741 53.4075 211.617 53.4076 211.617 53.4076ZM257.403 51.0266C248.546 53.7859 239.44 56.7421 227.837 55.9596C237.568 55.7587 245.677 53.3934 253.661 51.225C257.902 50.0422 262.393 48.6626 267.009 47.8734C269.379 47.4787 272.373 46.887 275.741 46.4919C275.866 46.4918 275.991 46.4918 276.116 46.4917C269.379 47.085 263.266 49.0558 257.403 51.0266ZM266.884 47.086C262.268 48.0721 257.777 49.255 253.536 50.6346C244.678 53.197 235.697 55.7595 224.468 55.3705C233.7 54.973 241.684 52.8046 249.418 50.8331C255.032 49.2561 260.272 47.8761 265.885 47.0865L266.759 46.8893C269.379 46.4946 272.123 46.0998 274.868 45.9018C274.868 45.9018 274.868 45.9018 274.993 45.9017C271.874 46.0999 269.129 46.6914 266.884 47.086ZM266.634 46.2988L265.76 46.496C260.022 47.2857 254.533 48.8627 249.169 50.2427C240.436 52.6083 231.454 54.974 220.85 54.7816C229.583 54.1875 237.317 52.2159 244.927 50.2445C251.663 48.4702 258.025 46.8929 264.887 46.2996C266.01 46.1023 267.257 46.1018 268.38 45.9045C270.002 45.707 271.749 45.5094 273.495 45.3118C271.125 45.5096 268.879 45.9042 266.634 46.2988ZM268.255 45.314C267.132 45.5113 265.885 45.5119 264.762 45.7091C257.776 46.3025 251.414 48.0767 244.677 49.8509C236.194 52.0196 227.587 54.3851 217.481 54.3893C225.59 53.5986 232.826 51.8242 240.061 49.8529C248.045 47.8812 255.53 45.9098 263.764 45.5127C265.511 45.512 267.382 45.3144 269.253 45.1168C270.127 45.1164 271 44.9192 271.998 44.9188C270.626 44.9194 269.503 45.1167 268.255 45.314ZM269.128 44.5263C267.257 44.7239 265.51 44.7247 263.639 44.9223C255.405 45.3194 247.795 47.2908 239.811 49.2624C232.077 51.2339 224.093 53.2056 215.11 53.7998C214.985 53.7999 214.985 53.7999 214.861 53.7999C221.847 52.8129 228.459 51.0386 234.821 49.4613C244.052 47.0956 252.784 44.73 262.391 44.726C264.762 44.725 267.132 44.5272 269.503 44.5262C269.752 44.5261 270.002 44.526 270.251 44.5259C270.001 44.3291 269.627 44.3293 269.128 44.5263ZM262.64 44.1354C252.909 44.1394 244.177 46.505 234.82 48.8709C227.959 50.6452 220.973 52.4195 213.488 53.4068C213.363 53.4069 213.239 53.4069 212.989 53.2102C218.727 52.0268 224.216 50.6467 229.581 49.0698C240.184 46.113 250.289 43.3532 261.393 43.7423C263.638 43.7413 266.009 43.7403 268.379 43.7393C266.508 43.937 264.637 44.1345 262.64 44.1354ZM261.642 43.3485C250.413 42.9595 240.309 45.7193 229.58 48.6762C223.842 50.2532 217.979 51.8303 211.866 53.0138C211.616 53.0139 211.367 52.8172 211.242 52.8173C215.733 51.8313 220.099 50.4516 224.341 49.2689C236.441 45.7209 247.793 42.3701 260.519 43.3489C262.141 43.5451 263.888 43.5444 265.51 43.5437C265.884 43.5435 266.134 43.5434 266.508 43.5433C264.886 43.3471 263.264 43.3478 261.642 43.3485ZM260.519 42.5616C259.022 42.3654 257.524 42.366 256.027 42.3666C244.923 42.3713 234.694 45.328 224.091 48.4817C219.475 49.8614 214.735 51.2411 209.869 52.2273C209.62 52.2274 209.246 52.0307 208.996 52.0308C212.239 51.0453 215.483 50.0598 218.601 49.0744C231.575 44.9356 244.923 40.7966 259.396 42.3652C260.768 42.5615 262.141 42.5609 263.513 42.5604C262.515 42.5608 261.517 42.5612 260.519 42.5616ZM259.645 41.7747L259.52 41.7747C257.399 41.5788 255.278 41.3828 253.157 41.3837C241.055 41.3887 229.579 44.9364 218.477 48.484C214.984 49.6664 211.366 50.6521 207.624 51.8346C207.249 51.8348 206.875 51.8349 206.376 51.6383C208.497 50.8501 210.742 50.0618 212.863 49.4705C227.208 44.5438 242.053 39.2232 258.273 41.5784C258.772 41.775 259.146 41.7749 259.645 41.7747ZM257.399 40.9883C254.904 40.5957 252.408 40.5967 250.038 40.5977C236.813 40.6032 224.464 44.9385 212.488 49.0769C209.869 50.0622 207.249 50.8506 204.505 51.8359C204.005 51.8361 203.506 51.8363 202.883 51.8366C204.13 51.4424 205.502 50.8513 206.75 50.2603C222.467 44.1521 238.808 37.8468 256.9 40.9885C257.274 40.7915 257.399 40.9883 257.399 40.9883ZM206.749 49.473C204.753 50.2612 202.758 51.0493 200.886 51.6406C200.138 51.8377 199.389 51.838 198.641 52.0351C199.389 51.6412 200.262 51.2472 201.136 51.05C218.1 43.7602 235.564 36.0766 255.402 39.8081C237.81 37.4535 221.968 43.5618 206.749 49.473ZM200.761 50.6565C196.894 52.4296 193.277 54.0057 189.659 55.385C189.535 55.3851 189.285 55.582 189.16 55.5821C191.031 54.5971 193.027 53.6122 195.023 52.6272C212.361 44.1563 231.82 34.5036 253.655 39.0216C234.191 36.0772 216.478 43.7609 200.761 50.6565ZM194.648 52.0368C192.154 53.2188 189.908 54.4008 187.538 55.3859L186.166 55.9769C185.917 56.1739 185.667 56.174 185.418 56.3709C185.543 56.3709 185.667 56.174 185.792 56.1739C186.665 55.5831 187.663 55.189 188.661 54.5981C206.124 44.7494 227.702 32.7338 251.784 38.0382C230.573 34.5041 211.488 43.763 194.648 52.0368ZM239.93 36.2716C220.468 36.2797 203.005 46.1285 188.411 54.2045C187.413 54.7954 186.54 55.1895 185.542 55.7804C184.42 56.3714 183.297 56.9623 182.05 57.7502C182.673 57.3562 183.297 56.9623 183.921 56.5684C199.761 46.3267 223.584 30.964 250.037 37.0548C246.543 36.4657 243.174 36.2703 239.93 36.2716ZM237.684 35.0916C216.1 35.1006 197.017 47.3119 183.546 55.978C182.05 56.9628 180.553 57.9476 178.931 58.7356C179.929 57.9479 180.927 57.3569 181.925 56.5692C200.633 42.7834 222.96 29.7833 248.165 35.8746C244.546 35.4824 241.053 35.0902 237.684 35.0916ZM181.55 56.3725C179.679 57.7511 177.808 58.9329 175.938 60.3115C177.31 59.3267 178.682 58.342 180.053 57.1605C204.124 37.2706 225.83 29.9789 246.542 35.2847C221.837 29.9806 199.885 42.7837 181.55 56.3725ZM179.554 56.5702C177.559 58.3425 175.438 59.918 173.193 61.2967C174.815 60.1151 176.436 58.7366 178.057 57.1613C193.896 42.5893 217.844 27.0298 244.546 33.9078C224.208 29.7828 202.876 37.0744 179.554 56.5702ZM177.558 56.7679C175.313 58.9339 172.943 60.7064 170.574 62.4788C172.444 60.9034 174.315 59.328 176.061 57.5558C182.795 50.664 193.646 41.2116 207.367 35.6947C219.343 30.9658 231.195 29.9767 242.674 33.1212C216.471 27.2272 193.023 42.3929 177.558 56.7679ZM206.993 34.9075C193.271 40.4245 182.296 49.8768 175.437 56.9655C172.943 59.5254 170.449 61.6916 167.829 63.661C169.95 61.8886 172.07 59.9194 174.065 57.5566C180.55 50.2712 191.15 40.2285 205.371 34.3177C217.346 29.3919 229.198 28.5997 240.927 31.7441C229.822 29.3868 218.469 30.3757 206.993 34.9075ZM239.304 30.7607C228.075 28.2065 216.597 29.1955 205.121 33.9242C190.776 39.835 180.05 49.8778 173.566 57.36C170.947 60.3135 168.328 62.8734 165.46 65.0397C167.829 63.0704 170.074 60.7075 172.194 57.951C186.908 39.2461 211.854 23.0957 239.304 30.7607ZM171.445 57.5577C168.702 60.905 165.833 63.6617 162.84 66.0249C165.334 63.8588 167.828 61.1021 170.073 58.1488C183.789 39.2474 209.108 21.719 237.557 29.7772C210.606 23.2931 186.159 39.0496 171.445 57.5577ZM169.449 57.7554C166.706 61.4963 163.713 64.6468 160.47 67.2069C163.214 64.8438 165.708 61.8903 168.077 58.3464C176.181 46.1396 187.281 36.4904 199.505 31.1709C211.356 26.0484 223.707 25.0591 235.685 28.597C207.611 21.7196 183.04 39.0509 169.449 57.7554ZM199.131 30.5805C186.906 35.9 175.557 45.7462 167.453 57.953C164.585 62.2844 161.467 65.6319 158.1 68.3889C160.968 65.8289 163.587 62.4817 166.081 58.5441C173.811 45.9438 185.284 35.7039 197.509 30.1876C209.359 24.8682 221.96 24.0756 234.188 27.6135C222.459 24.6659 210.607 25.655 199.131 30.5805ZM197.259 29.5971C184.785 35.1136 173.311 45.5503 165.457 58.1507C162.589 62.8758 159.347 66.6169 155.855 69.374C158.848 66.6171 161.591 63.0731 164.085 58.7418C173.185 42.5979 187.902 30.3884 203.62 26.0516C213.226 23.292 223.082 23.4847 232.69 26.4331C220.837 23.4856 208.735 24.4748 197.259 29.5971ZM203.495 25.4611C187.653 29.7979 172.686 42.2045 163.585 58.3483C160.718 63.4671 157.351 67.4051 153.734 70.5559C156.852 67.6021 159.72 63.8611 162.213 58.9393C170.94 42.2052 185.656 29.602 201.624 24.8714C211.479 22.1117 221.335 22.3044 231.317 25.4495C221.959 22.8946 212.602 22.8985 203.495 25.4611ZM201.374 24.2811C185.157 29.0117 170.316 41.8118 161.464 58.546C158.473 64.2553 155.23 68.3901 151.364 71.541C154.607 68.3904 157.474 64.2557 160.092 59.1371C168.444 41.8126 183.161 28.6189 199.378 23.8882C208.983 21.1286 218.715 21.1246 228.447 24.073C219.339 21.7148 210.356 21.7185 201.374 24.2811ZM158.096 59.3347C166.074 41.4199 180.665 27.8326 197.256 22.7081C206.862 19.7517 216.843 19.9444 226.825 22.8927C217.592 20.5345 208.11 20.5385 199.128 23.2978C182.661 28.2254 167.82 41.4191 159.468 58.9405C156.601 64.8466 153.359 69.1782 149.618 72.329C149.618 72.329 149.618 72.329 149.493 72.3291C152.736 69.1784 155.603 64.847 158.096 59.3347ZM137.519 80.0104C139.016 79.4193 140.513 78.8282 141.885 78.0403C142.134 77.8434 142.384 77.8432 142.633 77.6463C144.504 76.8582 146.375 75.8733 148.247 75.0852C133.777 82.1771 117.561 89.2697 97.1016 93.018C112.695 89.6654 125.793 84.936 137.519 80.0104ZM131.157 81.5877C131.656 81.5874 132.03 81.3905 132.529 81.3903C120.803 86.1191 107.83 90.4547 92.4855 93.2167C107.081 90.0614 119.93 85.9226 131.157 81.5877ZM127.289 82.1798C127.539 82.1797 127.789 82.1796 128.163 81.9826C116.437 86.3177 103.214 90.4566 88.1189 93.4153C102.839 90.2599 115.813 86.318 127.289 82.1798ZM124.545 82.5746C112.445 86.713 98.7226 90.8522 82.8792 94.2049C98.4729 90.4586 112.07 86.7132 124.046 82.7716C124.171 82.5747 124.42 82.5746 124.545 82.5746ZM121.426 82.7727C108.577 86.9115 94.1064 90.8541 77.1404 94.7977C93.732 90.6574 108.203 86.7148 121.052 82.7728C121.176 82.7728 121.301 82.7727 121.426 82.7727ZM118.307 82.9708C118.432 82.9708 118.432 82.9708 118.556 82.9707C105.583 86.9127 90.8626 90.8554 73.8967 94.9959C55.8081 99.5305 47.0788 109.376 49.3302 123.153C51.0813 133.781 59.6947 145.39 72.0499 154.242C85.2786 163.685 101.25 168.796 115.972 168.396C146.289 167.399 159.884 158.339 178.964 138.648C180.461 137.073 181.957 135.695 183.329 134.12C201.287 115.413 215.379 100.645 257.177 108.107C284.502 113.017 295.599 96.0847 302.955 84.6655C305.948 80.1372 308.317 76.3965 310.687 76.3955L310.812 76.3955L310.937 76.1986C321.909 59.4635 325.772 48.6362 323.274 42.1419C321.525 37.8123 317.283 36.0426 312.292 34.2732C310.919 33.8801 309.297 33.684 307.675 33.6847C303.808 33.6863 299.067 34.6724 293.578 36.0525C288.214 37.2357 282.101 38.616 275.364 39.2093C282.475 38.419 289.087 36.6449 294.576 35.068C302.061 33.0966 307.924 31.5195 312.416 32.6986C317.906 34.2709 322.523 35.8436 324.646 40.173C327.643 46.6671 324.403 58.0846 314.554 75.2129C312.184 75.4107 310.189 78.9545 307.322 83.6796C300.465 95.2954 289.119 114.589 260.172 108.893C216.377 100.448 201.537 116.2 182.956 135.891C181.459 137.466 179.963 139.042 178.466 140.617C158.638 161.292 144.543 170.549 113.603 170.956C99.0055 171.159 83.0336 165.654 69.68 155.818C57.0752 146.572 48.4616 134.569 46.5858 123.941C44.3344 110.361 52.9389 100.319 70.7778 95.3908C74.2707 94.4052 77.6389 93.6165 81.0071 92.631C94.9791 89.2791 107.204 86.1247 118.307 82.9708ZM115.812 82.9719C105.333 85.9287 93.856 88.8859 80.8822 92.4342C77.514 93.2229 74.1459 94.2085 70.6529 95.1941C46.0775 101.7 44.5864 116.266 45.9621 124.335C47.8381 135.16 56.4517 147.36 69.3061 156.606C82.7845 166.441 98.881 171.946 113.603 171.94C144.793 171.533 159.012 162.276 178.966 141.404C180.462 139.829 181.959 138.254 183.455 136.678C201.912 116.988 216.627 101.432 260.048 109.878C289.494 115.573 300.964 95.8857 307.946 84.2698C310.689 79.7416 312.808 76.1978 314.804 76.0001L315.054 76L315.178 75.8031C325.152 58.478 328.391 46.8636 325.269 40.1727C322.897 35.0561 317.282 33.4838 312.665 32.3048C311.542 31.9116 310.294 31.9121 309.047 31.9127C305.054 31.9143 300.189 33.2941 294.451 34.8712C288.713 36.4482 281.976 38.2225 274.615 39.0129C282.35 38.0255 289.336 35.8574 295.199 33.8867C302.185 31.7187 308.173 29.7479 312.664 30.7302C318.654 31.9087 323.894 33.4811 326.516 38.2039C330.137 44.8946 327.522 56.9023 318.547 74.8176C316.426 75.2121 314.68 78.3622 312.062 83.284C305.331 95.8839 293.986 117.146 262.918 110.861C217.501 101.825 202.286 118.168 182.957 138.844C181.46 140.419 179.839 142.191 178.218 143.766C157.142 166.017 143.048 175.274 110.984 175.09C96.387 174.899 80.1655 169.001 66.5622 158.772C53.5829 148.936 44.8444 136.539 42.9684 125.517C40.7169 111.74 49.3211 101.108 67.2847 95.9828C81.7553 91.8434 94.7292 88.4918 106.081 85.5347C109.574 84.5491 112.693 83.7605 115.812 82.9719ZM111.071 83.5643C109.449 83.9586 107.828 84.353 106.206 84.7473C94.7289 87.7045 81.8798 91.056 67.4091 95.1955C49.0712 100.321 40.2176 111.15 42.594 125.321C44.4701 136.539 53.3334 149.133 66.4375 158.969C80.1656 169.198 96.3872 175.293 111.234 175.484C127.453 175.674 139.429 173.307 150.032 167.791C160.26 162.473 168.99 154.399 179.091 143.963C180.713 142.191 182.209 140.615 183.83 138.843C202.91 118.365 218 102.022 263.043 111.057C294.61 117.343 306.079 95.8836 312.936 83.0868C315.304 78.5587 317.299 75.0149 319.046 75.0142L319.295 75.0141L319.42 74.8172C328.52 56.5083 331.26 44.5005 327.514 37.613C324.517 32.103 318.029 30.7279 313.163 29.7458C312.29 29.5493 311.416 29.5497 310.418 29.5501C306.176 29.5519 301.062 31.1287 295.324 33.0994C289.211 35.0702 281.976 37.4351 273.867 38.2258C282.225 37.0413 289.585 34.4795 295.947 32.1149C302.808 29.5533 308.671 27.3857 313.287 28.1711C319.65 29.1526 325.64 30.5279 328.886 35.6442C333.13 42.5314 331.264 55.1293 322.913 73.8316C321.042 74.226 319.546 77.376 317.177 82.1009C310.944 94.8974 299.352 118.915 266.162 112.04C256.804 110.076 248.819 109.292 241.583 109.295C212.638 109.307 199.419 123.681 183.457 141.009C181.836 142.781 180.214 144.553 178.593 146.325C156.52 169.954 142.052 179.604 108.99 178.634C76.1767 177.663 43.7268 149.333 40.0993 126.7C37.8477 112.529 46.5765 101.699 64.6647 96.1807C82.1291 90.6623 97.4733 86.9161 111.071 83.5643ZM106.206 84.1569C93.7305 87.1145 79.8834 90.6631 64.1655 95.5904C45.703 101.109 36.8495 112.136 39.226 126.7C43.2288 151.696 78.4227 178.253 108.865 179.224C142.177 180.195 156.77 170.544 178.968 146.718C180.589 144.946 182.21 143.174 183.831 141.402C203.535 119.939 219.123 103.006 265.788 112.631C299.601 119.506 311.319 95.2909 317.552 82.2976C319.671 77.9664 321.416 74.4227 322.913 74.2253L323.163 74.2252L323.287 74.0283C331.763 54.9323 333.629 42.1376 329.26 35.0535C326.014 29.7405 319.775 28.3652 313.287 27.3838C312.663 27.1872 311.914 27.1876 311.291 27.1878C306.924 27.1896 301.56 29.1601 295.572 31.3277C288.961 33.6924 281.227 36.6481 272.494 37.6359C281.476 36.4512 289.335 33.1018 296.071 30.3434C302.807 27.585 308.67 25.2206 313.411 25.6123C320.148 26.3968 326.886 27.3782 330.756 32.8878C335.749 39.9716 334.382 53.1597 326.78 72.8459C325.158 73.2402 323.912 76.1932 321.793 80.918C315.685 94.8954 304.343 120.882 268.782 113.22C258.925 111.059 250.441 110.275 243.08 110.278C213.512 110.291 199.919 125.255 183.582 143.174C181.961 144.946 180.215 146.915 178.594 148.687C167.371 160.698 158.391 169.362 147.664 174.878C136.438 180.591 123.838 182.761 106.62 181.981C91.8982 181.2 75.3021 174.515 61.3241 163.301C47.7205 152.481 38.4826 139.101 36.6063 127.488C34.9801 117.254 37.9688 103.671 61.2962 96.1821C78.1369 90.8607 92.982 87.1148 106.206 84.1569ZM101.589 84.5524C89.4887 87.313 76.0159 90.8616 60.7969 95.5918C42.2098 101.504 33.3565 112.924 35.6083 127.686C39.6113 153.272 75.3048 181.01 106.246 182.572C123.589 183.549 136.313 181.181 147.664 175.469C158.392 169.953 167.496 161.289 178.719 149.277C180.465 147.505 182.086 145.536 183.832 143.764C204.159 121.514 220.121 103.792 268.409 114.204C304.468 121.866 315.935 95.4858 322.167 81.5083C324.037 77.1772 325.533 73.8305 326.78 73.83L327.03 73.8299L327.155 73.633C334.882 53.5532 336.124 40.3651 331.13 33.0845C327.26 27.378 320.148 26.1999 313.411 25.4154C312.912 25.4156 312.537 25.4158 312.038 25.416C307.422 25.4179 301.934 27.5854 295.697 30.1468C288.836 32.9052 280.728 36.2547 271.496 37.4395C280.852 36.0578 289.085 32.3146 296.195 29.1624C302.931 26.0103 308.794 23.4491 313.66 23.6439C320.896 24.0345 328.257 25.0156 332.751 30.9187C338.369 38.3959 337.75 51.9773 330.772 72.6474C329.4 73.0416 328.278 75.7977 326.409 80.3256C323.542 87.4126 319.305 98.24 310.949 106.313C301.097 115.765 287.749 118.723 271.528 115.187C221.244 104.186 204.659 122.695 183.584 145.929C181.838 147.898 180.092 149.67 178.346 151.639C155.275 176.843 140.434 188.266 104.002 185.722C89.1549 184.744 72.4338 177.468 58.2062 166.058C44.1033 154.648 34.8653 141.07 32.9888 128.868C31.3625 118.436 34.351 104.46 57.9278 96.5772C74.2692 90.8623 88.6154 87.3134 101.589 84.5524ZM96.5992 84.9481C84.8726 87.5118 72.0235 90.8633 57.5532 95.79C33.6022 103.87 30.6139 118.24 32.2402 128.868C34.1168 141.267 43.3549 154.845 57.7073 166.452C72.0598 178.059 88.9056 185.335 103.877 186.312C140.559 188.856 155.525 177.237 178.845 152.033C180.591 150.064 182.337 148.095 184.083 146.323C205.033 123.088 221.494 104.776 271.404 115.778C309.834 124.226 321.424 94.6962 327.033 80.5221C328.653 76.5848 329.899 73.2382 331.022 73.0409L331.272 73.0408L331.396 72.8439C338.499 51.977 339.117 38.0019 333.375 30.5247C328.756 24.4249 320.896 23.4441 313.784 23.0534C313.535 23.0535 313.285 23.0536 312.911 23.0537C308.045 23.0557 302.432 25.6168 295.945 28.572C288.835 31.7242 280.353 35.6643 270.872 36.8493C280.603 35.4674 289.085 31.1336 296.319 27.5877C303.055 24.2388 308.918 21.2839 314.033 21.4786C321.394 21.6723 329.753 22.2594 334.871 28.5558C341.237 36.2295 341.243 50.4013 334.889 71.8583C333.766 72.2525 332.894 74.418 331.274 79.1426C325.916 94.3007 314.7 125.601 274.523 116.564C222.617 104.972 205.533 124.072 183.959 148.291C182.213 150.26 180.342 152.229 178.597 154.395C154.529 180.78 139.188 192.793 101.883 189.463C86.9106 188.091 70.0645 180.422 55.5872 168.618C41.1099 156.814 31.7469 142.646 29.8703 130.247C28.244 119.619 31.3571 105.249 54.9337 96.9721C70.1522 91.0609 84.2488 87.5121 96.5992 84.9481ZM93.1059 85.1464C81.5041 87.7101 68.5303 91.0616 54.3094 95.9882C30.2339 104.462 27.121 119.225 28.7474 130.05C30.624 142.647 40.1118 156.814 54.714 168.815C69.3161 180.816 86.2869 188.485 101.384 189.856C139.063 193.384 154.529 181.174 178.722 154.592C180.592 152.623 182.338 150.457 184.084 148.488C205.533 124.466 222.617 105.563 274.024 116.958C291.617 120.887 305.714 117.535 316.065 107.099C324.67 98.4346 328.782 86.82 331.524 79.1425C332.894 75.4021 334.016 72.2524 334.889 72.0552L335.139 72.0551L335.263 71.8582C341.742 50.0074 341.611 35.6389 335.245 27.7683C330.003 21.472 321.518 20.6881 313.908 20.4945C313.783 20.4945 313.658 20.4946 313.534 20.4946C308.418 20.4968 302.556 23.4517 295.82 26.8006C288.461 30.5434 279.854 34.6804 269.873 36.0624C279.978 34.4835 288.71 29.756 296.069 25.8163C302.929 22.0737 308.792 18.922 314.032 18.9198C322.516 18.7195 331 19.5032 336.617 25.7995C343.607 33.4729 344.237 48.8254 338.632 70.8726C337.758 71.2667 337.011 73.2353 335.64 77.7629C330.905 92.7239 319.816 127.764 277.144 117.94C223.74 105.562 206.157 125.45 183.835 150.456C181.964 152.425 180.094 154.591 178.223 156.757C153.282 184.324 137.318 196.927 99.1392 192.81C84.0423 191.045 67.0714 183.178 52.3443 170.784C37.6172 158.39 28.0045 143.829 26.1278 131.036C24.5014 120.211 27.6144 105.644 51.4402 96.7767C66.7836 91.0623 80.7555 87.5135 93.1059 85.1464ZM51.0657 96.1864C26.8655 105.054 23.7528 120.211 25.3792 131.036C27.256 144.026 36.9935 158.587 51.8454 171.178C66.5725 183.572 83.793 191.635 99.0147 193.4C137.568 197.715 153.532 185.111 178.723 157.151C180.593 154.985 182.464 153.016 184.334 150.85C206.407 126.04 223.865 106.35 276.894 118.531C320.191 128.551 331.405 93.1174 336.264 77.9595C337.261 74.8098 338.382 71.4633 339.006 71.463L339.256 71.4629L339.256 71.2661C345.11 48.4314 344.355 33.4726 337.24 25.4055C331.873 19.306 323.638 18.3254 315.529 18.3287C315.03 18.3289 314.655 18.3291 314.156 18.3293C308.792 18.3315 302.804 21.6801 295.819 25.4227C287.961 29.7563 279.354 34.2869 269.249 35.669C279.354 34.0901 288.086 28.9689 296.068 24.4385C302.929 20.499 308.916 16.9536 314.405 16.7545C329.626 16.1577 335.242 19.6983 338.737 23.4366C346.351 31.5035 347.729 47.2493 342.749 70.4773C342 70.8713 341.502 72.6429 340.256 76.7768C337.391 86.8164 331.535 107.683 314.322 116.941C304.967 121.866 293.365 122.855 279.889 119.711C268.16 116.96 258.179 115.783 249.321 115.787C216.883 115.8 201.918 132.931 183.836 153.212C181.966 155.378 179.97 157.544 178.1 159.71C164.632 174.674 154.53 184.52 142.93 190.626C130.207 197.324 115.985 199.101 96.6455 196.551C81.6733 194.589 64.0783 185.935 49.3511 173.344C34.2495 160.36 24.5119 145.405 22.6349 132.218C20.3827 116.473 29.2357 104.265 48.1965 96.9749C63.2903 91.2606 76.8879 87.712 89.2384 85.3449C77.6365 87.7117 64.9121 91.0631 51.0657 96.1864ZM47.822 96.3845C23.4973 105.842 20.2598 121 21.8864 132.218C23.7634 145.602 33.6259 160.754 48.8522 173.738C63.5794 186.329 81.4239 194.982 96.521 197.141C115.985 199.692 130.457 197.914 143.304 191.217C155.029 185.11 165.131 175.265 178.724 160.103C180.719 157.937 182.59 155.771 184.46 153.605C207.156 127.811 225.113 107.53 279.764 120.301C293.49 123.445 305.217 122.653 314.697 117.531C332.16 108.273 338.015 87.2098 340.88 76.9734C341.627 74.2175 342.499 71.2647 342.998 71.0677L343.248 71.0676L343.248 70.8707C348.353 47.4458 346.974 31.3064 339.111 23.2397C335.741 19.6981 330.624 16.3542 317.774 16.3595C316.651 16.36 315.403 16.3605 314.156 16.361C308.541 16.5602 302.554 20.1056 295.569 24.2419C287.462 28.9692 278.481 34.0905 268.002 35.6695C278.606 34.0904 287.586 28.3787 295.818 23.2577C302.803 18.9245 308.79 15.1822 314.529 14.7862C323.512 14.1919 333.618 14.3846 340.607 21.2707C348.97 29.5341 350.973 45.8701 346.491 70.0821C345.868 70.476 345.494 71.8539 344.622 75.7909C342.007 86.4208 336.526 108.665 318.44 118.711C308.711 124.029 296.609 125.018 282.51 121.678C270.282 118.731 259.926 117.357 250.818 117.361C217.632 117.375 202.293 134.899 183.837 155.967C181.842 158.133 179.972 160.496 177.852 162.662C165.755 176.248 154.656 188.063 141.559 194.957C128.462 201.852 113.741 203.629 93.9024 200.488C78.8053 198.33 60.9605 189.086 46.1085 176.298C30.6325 162.92 20.7698 147.375 18.768 133.794C16.5156 117.852 25.3685 105.251 44.4539 97.5669C59.2981 91.6559 72.7709 88.1073 84.8719 85.9372C73.8937 87.91 61.4188 91.0645 47.822 96.3845ZM44.5783 96.5827C20.129 106.434 16.8916 121.985 18.3935 133.401C20.2707 147.178 30.3829 162.723 45.859 176.298C60.8358 189.283 78.8054 198.526 94.0273 200.685C113.99 203.629 128.836 201.852 142.058 194.957C155.28 188.063 166.379 176.248 178.475 162.662C180.471 160.299 182.466 158.133 184.461 155.967C207.781 129.385 226.112 108.317 282.385 121.875C296.734 125.215 308.96 124.226 318.814 118.907C337.15 108.861 342.63 86.4205 345.246 75.5938C345.869 73.0347 346.492 70.6726 346.866 70.2787L347.115 70.2786L347.115 70.0818C351.596 45.673 349.593 29.1402 340.981 20.6801C335.365 15.1712 327.754 13.7965 320.393 13.7996C318.396 13.8004 316.276 13.9981 314.279 13.999C308.416 14.3951 302.304 18.1374 295.319 22.6673C286.962 27.7884 277.857 33.5003 267.128 35.0794C277.982 33.3034 287.212 27.1978 295.568 21.8799C302.678 17.1531 308.79 13.2139 314.653 12.621C323.511 11.6331 334.739 11.6285 342.478 18.908C351.589 27.3679 354.216 44.491 350.359 69.49C349.985 69.8838 349.611 71.0649 348.988 74.4113C346.747 84.8442 341.642 109.253 322.683 120.087C312.704 125.799 300.103 126.788 285.255 123.252C272.653 120.108 261.798 118.734 252.441 118.738C218.506 118.752 202.793 136.867 183.963 158.526C181.968 160.889 179.973 163.252 177.853 165.615C151.665 195.15 134.704 211.691 91.6583 204.426C76.4363 201.873 58.4667 192.433 43.3649 179.055C27.6391 165.086 17.402 149.148 15.5247 135.173C13.2722 118.838 22.2498 106.04 41.4599 98.1587C56.0545 92.0509 69.4026 88.6992 81.3789 86.5291C70.2756 87.9115 57.9256 91.2628 44.5783 96.5827ZM41.2097 96.781C21.7502 104.859 12.648 117.854 14.9007 134.583C16.7779 148.557 27.0151 164.693 42.8658 178.858C58.0923 192.236 76.1868 201.874 91.5336 204.426C111.996 207.96 127.216 206.183 140.937 199.091C154.408 192 165.881 179.594 178.476 165.417C180.596 163.055 182.592 160.692 184.587 158.329C208.405 130.763 227.36 109.104 285.13 123.252C300.103 126.985 312.953 125.799 323.057 120.087C342.266 109.253 347.495 84.647 349.737 74.0173C350.235 71.852 350.608 69.8835 350.858 69.4898L351.107 69.4897L351.107 69.2928C355.089 43.9001 352.337 26.5803 342.976 18.1205C337.11 12.6117 329.499 11.237 322.263 11.24C319.643 11.2411 317.023 11.439 314.653 11.6368C308.664 12.2298 302.428 16.3659 295.194 21.0928C286.837 26.6075 277.732 32.5161 267.003 34.2921C277.856 32.3192 287.086 26.0169 295.443 20.1085C302.428 15.3817 308.913 10.8519 315.026 10.0621C324.383 8.87719 336.11 8.47866 344.722 15.9546C354.582 24.611 357.958 42.3243 354.6 68.3072C354.351 68.5042 354.102 69.4884 353.604 72.2442C351.861 82.2833 347.131 109.054 327.049 120.675C316.697 126.781 303.597 127.771 288.125 124.038C275.024 120.697 263.795 119.324 254.188 119.328C219.629 119.342 203.542 137.851 184.338 160.101C182.218 162.464 180.098 165.023 177.854 167.583C150.793 198.496 133.334 215.628 89.1642 207.183C73.8173 204.236 55.598 194.403 40.2465 180.631C24.1462 166.072 13.7841 149.74 11.9067 135.372C9.65413 118.839 18.7563 105.648 38.0909 97.3727C52.5608 91.265 65.6594 87.7166 77.6356 85.5465C66.7823 87.913 54.557 91.2642 41.2097 96.781ZM37.966 96.9791C18.3819 105.451 9.15509 118.839 11.4078 135.569C13.2852 149.937 23.6473 166.466 39.8725 181.221C55.2239 194.993 73.6928 205.024 89.0398 207.97C110.001 211.898 125.596 210.317 139.691 203.028C153.537 195.74 165.384 182.941 178.353 168.173C180.598 165.613 182.717 163.054 184.837 160.691C209.279 132.534 228.608 110.087 287.876 124.825C303.598 128.755 316.822 127.569 327.424 121.463C347.755 109.644 352.485 82.6766 354.228 72.6376C354.476 70.866 354.85 69.4881 354.975 69.0944L355.099 69.0943L355.099 68.8975C358.457 42.5209 355.081 24.6108 344.972 15.7577C338.856 10.4458 331.245 8.87433 324.133 8.87728C320.89 8.87863 317.771 9.07679 314.777 9.4717C308.539 10.2616 301.928 14.7914 294.944 19.7151C286.213 25.8204 276.609 32.5166 265.132 34.0961C276.609 32.3198 286.337 25.2299 295.193 18.7308C302.302 13.6103 308.912 8.68677 315.275 7.69997C324.257 6.31843 337.232 5.52577 346.717 13.395C357.326 22.2479 361.326 40.5514 358.592 67.715C358.468 67.9119 358.343 68.6993 358.094 70.6677C356.726 80.3129 352.746 109.445 331.541 122.051C320.815 128.551 307.216 129.738 290.995 125.611C277.395 122.271 265.916 120.701 255.81 120.705C220.503 120.72 204.042 139.819 184.464 162.659C182.344 165.219 180.099 167.779 177.855 170.338C149.797 202.433 131.713 220.156 86.7953 210.923C71.3235 207.78 52.8544 197.356 37.378 183.191C20.9032 168.239 10.4161 151.119 8.53862 136.554C6.41063 119.628 15.5127 106.239 34.972 97.5709C49.317 91.2663 62.4155 87.7179 74.3918 85.5478C63.2889 87.9144 51.1884 91.2656 37.966 96.9791ZM34.7223 97.1773C15.0135 105.846 5.66206 119.628 7.91489 136.751C9.79245 151.513 20.4044 168.632 36.8792 183.782C52.4804 197.947 71.0742 208.371 86.6709 211.711C131.963 221.14 150.171 203.221 178.354 170.929C180.599 168.369 182.843 165.809 184.963 163.25C197.807 148.285 208.781 135.487 224.498 128.001C241.712 119.924 262.672 119.324 290.746 126.399C307.092 130.525 320.94 129.338 331.916 122.838C353.37 110.036 357.35 80.5095 358.718 70.8643C358.843 69.6833 359.216 68.1085 359.216 68.1085C361.95 40.748 357.95 22.2477 347.091 13.198C340.726 7.88626 332.991 6.51168 325.754 6.51469C321.887 6.5163 318.269 6.91146 315.15 7.50324C308.663 8.49009 301.928 13.4136 294.818 18.5341C285.963 25.0332 276.11 32.1232 264.508 33.7026C276.234 31.7295 286.087 24.2458 295.068 17.5499C302.301 12.0356 309.036 6.91525 315.648 5.73152C325.005 4.15299 338.603 2.9664 348.837 11.229C360.195 20.4753 364.943 39.369 362.709 67.5166C362.585 67.7134 362.585 68.1071 362.46 69.0913C359.231 102.554 346.386 117.321 336.034 123.624C324.933 130.518 310.71 131.901 293.741 127.381C279.766 123.844 267.788 122.275 257.558 122.279C221.377 122.294 204.667 141.984 184.59 165.415C182.47 167.975 180.101 170.534 177.856 173.291C148.8 206.764 130.094 225.077 84.4265 214.861C68.8298 211.324 50.111 200.507 34.3849 185.948C17.6603 170.405 6.92352 152.892 5.04587 137.933C2.9178 120.81 12.1445 107.028 31.7284 98.1627C45.9486 91.6614 59.0471 88.113 70.8986 85.943C59.9204 87.9158 47.8198 91.267 34.7223 97.1773ZM28.4845 97.9672C42.7046 91.2691 55.6784 87.7207 67.6546 85.5506C56.5517 87.7204 44.4513 91.2684 31.4785 97.1787C11.6451 106.241 2.29374 120.22 4.4219 137.54C6.29963 152.695 17.0364 170.208 33.8859 185.948C49.7367 200.507 68.4555 211.325 84.177 214.861C130.218 225.274 149.05 206.764 178.23 173.094C180.6 170.534 182.844 167.778 184.964 165.218C198.058 149.86 209.406 136.667 225.497 128.984C243.085 120.513 264.668 120.111 293.491 127.382C310.585 131.705 325.057 130.518 336.283 123.427C355.117 111.61 361.22 87.0033 362.959 68.3038C362.959 67.7133 363.083 66.9259 363.083 66.9259L363.083 66.729C365.317 38.3846 360.568 19.2941 348.962 10.048C342.347 4.7363 334.611 3.36172 327.25 3.36478C322.884 3.36659 318.767 3.9588 315.149 4.5508C308.412 5.73458 301.552 10.855 294.318 16.3692C285.713 22.8682 276.234 30.1548 265.131 32.3245C276.234 29.958 285.712 22.4745 294.443 15.385C301.801 9.47709 308.661 4.15979 315.522 2.77913C330.742 -0.179645 342.096 1.58712 350.458 7.88219C362.688 17.3249 367.937 36.8089 366.327 65.9404C366.327 66.334 365.72 106.684 341.024 123.425C333.79 128.349 325.182 130.714 315.451 130.718C309.587 130.721 303.224 129.936 296.361 128.168C281.887 124.434 269.535 122.668 258.93 122.672C222.125 122.687 204.917 142.968 184.466 166.99C182.221 169.549 179.852 172.306 177.482 175.063C162.643 192.193 150.048 205.976 135.703 213.659C120.61 221.735 103.893 222.923 81.6829 217.618C65.9612 213.688 46.9927 202.476 31.1418 187.721C14.0427 171.588 3.18098 153.681 1.30317 138.329C-0.45053 121.402 8.77595 107.226 28.4845 97.9672Z" />
</svg>
