<svg width="227" height="167" viewBox="0 0 227 167" fill="none" xmlns="http://www.w3.org/2000/svg">
<g id="dottedArea">
<path id="XMLID_1428_" d="M98.6819 0.608002C96.475 0.810672 94.5834 1.01338 92.6917 1.21605C93.3222 1.62139 94.2681 2.02672 95.5292 2.02672C96.7903 2.02672 98.0514 1.41868 98.6819 0.608002Z" fill = ""/>
<path id="XMLID_1427_" d="M113.5 2.0267C115.392 2.0267 116.968 1.21602 117.283 0C116.022 0 114.761 0 113.5 0C112.239 0 110.978 0 109.717 0C110.032 1.21602 111.608 2.0267 113.5 2.0267Z" fill = ""/>
<path id="XMLID_1426_" d="M131.786 2.02672C132.732 2.02672 133.678 1.82406 134.624 1.21605C132.732 1.01338 130.525 0.810672 128.633 0.608002C128.949 1.41868 130.21 2.02672 131.786 2.02672Z" fill = ""/>
<path id="XMLID_1425_" d="M58.6417 16.2136C60.7312 16.2136 62.425 14.9433 62.425 13.3762C62.425 11.8092 60.7312 10.5388 58.6417 10.5388C56.5522 10.5388 54.8584 11.8092 54.8584 13.3762C54.8584 14.9433 56.5522 16.2136 58.6417 16.2136Z" fill = ""/>
<path id="XMLID_1424_" d="M76.9278 16.2136C79.0173 16.2136 80.7111 14.9433 80.7111 13.3762C80.7111 11.8092 79.0173 10.5388 76.9278 10.5388C74.8383 10.5388 73.1444 11.8092 73.1444 13.3762C73.1444 14.9433 74.8383 16.2136 76.9278 16.2136Z" fill = ""/>
<path id="XMLID_1423_" d="M95.2139 16.2136C97.3033 16.2136 98.9972 14.9433 98.9972 13.3762C98.9972 11.8092 97.3033 10.5388 95.2139 10.5388C93.1244 10.5388 91.4305 11.8092 91.4305 13.3762C91.4305 14.9433 93.1244 16.2136 95.2139 16.2136Z" fill = ""/>
<path id="XMLID_1422_" d="M113.5 16.2136C115.589 16.2136 117.283 14.9433 117.283 13.3762C117.283 11.8092 115.589 10.5388 113.5 10.5388C111.411 10.5388 109.717 11.8092 109.717 13.3762C109.717 14.9433 111.411 16.2136 113.5 16.2136Z" fill = ""/>
<path id="XMLID_1421_" d="M131.786 16.2136C133.876 16.2136 135.569 14.9433 135.569 13.3762C135.569 11.8092 133.876 10.5388 131.786 10.5388C129.697 10.5388 128.003 11.8092 128.003 13.3762C128.003 14.9433 129.697 16.2136 131.786 16.2136Z" fill = ""/>
<path id="XMLID_1420_" d="M150.072 16.2136C152.162 16.2136 153.856 14.9433 153.856 13.3762C153.856 11.8092 152.162 10.5388 150.072 10.5388C147.983 10.5388 146.289 11.8092 146.289 13.3762C146.289 14.9433 147.983 16.2136 150.072 16.2136Z" fill = ""/>
<path id="XMLID_1419_" d="M168.358 16.2136C170.448 16.2136 172.142 14.9433 172.142 13.3762C172.142 11.8092 170.448 10.5388 168.358 10.5388C166.269 10.5388 164.575 11.8092 164.575 13.3762C164.575 14.9433 166.269 16.2136 168.358 16.2136Z" fill = ""/>
<path id="XMLID_1418_" d="M40.3556 30.1978C42.445 30.1978 44.1389 28.9275 44.1389 27.3604C44.1389 25.7934 42.445 24.5231 40.3556 24.5231C38.2661 24.5231 36.5722 25.7934 36.5722 27.3604C36.5722 28.9275 38.2661 30.1978 40.3556 30.1978Z" fill = ""/>
<path id="XMLID_1417_" d="M58.6417 30.1978C60.7312 30.1978 62.425 28.9275 62.425 27.3604C62.425 25.7934 60.7312 24.5231 58.6417 24.5231C56.5522 24.5231 54.8584 25.7934 54.8584 27.3604C54.8584 28.9275 56.5522 30.1978 58.6417 30.1978Z" fill = ""/>
<path id="XMLID_1416_" d="M76.9278 30.1978C79.0173 30.1978 80.7111 28.9275 80.7111 27.3604C80.7111 25.7934 79.0173 24.5231 76.9278 24.5231C74.8383 24.5231 73.1444 25.7934 73.1444 27.3604C73.1444 28.9275 74.8383 30.1978 76.9278 30.1978Z" fill = ""/>
<path id="XMLID_1415_" d="M95.2139 30.1978C97.3033 30.1978 98.9972 28.9275 98.9972 27.3604C98.9972 25.7934 97.3033 24.5231 95.2139 24.5231C93.1244 24.5231 91.4305 25.7934 91.4305 27.3604C91.4305 28.9275 93.1244 30.1978 95.2139 30.1978Z" fill = ""/>
<path id="XMLID_1414_" d="M113.5 30.1978C115.589 30.1978 117.283 28.9275 117.283 27.3604C117.283 25.7934 115.589 24.5231 113.5 24.5231C111.411 24.5231 109.717 25.7934 109.717 27.3604C109.717 28.9275 111.411 30.1978 113.5 30.1978Z" fill = ""/>
<path id="XMLID_1413_" d="M131.786 30.1978C133.876 30.1978 135.569 28.9275 135.569 27.3604C135.569 25.7934 133.876 24.5231 131.786 24.5231C129.697 24.5231 128.003 25.7934 128.003 27.3604C128.003 28.9275 129.697 30.1978 131.786 30.1978Z" fill = ""/>
<path id="XMLID_1412_" d="M150.072 30.1978C152.162 30.1978 153.856 28.9275 153.856 27.3604C153.856 25.7934 152.162 24.5231 150.072 24.5231C147.983 24.5231 146.289 25.7934 146.289 27.3604C146.289 28.9275 147.983 30.1978 150.072 30.1978Z" fill = ""/>
<path id="XMLID_1411_" d="M168.358 30.1978C170.448 30.1978 172.142 28.9275 172.142 27.3604C172.142 25.7934 170.448 24.5231 168.358 24.5231C166.269 24.5231 164.575 25.7934 164.575 27.3604C164.575 28.9275 166.269 30.1978 168.358 30.1978Z" fill = ""/>
<path id="XMLID_1410_" d="M186.644 30.1978C188.734 30.1978 190.428 28.9275 190.428 27.3604C190.428 25.7934 188.734 24.5231 186.644 24.5231C184.555 24.5231 182.861 25.7934 182.861 27.3604C182.861 28.9275 184.555 30.1978 186.644 30.1978Z" fill = ""/>
<path id="XMLID_1409_" d="M22.0694 44.182C24.1589 44.182 25.8528 42.9117 25.8528 41.3447C25.8528 39.7776 24.1589 38.5073 22.0694 38.5073C19.98 38.5073 18.2861 39.7776 18.2861 41.3447C18.2861 42.9117 19.98 44.182 22.0694 44.182Z" fill = ""/>
<path id="XMLID_1408_" d="M40.3556 44.182C42.445 44.182 44.1389 42.9117 44.1389 41.3447C44.1389 39.7776 42.445 38.5073 40.3556 38.5073C38.2661 38.5073 36.5722 39.7776 36.5722 41.3447C36.5722 42.9117 38.2661 44.182 40.3556 44.182Z" fill = ""/>
<path id="XMLID_1407_" d="M58.6417 44.182C60.7312 44.182 62.425 42.9117 62.425 41.3447C62.425 39.7776 60.7312 38.5073 58.6417 38.5073C56.5522 38.5073 54.8584 39.7776 54.8584 41.3447C54.8584 42.9117 56.5522 44.182 58.6417 44.182Z" fill = ""/>
<path id="XMLID_1406_" d="M76.9278 44.182C79.0173 44.182 80.7111 42.9117 80.7111 41.3447C80.7111 39.7776 79.0173 38.5073 76.9278 38.5073C74.8383 38.5073 73.1444 39.7776 73.1444 41.3447C73.1444 42.9117 74.8383 44.182 76.9278 44.182Z" fill = ""/>
<path id="XMLID_1405_" d="M95.2139 44.182C97.3033 44.182 98.9972 42.9117 98.9972 41.3447C98.9972 39.7776 97.3033 38.5073 95.2139 38.5073C93.1244 38.5073 91.4305 39.7776 91.4305 41.3447C91.4305 42.9117 93.1244 44.182 95.2139 44.182Z" fill = ""/>
<path id="XMLID_1404_" d="M113.5 44.182C115.589 44.182 117.283 42.9117 117.283 41.3447C117.283 39.7776 115.589 38.5073 113.5 38.5073C111.411 38.5073 109.717 39.7776 109.717 41.3447C109.717 42.9117 111.411 44.182 113.5 44.182Z" fill = ""/>
<path id="XMLID_1403_" d="M131.786 44.182C133.876 44.182 135.569 42.9117 135.569 41.3447C135.569 39.7776 133.876 38.5073 131.786 38.5073C129.697 38.5073 128.003 39.7776 128.003 41.3447C128.003 42.9117 129.697 44.182 131.786 44.182Z" fill = ""/>
<path id="XMLID_1402_" d="M150.072 44.182C152.162 44.182 153.856 42.9117 153.856 41.3447C153.856 39.7776 152.162 38.5073 150.072 38.5073C147.983 38.5073 146.289 39.7776 146.289 41.3447C146.289 42.9117 147.983 44.182 150.072 44.182Z" fill = ""/>
<path id="XMLID_1401_" d="M168.358 44.182C170.448 44.182 172.142 42.9117 172.142 41.3447C172.142 39.7776 170.448 38.5073 168.358 38.5073C166.269 38.5073 164.575 39.7776 164.575 41.3447C164.575 42.9117 166.269 44.182 168.358 44.182Z" fill = ""/>
<path id="XMLID_1400_" d="M186.644 44.182C188.734 44.182 190.428 42.9117 190.428 41.3447C190.428 39.7776 188.734 38.5073 186.644 38.5073C184.555 38.5073 182.861 39.7776 182.861 41.3447C182.861 42.9117 184.555 44.182 186.644 44.182Z" fill = ""/>
<path id="XMLID_1399_" d="M204.931 44.182C207.02 44.182 208.714 42.9117 208.714 41.3447C208.714 39.7776 207.02 38.5073 204.931 38.5073C202.841 38.5073 201.147 39.7776 201.147 41.3447C201.147 42.9117 202.841 44.182 204.931 44.182Z" fill = ""/>
<path id="XMLID_1398_" d="M7.5667 55.3288C7.5667 54.1128 6.62083 53.3022 5.35972 52.6942C4.41389 54.3155 3.46809 56.1395 2.83754 57.9635C3.15281 57.9635 3.46805 58.1663 3.78333 58.1663C5.99027 58.1663 7.5667 56.9502 7.5667 55.3288Z" fill = ""/>
<path id="XMLID_1397_" d="M22.0694 58.1663C24.1589 58.1663 25.8528 56.8959 25.8528 55.3289C25.8528 53.7618 24.1589 52.4915 22.0694 52.4915C19.98 52.4915 18.2861 53.7618 18.2861 55.3289C18.2861 56.8959 19.98 58.1663 22.0694 58.1663Z" fill = ""/>
<path id="XMLID_1396_" d="M40.3556 58.1663C42.445 58.1663 44.1389 56.8959 44.1389 55.3289C44.1389 53.7618 42.445 52.4915 40.3556 52.4915C38.2661 52.4915 36.5722 53.7618 36.5722 55.3289C36.5722 56.8959 38.2661 58.1663 40.3556 58.1663Z" fill = ""/>
<path id="XMLID_1395_" d="M58.6417 58.1663C60.7312 58.1663 62.425 56.8959 62.425 55.3289C62.425 53.7618 60.7312 52.4915 58.6417 52.4915C56.5522 52.4915 54.8584 53.7618 54.8584 55.3289C54.8584 56.8959 56.5522 58.1663 58.6417 58.1663Z" fill = ""/>
<path id="XMLID_1394_" d="M76.9278 58.1663C79.0173 58.1663 80.7111 56.8959 80.7111 55.3289C80.7111 53.7618 79.0173 52.4915 76.9278 52.4915C74.8383 52.4915 73.1444 53.7618 73.1444 55.3289C73.1444 56.8959 74.8383 58.1663 76.9278 58.1663Z" fill = ""/>
<path id="XMLID_1393_" d="M95.2139 58.1663C97.3033 58.1663 98.9972 56.8959 98.9972 55.3289C98.9972 53.7618 97.3033 52.4915 95.2139 52.4915C93.1244 52.4915 91.4305 53.7618 91.4305 55.3289C91.4305 56.8959 93.1244 58.1663 95.2139 58.1663Z" fill = ""/>
<path id="XMLID_1392_" d="M113.5 58.1663C115.589 58.1663 117.283 56.8959 117.283 55.3289C117.283 53.7618 115.589 52.4915 113.5 52.4915C111.411 52.4915 109.717 53.7618 109.717 55.3289C109.717 56.8959 111.411 58.1663 113.5 58.1663Z" fill = ""/>
<path id="XMLID_1391_" d="M131.786 58.1663C133.876 58.1663 135.569 56.8959 135.569 55.3289C135.569 53.7618 133.876 52.4915 131.786 52.4915C129.697 52.4915 128.003 53.7618 128.003 55.3289C128.003 56.8959 129.697 58.1663 131.786 58.1663Z" fill = ""/>
<path id="XMLID_1390_" d="M150.072 58.1663C152.162 58.1663 153.856 56.8959 153.856 55.3289C153.856 53.7618 152.162 52.4915 150.072 52.4915C147.983 52.4915 146.289 53.7618 146.289 55.3289C146.289 56.8959 147.983 58.1663 150.072 58.1663Z" fill = ""/>
<path id="XMLID_1389_" d="M168.358 58.1663C170.448 58.1663 172.142 56.8959 172.142 55.3289C172.142 53.7618 170.448 52.4915 168.358 52.4915C166.269 52.4915 164.575 53.7618 164.575 55.3289C164.575 56.8959 166.269 58.1663 168.358 58.1663Z" fill = ""/>
<path id="XMLID_1388_" d="M186.644 58.1663C188.734 58.1663 190.428 56.8959 190.428 55.3289C190.428 53.7618 188.734 52.4915 186.644 52.4915C184.555 52.4915 182.861 53.7618 182.861 55.3289C182.861 56.8959 184.555 58.1663 186.644 58.1663Z" fill = ""/>
<path id="XMLID_1387_" d="M204.931 58.1663C207.02 58.1663 208.714 56.8959 208.714 55.3289C208.714 53.7618 207.02 52.4915 204.931 52.4915C202.841 52.4915 201.147 53.7618 201.147 55.3289C201.147 56.8959 202.841 58.1663 204.931 58.1663Z" fill = ""/>
<path id="XMLID_1386_" d="M219.433 55.3288C219.433 56.9502 221.325 58.1663 223.217 58.1663C223.532 58.1663 223.847 58.1662 224.162 57.9635C223.532 56.1395 222.586 54.5182 221.64 52.6942C220.379 53.3022 219.433 54.3155 219.433 55.3288Z" fill = ""/>
<path id="XMLID_1385_" d="M3.78332 72.3532C5.8728 72.3532 7.56669 71.0828 7.56669 69.5157C7.56669 67.9487 5.8728 66.6784 3.78332 66.6784C1.69385 66.6784 0 67.9487 0 69.5157C0 71.0828 1.69385 72.3532 3.78332 72.3532Z" fill = ""/>
<path id="XMLID_1384_" d="M22.0694 72.3532C24.1589 72.3532 25.8528 71.0828 25.8528 69.5157C25.8528 67.9487 24.1589 66.6784 22.0694 66.6784C19.98 66.6784 18.2861 67.9487 18.2861 69.5157C18.2861 71.0828 19.98 72.3532 22.0694 72.3532Z" fill = ""/>
<path id="XMLID_1383_" d="M40.3556 72.3532C42.445 72.3532 44.1389 71.0828 44.1389 69.5157C44.1389 67.9487 42.445 66.6784 40.3556 66.6784C38.2661 66.6784 36.5722 67.9487 36.5722 69.5157C36.5722 71.0828 38.2661 72.3532 40.3556 72.3532Z" fill = ""/>
<path id="XMLID_1382_" d="M58.6417 72.3532C60.7312 72.3532 62.425 71.0828 62.425 69.5157C62.425 67.9487 60.7312 66.6784 58.6417 66.6784C56.5522 66.6784 54.8584 67.9487 54.8584 69.5157C54.8584 71.0828 56.5522 72.3532 58.6417 72.3532Z" fill = ""/>
<path id="XMLID_1381_" d="M76.9278 72.3532C79.0173 72.3532 80.7111 71.0828 80.7111 69.5157C80.7111 67.9487 79.0173 66.6784 76.9278 66.6784C74.8383 66.6784 73.1444 67.9487 73.1444 69.5157C73.1444 71.0828 74.8383 72.3532 76.9278 72.3532Z" fill = ""/>
<path id="XMLID_1380_" d="M95.2139 72.3532C97.3033 72.3532 98.9972 71.0828 98.9972 69.5157C98.9972 67.9487 97.3033 66.6784 95.2139 66.6784C93.1244 66.6784 91.4305 67.9487 91.4305 69.5157C91.4305 71.0828 93.1244 72.3532 95.2139 72.3532Z" fill = ""/>
<path id="XMLID_1379_" d="M113.5 72.3532C115.589 72.3532 117.283 71.0828 117.283 69.5157C117.283 67.9487 115.589 66.6784 113.5 66.6784C111.411 66.6784 109.717 67.9487 109.717 69.5157C109.717 71.0828 111.411 72.3532 113.5 72.3532Z" fill = ""/>
<path id="XMLID_1378_" d="M131.786 72.3532C133.876 72.3532 135.569 71.0828 135.569 69.5157C135.569 67.9487 133.876 66.6784 131.786 66.6784C129.697 66.6784 128.003 67.9487 128.003 69.5157C128.003 71.0828 129.697 72.3532 131.786 72.3532Z" fill = ""/>
<path id="XMLID_1377_" d="M150.072 72.3532C152.162 72.3532 153.856 71.0828 153.856 69.5157C153.856 67.9487 152.162 66.6784 150.072 66.6784C147.983 66.6784 146.289 67.9487 146.289 69.5157C146.289 71.0828 147.983 72.3532 150.072 72.3532Z" fill = ""/>
<path id="XMLID_1376_" d="M168.358 72.3532C170.448 72.3532 172.142 71.0828 172.142 69.5157C172.142 67.9487 170.448 66.6784 168.358 66.6784C166.269 66.6784 164.575 67.9487 164.575 69.5157C164.575 71.0828 166.269 72.3532 168.358 72.3532Z" fill = ""/>
<path id="XMLID_1375_" d="M186.644 72.3532C188.734 72.3532 190.428 71.0828 190.428 69.5157C190.428 67.9487 188.734 66.6784 186.644 66.6784C184.555 66.6784 182.861 67.9487 182.861 69.5157C182.861 71.0828 184.555 72.3532 186.644 72.3532Z" fill = ""/>
<path id="XMLID_1374_" d="M204.931 72.3532C207.02 72.3532 208.714 71.0828 208.714 69.5157C208.714 67.9487 207.02 66.6784 204.931 66.6784C202.841 66.6784 201.147 67.9487 201.147 69.5157C201.147 71.0828 202.841 72.3532 204.931 72.3532Z" fill = ""/>
<path id="XMLID_1373_" d="M223.217 72.3532C225.306 72.3532 227 71.0828 227 69.5157C227 67.9487 225.306 66.6784 223.217 66.6784C221.127 66.6784 219.433 67.9487 219.433 69.5157C219.433 71.0828 221.127 72.3532 223.217 72.3532Z" fill = ""/>
<path id="XMLID_1372_" d="M3.78332 86.3373C5.8728 86.3373 7.56669 85.067 7.56669 83.5C7.56669 81.9329 5.8728 80.6625 3.78332 80.6625C1.69385 80.6625 0 81.9329 0 83.5C0 85.067 1.69385 86.3373 3.78332 86.3373Z" fill = ""/>
<path id="XMLID_1371_" d="M22.0694 86.3373C24.1589 86.3373 25.8528 85.067 25.8528 83.5C25.8528 81.9329 24.1589 80.6625 22.0694 80.6625C19.98 80.6625 18.2861 81.9329 18.2861 83.5C18.2861 85.067 19.98 86.3373 22.0694 86.3373Z" fill = ""/>
<path id="XMLID_1370_" d="M40.3556 86.3373C42.445 86.3373 44.1389 85.067 44.1389 83.5C44.1389 81.9329 42.445 80.6625 40.3556 80.6625C38.2661 80.6625 36.5722 81.9329 36.5722 83.5C36.5722 85.067 38.2661 86.3373 40.3556 86.3373Z" fill = ""/>
<path id="XMLID_1369_" d="M58.6417 86.3373C60.7312 86.3373 62.425 85.067 62.425 83.5C62.425 81.9329 60.7312 80.6625 58.6417 80.6625C56.5522 80.6625 54.8584 81.9329 54.8584 83.5C54.8584 85.067 56.5522 86.3373 58.6417 86.3373Z" fill = ""/>
<path id="XMLID_1368_" d="M76.9278 86.3373C79.0173 86.3373 80.7111 85.067 80.7111 83.5C80.7111 81.9329 79.0173 80.6625 76.9278 80.6625C74.8383 80.6625 73.1444 81.9329 73.1444 83.5C73.1444 85.067 74.8383 86.3373 76.9278 86.3373Z" fill = ""/>
<path id="XMLID_1367_" d="M95.2139 86.3373C97.3033 86.3373 98.9972 85.067 98.9972 83.5C98.9972 81.9329 97.3033 80.6625 95.2139 80.6625C93.1244 80.6625 91.4305 81.9329 91.4305 83.5C91.4305 85.067 93.1244 86.3373 95.2139 86.3373Z" fill = ""/>
<path id="XMLID_1366_" d="M113.5 86.3373C115.589 86.3373 117.283 85.067 117.283 83.5C117.283 81.9329 115.589 80.6625 113.5 80.6625C111.411 80.6625 109.717 81.9329 109.717 83.5C109.717 85.067 111.411 86.3373 113.5 86.3373Z" fill = ""/>
<path id="XMLID_1365_" d="M131.786 86.3373C133.876 86.3373 135.569 85.067 135.569 83.5C135.569 81.9329 133.876 80.6625 131.786 80.6625C129.697 80.6625 128.003 81.9329 128.003 83.5C128.003 85.067 129.697 86.3373 131.786 86.3373Z" fill = ""/>
<path id="XMLID_1364_" d="M150.072 86.3373C152.162 86.3373 153.856 85.067 153.856 83.5C153.856 81.9329 152.162 80.6625 150.072 80.6625C147.983 80.6625 146.289 81.9329 146.289 83.5C146.289 85.067 147.983 86.3373 150.072 86.3373Z" fill = ""/>
<path id="XMLID_1363_" d="M168.358 86.3373C170.448 86.3373 172.142 85.067 172.142 83.5C172.142 81.9329 170.448 80.6625 168.358 80.6625C166.269 80.6625 164.575 81.9329 164.575 83.5C164.575 85.067 166.269 86.3373 168.358 86.3373Z" fill = ""/>
<path id="XMLID_1362_" d="M186.644 86.3373C188.734 86.3373 190.428 85.067 190.428 83.5C190.428 81.9329 188.734 80.6625 186.644 80.6625C184.555 80.6625 182.861 81.9329 182.861 83.5C182.861 85.067 184.555 86.3373 186.644 86.3373Z" fill = ""/>
<path id="XMLID_1361_" d="M204.931 86.3373C207.02 86.3373 208.714 85.067 208.714 83.5C208.714 81.9329 207.02 80.6625 204.931 80.6625C202.841 80.6625 201.147 81.9329 201.147 83.5C201.147 85.067 202.841 86.3373 204.931 86.3373Z" fill = ""/>
<path id="XMLID_1360_" d="M223.217 86.3373C225.306 86.3373 227 85.067 227 83.5C227 81.9329 225.306 80.6625 223.217 80.6625C221.127 80.6625 219.433 81.9329 219.433 83.5C219.433 85.067 221.127 86.3373 223.217 86.3373Z" fill = ""/>
<path id="XMLID_1359_" d="M3.78332 100.322C5.8728 100.322 7.56669 99.0512 7.56669 97.4842C7.56669 95.9171 5.8728 94.6469 3.78332 94.6469C1.69385 94.6469 0 95.9171 0 97.4842C0 99.0512 1.69385 100.322 3.78332 100.322Z" fill = ""/>
<path id="XMLID_1358_" d="M22.0694 100.322C24.1589 100.322 25.8528 99.0512 25.8528 97.4842C25.8528 95.9171 24.1589 94.6469 22.0694 94.6469C19.98 94.6469 18.2861 95.9171 18.2861 97.4842C18.2861 99.0512 19.98 100.322 22.0694 100.322Z" fill = ""/>
<path id="XMLID_1357_" d="M40.3556 100.322C42.445 100.322 44.1389 99.0512 44.1389 97.4842C44.1389 95.9171 42.445 94.6469 40.3556 94.6469C38.2661 94.6469 36.5722 95.9171 36.5722 97.4842C36.5722 99.0512 38.2661 100.322 40.3556 100.322Z" fill = ""/>
<path id="XMLID_1356_" d="M58.6417 100.322C60.7312 100.322 62.425 99.0512 62.425 97.4842C62.425 95.9171 60.7312 94.6469 58.6417 94.6469C56.5522 94.6469 54.8584 95.9171 54.8584 97.4842C54.8584 99.0512 56.5522 100.322 58.6417 100.322Z" fill = ""/>
<path id="XMLID_1355_" d="M76.9278 100.322C79.0173 100.322 80.7111 99.0512 80.7111 97.4842C80.7111 95.9171 79.0173 94.6469 76.9278 94.6469C74.8383 94.6469 73.1444 95.9171 73.1444 97.4842C73.1444 99.0512 74.8383 100.322 76.9278 100.322Z" fill = ""/>
<path id="XMLID_1354_" d="M95.2139 100.322C97.3033 100.322 98.9972 99.0512 98.9972 97.4842C98.9972 95.9171 97.3033 94.6469 95.2139 94.6469C93.1244 94.6469 91.4305 95.9171 91.4305 97.4842C91.4305 99.0512 93.1244 100.322 95.2139 100.322Z" fill = ""/>
<path id="XMLID_1353_" d="M113.5 100.322C115.589 100.322 117.283 99.0512 117.283 97.4842C117.283 95.9171 115.589 94.6469 113.5 94.6469C111.411 94.6469 109.717 95.9171 109.717 97.4842C109.717 99.0512 111.411 100.322 113.5 100.322Z" fill = ""/>
<path id="XMLID_1352_" d="M131.786 100.322C133.876 100.322 135.569 99.0512 135.569 97.4842C135.569 95.9171 133.876 94.6469 131.786 94.6469C129.697 94.6469 128.003 95.9171 128.003 97.4842C128.003 99.0512 129.697 100.322 131.786 100.322Z" fill = ""/>
<path id="XMLID_1351_" d="M150.072 100.322C152.162 100.322 153.856 99.0512 153.856 97.4842C153.856 95.9171 152.162 94.6469 150.072 94.6469C147.983 94.6469 146.289 95.9171 146.289 97.4842C146.289 99.0512 147.983 100.322 150.072 100.322Z" fill = ""/>
<path id="XMLID_1350_" d="M168.358 100.322C170.448 100.322 172.142 99.0512 172.142 97.4842C172.142 95.9171 170.448 94.6469 168.358 94.6469C166.269 94.6469 164.575 95.9171 164.575 97.4842C164.575 99.0512 166.269 100.322 168.358 100.322Z" fill = ""/>
<path id="XMLID_1349_" d="M186.644 100.322C188.734 100.322 190.428 99.0512 190.428 97.4842C190.428 95.9171 188.734 94.6469 186.644 94.6469C184.555 94.6469 182.861 95.9171 182.861 97.4842C182.861 99.0512 184.555 100.322 186.644 100.322Z" fill = ""/>
<path id="XMLID_1348_" d="M204.931 100.322C207.02 100.322 208.714 99.0512 208.714 97.4842C208.714 95.9171 207.02 94.6469 204.931 94.6469C202.841 94.6469 201.147 95.9171 201.147 97.4842C201.147 99.0512 202.841 100.322 204.931 100.322Z" fill = ""/>
<path id="XMLID_1347_" d="M223.217 100.322C225.306 100.322 227 99.0512 227 97.4842C227 95.9171 225.306 94.6469 223.217 94.6469C221.127 94.6469 219.433 95.9171 219.433 97.4842C219.433 99.0512 221.127 100.322 223.217 100.322Z" fill = ""/>
<path id="XMLID_1346_" d="M7.5667 111.671C7.5667 110.05 5.675 108.834 3.78333 108.834C3.46805 108.834 3.15281 108.834 2.83754 109.036C3.46809 110.86 4.41389 112.482 5.35972 114.306C6.62083 113.698 7.5667 112.684 7.5667 111.671Z" fill = ""/>
<path id="XMLID_1345_" d="M22.0694 114.508C24.1589 114.508 25.8528 113.238 25.8528 111.671C25.8528 110.104 24.1589 108.834 22.0694 108.834C19.98 108.834 18.2861 110.104 18.2861 111.671C18.2861 113.238 19.98 114.508 22.0694 114.508Z" fill = ""/>
<path id="XMLID_1344_" d="M40.3556 114.508C42.445 114.508 44.1389 113.238 44.1389 111.671C44.1389 110.104 42.445 108.834 40.3556 108.834C38.2661 108.834 36.5722 110.104 36.5722 111.671C36.5722 113.238 38.2661 114.508 40.3556 114.508Z" fill = ""/>
<path id="XMLID_1343_" d="M58.6417 114.508C60.7312 114.508 62.425 113.238 62.425 111.671C62.425 110.104 60.7312 108.834 58.6417 108.834C56.5522 108.834 54.8584 110.104 54.8584 111.671C54.8584 113.238 56.5522 114.508 58.6417 114.508Z" fill = ""/>
<path id="XMLID_1342_" d="M76.9278 114.508C79.0173 114.508 80.7111 113.238 80.7111 111.671C80.7111 110.104 79.0173 108.834 76.9278 108.834C74.8383 108.834 73.1444 110.104 73.1444 111.671C73.1444 113.238 74.8383 114.508 76.9278 114.508Z" fill = ""/>
<path id="XMLID_1341_" d="M95.2139 114.508C97.3033 114.508 98.9972 113.238 98.9972 111.671C98.9972 110.104 97.3033 108.834 95.2139 108.834C93.1244 108.834 91.4305 110.104 91.4305 111.671C91.4305 113.238 93.1244 114.508 95.2139 114.508Z" fill = ""/>
<path id="XMLID_1340_" d="M113.5 114.508C115.589 114.508 117.283 113.238 117.283 111.671C117.283 110.104 115.589 108.834 113.5 108.834C111.411 108.834 109.717 110.104 109.717 111.671C109.717 113.238 111.411 114.508 113.5 114.508Z" fill = ""/>
<path id="XMLID_1339_" d="M131.786 114.508C133.876 114.508 135.569 113.238 135.569 111.671C135.569 110.104 133.876 108.834 131.786 108.834C129.697 108.834 128.003 110.104 128.003 111.671C128.003 113.238 129.697 114.508 131.786 114.508Z" fill = ""/>
<path id="XMLID_1338_" d="M150.072 114.508C152.162 114.508 153.856 113.238 153.856 111.671C153.856 110.104 152.162 108.834 150.072 108.834C147.983 108.834 146.289 110.104 146.289 111.671C146.289 113.238 147.983 114.508 150.072 114.508Z" fill = ""/>
<path id="XMLID_1337_" d="M168.358 114.508C170.448 114.508 172.142 113.238 172.142 111.671C172.142 110.104 170.448 108.834 168.358 108.834C166.269 108.834 164.575 110.104 164.575 111.671C164.575 113.238 166.269 114.508 168.358 114.508Z" fill = ""/>
<path id="XMLID_1336_" d="M186.644 114.508C188.734 114.508 190.428 113.238 190.428 111.671C190.428 110.104 188.734 108.834 186.644 108.834C184.555 108.834 182.861 110.104 182.861 111.671C182.861 113.238 184.555 114.508 186.644 114.508Z" fill = ""/>
<path id="XMLID_1335_" d="M204.931 114.508C207.02 114.508 208.714 113.238 208.714 111.671C208.714 110.104 207.02 108.834 204.931 108.834C202.841 108.834 201.147 110.104 201.147 111.671C201.147 113.238 202.841 114.508 204.931 114.508Z" fill = ""/>
<path id="XMLID_1334_" d="M219.433 111.671C219.433 112.887 220.379 113.698 221.64 114.306C222.586 112.684 223.532 110.86 224.162 109.036C223.847 109.036 223.532 108.834 223.217 108.834C221.01 108.834 219.433 110.05 219.433 111.671Z" fill = ""/>
<path id="XMLID_1333_" d="M22.0694 128.493C24.1589 128.493 25.8528 127.222 25.8528 125.655C25.8528 124.088 24.1589 122.818 22.0694 122.818C19.98 122.818 18.2861 124.088 18.2861 125.655C18.2861 127.222 19.98 128.493 22.0694 128.493Z" fill = ""/>
<path id="XMLID_1332_" d="M40.3556 128.493C42.445 128.493 44.1389 127.222 44.1389 125.655C44.1389 124.088 42.445 122.818 40.3556 122.818C38.2661 122.818 36.5722 124.088 36.5722 125.655C36.5722 127.222 38.2661 128.493 40.3556 128.493Z" fill = ""/>
<path id="XMLID_1331_" d="M58.6417 128.493C60.7312 128.493 62.425 127.222 62.425 125.655C62.425 124.088 60.7312 122.818 58.6417 122.818C56.5522 122.818 54.8584 124.088 54.8584 125.655C54.8584 127.222 56.5522 128.493 58.6417 128.493Z" fill = ""/>
<path id="XMLID_1330_" d="M76.9278 128.493C79.0173 128.493 80.7111 127.222 80.7111 125.655C80.7111 124.088 79.0173 122.818 76.9278 122.818C74.8383 122.818 73.1444 124.088 73.1444 125.655C73.1444 127.222 74.8383 128.493 76.9278 128.493Z" fill = ""/>
<path id="XMLID_1329_" d="M95.2139 128.493C97.3033 128.493 98.9972 127.222 98.9972 125.655C98.9972 124.088 97.3033 122.818 95.2139 122.818C93.1244 122.818 91.4305 124.088 91.4305 125.655C91.4305 127.222 93.1244 128.493 95.2139 128.493Z" fill = ""/>
<path id="XMLID_1328_" d="M113.5 128.493C115.589 128.493 117.283 127.222 117.283 125.655C117.283 124.088 115.589 122.818 113.5 122.818C111.411 122.818 109.717 124.088 109.717 125.655C109.717 127.222 111.411 128.493 113.5 128.493Z" fill = ""/>
<path id="XMLID_1327_" d="M131.786 128.493C133.876 128.493 135.569 127.222 135.569 125.655C135.569 124.088 133.876 122.818 131.786 122.818C129.697 122.818 128.003 124.088 128.003 125.655C128.003 127.222 129.697 128.493 131.786 128.493Z" fill = ""/>
<path id="XMLID_1326_" d="M150.072 128.493C152.162 128.493 153.856 127.222 153.856 125.655C153.856 124.088 152.162 122.818 150.072 122.818C147.983 122.818 146.289 124.088 146.289 125.655C146.289 127.222 147.983 128.493 150.072 128.493Z" fill = ""/>
<path id="XMLID_1325_" d="M168.358 128.493C170.448 128.493 172.142 127.222 172.142 125.655C172.142 124.088 170.448 122.818 168.358 122.818C166.269 122.818 164.575 124.088 164.575 125.655C164.575 127.222 166.269 128.493 168.358 128.493Z" fill = ""/>
<path id="XMLID_1324_" d="M186.644 128.493C188.734 128.493 190.428 127.222 190.428 125.655C190.428 124.088 188.734 122.818 186.644 122.818C184.555 122.818 182.861 124.088 182.861 125.655C182.861 127.222 184.555 128.493 186.644 128.493Z" fill = ""/>
<path id="XMLID_1323_" d="M204.931 128.493C207.02 128.493 208.714 127.222 208.714 125.655C208.714 124.088 207.02 122.818 204.931 122.818C202.841 122.818 201.147 124.088 201.147 125.655C201.147 127.222 202.841 128.493 204.931 128.493Z" fill = ""/>
<path id="XMLID_1322_" d="M40.3556 142.477C42.445 142.477 44.1389 141.207 44.1389 139.64C44.1389 138.073 42.445 136.802 40.3556 136.802C38.2661 136.802 36.5722 138.073 36.5722 139.64C36.5722 141.207 38.2661 142.477 40.3556 142.477Z" fill = ""/>
<path id="XMLID_1321_" d="M58.6417 142.477C60.7312 142.477 62.425 141.207 62.425 139.64C62.425 138.073 60.7312 136.802 58.6417 136.802C56.5522 136.802 54.8584 138.073 54.8584 139.64C54.8584 141.207 56.5522 142.477 58.6417 142.477Z" fill = ""/>
<path id="XMLID_1320_" d="M76.9278 142.477C79.0173 142.477 80.7111 141.207 80.7111 139.64C80.7111 138.073 79.0173 136.802 76.9278 136.802C74.8383 136.802 73.1444 138.073 73.1444 139.64C73.1444 141.207 74.8383 142.477 76.9278 142.477Z" fill = ""/>
<path id="XMLID_1319_" d="M95.2139 142.477C97.3033 142.477 98.9972 141.207 98.9972 139.64C98.9972 138.073 97.3033 136.802 95.2139 136.802C93.1244 136.802 91.4305 138.073 91.4305 139.64C91.4305 141.207 93.1244 142.477 95.2139 142.477Z" fill = ""/>
<path id="XMLID_1318_" d="M113.5 142.477C115.589 142.477 117.283 141.207 117.283 139.64C117.283 138.073 115.589 136.802 113.5 136.802C111.411 136.802 109.717 138.073 109.717 139.64C109.717 141.207 111.411 142.477 113.5 142.477Z" fill = ""/>
<path id="XMLID_1317_" d="M131.786 142.477C133.876 142.477 135.569 141.207 135.569 139.64C135.569 138.073 133.876 136.802 131.786 136.802C129.697 136.802 128.003 138.073 128.003 139.64C128.003 141.207 129.697 142.477 131.786 142.477Z" fill = ""/>
<path id="XMLID_1316_" d="M150.072 142.477C152.162 142.477 153.856 141.207 153.856 139.64C153.856 138.073 152.162 136.802 150.072 136.802C147.983 136.802 146.289 138.073 146.289 139.64C146.289 141.207 147.983 142.477 150.072 142.477Z" fill = ""/>
<path id="XMLID_1315_" d="M168.358 142.477C170.448 142.477 172.142 141.207 172.142 139.64C172.142 138.073 170.448 136.802 168.358 136.802C166.269 136.802 164.575 138.073 164.575 139.64C164.575 141.207 166.269 142.477 168.358 142.477Z" fill = ""/>
<path id="XMLID_1314_" d="M186.644 142.477C188.734 142.477 190.428 141.207 190.428 139.64C190.428 138.073 188.734 136.802 186.644 136.802C184.555 136.802 182.861 138.073 182.861 139.64C182.861 141.207 184.555 142.477 186.644 142.477Z" fill = ""/>
<path id="XMLID_1313_" d="M58.6417 156.461C60.7312 156.461 62.425 155.191 62.425 153.624C62.425 152.057 60.7312 150.786 58.6417 150.786C56.5522 150.786 54.8584 152.057 54.8584 153.624C54.8584 155.191 56.5522 156.461 58.6417 156.461Z" fill = ""/>
<path id="XMLID_1312_" d="M76.9278 156.461C79.0173 156.461 80.7111 155.191 80.7111 153.624C80.7111 152.057 79.0173 150.786 76.9278 150.786C74.8383 150.786 73.1444 152.057 73.1444 153.624C73.1444 155.191 74.8383 156.461 76.9278 156.461Z" fill = ""/>
<path id="XMLID_1311_" d="M95.2139 156.461C97.3033 156.461 98.9972 155.191 98.9972 153.624C98.9972 152.057 97.3033 150.786 95.2139 150.786C93.1244 150.786 91.4305 152.057 91.4305 153.624C91.4305 155.191 93.1244 156.461 95.2139 156.461Z" fill = ""/>
<path id="XMLID_1310_" d="M113.5 156.461C115.589 156.461 117.283 155.191 117.283 153.624C117.283 152.057 115.589 150.786 113.5 150.786C111.411 150.786 109.717 152.057 109.717 153.624C109.717 155.191 111.411 156.461 113.5 156.461Z" fill = ""/>
<path id="XMLID_1309_" d="M131.786 156.461C133.876 156.461 135.569 155.191 135.569 153.624C135.569 152.057 133.876 150.786 131.786 150.786C129.697 150.786 128.003 152.057 128.003 153.624C128.003 155.191 129.697 156.461 131.786 156.461Z" fill = ""/>
<path id="XMLID_1308_" d="M150.072 156.461C152.162 156.461 153.856 155.191 153.856 153.624C153.856 152.057 152.162 150.786 150.072 150.786C147.983 150.786 146.289 152.057 146.289 153.624C146.289 155.191 147.983 156.461 150.072 156.461Z" fill = ""/>
<path id="XMLID_1307_" d="M168.358 156.461C170.448 156.461 172.142 155.191 172.142 153.624C172.142 152.057 170.448 150.786 168.358 150.786C166.269 150.786 164.575 152.057 164.575 153.624C164.575 155.191 166.269 156.461 168.358 156.461Z" fill = ""/>
<path id="XMLID_1306_" d="M95.2139 164.973C94.268 164.973 93.3222 165.176 92.3764 165.784C94.268 165.987 96.475 166.189 98.3666 166.392C98.0514 165.581 96.7902 164.973 95.2139 164.973Z" fill = ""/>
<path id="XMLID_1305_" d="M113.5 164.973C111.608 164.973 110.032 165.784 109.717 167C110.978 167 112.239 167 113.5 167C114.761 167 116.022 167 117.283 167C116.968 165.784 115.392 164.973 113.5 164.973Z" fill = ""/>
<path id="XMLID_1304_" d="M128.318 166.392C130.525 166.189 132.417 165.987 134.308 165.784C133.678 165.379 132.732 164.973 131.471 164.973C130.21 164.973 128.949 165.581 128.318 166.392Z" fill = ""/>
</g>
</svg>
