<svg width="527" height="175" viewBox="0 0 527 175" fill="none" xmlns="http://www.w3.org/2000/svg">
<g id="dotWave">
<path id="XMLID_720_" d="M2.46839 84.8683C1.8513 84.8683 1.2342 84.5396 0.925653 84.2106C0.617105 83.8817 0.617115 83.8816 0.308567 83.5527C0.308567 83.2237 0 83.2237 0 82.8947C0 82.2369 0.308539 81.9078 0.617087 81.5789C1.23418 81.2499 1.8513 80.9211 2.46839 80.9211H2.77696C2.77696 80.9211 3.08548 80.9211 3.08548 81.25C3.08548 81.25 3.39405 81.2499 3.39405 81.5789C3.70259 81.9078 4.01113 82.5658 4.01113 82.8947C4.01113 83.2237 4.01113 83.5527 4.01113 83.5527C4.01113 83.8816 3.70259 83.8817 3.39405 84.2106L3.08548 84.5395C3.08548 84.5395 2.77696 84.5394 2.77696 84.8683H2.46839C2.46839 84.8683 2.77694 84.8683 2.46839 84.8683Z" fill="black"/>
<path id="XMLID_722_" d="M2.77695 74.6711C1.54276 74.6711 0.617097 73.6843 0.925645 72.6975C0.925645 71.7106 2.15985 71.0527 3.39404 71.0527C4.62823 71.0527 5.55385 72.0395 5.2453 73.0263C5.2453 73.6842 4.31969 74.6711 2.77695 74.6711C3.0855 74.6711 3.0855 74.6711 2.77695 74.6711ZM184.203 72.6975C184.203 71.7106 184.82 70.7237 186.054 70.7237C187.289 70.7237 188.214 71.3816 188.523 72.3684C188.523 73.3552 187.906 74.3422 186.672 74.3422H186.363C185.129 74.3422 184.203 73.6843 184.203 72.6975ZM4.62821 64.4738C3.39402 64.1448 2.77692 63.158 3.08547 62.1711C3.39402 61.1843 4.62824 60.5263 5.86243 60.8552C7.09662 61.1842 7.71372 62.1711 7.40517 63.1579C7.09662 64.1448 6.17094 64.4738 5.2453 64.4738C5.2453 64.4738 4.93676 64.4738 4.62821 64.4738ZM182.043 62.8291C181.735 61.8422 182.352 60.8553 183.586 60.5264C184.82 60.1974 186.054 60.8552 186.054 61.842C186.363 62.8289 185.746 63.8158 184.512 64.1447C184.203 64.1447 184.203 64.1447 183.895 64.1447C182.969 64.4737 182.043 63.8159 182.043 62.8291ZM8.02226 54.6054C6.78807 54.2764 6.47949 52.9605 6.78804 51.9736C7.09659 50.9868 8.63936 50.6579 9.565 50.9868C10.7992 51.3158 11.1077 52.6315 10.7992 53.6184C10.4906 54.2763 9.56499 54.9342 8.63935 54.9342C8.63935 54.9342 8.33081 54.9343 8.02226 54.6054ZM178.341 53.6184C178.032 52.6315 178.341 51.6447 179.575 50.9868C180.809 50.6579 182.043 50.9868 182.352 51.9736C182.66 52.9605 182.352 53.9475 181.118 54.6054C180.809 54.6054 180.501 54.6054 180.192 54.6054C179.575 54.6054 178.649 54.2763 178.341 53.6184ZM12.6505 45.3947C11.7248 44.7368 11.1077 43.75 11.7248 42.7631C12.3419 41.7763 13.5761 41.4473 14.8103 42.1052C15.7359 42.7631 16.3531 43.7501 15.736 44.737C15.4274 45.3948 14.5017 45.7238 13.8847 45.7238C13.5761 45.7238 12.959 45.7236 12.6505 45.3947ZM173.713 44.737C173.095 43.7501 173.404 42.7631 174.638 42.1052C175.564 41.4473 177.107 41.7763 177.724 42.7631C178.341 43.75 178.032 44.7368 176.798 45.3947C176.489 45.3947 176.181 45.7238 175.872 45.7238C174.638 45.7238 174.021 45.0659 173.713 44.737ZM18.8214 36.8421C17.8958 36.1842 17.5873 35.1974 18.2044 34.2106C18.8214 33.2238 20.3642 33.2236 21.2898 33.8815C22.2155 34.5394 22.524 35.5264 21.9069 36.5133C21.5984 37.1712 20.6727 37.171 20.0556 37.171C19.4385 37.171 19.13 36.8421 18.8214 36.8421ZM167.542 36.1842C166.924 35.1974 166.925 34.2106 168.159 33.5527C169.084 32.8948 170.627 33.2236 171.244 33.8815C171.861 34.8684 171.861 35.8554 170.627 36.5133C170.319 36.8422 169.701 36.8421 169.393 36.8421C168.467 36.8421 167.85 36.8421 167.542 36.1842ZM25.9181 28.6185C24.9924 27.9606 24.9924 26.6448 25.9181 25.9869C26.8437 25.329 28.0779 25.329 29.0035 25.9869C29.9292 26.6448 29.9292 27.9606 29.0035 28.6185C28.695 28.9474 28.0779 29.2764 27.4608 29.2764C26.8437 29.2764 26.2266 28.9474 25.9181 28.6185ZM160.136 28.6185C159.211 27.9606 159.211 26.6448 160.136 25.9869C161.062 25.329 162.296 25.329 163.222 25.9869C164.148 26.6448 164.148 27.9606 163.222 28.6185C162.913 28.9474 162.296 29.2764 161.679 29.2764C161.371 29.2764 160.754 28.9474 160.136 28.6185ZM34.2488 21.7106C33.6317 21.0527 33.6317 19.7368 34.5574 19.0789C35.483 18.421 36.7172 18.4211 37.6428 19.408C38.2599 20.0659 38.26 21.3816 37.3343 22.0395C37.0258 22.3685 36.4086 22.3684 36.1001 22.3684C35.1745 22.3684 34.5574 22.0396 34.2488 21.7106ZM152.114 21.7106C151.189 21.0527 151.189 19.7368 151.806 19.0789C152.423 18.421 153.965 18.0921 154.891 18.75C155.817 19.4079 155.817 20.7237 155.2 21.3816C154.891 21.7105 154.274 22.0395 153.657 22.0395C153.04 22.0395 152.423 22.0396 152.114 21.7106ZM43.5053 15.4606C42.8882 14.4737 43.1967 13.4869 44.1224 12.829C45.048 12.1711 46.5908 12.5001 47.2078 13.487C47.8249 14.4738 47.5164 15.4606 46.5908 16.1185C46.2822 16.4474 45.9736 16.4474 45.3565 16.4474C44.4309 16.1184 43.8138 16.1185 43.5053 15.4606ZM142.858 15.7894C141.932 15.1315 141.624 14.1447 142.241 13.1579C142.858 12.171 144.092 12.171 145.326 12.5C146.252 13.1579 146.56 14.1449 145.943 15.1317C145.635 15.7896 144.709 16.1185 144.092 16.1185C143.783 16.1185 143.166 16.1184 142.858 15.7894ZM53.3788 10.1975C52.7617 9.21064 53.3788 8.22364 54.3044 7.56575C55.5386 7.2368 56.7729 7.56591 57.0814 8.55275C57.6985 9.53959 57.0814 10.5264 56.1557 11.1843C55.8472 11.1843 55.5387 11.5132 55.2301 11.5132C54.613 11.5132 53.6874 10.8554 53.3788 10.1975ZM132.984 11.1843C131.75 10.8553 131.441 9.53959 132.059 8.55275C132.676 7.56591 133.91 7.2368 134.835 7.56575C136.07 7.89469 136.378 9.21064 135.761 10.1975C135.453 10.8554 134.527 11.1843 133.91 11.1843C133.601 11.1843 133.293 11.1843 132.984 11.1843ZM64.178 6.25008C63.8694 5.26324 64.4865 4.27635 65.4122 3.94741C66.6464 3.61846 67.8805 4.27644 68.1891 5.26328C68.4976 6.25012 67.8805 7.2368 66.6463 7.56575C66.3378 7.56575 66.3378 7.56575 66.0293 7.56575C65.1037 7.56575 64.4865 7.23692 64.178 6.25008ZM122.494 7.56575C121.259 7.2368 120.642 6.25012 121.259 5.26328C121.568 4.27644 122.802 3.61846 124.036 3.94741C125.27 4.27635 125.888 5.26324 125.27 6.25008C124.962 6.90797 124.036 7.56575 123.111 7.56575C122.802 7.56575 122.802 7.56575 122.494 7.56575ZM75.2857 3.61854C74.9772 2.6317 75.9028 1.64482 77.137 1.31587C78.3712 0.986922 79.2968 1.97376 79.6054 2.96061C79.9139 3.94745 78.9883 4.93433 77.7541 5.26328H77.4455C76.2113 4.93433 75.2857 4.60538 75.2857 3.61854ZM111.386 4.93421C110.152 4.60526 109.535 3.61838 109.535 2.63154C109.843 1.6447 110.769 0.986802 112.003 0.986802C113.237 1.31575 113.854 2.30263 113.854 3.28947C113.546 4.27631 112.62 4.93421 111.694 4.93421C111.694 4.93421 111.694 4.93421 111.386 4.93421ZM86.702 1.9738C86.702 0.986962 87.6276 0 88.8618 0C90.096 0 91.0217 0.657895 91.0217 1.64474C91.0217 2.63158 90.096 3.61854 88.8618 3.61854C87.6276 3.94749 86.702 2.96065 86.702 1.9738ZM100.278 3.94741C99.044 3.94741 98.1183 2.96065 98.1183 1.9738C98.1183 0.986962 99.3525 0.000120459 100.278 0.329068C101.512 0.329068 102.438 1.31583 102.438 2.30267C102.438 2.96057 101.512 3.94741 100.278 3.94741Z" fill="black"/>
<path id="XMLID_748_" d="M186.98 84.8683C186.671 84.8683 186.363 84.8683 186.054 84.8683C185.746 84.8683 185.437 84.5395 185.437 84.5395C185.129 84.2105 184.82 83.5525 184.82 83.2236C184.82 82.5657 185.129 82.2369 185.437 81.9079C185.746 81.579 185.746 81.5789 186.054 81.5789C186.98 81.2499 187.906 81.579 188.523 81.9079C188.831 82.2369 189.14 82.8946 189.14 83.2236C189.14 83.8815 188.831 84.2105 188.523 84.5395C188.214 84.8684 188.214 84.8683 187.906 84.8683C187.597 84.5394 187.289 84.8683 186.98 84.8683Z" fill="black"/>
<path id="XMLID_751_" d="M29.6207 84.8684H29.3121H29.0036C29.0036 84.8684 28.695 84.8685 28.695 84.5395C28.695 84.5395 28.3864 84.5396 28.3864 84.2106L28.0779 83.8816C28.0779 83.8816 28.0779 83.5527 27.7693 83.5527V83.2236V82.8948C27.7693 82.2369 28.0779 81.9079 28.3864 81.5789C29.0035 80.921 29.9292 80.9211 30.8548 81.25C31.1634 81.25 31.4719 81.5789 31.4719 81.5789C31.7805 81.9079 31.7805 81.9079 32.089 82.2368C32.089 82.5658 32.3976 82.8948 32.3976 82.8948C32.3976 83.5527 32.089 83.8817 31.7805 84.2106C30.8548 84.5396 30.2378 84.8684 29.6207 84.8684Z" fill="black"/>
<path id="XMLID_753_" d="M30.2377 74.671C29.0035 74.3421 28.3864 73.3552 28.3864 72.3684C28.695 71.3815 29.6206 70.7236 30.8548 70.7236C32.089 71.0526 32.7061 72.0395 32.7061 73.0263C32.3976 74.0131 31.4719 74.671 30.5463 74.671C30.5463 74.671 30.5463 74.671 30.2377 74.671ZM156.434 73.0263C156.125 72.0395 157.051 71.0526 158.285 70.7236C159.519 70.3947 160.753 71.3815 160.753 72.3684C161.062 73.3552 160.136 74.3421 158.902 74.671H158.594C157.668 74.671 156.742 74.0131 156.434 73.0263ZM33.0146 65.1315C31.7804 64.8025 31.1634 63.8159 31.7805 62.829C32.089 61.8422 33.3232 61.1841 34.5574 61.842C35.7916 62.171 36.4087 63.1578 35.7916 64.1447C35.483 64.8026 34.5574 65.4606 33.6318 65.4606C33.3232 65.1316 33.0146 65.1315 33.0146 65.1315ZM153.657 63.8158C153.348 62.829 153.965 61.8421 154.891 61.5131C156.125 61.1842 157.359 61.5131 157.668 62.4999C157.977 63.4868 157.359 64.4737 156.434 64.8026C156.125 64.8026 155.817 64.8026 155.817 64.8026C154.891 65.1316 153.965 64.4737 153.657 63.8158ZM37.3343 55.921C36.4087 55.2631 36.1001 54.2763 36.4087 53.2895C37.0258 52.3026 38.26 51.9736 39.4942 52.6315C40.4198 53.2894 40.7284 54.2762 40.4198 55.2631C40.1113 55.921 39.1856 56.2501 38.5685 56.2501C37.9514 56.2501 37.6429 56.2499 37.3343 55.921ZM149.029 55.2631C148.412 54.2762 148.72 53.2894 149.954 52.6315C150.88 51.9736 152.423 52.3026 153.04 53.2895C153.657 54.2763 153.348 55.2631 152.114 55.921C151.806 56.2499 151.497 56.2501 150.88 56.2501C150.263 56.2501 149.337 55.921 149.029 55.2631ZM43.5053 47.6973C42.5796 47.0394 42.5796 45.7237 43.1967 45.0658C43.8138 44.4079 45.3566 44.079 46.2822 44.7369C47.2079 45.3948 47.2079 46.7106 46.5908 47.3685C46.2822 47.6974 45.6651 48.0264 45.048 48.0264C44.4309 48.0264 43.8138 48.0263 43.5053 47.6973ZM142.858 47.3685C141.932 46.7106 142.241 45.3948 143.166 44.7369C144.092 44.079 145.326 44.0789 146.252 45.0658C146.869 45.7237 146.869 47.0394 145.943 47.6973C145.635 48.0263 145.018 48.0264 144.709 48.0264C143.783 48.0264 143.166 47.6974 142.858 47.3685ZM51.2189 40.4604C50.6019 39.8025 50.6019 38.4868 51.5275 37.8289C52.4532 37.171 53.6873 37.1711 54.613 38.158C55.5386 38.8159 55.2301 40.1316 54.3044 40.7895C53.9959 41.1185 53.3788 41.1184 53.0703 41.1184C52.1446 41.1184 51.5275 40.7894 51.2189 40.4604ZM134.835 40.4604C133.91 39.8025 133.91 38.4868 134.527 37.8289C135.144 37.171 136.687 36.8421 137.612 37.5C138.538 38.1579 138.538 39.4737 137.921 40.1316C137.612 40.4605 136.995 40.7895 136.378 40.7895C135.761 40.7895 135.453 40.7894 134.835 40.4604ZM60.1669 34.2106C59.5498 33.2237 59.8583 32.2369 61.0925 31.579C62.0182 30.9211 63.5609 31.2499 64.178 32.2368C64.7951 33.2236 64.4866 34.2106 63.2524 34.8685C62.9438 35.1974 62.6352 35.1974 62.0181 35.1974C61.401 35.1974 60.784 34.8685 60.1669 34.2106ZM125.888 34.8685C124.962 34.2106 124.653 33.2236 124.962 32.2368C125.579 31.2499 126.813 30.9211 128.047 31.579C128.973 32.2369 129.282 33.2237 128.973 34.2106C128.665 34.8685 127.739 35.1974 127.122 35.1974C126.813 35.1974 126.505 35.1974 125.888 34.8685ZM70.349 29.9343C70.0404 28.9474 70.6575 27.9606 71.5831 27.6316C72.8173 27.3027 74.0515 27.6316 74.36 28.6184C74.6686 29.6053 74.0515 30.5921 73.1259 30.9211C72.8173 30.9211 72.5088 30.9211 72.5088 30.9211C71.5832 30.9211 70.6575 30.5922 70.349 29.9343ZM116.014 30.9211C114.78 30.5921 114.163 29.6053 114.78 28.6184C115.088 27.6316 116.323 26.9737 117.557 27.6316C118.791 27.9606 119.408 28.9474 118.791 29.9343C118.482 30.5922 117.557 31.25 116.631 31.25C116.631 30.921 116.323 30.9211 116.014 30.9211ZM81.1481 26.9737C80.8396 25.9868 81.7653 25 82.9994 24.671C84.2336 24.3421 85.1592 25.3289 85.4678 26.3157C85.7763 27.3026 84.8507 28.2895 83.6165 28.6184H83.308C82.3824 28.6184 81.4567 27.9605 81.1481 26.9737ZM105.523 28.6184C104.289 28.2895 103.672 27.3026 103.672 26.3157C103.981 25.3289 104.906 24.671 106.141 24.671C107.375 25 107.992 25.9868 107.992 26.9737C107.683 27.9605 106.758 28.6184 105.832 28.6184H105.523ZM94.7242 27.6316C93.49 27.6316 92.5645 26.6446 92.5645 25.6578C92.5645 24.671 93.49 23.6842 94.7242 23.6842C95.9584 23.6842 96.8841 24.671 96.8841 25.6578C96.8841 26.6446 95.9584 27.6316 94.7242 27.6316C94.7242 27.6316 93.49 27.6316 94.7242 27.6316Z" fill="black"/>
<path id="XMLID_772_" d="M159.519 84.8682C159.211 84.8682 158.902 84.8682 158.594 84.8682C158.285 84.8682 157.977 84.5393 157.977 84.5393C157.668 84.2104 157.668 84.2104 157.36 83.8814C157.36 83.5525 157.36 83.5524 157.36 83.2235V82.8946V82.5657C157.36 82.5657 157.359 82.2367 157.668 82.2367C157.668 82.2367 157.668 81.9078 157.977 81.9078C158.285 81.5789 158.285 81.5787 158.594 81.5787C159.519 81.2498 160.445 81.5789 161.062 81.9078L161.371 82.2367C161.371 82.2367 161.371 82.5657 161.679 82.5657V82.8946V83.2235C161.679 83.5524 161.679 83.8814 161.371 83.8814C161.371 84.2104 161.062 84.2104 161.062 84.5393C160.754 84.5393 160.136 84.8682 159.519 84.8682Z" fill="black"/>
<path id="XMLID_775_" d="M56.4643 84.8685C55.8472 84.8685 55.2301 84.5397 54.9216 84.2108C54.613 83.8818 54.3044 83.2238 54.3044 82.8949C54.3044 82.237 54.613 81.908 54.9216 81.579C55.5387 80.9211 56.4643 80.9212 57.3899 81.2502C57.6985 81.2502 58.0071 81.579 58.0071 81.579C58.3156 81.908 58.6242 82.5659 58.6242 82.8949V83.2238V83.5528C58.6242 83.5528 58.6242 83.8817 58.3156 83.8817L58.0071 84.2108C57.39 84.5397 56.7729 84.8685 56.4643 84.8685Z" fill="black"/>
<path id="XMLID_777_" d="M57.3899 75C56.1557 74.671 55.5386 73.6844 55.8471 72.6975C56.1557 71.7107 57.3899 71.0527 58.6241 71.3816C59.8583 71.7106 60.4754 72.6975 60.1669 73.6843C59.8583 74.6712 58.9326 75 58.007 75C57.6984 75.3289 57.3899 75.3289 57.3899 75ZM129.282 73.6843C128.973 72.6975 129.59 71.7106 130.824 71.3816C132.059 71.0527 133.293 71.7107 133.601 72.6975C133.91 73.6844 133.293 74.671 132.059 75C131.75 75 131.75 75 131.441 75C130.516 75.3289 129.59 74.6712 129.282 73.6843ZM61.0925 66.1186C60.1668 65.4607 59.8582 64.4737 60.4753 63.4868C61.0924 62.5 62.3266 62.5001 63.5608 62.8291C64.4865 63.487 64.7951 64.4738 64.178 65.4606C63.8694 66.1185 62.9437 66.4474 62.3266 66.4474C62.0181 66.4474 61.7096 66.4475 61.0925 66.1186ZM124.962 65.4606C124.345 64.4738 124.653 63.487 125.579 62.8291C126.505 62.1712 128.047 62.5 128.664 63.4868C129.282 64.4737 128.973 65.4607 128.047 66.1186C127.739 66.4475 127.122 66.4474 126.813 66.4474C126.196 66.4474 125.579 66.1185 124.962 65.4606ZM67.8806 58.5526C66.9549 57.8947 67.2634 56.579 68.189 55.9211C69.1147 55.2632 70.3489 55.2633 71.2745 56.2501C72.2002 56.908 71.8917 58.2238 70.966 58.8817C70.6575 59.2106 70.0404 59.2106 69.4233 59.2106C68.8062 59.2106 68.1891 58.8816 67.8806 58.5526ZM118.482 58.8817C117.557 58.2238 117.557 56.908 118.174 56.2501C119.099 55.5923 120.334 55.2632 121.259 55.9211C122.185 56.579 122.185 57.8947 121.568 58.5526C121.259 58.8816 120.642 59.2106 120.025 59.2106C119.408 59.2106 118.791 59.2106 118.482 58.8817ZM76.8284 52.9607C76.2113 51.9738 76.8284 50.9868 77.754 50.3289C78.9882 50 80.2224 50.3291 80.531 51.3159C81.1481 52.3028 80.531 53.2896 79.2968 53.9475C78.9882 53.9475 78.6797 54.2763 78.3712 54.2763C78.0626 53.9474 77.137 53.6186 76.8284 52.9607ZM109.535 53.9475C108.3 53.6185 107.992 52.3028 108.3 51.3159C108.917 50.3291 110.152 50 111.077 50.3289C112.311 50.6579 112.62 51.9738 112.003 52.9607C111.694 53.6186 110.769 53.9475 110.152 53.9475C110.152 53.9475 109.843 53.9475 109.535 53.9475ZM87.0105 49.6712C86.7019 48.6844 87.6276 47.6975 88.8618 47.3685C90.096 47.3685 91.0216 48.0264 91.3301 49.0133C91.6387 50.0001 90.7131 50.987 89.4789 51.3159H89.1704C88.2447 51.3159 87.319 50.658 87.0105 49.6712ZM99.661 51.3159C98.4268 51.3159 97.5011 50.3291 97.8097 49.0133C97.8097 48.0264 99.0439 47.3685 100.278 47.3685C101.512 47.3685 102.438 48.3554 102.129 49.6712C102.129 50.658 101.204 51.3159 99.661 51.3159C99.9695 51.3159 99.9695 51.3159 99.661 51.3159Z" fill="black"/>
<path id="XMLID_789_" d="M132.984 84.8683C132.367 84.8683 131.75 84.5396 131.442 84.2106L131.133 83.8815C131.133 83.8815 131.133 83.5527 130.824 83.5527V83.2236V82.8947C130.824 82.2368 131.133 81.9078 131.442 81.5789C132.367 80.921 133.601 80.921 134.527 81.5789C134.836 81.9078 135.144 82.5658 135.144 82.8947V83.2236V83.5527C135.144 83.5527 135.144 83.8815 134.836 83.8815L134.527 84.2106C134.527 84.2106 134.219 84.2105 134.219 84.5395C134.219 84.5395 133.91 84.5394 133.91 84.8683H133.601C133.293 84.8683 133.293 84.8683 132.984 84.8683Z" fill="black"/>
<path id="XMLID_792_" d="M317.804 94.079C317.187 94.079 316.57 93.75 316.262 93.4211L315.953 93.092C315.953 93.092 315.953 92.7631 315.645 92.7631V92.4343V92.1052V91.7763V91.4473C315.645 91.4473 315.645 91.1184 315.953 91.1184C315.953 91.1184 315.953 90.7895 316.262 90.7895C316.57 90.4606 316.57 90.4605 316.879 90.4605C317.496 90.1315 318.113 90.1315 318.422 90.4605C318.73 90.4605 319.039 90.7895 319.039 90.7895L319.347 91.1184C319.347 91.1184 319.347 91.4473 319.656 91.4473V91.7763V92.1052V92.4343V92.7631C319.656 92.7631 319.656 93.092 319.347 93.092L319.039 93.4211C319.039 94.079 318.422 94.079 317.804 94.079Z" fill="black"/>
<path id="XMLID_794_" d="M219.686 175C218.452 175 217.526 174.013 217.526 173.026C217.526 172.04 218.761 171.053 219.686 171.382C220.92 171.382 221.846 172.368 221.846 173.355C222.155 174.342 221.229 175 219.686 175C219.995 175 219.995 175 219.686 175ZM229.251 173.355C229.251 172.368 230.177 171.382 231.411 171.382C232.645 171.382 233.571 172.04 233.571 173.026C233.571 174.013 232.645 175 231.411 175C230.485 175 229.56 174.342 229.251 173.355ZM207.961 174.013C206.727 173.684 206.11 172.697 206.11 171.71C206.419 170.724 207.344 170.066 208.578 170.066C209.813 170.395 210.43 171.382 210.43 172.368C210.121 173.355 209.196 174.013 208.27 174.013C208.27 174.013 208.27 174.013 207.961 174.013ZM240.976 172.368C240.667 171.382 241.593 170.395 242.827 170.066C244.061 169.737 245.296 170.395 245.296 171.71C245.604 172.697 244.679 173.684 243.444 174.013H243.136C241.902 174.013 240.976 173.355 240.976 172.368ZM196.545 171.382C195.311 171.053 194.694 170.066 195.002 169.079C195.311 168.092 196.545 167.434 197.779 167.763C199.013 168.092 199.631 169.079 199.013 170.066C198.705 170.724 197.779 171.382 196.854 171.382C196.854 171.382 196.854 171.382 196.545 171.382ZM252.084 170.066C251.775 169.079 252.392 168.092 253.626 167.763C254.861 167.434 256.095 168.092 256.403 169.079C256.712 170.066 256.095 171.053 254.861 171.382C254.552 171.382 254.552 171.382 254.244 171.382C253.318 171.382 252.392 170.724 252.084 170.066ZM185.437 167.434C184.203 167.105 183.895 165.79 184.512 164.803C185.129 163.816 186.363 163.487 187.289 163.816C188.523 164.145 188.831 165.461 188.214 166.447C187.906 167.105 186.98 167.434 186.363 167.434C186.054 167.763 185.746 167.434 185.437 167.434ZM262.883 166.447C262.266 165.461 262.883 164.474 263.809 163.816C265.043 163.487 266.277 163.816 266.585 164.803C267.203 165.79 266.585 166.776 265.66 167.434C265.351 167.434 265.043 167.763 264.734 167.763C264.117 167.434 263.5 167.105 262.883 166.447ZM175.255 162.5C174.33 161.842 174.021 160.855 174.638 159.868C175.255 158.882 176.489 158.882 177.724 159.211C178.649 159.868 178.958 160.855 178.341 161.842C178.032 162.5 177.107 162.829 176.489 162.829C175.872 162.829 175.564 162.5 175.255 162.5ZM273.373 161.842C272.756 160.855 273.065 159.868 273.991 159.211C274.916 158.553 276.459 158.882 277.076 159.868C277.693 160.855 277.385 161.842 276.459 162.5C276.15 162.829 275.842 162.829 275.225 162.829C274.299 162.829 273.682 162.5 273.373 161.842ZM165.382 156.25C164.456 155.592 164.456 154.276 165.073 153.618C165.69 152.961 167.233 152.632 168.159 153.29C169.084 153.947 169.084 155.263 168.467 155.921C168.159 156.25 167.542 156.579 166.924 156.579C166.307 156.908 165.999 156.579 165.382 156.25ZM282.938 155.921C282.013 155.263 282.321 153.947 283.247 153.29C284.173 152.632 285.407 152.632 286.333 153.618C286.95 154.276 286.95 155.592 286.024 156.25C285.715 156.579 285.098 156.579 284.79 156.579C283.864 156.579 283.247 156.579 282.938 155.921ZM156.742 149.342C155.817 148.684 155.817 147.368 156.742 146.711C157.668 146.053 158.902 146.053 159.828 146.711C160.753 147.368 160.753 148.684 159.828 149.342C159.519 149.671 158.902 150 158.285 150C157.977 149.671 157.359 149.671 156.742 149.342ZM291.578 149.342C290.652 148.684 290.652 147.368 291.578 146.711C292.504 146.053 293.738 146.053 294.663 146.711C295.589 147.368 295.589 148.684 294.663 149.342C294.355 149.671 293.738 150 293.121 150C292.504 149.671 291.886 149.671 291.578 149.342ZM149.337 141.118C148.72 140.132 148.72 139.145 149.954 138.487C150.88 137.829 152.423 138.158 153.04 138.816C153.657 139.803 153.657 140.789 152.423 141.447C152.114 141.776 151.497 141.776 151.189 141.776C150.571 142.105 149.646 141.776 149.337 141.118ZM298.983 141.447C298.057 140.789 297.749 139.474 298.366 138.816C298.983 137.829 300.526 137.829 301.451 138.487C302.377 139.145 302.686 140.132 302.068 141.118C301.76 141.776 300.834 141.776 300.217 141.776C299.909 141.776 299.292 141.776 298.983 141.447ZM142.858 132.566C142.241 131.579 142.549 130.592 143.783 129.934C144.709 129.276 146.252 129.605 146.869 130.592C147.486 131.579 147.177 132.566 145.943 133.224C145.635 133.224 145.326 133.553 145.018 133.553C144.092 133.224 143.475 132.895 142.858 132.566ZM305.463 132.895C304.537 132.237 303.92 131.25 304.537 130.263C305.154 129.276 306.388 128.947 307.622 129.605C308.548 130.263 309.165 131.25 308.548 132.237C308.239 132.895 307.314 133.224 306.697 133.224C306.08 133.224 305.771 133.224 305.463 132.895ZM137.921 123.026C137.612 122.039 137.921 121.053 139.155 120.395C140.389 120.066 141.624 120.395 141.932 121.382C142.241 122.368 141.932 123.355 140.698 124.013C140.389 124.013 140.081 124.013 139.772 124.013C139.155 124.342 138.229 123.684 137.921 123.026ZM310.708 124.013C309.474 123.684 309.165 122.368 309.474 121.71C309.782 120.724 311.016 120.395 312.251 120.724C313.485 121.053 313.793 122.368 313.485 123.355C313.176 124.013 312.251 124.671 311.325 124.671C311.325 124.013 311.016 124.013 310.708 124.013ZM134.218 113.158C133.91 112.171 134.527 111.184 135.761 110.855C136.995 110.526 138.229 111.184 138.229 112.171C138.538 113.158 137.921 114.145 136.687 114.474C136.378 114.474 136.378 114.474 136.07 114.474C135.453 114.474 134.527 113.816 134.218 113.158ZM314.41 114.474C313.176 114.145 312.559 113.158 312.868 112.171C313.176 111.184 314.41 110.526 315.645 110.855C316.879 111.184 317.496 112.171 317.187 113.158C316.879 114.145 315.953 114.474 315.027 114.474C315.027 114.474 314.719 114.474 314.41 114.474ZM132.059 102.96C132.059 101.974 132.676 100.987 133.91 100.987C135.144 100.987 136.07 101.645 136.378 102.632C136.378 103.618 135.761 104.605 134.527 104.605H134.218C132.984 104.605 132.059 103.947 132.059 102.96ZM316.879 104.276C315.645 104.276 314.719 103.29 315.027 102.303C315.027 101.316 316.262 100.658 317.496 100.658C318.73 100.658 319.656 101.645 319.347 102.632C319.347 103.618 318.422 104.276 316.879 104.276C316.879 104.276 317.187 104.276 316.879 104.276Z" fill="black"/>
<path id="XMLID_820_" d="M133.293 94.0791C132.676 94.0791 132.058 93.7501 131.75 93.4211C131.441 93.0922 131.441 93.0922 131.441 92.7632C131.441 92.4343 131.133 92.4342 131.133 92.1053C131.133 91.7763 131.133 91.4473 131.441 91.4473C131.441 91.1184 131.75 91.1185 131.75 90.7896C132.367 90.1317 133.293 90.1316 134.218 90.4605C134.527 90.4605 134.835 90.7896 134.835 90.7896C135.144 91.1185 135.144 91.1184 135.144 91.4473C135.144 91.7763 135.453 92.1053 135.453 92.1053C135.453 92.1053 135.453 92.7632 135.144 92.7632C135.144 93.0922 134.835 93.0922 134.835 93.4211C134.527 93.7501 134.527 93.75 134.218 93.75C133.91 94.079 133.601 94.0791 133.293 94.0791Z" fill="black"/>
<path id="XMLID_823_" d="M290.961 94.079C290.652 94.079 290.344 94.079 290.035 94.079C289.727 94.079 289.418 93.7499 289.418 93.7499C289.11 93.421 288.801 92.7632 288.801 92.4342C288.801 92.1053 288.801 91.7763 289.11 91.7763C289.11 91.4474 289.418 91.4473 289.418 91.1184C289.727 90.7894 289.727 90.7895 290.035 90.7895C290.344 90.7895 290.961 90.4606 291.269 90.7895H291.578C291.578 90.7895 291.886 90.7894 291.886 91.1184C291.886 91.1184 292.195 91.1183 292.195 91.4472C292.504 91.7762 292.504 91.7762 292.504 92.1052C292.504 92.4341 292.812 92.4342 292.812 92.7631C292.812 93.421 292.504 93.75 292.195 94.079L291.886 94.4078C291.886 94.4078 291.578 94.4078 291.578 94.7367H291.269C291.269 94.0788 290.961 94.079 290.961 94.079Z" fill="black"/>
<path id="XMLID_825_" d="M223.697 149.671C223.697 148.684 224.623 147.697 225.857 147.697C227.091 147.697 228.017 148.684 228.017 149.671C228.017 150.658 227.091 151.645 225.857 151.645C224.623 151.645 223.697 150.658 223.697 149.671ZM214.132 150.658C212.898 150.329 212.281 149.342 212.281 148.355C212.59 147.369 213.515 146.711 214.749 146.711C215.984 147.04 216.601 148.026 216.601 149.013C216.292 150 215.367 150.658 214.441 150.658C214.132 150.658 214.132 150.658 214.132 150.658ZM234.805 149.013C234.497 148.026 235.422 147.04 236.656 146.711C237.891 146.382 238.816 147.369 239.125 148.355C239.433 149.342 238.508 150.329 237.273 150.658H236.965C236.039 150.658 235.114 150 234.805 149.013ZM202.716 148.026C201.482 147.697 200.865 146.71 201.482 145.724C201.79 144.737 203.025 144.079 204.259 144.737C205.493 145.066 205.802 146.053 205.493 147.039C205.184 147.697 204.259 148.355 203.333 148.355C203.025 148.026 203.025 148.026 202.716 148.026ZM245.913 146.711C245.604 145.724 245.913 144.737 247.147 144.408C248.381 144.079 249.615 144.408 249.924 145.395C250.233 146.382 249.924 147.368 248.69 147.697C248.381 147.697 248.073 147.697 248.073 147.697C247.147 148.026 246.221 147.697 245.913 146.711ZM191.917 143.75C190.991 143.092 190.683 142.105 190.991 141.118C191.608 140.132 192.843 139.803 194.077 140.461C195.002 141.118 195.311 142.105 195.002 143.092C194.694 143.75 193.768 144.079 193.151 144.079C192.843 144.079 192.225 143.75 191.917 143.75ZM256.403 143.092C255.786 142.105 256.095 141.118 257.329 140.461C258.255 139.803 259.798 140.132 260.415 141.118C261.032 142.105 260.723 143.092 259.489 143.75C259.18 144.079 258.872 144.079 258.255 144.079C257.638 143.75 256.712 143.421 256.403 143.092ZM182.352 137.829C181.426 137.171 181.426 135.855 182.043 135.197C182.969 134.54 184.203 134.211 185.129 134.868C186.055 135.526 186.054 136.842 185.437 137.5C185.129 137.829 184.512 138.158 183.895 138.158C183.278 138.158 182.66 138.158 182.352 137.829ZM265.968 137.5C265.043 136.842 265.351 135.526 266.277 134.868C267.203 134.211 268.437 134.211 269.362 135.197C270.288 135.855 269.98 137.171 269.054 137.829C268.745 138.158 268.128 138.158 267.82 138.158C266.894 138.158 266.277 137.829 265.968 137.5ZM174.021 130.592C173.096 129.934 173.404 128.618 174.33 127.961C175.255 127.303 176.49 127.303 177.415 128.289C178.032 128.947 178.032 130.263 177.107 130.921C176.798 131.25 176.181 131.25 175.872 131.25C175.255 131.25 174.638 130.921 174.021 130.592ZM274.299 130.592C273.374 129.934 273.374 128.618 273.991 127.961C274.608 127.303 276.151 126.974 277.076 127.632C278.002 128.289 278.002 129.605 277.385 130.263C277.076 130.592 276.459 130.921 275.842 130.921C275.225 130.921 274.608 130.921 274.299 130.592ZM167.233 122.04C166.616 121.053 166.925 120.066 168.159 119.408C169.084 118.75 170.627 119.079 171.244 120.066C171.861 121.053 171.553 122.039 170.319 122.697C170.01 123.026 169.701 123.026 169.084 123.026C168.467 123.026 167.85 122.697 167.233 122.04ZM281.087 122.697C280.162 122.039 279.853 121.053 280.162 120.066C280.779 119.079 282.013 118.75 283.247 119.408C284.173 120.066 284.481 121.053 284.173 122.04C283.864 122.697 282.939 123.026 282.322 123.026C281.704 123.026 281.396 122.697 281.087 122.697ZM162.296 112.829C161.988 111.842 162.296 110.855 163.531 110.526C164.765 110.197 165.999 110.526 166.307 111.513C166.616 112.5 166.307 113.487 165.073 113.816C164.765 113.816 164.456 113.816 164.456 113.816C163.531 113.816 162.605 113.487 162.296 112.829ZM286.333 113.816C285.098 113.487 284.481 112.5 285.098 111.513C285.407 110.526 286.641 109.869 287.875 110.526C289.11 110.855 289.727 111.842 289.11 112.829C288.801 113.487 287.875 114.145 286.95 114.145C286.641 113.816 286.641 113.816 286.333 113.816ZM159.211 102.632C158.902 101.645 159.828 100.658 161.062 100.329C162.296 100 163.222 100.987 163.531 101.974C163.839 102.961 162.913 103.947 161.679 104.276H161.371C160.445 104.276 159.519 103.618 159.211 102.632ZM289.418 104.276C288.184 103.947 287.567 102.961 287.567 101.974C287.875 100.987 288.801 100.329 290.035 100.329C291.269 100.658 291.886 101.645 291.886 102.632C291.578 103.618 290.652 104.276 289.727 104.276C289.727 104.276 289.727 104.276 289.418 104.276Z" fill="black"/>
<path id="XMLID_844_" d="M160.445 94.079H160.136H159.828C159.828 94.079 159.519 94.0789 159.519 93.7499C159.519 93.7499 159.211 93.75 159.211 93.4211C158.902 93.0921 158.594 92.4341 158.594 92.1052C158.594 91.4473 158.902 91.1185 159.211 90.7895L159.519 90.4605C159.519 90.4605 159.828 90.4605 159.828 90.1316H160.136C160.445 90.1316 161.062 90.1316 161.371 90.1316C161.679 90.1316 161.988 90.4605 161.988 90.4605C162.296 90.7894 162.605 91.4474 162.605 91.7763C162.605 92.4342 162.296 92.763 161.988 93.092C161.679 93.4209 161.679 93.4211 161.371 93.4211C161.062 94.079 160.753 94.079 160.445 94.079Z" fill="black"/>
<path id="XMLID_847_" d="M263.809 82.8948H263.5H263.191C263.191 82.8948 262.883 82.8949 262.883 82.5659C262.883 82.5659 262.574 82.5658 262.574 82.2369C262.266 81.9079 261.957 81.2501 261.957 80.9212C261.957 80.2633 262.266 79.9343 262.574 79.6053L262.883 79.2765C262.883 79.2765 263.191 79.2763 263.191 78.9474H263.5C264.117 78.9474 265.043 78.9474 265.351 79.6053L265.66 79.9342C265.66 79.9342 265.66 80.2633 265.968 80.2633V80.5921V80.9212C265.968 81.5791 265.66 81.9079 265.351 82.2369C264.734 82.5658 264.117 82.8948 263.809 82.8948Z" fill = ""/>
<path id="XMLID_849_" d="M264.117 73.0264C262.883 72.6974 262.266 71.7106 262.266 70.7237C262.574 69.7369 263.5 69.079 264.734 69.079C265.968 69.4079 266.585 70.3948 266.585 71.3817C266.277 72.3685 265.351 73.0264 264.426 73.0264C264.426 73.0264 264.426 73.0264 264.117 73.0264ZM390.313 71.3817C390.005 70.3948 390.93 69.4079 392.164 69.079C393.399 68.75 394.324 69.7369 394.633 70.7237C394.941 71.7106 394.016 72.6974 392.782 73.0264H392.473C391.547 72.6974 390.622 72.0395 390.313 71.3817ZM266.894 63.158C265.66 62.829 265.351 61.8421 265.66 60.8553C265.968 59.8685 267.203 59.2106 268.437 59.8685C269.671 60.1974 270.288 61.1843 269.671 62.1712C269.362 62.8291 268.437 63.4868 267.511 63.4868C267.203 63.1579 267.203 63.158 266.894 63.158ZM387.536 61.8421C387.228 60.8553 387.536 59.8686 388.771 59.5396C390.005 59.2107 391.239 59.5396 391.547 60.5264C391.856 61.5133 391.239 62.5002 390.313 62.8291C390.005 62.8291 389.696 62.8291 389.696 62.8291C388.77 63.1581 387.845 62.8289 387.536 61.8421ZM271.214 53.9475C270.288 53.2896 269.979 52.3028 270.288 51.3159C270.905 50.3291 272.139 50.0001 273.373 50.658C274.299 51.3159 274.608 52.3027 274.299 53.2896C273.991 53.9474 273.065 54.2764 272.448 54.2764C271.831 54.2764 271.522 54.2764 271.214 53.9475ZM382.908 53.2896C382.291 52.3027 382.6 51.3159 383.834 50.658C384.759 50.0001 386.302 50.3291 386.919 51.3159C387.536 52.3028 387.228 53.2896 385.994 53.9475C385.685 54.2764 385.376 54.2764 384.759 54.2764C384.142 54.2764 383.525 53.9474 382.908 53.2896ZM277.385 45.7238C276.459 45.0659 276.459 43.7502 277.076 43.0923C278.002 42.4344 279.236 42.1053 280.162 42.7632C281.087 43.4211 281.087 44.7368 280.47 45.3947C280.162 45.7237 279.545 46.0527 278.927 46.0527C278.31 46.0527 278.002 46.0528 277.385 45.7238ZM376.737 45.3947C375.811 44.7368 376.12 43.4211 377.046 42.7632C377.971 42.1053 379.205 42.1054 380.131 43.0923C380.748 43.7502 380.748 45.0659 379.823 45.7238C379.514 46.0528 378.897 46.0527 378.28 46.0527C377.663 46.0527 377.046 45.7237 376.737 45.3947ZM285.098 38.4869C284.173 37.829 284.481 36.5133 285.407 35.8554C286.333 35.1975 287.567 35.1974 288.492 36.1843C289.11 36.8421 289.109 38.1579 288.184 38.8158C287.875 39.1447 287.258 39.1449 286.641 39.1449C286.333 39.1449 285.715 38.8159 285.098 38.4869ZM369.023 38.4869C368.098 37.829 368.098 36.5133 368.715 35.8554C369.641 35.1975 370.875 34.8684 371.8 35.5263C372.726 36.1842 372.726 37.5002 372.109 38.1581C371.8 38.487 371.183 38.8158 370.566 38.8158C369.949 39.1447 369.332 38.8159 369.023 38.4869ZM294.355 32.5659C293.738 31.5791 294.046 30.5923 295.28 29.9344C296.206 29.2765 297.749 29.6053 298.366 30.5921C298.983 31.579 298.674 32.566 297.44 33.2238C297.132 33.5528 296.823 33.5527 296.206 33.5527C295.28 33.2238 294.663 32.8949 294.355 32.5659ZM360.075 33.2238C359.15 32.566 358.841 31.579 359.15 30.5921C359.767 29.6053 361.001 29.2765 362.235 29.9344C363.161 30.5923 363.47 31.5791 363.161 32.5659C362.852 33.2238 361.927 33.5527 361.31 33.5527C360.693 33.2238 360.384 33.2238 360.075 33.2238ZM304.228 27.9606C303.92 26.9737 304.537 25.9868 305.463 25.6579C306.697 25.329 307.931 25.6581 308.239 26.6449C308.548 27.6317 307.931 28.6184 307.005 28.9474C306.697 28.9474 306.388 28.9474 306.388 28.9474C305.463 29.2763 304.537 28.6185 304.228 27.9606ZM350.202 28.9474C348.968 28.6184 348.351 27.6317 348.968 26.6449C349.276 25.6581 350.511 25 351.745 25.6579C352.979 25.9868 353.596 26.9737 352.979 27.9606C352.67 28.6185 351.745 29.2764 350.819 29.2764C350.511 29.2764 350.202 28.9474 350.202 28.9474ZM315.027 25.0002C314.719 24.0133 315.645 23.0264 316.879 22.6975C318.113 22.3685 319.347 23.3554 319.347 24.3422C319.656 25.3291 318.73 26.316 317.496 26.6449H317.187C316.262 26.6449 315.336 25.987 315.027 25.0002ZM339.403 26.6449C338.169 26.316 337.552 25.3291 337.552 24.3422C337.86 23.3554 338.786 22.6975 340.02 22.6975C341.254 23.0264 341.871 24.0133 341.871 25.0002C341.563 25.987 340.637 26.6449 339.711 26.6449C339.711 26.6449 339.711 26.6449 339.403 26.6449ZM326.444 23.6843C326.444 22.6975 327.369 21.7107 328.604 21.7107C329.838 21.7107 330.763 22.6975 330.763 23.6843C330.763 24.6711 329.838 25.6579 328.604 25.6579C327.369 25.6579 326.444 25.0001 326.444 23.6843Z" fill = ""/>
<path id="XMLID_868_" d="M393.707 82.8947C393.09 82.8947 392.473 82.5657 392.164 82.2368C391.856 81.9078 391.547 81.2501 391.547 80.9211C391.547 80.5922 391.547 80.2632 391.856 80.2632C391.856 79.9342 392.164 79.9342 392.473 79.6052C393.399 78.9473 394.633 78.9473 395.559 79.6052C395.867 79.9342 395.867 79.9342 396.176 80.2632C396.176 80.5921 396.176 80.9211 396.176 80.9211C396.176 81.579 395.867 81.9078 395.559 82.2368C394.633 82.5657 394.016 82.8947 393.707 82.8947Z" fill = ""/>
<path id="XMLID_871_" d="M290.344 82.8946C289.727 82.8946 289.109 82.5656 288.801 82.2367L288.492 81.9078C288.492 81.9078 288.492 81.5787 288.184 81.5787V81.2499V80.921C288.184 80.592 288.184 80.2631 288.184 80.2631C288.184 79.9341 288.492 79.9341 288.801 79.6051C289.727 78.9472 290.961 78.9472 291.886 79.6051C292.195 79.9341 292.195 79.9341 292.504 80.2631C292.504 80.592 292.812 80.921 292.812 80.921C292.812 81.5789 292.504 81.9077 292.195 82.2367C291.269 82.5656 290.961 82.8946 290.344 82.8946Z" fill = ""/>
<path id="XMLID_873_" d="M291.269 73.3552C290.035 73.0262 289.418 72.0395 289.727 71.0527C290.035 70.0659 291.269 69.4079 292.504 69.7368C293.738 70.0658 294.355 71.0527 294.046 72.0395C293.738 73.0263 292.812 73.3552 291.886 73.3552C291.578 73.3552 291.269 73.3552 291.269 73.3552ZM363.47 72.0395C363.161 71.0527 363.778 70.0658 365.012 69.7368C366.246 69.4079 367.481 70.0659 367.789 71.0527C368.098 72.0395 367.481 73.0262 366.246 73.3552C365.938 73.3552 365.938 73.3552 365.629 73.3552C364.395 73.3552 363.47 72.6974 363.47 72.0395ZM295.28 64.1447C294.355 63.4868 294.046 62.5 294.663 61.5132C295.28 60.5263 296.515 60.5263 297.749 60.8552C298.675 61.5131 298.983 62.4999 298.366 63.4868C298.057 64.1446 297.132 64.4738 296.515 64.4738C295.898 64.4738 295.589 64.4736 295.28 64.1447ZM359.15 63.8158C358.533 62.829 358.841 61.8422 359.767 61.1843C360.693 60.5264 362.235 60.8552 362.852 61.842C363.47 62.8289 363.161 63.8159 362.235 64.4738C361.927 64.8027 361.618 64.8026 361.001 64.8026C360.076 64.4737 359.458 64.1448 359.15 63.8158ZM301.76 56.5789C300.834 55.921 301.143 54.6053 302.069 53.9474C302.994 53.2895 304.228 53.2894 305.154 54.2763C306.08 54.9342 305.771 56.2499 304.845 56.9078C304.537 57.2368 303.92 57.2369 303.303 57.2369C302.994 57.2369 302.377 57.2368 301.76 56.5789ZM352.362 56.9078C351.436 56.2499 351.436 54.9342 352.053 54.2763C352.979 53.6184 354.213 53.2895 355.139 53.9474C356.064 54.6053 356.064 55.921 355.447 56.5789C355.139 56.9079 354.522 57.2369 353.905 57.2369C353.287 57.2369 352.67 57.2368 352.362 56.9078ZM310.708 50.9868C310.091 50 310.708 49.0132 311.634 48.3553C312.868 48.0263 314.102 48.3552 314.41 49.3421C315.028 50.3289 314.41 51.3157 313.485 51.9736C313.176 51.9736 312.868 52.3027 312.559 52.3027C311.942 52.3027 311.016 51.6447 310.708 50.9868ZM343.723 51.9736C342.488 51.6447 342.18 50.3289 342.488 49.3421C343.105 48.3552 344.34 48.0263 345.265 48.3553C346.499 48.6842 346.808 50 346.191 50.9868C345.882 51.6447 344.957 51.9736 344.34 51.9736C344.34 52.3025 344.031 51.9736 343.723 51.9736ZM320.89 47.6973C320.581 46.7105 321.507 45.7236 322.741 45.3947C323.975 45.3947 324.901 46.0525 325.21 47.0394C325.518 48.0262 324.593 49.0131 323.358 49.3421H323.05C322.124 49.3421 321.199 48.6842 320.89 47.6973ZM333.849 49.3421C332.615 49.3421 331.689 48.3552 331.998 47.0394C331.998 46.0525 333.232 45.3947 334.466 45.3947C335.7 45.3947 336.317 46.3815 336.317 47.6973C336.009 48.6842 335.083 49.3421 333.849 49.3421Z" fill = ""/>
<path id="XMLID_885_" d="M366.864 82.8946C366.247 82.8946 365.629 82.5656 365.321 82.2367C365.012 81.9077 364.704 81.2499 364.704 80.921C364.704 80.2631 365.012 79.9341 365.321 79.6051C366.247 78.9472 367.481 78.9472 368.406 79.6051C368.715 79.9341 369.023 80.592 369.023 80.921C369.023 81.5789 368.715 81.9077 368.406 82.2367C368.098 82.5656 367.481 82.8946 366.864 82.8946Z" fill = ""/>
<path id="XMLID_888_" d="M524.84 92.4343C524.223 92.4343 523.606 92.1053 523.297 91.7763C522.989 91.4474 522.68 90.7894 522.68 90.4605C522.68 89.8026 522.989 89.4737 523.297 89.1448C524.223 88.4869 525.457 88.4869 526.383 89.1448C526.691 89.4737 527 90.1315 527 90.4605C527 91.1184 526.691 91.4474 526.383 91.7763C526.074 92.1053 525.457 92.4343 524.84 92.4343Z" fill = ""/>
<path id="XMLID_890_" d="M457.577 147.698C457.577 146.711 458.502 145.724 459.737 145.724C460.971 145.724 461.896 146.711 461.896 147.698C461.896 148.684 460.971 149.671 459.737 149.671C458.502 149.671 457.577 148.684 457.577 147.698ZM448.012 148.684C446.778 148.355 446.16 147.368 446.16 146.382C446.469 145.395 447.395 144.737 448.629 144.737C449.863 145.066 450.48 146.053 450.48 147.04C450.172 148.026 449.246 148.684 448.32 148.684H448.012ZM468.993 147.368C468.684 146.382 469.61 145.395 470.844 145.066C472.078 144.737 473.004 145.724 473.313 146.711C473.621 147.698 472.696 148.684 471.461 149.013H471.153C469.919 148.684 468.993 148.026 468.993 147.368ZM436.595 146.053C435.361 145.724 435.053 144.737 435.361 143.75C435.67 142.763 436.904 142.105 438.138 142.763C439.372 143.092 439.681 144.079 439.372 145.066C439.064 145.724 438.138 146.382 437.213 146.382C437.213 146.382 436.904 146.053 436.595 146.053ZM479.792 145.066C479.484 144.079 480.101 143.092 481.026 142.763C482.261 142.434 483.495 142.763 483.803 143.75C484.112 144.737 483.495 145.724 482.569 146.053C482.261 146.053 481.952 146.053 481.952 146.053C481.026 146.053 480.101 145.724 479.792 145.066ZM426.105 141.777C425.179 141.119 424.562 140.132 425.179 139.145C425.796 138.158 427.03 137.829 428.265 138.487C429.19 139.145 429.499 140.132 429.19 141.119C428.882 141.776 427.956 142.105 427.339 142.105C426.722 142.105 426.413 142.105 426.105 141.777ZM490.283 141.119C489.666 140.132 489.974 139.145 491.208 138.487C492.134 137.829 493.677 138.158 494.294 139.145C494.911 140.132 494.602 141.119 493.368 141.777C493.06 142.105 492.751 142.105 492.134 142.105C491.517 142.105 490.9 141.776 490.283 141.119ZM416.231 135.855C415.306 135.197 415.306 133.882 415.923 133.224C416.54 132.566 418.083 132.237 419.008 132.895C419.934 133.553 419.934 134.869 419.317 135.526C419.008 135.855 418.391 136.184 417.774 136.184C417.157 136.184 416.848 136.184 416.231 135.855ZM499.848 135.526C498.922 134.869 499.231 133.553 500.156 132.895C501.082 132.237 502.316 132.237 503.242 133.224C503.859 133.882 503.859 135.197 502.933 135.855C502.625 136.184 502.008 136.184 501.391 136.184C501.082 136.184 500.465 135.855 499.848 135.526ZM407.9 128.619C407.283 127.961 407.283 126.645 408.209 125.987C409.135 125.329 410.369 125.329 411.295 126.316C412.22 126.974 411.912 128.29 410.986 128.947C410.677 129.276 410.06 129.276 409.752 129.276C409.135 129.276 408.518 128.948 407.9 128.619ZM508.179 128.619C507.253 127.961 507.253 126.645 507.87 125.987C508.487 125.329 510.03 125 510.955 125.658C511.881 126.316 511.881 127.632 511.264 128.29C510.956 128.618 510.338 128.947 509.721 128.947C509.104 129.276 508.487 128.948 508.179 128.619ZM401.421 120.066C400.804 119.079 401.112 118.092 402.347 117.434C403.272 116.776 404.815 117.105 405.432 118.092C406.049 119.079 405.741 120.066 404.506 120.724C404.198 121.053 403.889 121.053 403.272 121.053C402.347 121.053 401.729 120.724 401.421 120.066ZM514.967 120.724C514.041 120.066 513.732 119.079 514.041 118.092C514.658 117.105 515.892 116.776 517.126 117.434C518.052 118.092 518.361 119.079 518.052 120.066C517.744 120.724 516.818 121.053 516.201 121.053C515.892 121.053 515.275 121.053 514.967 120.724ZM396.176 110.855C395.867 109.869 396.484 108.882 397.41 108.553C398.644 108.224 399.878 108.553 400.187 109.54C400.495 110.526 399.878 111.513 398.953 111.842C398.644 111.842 398.335 111.842 398.335 111.842C397.41 112.171 396.484 111.513 396.176 110.855ZM520.212 111.842C518.978 111.513 518.361 110.526 518.978 109.54C519.286 108.553 520.52 107.895 521.755 108.553C522.989 108.882 523.606 109.869 522.989 110.855C522.68 111.513 521.755 112.171 520.829 112.171C520.829 111.842 520.52 111.842 520.212 111.842ZM393.09 100.658C392.782 99.6712 393.707 98.6844 394.942 98.3554C396.176 98.0265 397.41 99.0133 397.41 100C397.718 100.987 396.793 101.974 395.559 102.303H395.25C394.324 102.303 393.399 101.645 393.09 100.658ZM523.606 102.303C522.372 101.974 521.755 100.987 521.755 100C522.063 99.0133 522.989 98.3554 524.223 98.3554C525.457 98.6844 526.074 99.6712 526.074 100.658C525.766 101.645 524.84 102.303 523.915 102.303H523.606Z" fill = ""/>
<path id="XMLID_909_" d="M394.324 92.4343C393.707 92.4343 393.09 92.1053 392.782 91.7763C392.473 91.4474 392.165 90.7894 392.165 90.4605C392.165 89.8026 392.473 89.4737 392.782 89.1448C393.707 88.4869 394.941 88.4869 395.867 89.1448C396.176 89.4737 396.484 90.1315 396.484 90.4605C396.484 91.1184 396.176 91.4474 395.867 91.7763C395.559 92.1053 394.941 92.4343 394.324 92.4343Z" fill = ""/>
<path id="XMLID_912_" d="M264.117 94.079H263.809H263.5C263.5 94.079 263.191 94.0789 263.191 93.7499C263.191 93.7499 262.883 93.75 262.883 93.4211C262.574 93.0921 262.574 93.0921 262.266 92.7631C262.266 92.4342 261.957 92.4341 261.957 92.1052C261.957 91.4473 262.266 91.1185 262.574 90.7895L262.883 90.4605C262.883 90.4605 263.191 90.4605 263.191 90.1316H263.5C263.809 90.1316 264.117 90.1316 264.426 90.1316H264.734C264.734 90.1316 265.043 90.1315 265.043 90.4605C265.043 90.4605 265.351 90.4606 265.351 90.7895C265.66 91.1185 265.968 91.7762 265.968 92.1052C265.968 92.7631 265.66 93.0921 265.351 93.4211L265.043 93.7499C265.043 93.7499 264.734 93.7501 264.734 94.079H264.426C264.426 94.079 264.117 94.079 264.117 94.079Z" fill="black"/>
<path id="XMLID_914_" d="M219.995 127.631C218.761 127.631 217.835 126.645 218.143 125.329C218.452 124.342 219.378 123.684 220.612 123.684C221.846 123.684 222.772 124.671 222.463 125.987C222.155 126.974 221.229 127.631 219.995 127.631ZM228.943 125.987C228.634 125 229.56 124.013 230.794 123.684C232.028 123.684 232.954 124.342 233.262 125.329C233.571 126.316 232.645 127.303 231.411 127.631H231.103C230.177 127.631 229.251 126.974 228.943 125.987ZM208.887 124.671C207.653 124.342 207.344 123.026 207.961 122.04C208.579 121.053 209.813 120.724 210.738 121.053C211.973 121.381 212.281 122.697 211.973 123.684C211.664 124.342 210.738 124.671 210.121 124.671C209.504 125 209.196 125 208.887 124.671ZM239.742 123.684C239.125 122.697 239.742 121.71 240.668 121.053C241.902 120.724 243.136 121.053 243.444 122.04C244.062 123.026 243.444 124.013 242.519 124.671C242.21 124.671 241.902 125 241.593 125C240.668 125 240.05 124.342 239.742 123.684ZM199.322 119.408C198.396 118.75 198.396 117.434 199.014 116.776C199.939 116.118 201.173 115.789 202.099 116.447C203.025 117.105 203.025 118.421 202.408 119.079C202.099 119.408 201.482 119.737 200.865 119.737C199.939 119.737 199.631 119.408 199.322 119.408ZM248.998 119.079C248.073 118.421 248.381 117.105 249.307 116.447C250.232 115.789 251.467 115.789 252.392 116.776C253.318 117.434 253.009 118.75 252.084 119.408C251.775 119.737 251.158 119.737 250.541 119.737C250.232 119.737 249.615 119.408 248.998 119.079ZM191.608 111.513C190.991 110.526 191.3 109.54 192.225 108.882C193.151 108.224 194.694 108.553 195.311 109.539C195.928 110.526 195.619 111.513 194.694 112.171C194.385 112.5 193.768 112.5 193.46 112.5C192.843 112.5 191.917 112.171 191.608 111.513ZM256.712 112.171C255.786 111.513 255.478 110.526 256.095 109.539C256.712 108.553 257.946 108.553 259.18 108.882C260.106 109.54 260.415 110.526 259.797 111.513C259.489 112.171 258.563 112.5 257.946 112.5C257.638 112.5 257.021 112.5 256.712 112.171ZM186.672 102.303C186.363 101.316 186.98 100.329 188.214 100C189.449 99.6711 190.683 100.329 190.991 101.316C191.3 102.303 190.683 103.289 189.449 103.618C189.14 103.618 189.14 103.618 188.831 103.618C187.906 103.618 186.98 103.29 186.672 102.303ZM261.957 103.618C260.723 103.289 260.106 102.303 260.415 101.316C260.723 100.329 261.957 99.6711 263.192 100C264.426 100.329 265.043 101.316 264.734 102.303C264.426 103.29 263.5 103.618 262.574 103.618C262.266 103.618 261.957 103.618 261.957 103.618Z" fill="black"/>
<path id="XMLID_926_" d="M187.289 94.0789C186.672 94.0789 186.054 93.7499 185.746 93.421C185.437 93.092 185.129 92.4341 185.129 92.1051C185.129 91.7762 185.129 91.4472 185.129 91.4472C185.129 91.1182 185.437 91.1184 185.746 90.7894C186.672 90.1315 187.906 90.1315 188.831 90.7894C189.14 91.1184 189.14 91.1182 189.448 91.4472C189.448 91.7761 189.757 92.1051 189.757 92.1051C189.757 92.763 189.448 93.092 189.14 93.421C188.523 94.0789 187.906 94.0789 187.289 94.0789Z" fill="black"/>
</g>
</svg>
