<svg width="222" height="207" viewBox="0 0 222 207" fill="none" xmlns="http://www.w3.org/2000/svg">
<g id="oCircle">
<g id="XMLID_1662_">
<path id="XMLID_1597_" d="M213.972 128.24C212.036 127.507 210.1 125.308 211.068 123.475C211.068 121.275 213.972 119.809 215.908 120.176C217.844 120.542 219.78 122.742 219.78 124.941C218.812 127.507 215.908 128.607 213.972 128.24Z" stroke="#323F99" stroke-width="0.5" stroke-miterlimit="10"/>
</g>
<g id="XMLID_1660_">
<path id="XMLID_1596_" d="M204.291 151.334C202.355 150.234 201.387 147.668 202.355 145.836C203.323 144.003 206.227 142.903 208.163 144.003C210.099 144.736 211.067 147.302 210.099 149.501C209.131 151.701 206.227 152.434 204.291 151.334Z" stroke="#323F99" stroke-width="0.5" stroke-miterlimit="10"/>
</g>
<g id="XMLID_1658_">
<path id="XMLID_1595_" d="M187.834 171.129C185.898 169.663 185.898 167.097 187.834 165.264C189.77 163.797 191.706 163.431 193.642 164.897C195.578 166.363 195.578 168.929 194.61 170.762C192.674 172.595 189.77 172.962 187.834 171.129Z" stroke="#323F99" stroke-width="0.5" stroke-miterlimit="10"/>
</g>
<g id="XMLID_1656_">
<path id="XMLID_1594_" d="M167.505 186.891C166.537 185.792 166.537 184.692 166.537 183.959C166.537 182.859 167.505 182.126 168.473 181.393C170.409 179.927 173.313 180.66 174.281 182.126C176.217 183.959 175.249 186.525 173.313 187.991C172.345 188.724 171.377 189.091 169.441 188.724C169.441 188.724 168.473 187.991 167.505 186.891Z" stroke="#323F99" stroke-width="0.5" stroke-miterlimit="10"/>
</g>
<g id="XMLID_1654_">
<path id="XMLID_1593_" d="M143.304 197.522C142.336 195.322 143.304 193.123 146.208 192.39C148.144 191.657 151.048 192.757 152.016 194.956C152.984 197.155 152.016 199.355 149.112 200.088C147.176 200.821 144.272 199.721 143.304 197.522Z" stroke="#323F99" stroke-width="0.5" stroke-miterlimit="10"/>
</g>
<g id="XMLID_1652_">
<path id="XMLID_1592_" d="M118.134 202.287C118.134 200.088 120.07 198.255 122.007 197.888C123.943 197.522 126.847 198.988 126.847 201.188C126.847 203.387 125.878 205.586 122.974 205.953C120.07 206.32 118.134 204.487 118.134 202.287Z" stroke="#323F99" stroke-width="0.5" stroke-miterlimit="10"/>
</g>
<g id="XMLID_1650_">
<path id="XMLID_1591_" d="M91.0287 200.821C91.0287 198.622 93.9328 197.155 95.8689 197.522C97.805 197.888 99.7414 200.088 99.7414 202.287C99.7414 204.487 96.8372 205.953 94.9011 205.586C91.9969 205.22 91.0287 203.021 91.0287 200.821Z" stroke="#323F99" stroke-width="0.5" stroke-miterlimit="10"/>
</g>
<g id="XMLID_1648_">
<path id="XMLID_1590_" d="M65.8597 193.123C66.8278 190.924 69.7317 190.191 71.6678 191.29C73.6039 192.023 74.5719 194.223 74.5719 196.422C73.6038 198.622 70.6999 199.721 68.7638 198.622C65.8596 197.522 64.8917 194.956 65.8597 193.123Z" stroke="#323F99" stroke-width="0.5" stroke-miterlimit="10"/>
</g>
<g id="XMLID_1646_">
<path id="XMLID_1589_" d="M43.5938 179.927C45.5299 178.094 47.4663 177.727 49.4024 179.193C51.3385 180.66 51.3383 183.226 50.3703 185.058C49.4022 186.891 46.4983 187.258 44.5622 185.792C42.6261 183.959 41.6576 181.759 43.5938 179.927Z" stroke="#323F99" stroke-width="0.5" stroke-miterlimit="10"/>
</g>
<g id="XMLID_1644_">
<path id="XMLID_1588_" d="M25.2011 161.598C27.1372 160.132 30.0411 160.498 31.0092 162.331C31.9772 164.164 31.9775 166.363 30.0414 168.196C28.1052 169.663 25.2007 169.663 24.2327 167.463C23.2646 165.63 23.265 163.064 25.2011 161.598Z" stroke="#323F99" stroke-width="0.5" stroke-miterlimit="10"/>
</g>
<g id="XMLID_1642_">
<path id="XMLID_1587_" d="M12.6167 139.97C14.5528 139.237 17.4567 140.337 18.4248 142.17C19.3928 144.003 18.4246 146.569 16.4885 147.668C14.5524 148.768 11.6485 147.668 10.6804 145.469C8.74434 143.27 10.6806 140.704 12.6167 139.97Z" stroke="#323F99" stroke-width="0.5" stroke-miterlimit="10"/>
</g>
<g id="XMLID_1640_">
<path id="XMLID_1586_" d="M5.84002 116.143C7.77613 115.777 10.6803 117.243 10.6803 119.442C10.6803 121.642 9.712 123.841 6.80784 124.208C3.90368 124.574 1.96757 123.108 1.96757 120.909C1.96757 118.343 3.90391 116.143 5.84002 116.143Z" stroke="#323F99" stroke-width="0.5" stroke-miterlimit="10"/>
</g>
<g id="XMLID_1638_">
<path id="XMLID_1585_" d="M5.84027 91.2165C8.74444 91.583 9.71213 93.4159 9.71213 95.6153C9.71213 97.8148 7.77603 99.6476 4.87186 99.281C1.9677 99.281 1 97.0816 1 94.8822C1 92.6827 3.90416 90.8499 5.84027 91.2165Z" stroke="#323F99" stroke-width="0.5" stroke-miterlimit="10"/>
</g>
<g id="XMLID_1636_">
<path id="XMLID_1584_" d="M12.6164 67.3894C14.5525 68.1225 16.4885 70.6886 15.5204 72.5215C14.5524 74.7209 12.6159 75.8205 9.71176 75.0874C7.77565 74.3542 5.83966 72.1548 6.80772 69.9554C7.77577 67.3894 10.6803 66.2897 12.6164 67.3894Z" stroke="#323F99" stroke-width="0.5" stroke-miterlimit="10"/>
</g>
<g id="XMLID_1634_">
<path id="XMLID_1583_" d="M25.2011 45.3952C27.1372 46.8614 27.1369 49.0609 26.1689 50.8937C25.2008 52.7266 22.2969 53.4598 20.3608 51.9935C18.4247 50.8938 17.4563 48.3278 19.3924 46.1284C20.3604 44.6621 23.2649 44.2955 25.2011 45.3952Z" stroke="#323F99" stroke-width="0.5" stroke-miterlimit="10"/>
</g>
<g id="XMLID_1632_">
<path id="XMLID_1582_" d="M43.5936 27.4333C45.5297 29.2661 44.5616 31.8321 43.5936 33.2984C41.6575 34.7647 38.7535 34.7647 37.7855 32.9318C35.8494 31.4655 35.8494 28.533 37.7855 27.0667C38.7535 25.6004 41.6575 25.6004 43.5936 27.4333Z" stroke="#323F99" stroke-width="0.5" stroke-miterlimit="10"/>
</g>
<g id="XMLID_1630_">
<path id="XMLID_1579_" d="M65.8594 14.2368C66.8274 16.4362 65.8593 18.6356 63.9232 19.7353C62.9551 20.1019 61.9872 20.1019 61.0191 20.1019C60.0511 19.7353 59.0825 19.0022 58.1145 18.2691C57.1464 17.1693 57.1464 16.0697 58.1145 14.9699C58.1145 13.8702 59.0827 13.1371 60.0507 12.4039C61.9868 11.3042 64.8913 12.0373 65.8594 14.2368Z" stroke="#323F99" stroke-width="0.5" stroke-miterlimit="10"/>
</g>
<g id="XMLID_1628_">
<path id="XMLID_1578_" d="M91.0285 6.53886C91.0285 7.63857 91.0288 8.73823 90.0607 9.47138C89.0927 10.2045 88.1241 10.9377 87.1561 11.3042C85.22 11.6708 82.3158 10.5711 82.3158 8.37171C81.3477 6.17229 83.2843 3.97278 85.2204 3.23963C86.1885 2.87306 88.1242 3.23966 89.0923 3.60623C90.0604 4.33937 91.0285 5.43915 91.0285 6.53886Z" stroke="#323F99" stroke-width="0.5" stroke-miterlimit="10"/>
</g>
<g id="XMLID_1626_">
<path id="XMLID_1576_" d="M118.134 5.07245C118.134 7.27187 116.198 9.10475 113.294 9.10475C111.358 8.73818 109.422 7.27187 109.422 5.07245C109.422 2.87303 111.358 0.673696 114.262 1.04027C116.198 0.673696 118.134 2.87303 118.134 5.07245Z" stroke="#323F99" stroke-width="0.5" stroke-miterlimit="10"/>
</g>
<g id="XMLID_1624_">
<path id="XMLID_1574_" d="M143.304 9.47133C143.304 10.571 142.335 11.3042 141.367 11.6708C140.399 12.0373 139.431 12.4039 138.463 12.0374C136.527 11.6708 134.591 9.10471 135.559 6.90529C136.527 4.70587 138.463 3.23963 141.367 3.97277C142.335 4.33934 143.303 5.07248 144.271 5.80562C144.271 7.2719 144.272 8.37161 143.304 9.47133Z" stroke="#323F99" stroke-width="0.5" stroke-miterlimit="10"/>
</g>
<g id="XMLID_1622_">
<path id="XMLID_1573_" d="M167.505 20.1019C166.537 21.9348 163.633 22.6679 161.697 21.5682C160.728 20.835 159.76 20.102 159.76 19.0022C159.76 17.9025 159.76 16.8028 159.76 16.0696C159.76 15.3365 161.697 14.2369 162.665 13.8703C163.633 13.5037 164.601 13.8702 166.537 14.2368C168.473 15.703 169.441 18.2691 167.505 20.1019Z" stroke="#323F99" stroke-width="0.5" stroke-miterlimit="10"/>
</g>
<g id="XMLID_1620_">
<path id="XMLID_1571_" d="M187.834 35.8645C185.898 37.3307 182.994 37.3307 182.026 35.8645C180.09 34.3982 180.09 31.8322 182.026 29.9993C183.962 28.1665 186.866 28.1665 188.802 29.9993C189.77 31.8322 189.77 34.3982 187.834 35.8645Z" stroke="#323F99" stroke-width="0.5" stroke-miterlimit="10"/>
</g>
<g id="XMLID_1618_">
<path id="XMLID_1567_" d="M204.291 56.0258C202.355 57.1255 199.451 56.3923 198.482 54.5594C197.514 52.7266 197.515 50.1606 199.451 49.0609C201.387 47.9612 204.291 48.3278 205.259 50.5272C207.195 52.3601 206.227 54.9261 204.291 56.0258Z" stroke="#323F99" stroke-width="0.5" stroke-miterlimit="10"/>
</g>
<g id="XMLID_1612_">
<path id="XMLID_1566_" d="M213.972 79.1197C212.036 79.4863 209.132 78.3866 209.132 76.1872C208.164 73.9878 209.132 71.7883 212.036 71.0551C213.972 70.322 216.876 71.4217 217.844 73.6211C216.876 76.1871 215.908 78.3866 213.972 79.1197Z" stroke="#323F99" stroke-width="0.5" stroke-miterlimit="10"/>
</g>
<g id="XMLID_1610_">
<path id="XMLID_1565_" d="M216.876 103.68C213.972 103.68 212.035 101.847 212.035 99.6476C212.035 97.4482 213.972 95.6153 215.908 95.2487C217.844 94.8822 220.748 96.715 220.748 99.281C221.716 101.847 219.78 103.68 216.876 103.68Z" stroke="#323F99" stroke-width="0.5" stroke-miterlimit="10"/>
</g>
</g>
</svg>
