<svg width="345" height="132" viewBox="0 0 345 132" fill="none" xmlns="http://www.w3.org/2000/svg">
<g id="ovalRings">
<path id="XMLID_111_" d="M172.306 131.26C266.968 131.571 343.802 102.664 343.921 66.6942C344.039 30.7247 267.396 1.31335 172.734 1.00223C78.0718 0.691099 1.23717 29.598 1.11895 65.5675C1.00073 101.537 77.6437 130.948 172.306 131.26Z" stroke="#F04E50" stroke-width="0.9014" stroke-miterlimit="10"/>
<path id="XMLID_110_" d="M172.32 127.065C261.019 127.356 333.013 100.312 333.124 66.6588C333.234 33.0059 261.419 5.48848 172.72 5.19695C84.0211 4.90542 12.0265 31.9502 11.9159 65.603C11.8053 99.2559 83.6205 126.773 172.32 127.065Z" stroke="#F04E50" stroke-width="0.9014" stroke-miterlimit="10"/>
<path id="XMLID_109_" d="M172.333 123.091C255.069 123.363 322.223 98.0814 322.327 66.6233C322.43 35.1651 255.443 9.44283 172.707 9.1709C89.9709 8.89897 22.8162 34.1804 22.7128 65.6385C22.6094 97.0967 89.5965 122.819 172.333 123.091Z" stroke="#F04E50" stroke-width="0.9014" stroke-miterlimit="10"/>
<path id="XMLID_108_" d="M172.346 118.896C249.12 119.148 311.434 95.7292 311.53 66.5878C311.626 37.4463 249.466 13.618 172.693 13.3656C95.9201 13.1133 33.6055 36.5325 33.5097 65.674C33.4139 94.8154 95.5732 118.644 172.346 118.896Z" stroke="#F04E50" stroke-width="0.9014" stroke-miterlimit="10"/>
<path id="XMLID_107_" d="M172.359 114.922C243.17 115.155 300.644 93.499 300.733 66.5523C300.822 39.6056 243.49 17.5723 172.68 17.3396C101.87 17.1068 44.3951 38.7628 44.3066 65.7095C44.218 92.6562 101.549 114.689 172.359 114.922Z" stroke="#F04E50" stroke-width="0.9014" stroke-miterlimit="10"/>
<path id="XMLID_106_" d="M172.373 110.727C237.22 110.941 289.855 91.1468 289.936 66.5168C290.017 41.8868 237.514 21.7474 172.666 21.5343C107.819 21.3212 55.1844 41.115 55.1034 65.745C55.0225 90.375 107.526 110.514 172.373 110.727Z" stroke="#F04E50" stroke-width="0.9014" stroke-miterlimit="10"/>
</g>
</svg>
