<svg width="195" height="169" viewBox="0 0 195 169" fill="none" xmlns="http://www.w3.org/2000/svg">
<path id="ring" d="M97.5 169C43.7612 169 -4.84318e-09 131.154 -3.12036e-09 84.5C-1.39754e-09 37.8456 43.7612 1.61598e-09 97.5 3.60041e-09C151.239 5.58484e-09 195 37.8456 195 84.5C195 131.154 151.239 169 97.5 169ZM97.5 8.80888C49.1876 8.80888 9.97755 42.7394 9.97755 84.5C9.97755 126.261 49.1876 160.191 97.5 160.191C145.812 160.191 185.022 126.261 185.022 84.5C185.022 42.7394 145.637 8.80888 97.5 8.80888Z" fill = ""/>
</svg>
