<svg width="369" height="183" viewBox="0 0 369 183" fill="none" xmlns="http://www.w3.org/2000/svg">
<g id="stripes">
<path id="XMLID_103_" d="M8.64983e-05 144.112L54.3251 91.4999L8.64983e-05 39.3451V25.1624L68.675 91.4999L8.64983e-05 157.837V144.112Z" fill = ""/>
<path id="XMLID_102_" d="M60.4749 183H46.125L141.45 91.5L46.125 7.62939e-06H60.4749L155.8 91.5L60.4749 183Z" fill = ""/>
<path id="XMLID_101_" d="M17.425 183H3.07503L98.3999 91.5L3.07503 7.62939e-06H17.425L112.75 91.5L17.425 183Z" fill = ""/>
<path id="XMLID_100_" d="M369 180.255L365.925 183H351.575L369 166.073V180.255Z" fill = ""/>
<path id="XMLID_99_" d="M369 138.165L322.875 183H308.525L369 124.44V138.165Z" fill = ""/>
<path id="XMLID_98_" d="M4.76837e-06 102.023L10.25 91.5001L4.76837e-06 80.9776V67.2527L25.625 91.5001L4.76837e-06 116.205L4.76837e-06 102.023Z" fill = ""/>
<path id="XMLID_97_" d="M369 96.5325L278.8 183H264.45L359.775 91.5L264.45 7.62939e-06H278.8L369 86.925V96.5325Z" fill = ""/>
<path id="XMLID_96_" d="M369 59.0177L308.525 9.09615e-05H322.875L369 44.8352V59.0177Z" fill = ""/>
<path id="XMLID_95_" d="M369 16.9276L351.575 -3.87192e-06L365.925 -3.87192e-06L369 3.20255V16.9276Z" fill = ""/>
<path id="XMLID_94_" d="M148.625 183H133.25L228.575 91.5L133.25 7.62939e-06H148.625L242.925 91.5L148.625 183Z" fill = ""/>
<path id="XMLID_93_" d="M104.55 183H90.2L185.525 91.5L90.2 7.62939e-06H104.55L199.875 91.5L104.55 183Z" fill = ""/>
<path id="XMLID_92_" d="M235.75 183H221.4L315.7 91.5L221.4 7.62939e-06H235.75L331.075 91.5L235.75 183Z" fill = ""/>
<path id="XMLID_91_" d="M191.675 183H177.325L272.65 91.5L177.325 7.62939e-06H191.675L287 91.5L191.675 183Z" fill = ""/>
</g>
</svg>
