<svg width="328" height="395" viewBox="0 0 328 395" fill="none" xmlns="http://www.w3.org/2000/svg">
<g id="uLines">
<g id="XMLID_948_">
<path id="XMLID_949_" d="M164 395C73.5426 395 0 349.035 0 292.714V0H2.2063V292.714C2.2063 348.277 74.6458 393.737 164 393.737C253.354 393.737 325.794 348.529 325.794 292.714V0H328V292.714C328 349.035 254.457 395 164 395Z" fill="black"/>
</g>
<g id="XMLID_950_">
<path id="XMLID_951_" d="M164 380.099C86.7803 380.099 23.9014 340.953 23.9014 292.714V0H26.1077V292.714C26.1077 340.195 87.8834 378.836 164 378.836C240.117 378.836 301.892 340.195 301.892 292.714V0H304.099V292.714C304.099 340.953 241.22 380.099 164 380.099Z" fill="black"/>
</g>
<g id="XMLID_952_">
<path id="XMLID_953_" d="M164 365.198C99.6501 365.198 47.4348 332.618 47.4348 292.462V0H49.6411V292.714C49.6411 332.113 100.753 363.935 164 363.935C226.879 363.935 278.359 331.861 278.359 292.714V0H280.565V292.714C280.565 332.618 228.35 365.198 164 365.198Z" fill="black"/>
</g>
<g id="XMLID_954_">
<path id="XMLID_955_" d="M164 350.55C112.888 350.55 71.3362 324.536 71.3362 292.714V0H73.5425V292.714C73.5425 323.779 113.991 349.287 164 349.287C214.009 349.287 254.457 324.031 254.457 292.714V0H256.664V292.714C256.664 324.536 215.112 350.55 164 350.55Z" fill="black"/>
</g>
</g>
</svg>
