<?xml version="1.0" encoding="utf-8"?>
<!-- Generator: Adobe Illustrator 19.0.0, SVG Export Plug-In . SVG Version: 6.00 Build 0)  -->
<svg version="1.1" xmlns="http://www.w3.org/2000/svg" xmlns:xlink="http://www.w3.org/1999/xlink" x="0px" y="0px"
	 viewBox="0 0 750 500" style="enable-background:new 0 0 750 500;" xml:space="preserve">
<style type="text/css">
	.st0{fill:#FFFFFF;}
	.st1{fill:none;stroke:#9A6FFF;stroke-width:2;stroke-miterlimit:10;}
	.st2{fill:none;stroke:#9A6FFF;stroke-width:5;stroke-miterlimit:10;}
	.st3{fill:#212121;}
	.st4{font-family:'AbhayaLibre-Medium';}
	.st5{font-size:10.6848px;}
	.st6{fill:none;}
	.st7{font-family:'Poppins-Regular';}
	.st8{font-size:8.25px;}
	.st9{font-family:'Karantina-Light';}
	.st10{font-size:26.712px;}
	.st11{letter-spacing:3;}
	.st12{fill:#9A6FFF;}
	.st13{fill:none;stroke:#C88CFF;stroke-width:2;stroke-miterlimit:10;}
	.st14{fill:none;stroke:#C88CFF;stroke-width:5;stroke-miterlimit:10;}
	.st15{font-size:25px;}
	.st16{font-size:10px;}
	.st17{font-size:8.4818px;}
	.st18{fill:#C88CFF;}
	.st19{fill:none;stroke:#8599FF;stroke-width:2;stroke-miterlimit:10;}
	.st20{fill:none;stroke:#8599FF;stroke-width:5;stroke-miterlimit:10;}
	.st21{font-size:8.3118px;}
	.st22{fill:#8599FF;}
	.st23{fill:none;stroke:#C2ABFF;stroke-width:2;stroke-miterlimit:10;}
	.st24{fill:none;stroke:#C2ABFF;stroke-width:5;stroke-miterlimit:10;}
	.st25{font-size:7.7213px;}
	.st26{fill:#C2ABFF;}
	.st27{fill:none;stroke:#4A55FD;stroke-width:2;stroke-miterlimit:10;}
	.st28{fill:none;stroke:#4A55FD;stroke-width:5;stroke-miterlimit:10;}
	.st29{font-size:26.0833px;}
	.st30{font-size:10.4333px;}
	.st31{font-size:7.0489px;}
	.st32{fill:#4A55FD;}
	.st33{fill:none;stroke:#8273FF;stroke-width:2;stroke-miterlimit:10;}
	.st34{fill:none;stroke:#8273FF;stroke-width:5;stroke-miterlimit:10;}
	.st35{font-size:26.0161px;}
	.st36{font-size:7.0307px;}
	.st37{font-size:10.4065px;}
	.st38{fill:#8273FF;}
</style>
<g id="BACKGROUND">
	<rect x="2" class="st0" width="750" height="500"/>
</g>
<g id="OBJECTS">
	<g>
		<polyline class="st1" points="112.7,287.6 66.5,287.6 66.5,422.7 88,422.7 103,442.6 116.5,422.7 193.9,422.7 		"/>
		<polyline class="st1" points="232,422.7 267.7,422.7 267.7,287.6 153,287.6 		"/>
		<polyline class="st2" points="267.7,308.7 267.7,287.6 195.7,287.6 		"/>
		<polyline class="st2" points="243.4,422.7 267.7,422.7 267.7,338.8 		"/>
		<polyline class="st2" points="66.5,402.5 66.5,422.7 88,422.7 103,442.6 116.5,422.7 168.7,422.7 		"/>
		<polyline class="st2" points="98.1,287.6 66.5,287.6 66.5,355.1 		"/>
		<g>
			<text transform="matrix(1 0 0 1 100.0642 396.1148)" class="st3 st4 st5">Claire Fisher</text>
		</g>
		<rect x="92.5" y="346.3" class="st6" width="149.3" height="38.1"/>
		<text transform="matrix(1 0 0 1 95.8142 352.1422)"><tspan x="0" y="0" class="st3 st7 st8">Lorem ipsum dolor sit amet, consectetuer </tspan><tspan x="3.4" y="11.3" class="st3 st7 st8">adipiscing elit, sed diam enim ad minim </tspan><tspan x="58.7" y="22.7" class="st3 st7 st8">veniam </tspan></text>
		<g>
			<text transform="matrix(1 0 0 1 164.9373 331.6695)" class="st3 st9 st10 st11">QUOTE</text>
		</g>
		<g>
			<path class="st12" d="M224.4,420.2c-0.6,4.1-2.5,7.8-5.8,11.3l-1.6-1.2c2-2.1,3-3.9,3-5.5c-0.1-0.9-0.7-1.6-2-2
				c-0.4-0.1-0.8-0.2-1.2-0.4c-2.1-1-3.2-2.6-3.2-5c0-0.9,0.2-1.7,0.6-2.4c1-2.1,2.6-3.1,4.7-3.1c0.8,0,1.5,0.1,2.1,0.4
				c2.4,0.9,3.6,2.9,3.6,6.1C224.5,418.9,224.5,419.5,224.4,420.2z M211.2,420.2c-0.6,4.1-2.5,7.8-5.8,11.3l-1.6-1.2
				c2-2.1,3-3.9,3-5.5c-0.1-0.9-0.7-1.6-2-2c-0.4-0.1-0.8-0.2-1.2-0.4c-2.1-1-3.2-2.6-3.2-5c0-0.9,0.2-1.7,0.6-2.4
				c1-2.1,2.6-3.1,4.7-3.1c0.8,0,1.5,0.1,2.1,0.4c2.4,0.9,3.6,2.9,3.6,6.1C211.4,418.9,211.3,419.5,211.2,420.2z"/>
		</g>
		<g>
			<path class="st12" d="M121.1,287.5c0.6-4.1,2.5-7.8,5.8-11.3l1.6,1.2c-2,2.1-3,3.9-3,5.5c0.1,0.9,0.7,1.6,2,2
				c0.4,0.1,0.8,0.2,1.2,0.4c2.1,1,3.2,2.6,3.2,5c0,0.9-0.2,1.7-0.6,2.4c-1,2.1-2.6,3.1-4.7,3.1c-0.8,0-1.5-0.1-2.1-0.4
				c-2.4-0.9-3.6-2.9-3.6-6.1C121,288.7,121,288.1,121.1,287.5z M134.3,287.5c0.6-4.1,2.5-7.8,5.8-11.3l1.6,1.2c-2,2.1-3,3.9-3,5.5
				c0.1,0.9,0.7,1.6,2,2c0.4,0.1,0.8,0.2,1.2,0.4c2.1,1,3.2,2.6,3.2,5c0,0.9-0.2,1.7-0.6,2.4c-1,2.1-2.6,3.1-4.7,3.1
				c-0.8,0-1.5-0.1-2.1-0.4c-2.4-0.9-3.6-2.9-3.6-6.1C134.1,288.7,134.2,288.1,134.3,287.5z"/>
		</g>
	</g>
	<g>
		<polyline class="st13" points="579.6,260.3 544,260.3 544,75.2 631.3,75.2 		"/>
		<polyline class="st13" points="661.1,75.2 677,75.2 677,260.3 609.8,260.3 		"/>
		<polyline class="st14" points="557.1,260.3 544,260.3 544,212.7 		"/>
		<polyline class="st14" points="677,187.4 677,260.3 620,260.3 		"/>
		<polyline class="st14" points="667.4,75.2 677,75.2 677,119.2 		"/>
		<line class="st14" x1="591.3" y1="75.2" x2="616.5" y2="75.2"/>
		<polyline class="st14" points="544,166.7 544,75.2 573.4,75.2 		"/>
		<g>
			<text transform="matrix(1 0 0 1 551.2231 120.3069)" class="st3 st9 st15 st11">QUOTE</text>
		</g>
		<g>
			<text transform="matrix(1 0 0 1 573.8145 234.3807)" class="st3 st4 st16">Claire Fisher</text>
		</g>
		<rect x="573.4" y="137.6" class="st6" width="83.4" height="78.3"/>
		<text transform="matrix(1 0 0 1 573.3643 143.5965)"><tspan x="0" y="0" class="st3 st7 st17">Lorem ipsum dolor sit </tspan><tspan x="0" y="11.7" class="st3 st7 st17">amet, consectetuer </tspan><tspan x="0" y="23.3" class="st3 st7 st17">adipiscing elit, sed </tspan><tspan x="0" y="35" class="st3 st7 st17">diam nonummy nibh  </tspan><tspan x="0" y="46.6" class="st3 st7 st17">wisi enim ad minim </tspan><tspan x="0" y="58.3" class="st3 st7 st17">veniam </tspan></text>
		<g>
			<path class="st18" d="M657,73.8c-0.6,3.8-2.4,7.3-5.4,10.5l-1.5-1.1c1.8-1.9,2.8-3.7,2.8-5.2c0-0.9-0.7-1.5-1.9-1.8
				c-0.4-0.1-0.7-0.2-1.1-0.4c-2-0.9-3-2.5-3-4.7c0-0.8,0.2-1.6,0.5-2.3c0.9-1.9,2.4-2.9,4.4-2.9c0.7,0,1.4,0.1,2,0.4
				c2.2,0.8,3.4,2.7,3.4,5.7C657.1,72.6,657.1,73.2,657,73.8z M644.7,73.8c-0.6,3.8-2.4,7.3-5.4,10.5l-1.5-1.1
				c1.8-1.9,2.8-3.7,2.8-5.2c-0.1-0.9-0.7-1.5-1.9-1.8c-0.4-0.1-0.7-0.2-1.1-0.4c-2-0.9-3-2.5-3-4.7c0-0.8,0.2-1.6,0.5-2.3
				c0.9-1.9,2.4-2.9,4.4-2.9c0.7,0,1.4,0.1,2,0.4c2.2,0.8,3.4,2.7,3.4,5.7C644.9,72.6,644.8,73.2,644.7,73.8z"/>
		</g>
		<g>
			<path class="st18" d="M584.4,261.6c0.6-3.8,2.4-7.3,5.4-10.5l1.5,1.1c-1.8,1.9-2.8,3.7-2.8,5.2c0,0.9,0.7,1.5,1.9,1.8
				c0.4,0.1,0.7,0.2,1.1,0.4c2,0.9,3,2.5,3,4.7c0,0.8-0.2,1.6-0.5,2.3c-0.9,1.9-2.4,2.9-4.4,2.9c-0.7,0-1.4-0.1-2-0.4
				c-2.2-0.8-3.4-2.7-3.4-5.7C584.2,262.8,584.3,262.3,584.4,261.6z M596.7,261.6c0.6-3.8,2.4-7.3,5.4-10.5l1.5,1.1
				c-1.8,1.9-2.8,3.7-2.8,5.2c0.1,0.9,0.7,1.5,1.9,1.8c0.4,0.1,0.7,0.2,1.1,0.4c2,0.9,3,2.5,3,4.7c0,0.8-0.2,1.6-0.5,2.3
				c-0.9,1.9-2.4,2.9-4.4,2.9c-0.7,0-1.4-0.1-2-0.4c-2.2-0.8-3.4-2.7-3.4-5.7C596.5,262.8,596.6,262.3,596.7,261.6z"/>
		</g>
	</g>
	<g>
		<path class="st19" d="M372.5,284.1h50.9c29.1,0,52.8,23.6,52.8,52.8v96.6h-10.3"/>
		<path class="st19" d="M434.1,433.4h-54.6c-29.1,0-52.8-23.6-52.8-52.8v-96.6h11.7"/>
		<path class="st20" d="M379.5,433.4c-29.1,0-52.8-23.6-52.8-52.8v-56.2"/>
		<path class="st20" d="M423.4,284.1c29.1,0,52.8,23.6,52.8,52.8v36"/>
		<g>
			<text transform="matrix(1 0 0 1 355.0202 335.7029)" class="st3 st9 st15 st11">QUOTE</text>
		</g>
		<text transform="matrix(1 0 0 1 373.8229 402.7471)" class="st3 st4 st16">Claire Fisher</text>
		<rect x="351.2" y="351.3" class="st6" width="99.2" height="38.4"/>
		<text transform="matrix(1 0 0 1 352.4878 357.2387)"><tspan x="0" y="0" class="st3 st7 st21">Lorem ipsum dolor sit  diam </tspan><tspan x="3.3" y="11.4" class="st3 st7 st21">nonummy nibh  wisi enim </tspan><tspan x="44" y="22.9" class="st3 st7 st21">ad </tspan></text>
		<g>
			<path class="st22" d="M344.4,284c0.6-3.8,2.4-7.3,5.4-10.5l1.5,1.1c-1.8,1.9-2.8,3.7-2.8,5.2c0,0.9,0.7,1.5,1.9,1.8
				c0.4,0.1,0.7,0.2,1.1,0.4c2,0.9,3,2.5,3,4.7c0,0.8-0.2,1.6-0.5,2.3c-0.9,1.9-2.4,2.9-4.4,2.9c-0.7,0-1.4-0.1-2-0.4
				c-2.2-0.8-3.4-2.7-3.4-5.7C344.3,285.2,344.3,284.6,344.4,284z M356.7,284c0.6-3.8,2.4-7.3,5.4-10.5l1.5,1.1
				c-1.8,1.9-2.8,3.7-2.8,5.2c0.1,0.9,0.7,1.5,1.9,1.8c0.4,0.1,0.7,0.2,1.1,0.4c2,0.9,3,2.5,3,4.7c0,0.8-0.2,1.6-0.5,2.3
				c-0.9,1.9-2.4,2.9-4.4,2.9c-0.7,0-1.4-0.1-2-0.4c-2.2-0.8-3.4-2.7-3.4-5.7C356.6,285.2,356.6,284.6,356.7,284z"/>
		</g>
		<g>
			<path class="st22" d="M460.9,432.1c-0.6,3.8-2.4,7.3-5.4,10.5l-1.5-1.1c1.8-1.9,2.8-3.7,2.8-5.2c0-0.9-0.7-1.5-1.9-1.8
				c-0.4-0.1-0.7-0.2-1.1-0.4c-2-0.9-3-2.5-3-4.7c0-0.8,0.2-1.6,0.5-2.3c0.9-1.9,2.4-2.9,4.4-2.9c0.7,0,1.4,0.1,2,0.4
				c2.2,0.8,3.4,2.7,3.4,5.7C461,430.9,461,431.5,460.9,432.1z M448.6,432.1c-0.6,3.8-2.4,7.3-5.4,10.5l-1.5-1.1
				c1.8-1.9,2.8-3.7,2.8-5.2c-0.1-0.9-0.7-1.5-1.9-1.8c-0.4-0.1-0.7-0.2-1.1-0.4c-2-0.9-3-2.5-3-4.7c0-0.8,0.2-1.6,0.5-2.3
				c0.9-1.9,2.4-2.9,4.4-2.9c0.7,0,1.4,0.1,2,0.4c2.2,0.8,3.4,2.7,3.4,5.7C448.7,430.9,448.7,431.5,448.6,432.1z"/>
		</g>
	</g>
	<g>
		<polyline class="st23" points="442.8,90.7 491.4,90.7 491.4,211.9 378.9,211.9 		"/>
		<polyline class="st23" points="343.9,211.9 265.7,211.9 265.7,90.7 404.4,90.7 		"/>
		<line class="st24" x1="475.9" y1="211.9" x2="400.1" y2="211.9"/>
		<polyline class="st24" points="461.3,90.7 491.4,90.7 491.4,175.2 		"/>
		<polyline class="st24" points="265.7,157.1 265.7,90.7 306.4,90.7 		"/>
		<polyline class="st24" points="331.3,211.9 265.7,211.9 265.7,182.9 		"/>
		<g>
			<text transform="matrix(1 0 0 1 279.5051 130.7644)" class="st3 st9 st15 st11">QUOTE</text>
		</g>
		<g>
			<text transform="matrix(1 0 0 1 401.8127 189.5269)" class="st3 st4 st16">Claire Fisher</text>
		</g>
		<rect x="294" y="145.5" class="st6" width="162" height="28.7"/>
		<text transform="matrix(1 0 0 1 294.0492 151.0192)"><tspan x="0" y="0" class="st3 st7 st25">Lorem ipsum dolor sit amet, consectetuer </tspan><tspan x="0" y="10.6" class="st3 st7 st25">adipiscing elit, sed diam nonummy nibh  wisi </tspan><tspan x="0" y="21.2" class="st3 st7 st25">enim ad minim venia</tspan></text>
		<g>
			<path class="st26" d="M434.8,89.4c-0.6,3.8-2.4,7.3-5.4,10.5l-1.5-1.1c1.8-1.9,2.8-3.7,2.8-5.2c0-0.9-0.7-1.5-1.9-1.8
				c-0.4-0.1-0.7-0.2-1.1-0.4c-2-0.9-3-2.5-3-4.7c0-0.8,0.2-1.6,0.5-2.3c0.9-1.9,2.4-2.9,4.4-2.9c0.7,0,1.4,0.1,2,0.4
				c2.2,0.8,3.4,2.7,3.4,5.7C435,88.2,434.9,88.8,434.8,89.4z M422.5,89.4c-0.6,3.8-2.4,7.3-5.4,10.5l-1.5-1.1
				c1.8-1.9,2.8-3.7,2.8-5.2c-0.1-0.9-0.7-1.5-1.9-1.8c-0.4-0.1-0.7-0.2-1.1-0.4c-2-0.9-3-2.5-3-4.7c0-0.8,0.2-1.6,0.5-2.3
				c0.9-1.9,2.4-2.9,4.4-2.9c0.7,0,1.4,0.1,2,0.4c2.2,0.8,3.4,2.7,3.4,5.7C422.7,88.2,422.6,88.8,422.5,89.4z"/>
		</g>
		<g>
			<path class="st26" d="M349.9,211c0.6-3.8,2.4-7.3,5.4-10.5l1.5,1.1c-1.8,1.9-2.8,3.7-2.8,5.2c0,0.9,0.7,1.5,1.9,1.8
				c0.4,0.1,0.7,0.2,1.1,0.4c2,0.9,3,2.5,3,4.7c0,0.8-0.2,1.6-0.5,2.3c-0.9,1.9-2.4,2.9-4.4,2.9c-0.7,0-1.4-0.1-2-0.4
				c-2.2-0.8-3.4-2.7-3.4-5.7C349.7,212.2,349.8,211.6,349.9,211z M362.2,211c0.6-3.8,2.4-7.3,5.4-10.5l1.5,1.1
				c-1.8,1.9-2.8,3.7-2.8,5.2c0.1,0.9,0.7,1.5,1.9,1.8c0.4,0.1,0.7,0.2,1.1,0.4c2,0.9,3,2.5,3,4.7c0,0.8-0.2,1.6-0.5,2.3
				c-0.9,1.9-2.4,2.9-4.4,2.9c-0.7,0-1.4-0.1-2-0.4c-2.2-0.8-3.4-2.7-3.4-5.7C362,212.2,362,211.6,362.2,211z"/>
		</g>
	</g>
	<g>
		<polyline class="st27" points="193.5,96.9 184.2,80.8 103.4,80.8 63.1,150.7 75.3,171.8 		"/>
		<polyline class="st27" points="92.1,200.9 103.4,220.6 184.2,220.6 224.5,150.7 209.4,124.4 		"/>
		<polyline class="st28" points="124.3,220.6 184.2,220.6 214.2,168.5 		"/>
		<polyline class="st28" points="158.1,80.8 103.4,80.8 72.6,134.1 		"/>
		<g>
			<text transform="matrix(1 0 0 1 96.0181 129.9995)" class="st3 st9 st29 st11">QUOTE</text>
		</g>
		<g>
			<text transform="matrix(1 0 0 1 117.7222 191.2715)" class="st3 st4 st30">Claire Fisher</text>
		</g>
		<rect x="98" y="146" class="st6" width="91.7" height="31.2"/>
		<text transform="matrix(1 0 0 1 102.8115 150.9717)"><tspan x="0" y="0" class="st3 st7 st31">Lorem ipsum dolor sit  diam </tspan><tspan x="-1.6" y="10.4" class="st3 st7 st31">nonummy nibh  wisi enim ad </tspan></text>
		<g>
			<path class="st32" d="M217.8,109.7c-0.6,4-2.5,7.6-5.7,11l-1.6-1.2c1.9-2,2.9-3.8,2.9-5.4c-0.1-0.9-0.7-1.5-2-1.9
				c-0.4-0.1-0.8-0.2-1.2-0.4c-2.1-1-3.1-2.6-3.1-4.9c0-0.9,0.2-1.6,0.6-2.4c1-2,2.5-3,4.6-3c0.7,0,1.4,0.1,2.1,0.4
				c2.3,0.8,3.5,2.8,3.5,6C217.9,108.5,217.9,109.1,217.8,109.7z M205,109.7c-0.6,4-2.5,7.6-5.7,11l-1.6-1.2c1.9-2,2.9-3.8,2.9-5.4
				c-0.1-0.9-0.7-1.5-2-1.9c-0.4-0.1-0.8-0.2-1.2-0.4c-2.1-1-3.1-2.6-3.1-4.9c0-0.9,0.2-1.6,0.6-2.4c1-2,2.5-3,4.6-3
				c0.7,0,1.4,0.1,2.1,0.4c2.3,0.8,3.5,2.8,3.5,6C205.1,108.5,205.1,109.1,205,109.7z"/>
		</g>
		<g>
			<path class="st32" d="M66.8,187.1c0.6-4,2.5-7.6,5.7-11l1.6,1.2c-1.9,2-2.9,3.8-2.9,5.4c0.1,0.9,0.7,1.5,2,1.9
				c0.4,0.1,0.8,0.2,1.2,0.4c2.1,1,3.1,2.6,3.1,4.9c0,0.9-0.2,1.6-0.6,2.4c-1,2-2.5,3-4.6,3c-0.7,0-1.4-0.1-2.1-0.4
				c-2.3-0.8-3.5-2.8-3.5-6C66.7,188.4,66.7,187.7,66.8,187.1z M79.7,187.1c0.6-4,2.5-7.6,5.7-11l1.6,1.2c-1.9,2-2.9,3.8-2.9,5.4
				c0.1,0.9,0.7,1.5,2,1.9c0.4,0.1,0.8,0.2,1.2,0.4c2.1,1,3.1,2.6,3.1,4.9c0,0.9-0.2,1.6-0.6,2.4c-1,2-2.5,3-4.6,3
				c-0.7,0-1.4-0.1-2.1-0.4c-2.3-0.8-3.5-2.8-3.5-6C79.5,188.4,79.6,187.7,79.7,187.1z"/>
		</g>
	</g>
	<g>
		<path class="st33" d="M666,335.3c5.2,9.9,8.1,21.2,8.1,33.1c0,39.4-32,71.4-71.4,71.4c-17.8,0-34-6.5-46.5-17.2"/>
		<path class="st33" d="M536.9,396.2c-3.6-8.5-5.6-17.9-5.6-27.8c0-39.4,32-71.4,71.4-71.4c14.3,0,27.6,4.2,38.7,11.4"/>
		<path class="st34" d="M531.3,368.4c0-39.4,32-71.4,71.4-71.4"/>
		<path class="st34" d="M674.2,368.4c0,39.4-32,71.4-71.4,71.4"/>
		<g>
			<text transform="matrix(1 0 0 1 555.0049 346.5566)" class="st3 st9 st35 st11">QUOTE</text>
		</g>
		<rect x="555.6" y="359.4" class="st6" width="91.4" height="39.9"/>
		<text transform="matrix(1 0 0 1 560.4619 364.3545)"><tspan x="0" y="0" class="st3 st7 st36">Lorem ipsum dolor sit  diam </tspan><tspan x="-1.6" y="11.9" class="st3 st7 st36">nonummy nibh  wisi enim ad </tspan></text>
		<g>
			<text transform="matrix(1 0 0 1 574.4639 406.8242)" class="st3 st4 st37">Claire Fisher</text>
		</g>
		<g>
			<path class="st38" d="M666.4,320.8c-0.6,4-2.5,7.6-5.6,11l-1.6-1.2c1.9-2,2.9-3.8,2.9-5.4c-0.1-0.9-0.7-1.5-2-1.9
				c-0.4-0.1-0.8-0.2-1.2-0.4c-2.1-1-3.1-2.6-3.1-4.8c0-0.8,0.2-1.6,0.6-2.4c1-2,2.5-3,4.6-3c0.7,0,1.4,0.1,2.1,0.4
				c2.3,0.8,3.5,2.8,3.5,6C666.6,319.5,666.5,320.1,666.4,320.8z M653.6,320.8c-0.6,4-2.5,7.6-5.6,11l-1.6-1.2
				c1.9-2,2.9-3.8,2.9-5.4c-0.1-0.9-0.7-1.5-2-1.9c-0.4-0.1-0.8-0.2-1.2-0.4c-2.1-1-3.1-2.6-3.1-4.8c0-0.8,0.2-1.6,0.6-2.4
				c1-2,2.5-3,4.6-3c0.7,0,1.4,0.1,2.1,0.4c2.3,0.8,3.5,2.8,3.5,6C653.8,319.5,653.7,320.1,653.6,320.8z"/>
		</g>
		<g>
			<path class="st38" d="M533.3,411c0.6-4,2.5-7.6,5.6-11l1.6,1.2c-1.9,2-2.9,3.8-2.9,5.4c0.1,0.9,0.7,1.5,2,1.9
				c0.4,0.1,0.8,0.2,1.2,0.4c2.1,1,3.1,2.6,3.1,4.8c0,0.8-0.2,1.6-0.6,2.4c-1,2-2.5,3-4.6,3c-0.7,0-1.4-0.1-2.1-0.4
				c-2.3-0.8-3.5-2.8-3.5-6C533.1,412.2,533.2,411.6,533.3,411z M546.1,411c0.6-4,2.5-7.6,5.6-11l1.6,1.2c-1.9,2-2.9,3.8-2.9,5.4
				c0.1,0.9,0.7,1.5,2,1.9c0.4,0.1,0.8,0.2,1.2,0.4c2.1,1,3.1,2.6,3.1,4.8c0,0.8-0.2,1.6-0.6,2.4c-1,2-2.5,3-4.6,3
				c-0.7,0-1.4-0.1-2.1-0.4c-2.3-0.8-3.5-2.8-3.5-6C545.9,412.2,546,411.6,546.1,411z"/>
		</g>
	</g>
</g>
</svg>
